<svg width="1400" height="800" viewBox="0 0 1400 800" xmlns="http://www.w3.org/2000/svg" xmlns:xlink="http://www.w3.org/1999/xlink"><title>Header</title><desc>Created using Figma</desc><g transform="matrix(2 0 0 2 -11882 2606)"><clipPath id="a" clip-rule="evenodd"><path d="M5941-1303h700v400h-700v-400z" fill="#FFF"/></clipPath><g clip-path="url(#a)"><path d="M5941-1303h700v400h-700v-400z" fill="#FFF"/><mask id="c"><use xlink:href="#b" fill="#fff" transform="translate(6187 -1170)"/></mask><g mask="url(#c)"><use xlink:href="#d" transform="translate(6187 -1170)"/></g><use xlink:href="#e" transform="matrix(1 0 0 -1 6204.71 -1097.81)"/><mask id="f"><use xlink:href="#b" fill="#fff" transform="translate(6413 -1170)"/></mask><g mask="url(#f)"><use xlink:href="#d" transform="translate(6413 -1170)"/></g><use xlink:href="#e" transform="matrix(1 0 0 -1 6430.71 -1097.81)"/><mask id="g"><use xlink:href="#b" fill="#fff" transform="translate(5961 -1020)"/></mask><g mask="url(#g)"><use xlink:href="#d" transform="translate(5961 -1020)"/></g><use xlink:href="#e" transform="matrix(1 0 0 -1 5978.71 -947.812)"/><mask id="h"><use xlink:href="#b" fill="#fff" transform="translate(6525 -1171)"/></mask><g mask="url(#h)"><use xlink:href="#d" transform="translate(6525 -1171)"/></g><use xlink:href="#e" transform="matrix(1 0 0 -1 6542.71 -1098.81)"/><mask id="i"><use xlink:href="#b" fill="#fff" transform="translate(6299.89 -1170.38)"/></mask><g mask="url(#i)"><use xlink:href="#d" transform="translate(6299.89 -1170.38)"/></g><use xlink:href="#j" transform="matrix(1 0 0 -1 6317.72 -1105.69)"/><mask id="k"><use xlink:href="#b" fill="#fff" transform="translate(5962 -1170)"/></mask><g mask="url(#k)"><use xlink:href="#d" transform="translate(5962 -1170)"/></g><g><use xlink:href="#l" transform="matrix(1 0 0 -1 5979.83 -1105.31)"/></g><g><mask id="m"><use xlink:href="#b" fill="#fff" transform="translate(6074.63 -1170.38)"/></mask><g mask="url(#m)"><use xlink:href="#d" transform="translate(6074.63 -1170.38)"/></g><g><use xlink:href="#l" transform="matrix(1 0 0 -1 6092.46 -1105.69)"/></g></g><g><mask id="n"><use xlink:href="#b" fill="#fff" transform="translate(5962 -1281)"/></mask><g mask="url(#n)"><use xlink:href="#d" transform="translate(5962 -1281)"/></g><g><use xlink:href="#l" transform="matrix(1 0 0 -1 5979.83 -1216.31)"/></g></g><g><mask id="o"><use xlink:href="#b" fill="#fff" transform="translate(6074.63 -1281)"/></mask><g mask="url(#o)"><use xlink:href="#d" transform="translate(6074.63 -1281)"/></g><g><use xlink:href="#l" transform="matrix(1 0 0 -1 6092.46 -1216.31)"/></g></g><g><mask id="p"><use xlink:href="#b" fill="#fff" transform="translate(6187.26 -1281)"/></mask><g mask="url(#p)"><use xlink:href="#d" transform="translate(6187.26 -1281)"/></g><g><use xlink:href="#l" transform="matrix(1 0 0 -1 6205.09 -1216.31)"/></g></g><g><mask id="q"><use xlink:href="#b" fill="#fff" transform="translate(6299.89 -1281)"/></mask><g mask="url(#q)"><use xlink:href="#d" transform="translate(6299.89 -1281)"/></g><g><use xlink:href="#l" transform="matrix(1 0 0 -1 6317.72 -1216.31)"/></g></g><g><mask id="r"><use xlink:href="#b" fill="#fff" transform="translate(6412.51 -1281)"/></mask><g mask="url(#r)"><use xlink:href="#d" transform="translate(6412.51 -1281)"/></g><g><use xlink:href="#l" transform="matrix(1 0 0 -1 6430.35 -1216.31)"/></g></g><g><mask id="s"><use xlink:href="#b" fill="#fff" transform="translate(6525.14 -1281)"/></mask><g mask="url(#s)"><use xlink:href="#d" transform="translate(6525.14 -1281)"/></g><g><use xlink:href="#l" transform="matrix(1 0 0 -1 6542.98 -1216.31)"/></g></g><g><use xlink:href="#e" transform="translate(6093 -956)"/><mask id="t"><use xlink:href="#b" fill="#fff" transform="translate(6074.63 -1019.75)"/></mask><g mask="url(#t)"><use xlink:href="#d" transform="translate(6074.63 -1019.75)"/></g></g><g><use xlink:href="#e" transform="translate(6205.37 -956.25)"/><mask id="u"><use xlink:href="#b" fill="#fff" transform="translate(6187 -1020)"/></mask><g mask="url(#u)"><use xlink:href="#d" transform="translate(6187 -1020)"/></g></g><g><use xlink:href="#e" transform="translate(6318.37 -956.25)"/><mask id="v"><use xlink:href="#b" fill="#fff" transform="translate(6300 -1020)"/></mask><g mask="url(#v)"><use xlink:href="#d" transform="translate(6300 -1020)"/></g></g><g><mask id="x"><use xlink:href="#w" fill="#fff" transform="translate(6432.37 -956.25)"/></mask><g mask="url(#x)"><use xlink:href="#y" transform="translate(6432.37 -956.25)"/></g><g><mask id="z"><use xlink:href="#b" fill="#fff" transform="translate(6414 -1020)"/></mask><g mask="url(#z)"><use xlink:href="#d" transform="translate(6414 -1020)"/></g></g></g></g></g><defs><path id="b" d="M93.857 46.875c0 25.888-21.01 46.875-46.928 46.875C21.01 93.75 0 72.763 0 46.875S21.01 0 46.929 0c25.918 0 46.928 20.987 46.928 46.875z"/><path id="d" d="M91.857 46.875c0 24.782-20.113 44.875-44.928 44.875v4c27.02 0 48.928-21.88 48.928-48.875h-4zM46.93 91.75C22.113 91.75 2 71.657 2 46.875h-4C-2 73.87 19.908 95.75 46.929 95.75v-4zM2 46.875C2 22.093 22.113 2 46.929 2v-4C19.909-2-2 19.88-2 46.875h4zM46.929 2c24.815 0 44.928 20.093 44.928 44.875h4C95.857 19.88 73.95-2 46.93-2v4z"/><path id="e" d="M57.603-.542c-6.003 9.314-16.471 15.48-28.381 15.48v2c12.617 0 23.706-6.535 30.062-16.396L57.603-.542zm-28.381 15.48c-11.91 0-22.38-6.166-28.381-15.48L-.841.542c6.356 9.861 17.445 16.396 30.063 16.396v-2z"/><path id="j" d="M56.412-.542c-1.426 2.213-2.985 3.23-4.663 3.612-1.733.395-3.72.145-6.047-.444C41.182 1.482 35.392-1 29.096-1v2c5.968 0 11.167 2.312 16.115 3.565 2.407.61 4.773.958 6.983.455 2.264-.516 4.236-1.897 5.9-4.478L56.411-.542zM29.096-1c-6.288 0-12.312 2.477-17.064 3.623-2.447.59-4.559.845-6.39.445C3.866 2.68 2.256 1.657.84-.542L-.841.542C.832 3.137 2.871 4.51 5.215 5.022c2.287.499 4.763.154 7.286-.455C17.686 3.317 23.119 1 29.096 1v-2z"/><path id="l" d="M57.253-1H29.096v2h28.157v-2zM29.096-1H0v2h29.096v-2z"/><path id="w" d="M29.222 15.938c12.263 0 23.042-6.35 29.221-15.938H0c6.179 9.588 16.958 15.938 29.222 15.938z"/><path id="y" d="M58.443 0l1.681 1.083L62.111-2h-3.668v2zM0 0v-2h-3.668l1.987 3.083L0 0zm56.762-1.083c-5.826 9.04-15.984 15.02-27.54 15.02v4c12.97 0 24.37-6.718 30.902-16.854l-3.362-2.166zm-27.54 15.02c-11.557 0-21.715-5.98-27.54-15.02l-3.363 2.166C4.85 11.22 16.25 17.937 29.222 17.937v-4zM0 2h58.443v-4H0v4z"/></defs></svg>