<svg width="700" height="400" viewBox="0 0 700 400" xmlns="http://www.w3.org/2000/svg" xmlns:xlink="http://www.w3.org/1999/xlink"><title>Thirteen</title><desc>Created using Figma</desc><g transform="translate(-8551 282)"><clipPath id="a" clip-rule="evenodd"><path d="M8551-282h700v400h-700v-400z" fill="#FFF"/></clipPath><g clip-path="url(#a)"><path d="M8551-282h700v400h-700v-400z" fill="#FFF"/><use xlink:href="#b" transform="matrix(0 1 1 0 8628 -231)" fill="#C4C4C4"/><use xlink:href="#c" transform="matrix(1 0 0 1 8604 -82)" fill="#C4C4C4"/><use xlink:href="#d" transform="translate(8592 -255)"/><use xlink:href="#e" transform="translate(8595 68)"/><use xlink:href="#f" transform="translate(9174 -73)"/><use xlink:href="#g" transform="translate(8606 -205.5)"/><use xlink:href="#h" transform="translate(8639 -274)" fill="#219653"/><mask id="j"><use xlink:href="#i" transform="translate(8685.22 -236)" fill="#C4C4C4"/></mask><g mask="url(#j)"><use xlink:href="#k" transform="matrix(0 1 1 0 8692.3 -246)" fill="#219653"/></g><use xlink:href="#h" transform="translate(8812 -264)" fill="#219653"/><mask id="l"><use xlink:href="#i" transform="translate(8859 -236)" fill="#C4C4C4"/></mask><g mask="url(#l)"><use xlink:href="#k" transform="matrix(0 1 1 0 8866.08 -246)" fill="#219653"/></g><use xlink:href="#m" transform="translate(9024 73)" fill="#BDBDBD"/><mask id="n"><use xlink:href="#i" transform="translate(8944.22 -235)" fill="#C4C4C4"/></mask><g mask="url(#n)"><use xlink:href="#o" transform="matrix(0 1 1 0 8951.3 -245)" fill="#BDBDBD"/></g><mask id="p"><use xlink:href="#i" transform="translate(8985 -235)" fill="#C4C4C4"/></mask><g mask="url(#p)"><use xlink:href="#o" transform="matrix(0 1 1 0 8992.08 -245)" fill="#BDBDBD"/></g><mask id="q"><use xlink:href="#i" transform="translate(9029 -235)" fill="#C4C4C4"/></mask><g mask="url(#q)"><use xlink:href="#o" transform="matrix(0 1 1 0 9036.08 -245)" fill="#BDBDBD"/></g><mask id="r"><use xlink:href="#i" transform="translate(9073 -235)" fill="#C4C4C4"/></mask><g mask="url(#r)"><use xlink:href="#o" transform="matrix(0 1 1 0 9080.08 -245)" fill="#BDBDBD"/></g><g><mask id="s"><use xlink:href="#i" transform="translate(9117 -232)" fill="#C4C4C4"/></mask><g mask="url(#s)"><use xlink:href="#o" transform="matrix(0 1 1 0 9124.08 -242)" fill="#BDBDBD"/></g></g><g><mask id="t"><use xlink:href="#i" transform="translate(9161 -229)" fill="#C4C4C4"/></mask><g mask="url(#t)"><use xlink:href="#o" transform="matrix(0 1 1 0 9168.08 -239)" fill="#BDBDBD"/></g></g><g><mask id="u"><use xlink:href="#i" transform="translate(9205 -226)" fill="#C4C4C4"/></mask><g mask="url(#u)"><use xlink:href="#o" transform="matrix(0 1 1 0 9212.08 -236)" fill="#BDBDBD"/></g></g><g><mask id="w"><use xlink:href="#v" transform="translate(8818 -235)" fill="#C4C4C4"/></mask><g mask="url(#w)"><use xlink:href="#k" transform="matrix(0 1 1 0 8831 -245)" fill="#56CCF2"/></g></g><g><use xlink:href="#x" transform="translate(8767 76)" fill="#56CCF2"/></g></g></g><defs><path id="b" d="M-1.06-1.06a1.5 1.5 0 0 0 0 2.12l9.545 9.547a1.5 1.5 0 1 0 2.122-2.122L2.12 0l8.486-8.485a1.5 1.5 0 1 0-2.122-2.122L-1.06-1.06zM300.06 1.06a1.501 1.501 0 0 0 0-2.12l-9.546-9.547a1.5 1.5 0 0 0-2.122 2.122L296.879 0l-8.486 8.485a1.501 1.501 0 0 0 2.122 2.122l9.546-9.546zM0 1.5h299v-3H0v3z"/><path id="c" d="M-1.06-1.06a1.5 1.5 0 0 0 0 2.12l9.545 9.547a1.5 1.5 0 1 0 2.122-2.122L2.12 0l8.486-8.485a1.5 1.5 0 1 0-2.122-2.122L-1.06-1.06zM595.06 1.06a1.501 1.501 0 0 0 0-2.12l-9.546-9.547a1.5 1.5 0 0 0-2.122 2.122L591.879 0l-8.486 8.485a1.501 1.501 0 0 0 2.122 2.122l9.546-9.546zM0 1.5h594v-3H0v3z"/><path id="d" d="M.229 15.146c0-.455.063-.92.19-1.394.138-.474.32-.934.548-1.38.237-.447.515-.871.834-1.272a6.11 6.11 0 0 1 1.08-1.04 4.97 4.97 0 0 1 1.271-.697c.456-.173.925-.26 1.409-.26.21 0 .478.023.806.069.337.045.661.123.97.232.32.11.589.256.808.438.227.173.341.383.341.629a.121.121 0 0 1-.013.054v.041a.121.121 0 0 0-.014.055 2.031 2.031 0 0 1-.137.164 1.32 1.32 0 0 1-.15.137.152.152 0 0 1-.068.013.256.256 0 0 1-.165 0 .121.121 0 0 1-.054-.013 5.01 5.01 0 0 0-.328-.164 30.894 30.894 0 0 0-1.121-.56 4.974 4.974 0 0 0-.329-.165.45.45 0 0 1-.109-.013h-.082a.225.225 0 0 0-.068-.014c-.429 0-.839.077-1.23.232-.393.155-.753.37-1.08.643a5.471 5.471 0 0 0-.89.943 6.82 6.82 0 0 0-.683 1.135 6.416 6.416 0 0 0-.424 1.217c-.091.41-.137.811-.137 1.203 0 .51.082.966.246 1.367.164.401.392.738.684 1.012.292.264.638.465 1.039.601.41.137.852.205 1.326.205.274 0 .61-.036 1.012-.109a4.94 4.94 0 0 0 1.148-.355c.374-.165.689-.374.944-.63.255-.264.383-.587.383-.97a.745.745 0 0 0-.069-.355.391.391 0 0 0-.191-.192.612.612 0 0 0-.301-.068 4.823 4.823 0 0 0-.37-.014c-.2 0-.373.032-.519.096a4.9 4.9 0 0 0-.437.219 3.714 3.714 0 0 1-.424.218c-.137.064-.3.096-.492.096-.237 0-.424-.037-.56-.11-.137-.072-.206-.24-.206-.505 0-.255.091-.46.274-.615a1.92 1.92 0 0 1 .67-.37c.264-.082.537-.136.82-.164.282-.027.515-.04.697-.04.328 0 .634.027.916.081.283.046.524.137.725.274.21.127.369.31.478.547.11.227.164.524.164.888 0 .565-.155 1.058-.465 1.477-.31.41-.701.747-1.175 1.012-.465.264-.971.464-1.518.601a6.537 6.537 0 0 1-1.504.192 4.75 4.75 0 0 1-1.818-.342 4.108 4.108 0 0 1-1.408-.957 4.534 4.534 0 0 1-.916-1.477 5.14 5.14 0 0 1-.328-1.846zm9.953 2.079c0-.566.132-1.09.396-1.573.264-.492.61-.911 1.04-1.257a5.167 5.167 0 0 1 1.462-.835c.547-.2 1.098-.3 1.654-.3.31 0 .584.1.82.3.247.201.452.447.616.739.164.282.287.583.37.902.09.32.136.597.136.834 0 .51-.123 1.007-.37 1.49a4.81 4.81 0 0 1-.956 1.272c-.392.364-.834.66-1.327.889a3.488 3.488 0 0 1-1.476.341c-.438 0-.807-.073-1.107-.218a2.054 2.054 0 0 1-.725-.602 2.747 2.747 0 0 1-.41-.889 4.735 4.735 0 0 1-.123-1.093zm1.162.136c0 .237.018.447.054.63.046.172.119.323.22.45.109.128.25.228.423.301.173.064.387.096.643.096.337 0 .674-.091 1.011-.274.338-.191.638-.428.903-.71a3.73 3.73 0 0 0 .656-.957c.164-.347.246-.684.246-1.012a3.09 3.09 0 0 0-.041-.479 1.95 1.95 0 0 0-.137-.478 1.004 1.004 0 0 0-.273-.37.674.674 0 0 0-.451-.15c-.164 0-.36.055-.588.164-.219.11-.451.25-.697.424a8.06 8.06 0 0 0-.711.588 10.45 10.45 0 0 0-.63.656 4.259 4.259 0 0 0-.464.63c-.11.2-.164.364-.164.491zm5.865-.136c0-.566.132-1.09.396-1.573.265-.492.611-.911 1.04-1.257a5.168 5.168 0 0 1 1.462-.835c.547-.2 1.099-.3 1.655-.3.31 0 .583.1.82.3.246.201.451.447.615.739.164.282.287.583.37.902.09.32.136.597.136.834 0 .51-.123 1.007-.369 1.49a4.81 4.81 0 0 1-.957 1.272c-.392.364-.834.66-1.326.889a3.488 3.488 0 0 1-1.477.341c-.437 0-.806-.073-1.107-.218a2.054 2.054 0 0 1-.725-.602 2.747 2.747 0 0 1-.41-.889 4.735 4.735 0 0 1-.123-1.093zm1.162.136c0 .237.018.447.055.63.045.172.118.323.219.45.109.128.25.228.423.301.173.064.388.096.643.096.337 0 .674-.091 1.012-.274.337-.191.638-.428.902-.71.273-.292.492-.611.656-.957.164-.347.246-.684.246-1.012 0-.146-.013-.306-.04-.479a1.946 1.946 0 0 0-.137-.478 1.003 1.003 0 0 0-.274-.37.674.674 0 0 0-.451-.15c-.164 0-.36.055-.588.164a5.49 5.49 0 0 0-.697.424 8.09 8.09 0 0 0-.711.588 10.45 10.45 0 0 0-.629.656 4.258 4.258 0 0 0-.465.63c-.11.2-.164.364-.164.491zm5.565 1.026c0-.529.132-.998.396-1.409.264-.41.592-.765.984-1.066a6.26 6.26 0 0 1 1.272-.78c.456-.218.88-.396 1.271-.532.392-.146.72-.26.985-.342.264-.091.396-.164.396-.219 0-.319-.018-.629-.054-.93-.028-.31-.06-.62-.096-.93l-.11-.915c-.027-.31-.04-.616-.04-.916v-.889c.373-.137.637-.123.792.041.165.164.192.447.082.848.037.2.087.515.15.943.065.428.133.912.206 1.45.082.537.164 1.102.246 1.694.091.593.173 1.163.246 1.71.082.537.15 1.02.205 1.449l.123.943c.01.046.019.137.028.274.009.127.013.268.013.423.01.146.014.283.014.41.009.128.014.22.014.274-.347 0-.584-.014-.711-.041-.119-.027-.196-.082-.233-.164a1.184 1.184 0 0 1-.04-.356c0-.154-.046-.369-.137-.642a8.213 8.213 0 0 1-.957.656c-.301.173-.602.315-.903.424-.3.1-.606.168-.916.205-.3.046-.624.068-.97.068-.292 0-.575-.022-.848-.068a2.22 2.22 0 0 1-.711-.273c-.21-.128-.378-.301-.506-.52-.128-.219-.191-.492-.191-.82zm1.189-.287c0 .145.032.264.096.355a.859.859 0 0 0 .246.233c.1.063.205.109.314.136.119.018.233.028.342.028.32 0 .66-.06 1.025-.178a4.02 4.02 0 0 0 1.026-.52c.319-.228.579-.496.78-.806.209-.31.314-.647.314-1.012 0-.283-.05-.479-.15-.588-.101-.11-.292-.164-.575-.164-.292 0-.633.068-1.025.205a5.787 5.787 0 0 0-1.122.547 3.667 3.667 0 0 0-.902.807c-.246.3-.369.62-.369.957zm18.607 3.171a20.83 20.83 0 0 1-.642-1.326l-.711-1.668a32.482 32.482 0 0 0-.78-1.709 11.608 11.608 0 0 0-.806-1.449.881.881 0 0 0-.451-.15 4.343 4.343 0 0 0-.602-.014c-.21 0-.419-.005-.629-.014a1.4 1.4 0 0 1-.533-.15.76.76 0 0 1-.328-.383c-.073-.173-.087-.424-.041-.752h2.297c.045-.51.123-1.016.232-1.517.11-.502.255-.98.438-1.436.191-.456.42-.88.683-1.271a4.21 4.21 0 0 1 .957-1.012 4.526 4.526 0 0 1 1.286-.67 5.26 5.26 0 0 1 1.668-.246c.218 0 .437.055.656.164.218.1.414.237.588.41.173.173.31.37.41.588.11.219.164.438.164.656-.173 0-.328-.032-.465-.095a5.646 5.646 0 0 1-.396-.233 3.055 3.055 0 0 0-.41-.246.986.986 0 0 0-.493-.123 3.61 3.61 0 0 0-1.531.328c-.465.219-.875.51-1.23.875a4.12 4.12 0 0 0-.82 1.272c-.201.483-.302.993-.302 1.53v.206c.01.091.014.191.014.3v.315c.01.1.014.169.014.205.337.11.715.192 1.134.246.42.055.84.091 1.258.11.429.009.839.004 1.23-.014.402-.018.757-.041 1.067-.068l.15.15a.458.458 0 0 1 .124.164c0 .027.004.046.013.055l.028.082c0 .191-.1.342-.301.451-.2.11-.456.191-.766.246-.31.046-.656.078-1.039.096-.373.018-.738.036-1.094.055-.346.009-.66.027-.943.054-.273.018-.465.06-.574.123.118.547.328 1.076.629 1.586.31.51.624 1.021.943 1.531.32.51.602 1.026.848 1.545.246.52.369 1.053.369 1.6h-.26c-.127.01-.264.005-.41-.014a1.407 1.407 0 0 1-.424-.123c-.127-.054-.2-.141-.219-.26zM47.82 16.2c0-.492.06-.984.178-1.476.119-.493.305-.935.56-1.327a3.174 3.174 0 0 1 1.012-.957c.42-.246.925-.369 1.518-.369.337 0 .633.064.889.192.255.118.469.278.642.478.173.2.3.438.383.711.091.264.137.542.137.834 0 .465-.11.916-.329 1.354a3.82 3.82 0 0 1-.86 1.162 3.697 3.697 0 0 1-1.231.752c-.465.164-.94.2-1.422.11.009.263.096.478.26.642.173.155.378.273.615.355.237.082.483.137.738.164.255.018.483.028.684.028a3 3 0 0 0 .588-.055 11.8 11.8 0 0 0 .546-.123 11.8 11.8 0 0 1 .547-.123c.192-.037.392-.055.602-.055.082 0 .164.005.246.014.082.009.16.032.233.068a.355.355 0 0 1 .177.15.413.413 0 0 1 .069.247.574.574 0 0 1-.192.437c-.127.11-.291.205-.492.287a3.127 3.127 0 0 1-.643.192c-.237.036-.469.068-.697.095a7.401 7.401 0 0 1-.615.028c-.182.009-.32.013-.41.013a4.277 4.277 0 0 1-1.572-.273 3.444 3.444 0 0 1-1.176-.78 3.512 3.512 0 0 1-.739-1.203 4.78 4.78 0 0 1-.246-1.572zm1.45-.889c0 .32.04.552.123.698.09.146.305.219.642.219.237 0 .47-.041.697-.123a2.21 2.21 0 0 0 .616-.37c.191-.155.342-.337.45-.546.11-.21.165-.438.165-.684 0-.137-.014-.278-.041-.424a.98.98 0 0 0-.137-.396.829.829 0 0 0-.287-.301.712.712 0 0 0-.438-.123c-.273 0-.524.064-.751.191a1.764 1.764 0 0 0-.561.479c-.155.191-.273.41-.355.656a2.2 2.2 0 0 0-.123.724zm6.18.89c0-.493.058-.985.177-1.477.118-.493.305-.935.56-1.327a3.174 3.174 0 0 1 1.012-.957c.42-.246.925-.369 1.518-.369.337 0 .633.064.889.192.255.118.469.278.642.478.173.2.3.438.383.711.091.264.137.542.137.834 0 .465-.11.916-.328 1.354-.21.437-.497.825-.862 1.162a3.697 3.697 0 0 1-1.23.752c-.465.164-.94.2-1.422.11.009.263.096.478.26.642.173.155.378.273.615.355.237.082.483.137.738.164.255.018.483.028.684.028a3 3 0 0 0 .587-.055 11.8 11.8 0 0 0 .547-.123 11.8 11.8 0 0 1 .547-.123c.192-.037.392-.055.602-.055.082 0 .164.005.246.014.082.009.16.032.232.068a.355.355 0 0 1 .178.15.413.413 0 0 1 .069.247.574.574 0 0 1-.192.437c-.128.11-.292.205-.492.287a3.127 3.127 0 0 1-.643.192c-.237.036-.47.068-.697.095a7.401 7.401 0 0 1-.615.028c-.182.009-.32.013-.41.013a4.277 4.277 0 0 1-1.573-.273 3.444 3.444 0 0 1-1.175-.78 3.512 3.512 0 0 1-.739-1.203 4.78 4.78 0 0 1-.246-1.572zm1.448-.89c0 .32.041.552.123.698.092.146.306.219.643.219.237 0 .47-.041.697-.123a2.21 2.21 0 0 0 .616-.37c.191-.155.341-.337.45-.546.11-.21.165-.438.165-.684 0-.137-.014-.278-.041-.424a.978.978 0 0 0-.137-.396.83.83 0 0 0-.287-.301.712.712 0 0 0-.438-.123c-.273 0-.524.064-.752.191a1.764 1.764 0 0 0-.56.479c-.155.191-.274.41-.355.656a2.202 2.202 0 0 0-.124.724zm6.508-3.048c0-.265-.018-.52-.054-.766a2.873 2.873 0 0 1-.028-.67c.018-.2.087-.36.205-.478.128-.119.356-.178.684-.178.1.21.196.529.287.957.1.428.196.92.287 1.476.091.556.178 1.163.26 1.819.082.647.155 1.299.219 1.955.072.656.132 1.303.177 1.941.055.63.096 1.203.123 1.723-.3.2-.542.214-.724.041-.183-.173-.333-.465-.451-.875a9.333 9.333 0 0 1-.274-1.518c-.064-.601-.127-1.22-.191-1.859a40.486 40.486 0 0 0-.205-1.9 13.319 13.319 0 0 0-.315-1.668zm5.496 7.123c.146-.1.32-.228.52-.383.21-.164.42-.337.629-.52a7.02 7.02 0 0 0 .588-.574c.182-.2.323-.392.424-.574.109-.191.164-.37.164-.533 0-.164-.083-.301-.246-.41-.292 0-.611.013-.958.04-.346.019-.692.028-1.039.028a7.313 7.313 0 0 1-1.011-.096 2.61 2.61 0 0 1-.862-.3 1.66 1.66 0 0 1-.615-.616c-.146-.273-.219-.62-.219-1.039 0-.492.091-.934.274-1.326.191-.401.442-.752.752-1.053.31-.31.656-.579 1.039-.806a8.969 8.969 0 0 1 1.176-.602c.237.064.455.178.656.342.2.164.373.346.52.547a.802.802 0 0 1-.383.465c-.183.109-.397.205-.643.287l-.752.26a2.858 2.858 0 0 0-.725.369c-.21.146-.387.341-.533.588-.146.237-.219.55-.219.943 0 .291.073.506.22.643.145.136.336.232.573.287a3.7 3.7 0 0 0 .807.054c.3-.018.606-.04.916-.068.32-.027.629-.041.93-.041.3-.01.57.027.806.11.237.072.424.195.561.368.146.174.219.429.219.766 0 .146-.05.333-.15.56a4.794 4.794 0 0 1-.383.739c-.155.255-.342.51-.561.765-.21.256-.433.488-.67.698-.228.2-.46.369-.697.506a1.324 1.324 0 0 1-.643.191c-.191 0-.319-.068-.383-.205a1.097 1.097 0 0 1-.082-.41z"/><path id="e" d="M.728 9.8c.109-.555.31-.993.601-1.312a2.23 2.23 0 0 1 .998-.67 2.714 2.714 0 0 1 1.217-.082c.437.055.848.187 1.23.397.392.21.734.483 1.026.82.291.328.497.707.615 1.135.119.42.119.875 0 1.367-.118.492-.387.998-.807 1.518.329.118.634.237.916.355.283.119.52.264.711.438.2.173.356.382.465.629.11.246.164.551.164.915 0 .301-.054.62-.164.958-.11.337-.264.67-.465.998a6.035 6.035 0 0 1-1.517 1.722c-.301.228-.61.41-.93.547-.31.128-.615.192-.916.192-.2 0-.396-.128-.588-.383a5.075 5.075 0 0 1-.56-1.012 15.06 15.06 0 0 1-.534-1.45 28.576 28.576 0 0 1-.478-1.695 47.398 47.398 0 0 1-.397-1.75 95.458 95.458 0 0 1-.314-1.613c-.082-.492-.15-.916-.205-1.271A7.275 7.275 0 0 1 .728 9.8zm2.433 5.92c0 .156.037.36.11.616.072.255.164.51.273.766.118.255.246.492.383.71.136.21.282.351.437.424.128.073.278.069.451-.013.174-.091.347-.228.52-.41.182-.192.355-.406.52-.643a9.01 9.01 0 0 0 .437-.725c.137-.237.242-.455.314-.656.082-.21.123-.37.123-.479a1.45 1.45 0 0 0-.095-.574.83.83 0 0 0-.287-.369 1.065 1.065 0 0 0-.438-.191 2.523 2.523 0 0 0-.547-.055c-.228 0-.47.037-.724.11a2.77 2.77 0 0 0-.711.314c-.21.137-.392.305-.547.506-.146.2-.219.424-.219.67zm-.875-4.648c0 .164-.004.37-.014.616-.009.236-.009.483 0 .738.01.255.037.51.082.765.046.256.128.474.247.657a2.942 2.942 0 0 0 1.162-.465 2.91 2.91 0 0 0 .806-.793c.21-.31.36-.638.452-.985.09-.346.123-.683.095-1.011a2.277 2.277 0 0 0-.232-.903 1.423 1.423 0 0 0-.547-.629c-.237-.154-.524-.232-.861-.232-.338 0-.725.11-1.163.328 0 .073-.004.2-.013.383 0 .182-.005.374-.014.574v.957zm12.332 7.164c-.346.237-.647.451-.902.643a6.021 6.021 0 0 1-.725.465 3.086 3.086 0 0 1-.765.287 4.277 4.277 0 0 1-.985.096c-.847 0-1.476-.224-1.887-.67-.41-.456-.615-1.13-.615-2.024 0-.346.046-.706.137-1.08.091-.374.223-.743.396-1.107.183-.374.397-.725.643-1.053.246-.337.524-.633.834-.889a3.97 3.97 0 0 1 .984-.601c.356-.155.73-.233 1.121-.233.657.064 1.172.228 1.545.492.374.256.657.588.848.998.191.402.324.853.397 1.354.072.492.127 1.003.164 1.531.045.529.1 1.058.164 1.586.063.529.196 1.017.396 1.463-.118.3-.232.51-.342.629-.1.128-.214.15-.341.068-.128-.082-.278-.282-.452-.601a20.8 20.8 0 0 1-.615-1.354zm-4.717-1.175c0 .52.096.902.287 1.148.201.237.552.355 1.053.355.374 0 .73-.063 1.067-.191.346-.137.647-.319.902-.547.255-.237.46-.52.615-.848a2.53 2.53 0 0 0 .233-1.093c0-.164.004-.392.013-.684.01-.3-.009-.597-.054-.889a2.038 2.038 0 0 0-.26-.752.623.623 0 0 0-.574-.328c-.474 0-.912.123-1.313.37a3.688 3.688 0 0 0-1.039.916c-.292.373-.52.788-.683 1.244-.165.446-.247.88-.247 1.299zm7.028 1.326c0-.529.132-.998.396-1.409.265-.41.593-.765.985-1.066.392-.31.815-.57 1.271-.78.456-.218.88-.396 1.271-.532.392-.146.72-.26.985-.342.264-.091.396-.164.396-.219 0-.319-.018-.629-.054-.93-.028-.31-.06-.62-.096-.93-.036-.31-.073-.614-.11-.915-.027-.31-.04-.616-.04-.916v-.889c.373-.137.638-.123.793.041.164.164.191.447.082.848.036.2.086.515.15.943.064.428.132.912.205 1.45.082.537.164 1.102.246 1.694.091.593.173 1.163.246 1.71.082.537.15 1.02.205 1.449l.123.943c.01.046.019.137.028.274.009.127.013.268.013.423.01.146.014.283.014.41.01.128.014.22.014.274-.347 0-.584-.014-.711-.041-.119-.027-.196-.082-.233-.164a1.184 1.184 0 0 1-.04-.356c0-.154-.046-.369-.137-.642a8.213 8.213 0 0 1-.957.656 5.74 5.74 0 0 1-.903.424c-.3.1-.606.168-.916.205-.3.046-.624.068-.97.068-.292 0-.575-.022-.848-.068a2.22 2.22 0 0 1-.711-.273c-.21-.128-.378-.301-.506-.52-.128-.219-.191-.492-.191-.82zm1.19-.287c0 .145.031.264.095.355a.859.859 0 0 0 .246.233c.1.063.205.109.314.136.119.018.233.028.342.028.32 0 .661-.06 1.026-.178a4.02 4.02 0 0 0 1.025-.52c.319-.228.579-.496.78-.806.209-.31.314-.647.314-1.012 0-.283-.05-.479-.15-.588-.1-.11-.292-.164-.575-.164-.292 0-.633.068-1.025.205a5.787 5.787 0 0 0-1.121.547 3.669 3.669 0 0 0-.903.807c-.246.3-.369.62-.369.957zm18.607 3.171a20.83 20.83 0 0 1-.643-1.326l-.71-1.668a32.482 32.482 0 0 0-.78-1.709 11.595 11.595 0 0 0-.807-1.449.88.88 0 0 0-.451-.15 4.344 4.344 0 0 0-.602-.014c-.21 0-.419-.005-.628-.014a1.399 1.399 0 0 1-.534-.15.76.76 0 0 1-.328-.383c-.073-.173-.086-.424-.04-.752h2.296c.046-.51.123-1.016.232-1.517.11-.502.256-.98.438-1.436.191-.456.42-.88.684-1.271.264-.392.583-.73.957-1.012a4.527 4.527 0 0 1 1.285-.67 5.26 5.26 0 0 1 1.668-.246c.218 0 .437.055.656.164.219.1.415.237.588.41s.31.37.41.588c.11.219.164.438.164.656-.173 0-.328-.032-.465-.095a5.649 5.649 0 0 1-.396-.233 3.054 3.054 0 0 0-.41-.246.987.987 0 0 0-.493-.123 3.61 3.61 0 0 0-1.53.328c-.466.219-.876.51-1.231.875a4.12 4.12 0 0 0-.82 1.272c-.201.483-.301.993-.301 1.53v.206c.009.091.013.191.013.3v.315c.01.1.014.169.014.205.337.11.715.192 1.135.246.419.055.838.091 1.258.11.428.009.838.004 1.23-.014.401-.018.757-.041 1.066-.068l.15.15a.458.458 0 0 1 .124.164c0 .027.004.046.014.055l.027.082c0 .191-.1.342-.301.451-.2.11-.456.191-.766.246-.31.046-.656.078-1.039.096-.373.018-.738.036-1.093.055-.347.009-.661.027-.944.054-.273.018-.465.06-.574.123.118.547.328 1.076.629 1.586.31.51.624 1.021.943 1.531.32.51.602 1.026.848 1.545.246.52.37 1.053.37 1.6h-.26c-.128.01-.265.005-.41-.014a1.408 1.408 0 0 1-.425-.123c-.127-.054-.2-.141-.218-.26zm4.087-5.072c0-.492.06-.984.178-1.476.119-.493.306-.935.56-1.327a3.173 3.173 0 0 1 1.012-.957c.42-.246.926-.369 1.518-.369.337 0 .633.064.889.192.255.118.47.278.642.478.173.2.301.438.383.711.091.264.137.542.137.834 0 .465-.11.916-.328 1.354a3.82 3.82 0 0 1-.862 1.162 3.697 3.697 0 0 1-1.23.752c-.465.164-.939.2-1.422.11.01.263.096.478.26.642.173.155.378.273.615.355.237.082.483.137.738.164.255.018.483.028.684.028.21 0 .405-.019.588-.055a11.8 11.8 0 0 0 .547-.123 11.8 11.8 0 0 1 .547-.123c.191-.037.392-.055.601-.055.082 0 .164.005.246.014.082.009.16.032.233.068a.355.355 0 0 1 .177.15.414.414 0 0 1 .069.247.574.574 0 0 1-.192.437c-.127.11-.291.205-.492.287a3.128 3.128 0 0 1-.642.192c-.237.036-.47.068-.698.095a7.403 7.403 0 0 1-.615.028c-.182.009-.319.013-.41.013a4.278 4.278 0 0 1-1.572-.273 3.444 3.444 0 0 1-1.176-.78 3.509 3.509 0 0 1-.738-1.203 4.78 4.78 0 0 1-.247-1.572zm1.45-.889c0 .32.04.552.123.698.09.146.305.219.642.219.237 0 .47-.041.698-.123a2.21 2.21 0 0 0 .615-.37c.191-.155.342-.337.451-.546.11-.21.164-.438.164-.684 0-.137-.014-.278-.041-.424a.978.978 0 0 0-.137-.396.828.828 0 0 0-.287-.301.712.712 0 0 0-.437-.123c-.274 0-.524.064-.752.191a1.764 1.764 0 0 0-.56.479c-.156.191-.274.41-.356.656a2.202 2.202 0 0 0-.123.724zm6.18.89c0-.493.059-.985.177-1.477.119-.493.306-.935.56-1.327a3.173 3.173 0 0 1 1.012-.957c.42-.246.925-.369 1.518-.369.337 0 .633.064.889.192.255.118.469.278.642.478.173.2.301.438.383.711.091.264.137.542.137.834 0 .465-.11.916-.328 1.354a3.82 3.82 0 0 1-.862 1.162 3.697 3.697 0 0 1-1.23.752c-.465.164-.939.2-1.422.11.01.263.096.478.26.642.173.155.378.273.615.355.237.082.483.137.738.164.255.018.483.028.684.028a3 3 0 0 0 .588-.055 11.8 11.8 0 0 0 .547-.123 11.8 11.8 0 0 1 .547-.123c.19-.037.391-.055.601-.055.082 0 .164.005.246.014.082.009.16.032.233.068a.354.354 0 0 1 .177.15.414.414 0 0 1 .069.247.574.574 0 0 1-.192.437c-.127.11-.291.205-.492.287a3.128 3.128 0 0 1-.642.192c-.238.036-.47.068-.698.095a7.403 7.403 0 0 1-.615.028c-.182.009-.319.013-.41.013a4.278 4.278 0 0 1-1.572-.273 3.444 3.444 0 0 1-1.176-.78 3.51 3.51 0 0 1-.739-1.203 4.78 4.78 0 0 1-.246-1.572zm1.449-.89c0 .32.04.552.123.698.09.146.305.219.642.219.237 0 .47-.041.698-.123a2.21 2.21 0 0 0 .615-.37c.191-.155.342-.337.45-.546.11-.21.165-.438.165-.684 0-.137-.014-.278-.041-.424a.978.978 0 0 0-.137-.396.828.828 0 0 0-.287-.301.712.712 0 0 0-.437-.123c-.274 0-.525.064-.752.191a1.764 1.764 0 0 0-.56.479c-.156.191-.274.41-.356.656a2.202 2.202 0 0 0-.123.724zm6.507-3.048c0-.265-.018-.52-.054-.766a2.878 2.878 0 0 1-.028-.67c.019-.2.087-.36.206-.478.127-.119.355-.178.683-.178.1.21.196.529.287.957.1.428.196.92.287 1.476.091.556.178 1.163.26 1.819.082.647.155 1.299.219 1.955.073.656.132 1.303.178 1.941.054.63.095 1.203.123 1.723-.301.2-.543.214-.725.041-.182-.173-.333-.465-.451-.875a9.333 9.333 0 0 1-.274-1.518c-.063-.601-.127-1.22-.191-1.859a40.354 40.354 0 0 0-.205-1.9 13.355 13.355 0 0 0-.315-1.668zm5.496 7.123c.146-.1.32-.228.52-.383.21-.164.42-.337.629-.52.21-.182.406-.373.588-.574.182-.2.323-.392.424-.574.109-.191.164-.37.164-.533 0-.164-.082-.301-.246-.41-.292 0-.611.013-.957.04-.347.019-.693.028-1.04.028a7.315 7.315 0 0 1-1.011-.096 2.61 2.61 0 0 1-.861-.3 1.66 1.66 0 0 1-.616-.616c-.146-.273-.218-.62-.218-1.039 0-.492.09-.934.273-1.326.191-.401.442-.752.752-1.053.31-.31.656-.579 1.039-.806a8.968 8.968 0 0 1 1.176-.602c.237.064.456.178.656.342.2.164.374.346.52.547a.802.802 0 0 1-.383.465c-.183.109-.397.205-.643.287l-.752.26a2.857 2.857 0 0 0-.724.369c-.21.146-.388.341-.534.588-.146.237-.218.55-.218.943 0 .291.072.506.218.643.146.136.338.232.575.287a3.7 3.7 0 0 0 .806.054c.301-.018.606-.04.916-.068.32-.027.63-.041.93-.041.3-.01.57.027.807.11.236.072.423.195.56.368.146.174.219.429.219.766 0 .146-.05.333-.15.56a4.811 4.811 0 0 1-.383.739 5.83 5.83 0 0 1-.56.765c-.21.256-.434.488-.67.698-.229.2-.461.369-.698.506a1.324 1.324 0 0 1-.643.191c-.191 0-.319-.068-.383-.205a1.099 1.099 0 0 1-.081-.41z"/><path id="f" d="M5.584 11.797a.374.374 0 0 0-.219-.26.817.817 0 0 0-.342-.068 1.546 1.546 0 0 0-.355.013 1.93 1.93 0 0 1-.273.028 75.89 75.89 0 0 1-.807-.055c-.383-.027-.798-.055-1.244-.082-.438-.036-.848-.068-1.23-.096-.384-.036-.652-.059-.807-.068 0-.018-.005-.064-.014-.137a1.458 1.458 0 0 1-.014-.15c0-.128.01-.242.028-.342.027-.1.118-.178.273-.232.857.018 1.7.013 2.53-.014.838-.027 1.672-.064 2.501-.11a245.3 245.3 0 0 1 2.502-.15 46.573 46.573 0 0 1 2.53-.068c0 .346-.083.601-.247.765a1.28 1.28 0 0 1-.615.315 3.1 3.1 0 0 1-.793.068 8.655 8.655 0 0 0-.847.014 2.142 2.142 0 0 0-.711.164.663.663 0 0 0-.397.465c-.009.055-.018.16-.027.314-.01.155-.018.32-.027.492 0 .174-.005.338-.014.493v.314c0 .52.064 1.035.191 1.545.137.501.283 1.003.438 1.504.164.492.31.989.437 1.49.137.492.205.994.205 1.504 0 .383-.218.574-.656.574-.264 0-.501-.182-.71-.547-.201-.364-.38-.829-.534-1.394a18.337 18.337 0 0 1-.37-1.846 60.253 60.253 0 0 1-.232-1.914 53.7 53.7 0 0 1-.123-1.613c-.018-.465-.027-.77-.027-.916zm6.398 3.076v-.26c.01-.127.014-.26.014-.396.01-.137.014-.27.014-.397.009-.127.013-.218.013-.273.1-.146.228-.264.383-.356.164-.09.328-.164.492-.218.028.492.105 1.016.233 1.572.127.556.264 1.117.41 1.682.146.556.274 1.107.383 1.654.118.547.178 1.057.178 1.531 0 .41-.21.615-.63.615a.802.802 0 0 1-.642-.314 2.512 2.512 0 0 1-.424-.793 8.232 8.232 0 0 1-.246-1.08c-.064-.401-.11-.793-.137-1.176a55.893 55.893 0 0 1-.04-1.053v-.738zm.192-5.127c.173.073.319.191.437.356.119.164.169.314.15.45-.008.128-.109.22-.3.274-.191.046-.51-.009-.957-.164 0-.246.046-.46.137-.643.1-.182.278-.273.533-.273zm2.16 4.512c0-.228.036-.406.11-.533.081-.128.25-.192.505-.192.028 0 .078.005.15.014h.151c.064.282.128.592.191.93.073.328.155.66.246.998.092.337.192.67.301.998.119.328.26.624.424.888.164-.173.283-.378.356-.615.072-.237.127-.474.164-.71.036-.247.068-.48.095-.698.037-.228.105-.42.205-.574a.85.85 0 0 1 .438-.356c.2-.073.474-.073.82 0 .383 0 .688.073.916.219.228.137.424.314.588.533.173.21.337.438.492.684.164.237.37.45.616.642.054-.118.123-.264.205-.437.082-.182.182-.37.3-.56.128-.201.26-.397.397-.589.146-.2.296-.378.451-.533.155-.164.315-.296.479-.396a.864.864 0 0 1 .478-.164c.374 0 .697.118.97.355.274.228.507.52.698.875.2.346.365.738.492 1.176a11.688 11.688 0 0 1 .451 2.351c.037.329.055.566.055.711 0 .119-.027.21-.082.274a.57.57 0 0 1-.205.15 1.207 1.207 0 0 1-.273.055c-.092.009-.178.014-.26.014h-.082a2.674 2.674 0 0 0-.123-.028 5.05 5.05 0 0 1-.15-.04l-.89-4.089c0-.027-.036-.077-.109-.15a.702.702 0 0 0-.164-.15.152.152 0 0 1-.068-.014h-.041c-.01-.01-.018-.014-.027-.014-.192 0-.374.078-.547.233-.164.155-.32.35-.465.588a6.434 6.434 0 0 0-.41.793c-.128.291-.242.583-.342.875-.1.282-.192.546-.274.793-.072.236-.132.419-.177.546a.905.905 0 0 1-.22.055 3.32 3.32 0 0 1-.218.014c-.255 0-.451-.087-.588-.26a2.429 2.429 0 0 1-.341-.67 9.114 9.114 0 0 1-.22-.861 5.583 5.583 0 0 0-.218-.875 1.742 1.742 0 0 0-.355-.657c-.146-.182-.356-.273-.63-.273-.1 0-.195.1-.287.3-.09.201-.173.456-.246.766-.072.301-.14.63-.205.985a27.48 27.48 0 0 0-.164.984c-.036.3-.063.556-.082.766l-.027.314a.4.4 0 0 1-.11.096c-.054.027-.113.06-.177.096a.632.632 0 0 1-.178.082A.434.434 0 0 1 17 20c-.255 0-.501-.114-.738-.342a3.978 3.978 0 0 1-.657-.902c-.19-.374-.369-.784-.533-1.23a17.724 17.724 0 0 1-.656-2.475 5.51 5.51 0 0 1-.082-.793zm12.305 1.941c0-.492.059-.984.177-1.476.119-.493.306-.935.561-1.327a3.173 3.173 0 0 1 1.012-.957c.419-.246.925-.369 1.517-.369.338 0 .634.064.889.192.255.118.47.278.642.478.174.2.301.438.383.711.091.264.137.542.137.834 0 .465-.11.916-.328 1.354a3.82 3.82 0 0 1-.861 1.162 3.697 3.697 0 0 1-1.23.752c-.466.164-.94.2-1.423.11.01.263.096.478.26.642.173.155.378.273.615.355.237.082.483.137.739.164.255.018.483.028.683.028.21 0 .406-.019.588-.055a11.8 11.8 0 0 0 .547-.123 11.8 11.8 0 0 1 .547-.123c.191-.037.392-.055.601-.055.082 0 .164.005.246.014.082.009.16.032.233.068a.355.355 0 0 1 .178.15.414.414 0 0 1 .068.247.574.574 0 0 1-.192.437c-.127.11-.291.205-.492.287a3.128 3.128 0 0 1-.642.192c-.237.036-.47.068-.698.095a7.403 7.403 0 0 1-.615.028c-.182.009-.319.013-.41.013a4.278 4.278 0 0 1-1.572-.273 3.446 3.446 0 0 1-1.176-.78 3.51 3.51 0 0 1-.738-1.203 4.78 4.78 0 0 1-.246-1.572zm1.449-.889c0 .32.04.552.123.698.091.146.305.219.643.219.236 0 .469-.041.697-.123a2.21 2.21 0 0 0 .615-.37c.191-.155.342-.337.451-.546.11-.21.164-.438.164-.684 0-.137-.013-.278-.04-.424a.978.978 0 0 0-.137-.396.828.828 0 0 0-.288-.301.712.712 0 0 0-.437-.123c-.274 0-.524.064-.752.191a1.764 1.764 0 0 0-.56.479c-.155.191-.274.41-.356.656a2.202 2.202 0 0 0-.123.724z"/><path id="g" d="M79 75.773l-.714 1.868.715-1.868zM563 62l.667-1.885L563 62zm-44-2.284l.27-1.981-.27 1.981zM431.501 62l-.715 1.868.715-1.868zm45-4l.658 1.889-.658-1.889zM384.5 59.716l.047 2-.047-2zm-19-29.4l.076 1.999-.076-1.999zm47.378-.6l-.073 1.999.073-1.999zm40.622-5.844l.258 1.983-.258-1.983zm45.5 2.43l-.369 1.965.369-1.965zm43.5-5.54l.112 1.997-.112-1.997zm45.992.328l.376 1.964-.376-1.964zM205 70.677h54.5v-4H205v4zm-56.27-.018c26.492 3.574 41.997.005 56.27.018v-4c-14.727.013-29.962 3.56-55.73.018l-.54 3.964zM1.163 81.627c.792-.566 2.353-1.223 4.742-1.883 2.36-.654 5.253-1.24 8.609-1.773 6.734-1.072 15.006-1.863 23.475-2.31 8.47-.448 17.02-.544 24.298-.219 7.35.328 13.07 1.079 15.999 2.2l1.43-3.736c-3.605-1.38-9.93-2.133-17.25-2.46-7.391-.329-16.135-.23-24.688.22-8.553.453-17.034 1.265-23.892 2.354-3.44.547-6.553 1.18-9.046 1.868-2.465.681-4.606 1.486-6.003 2.485l2.326 3.254zm77.123-3.986c1.956.749 3.818.901 5.574.438 1.599-.45 3.194-1.498 4.394-2.713 2.365-2.421 4.235-6.128 6.022-9.775 1.828-3.732 3.66-7.64 6.005-10.955 2.323-3.312 4.822-5.785 8.377-6.974l-1.316-3.777c-4.338 1.56-7.778 4.839-10.331 8.448-2.531 3.607-4.512 7.793-6.327 11.498-1.857 3.79-3.46 6.865-5.291 8.74-.897.935-1.58 1.413-2.553 1.64-.814.215-1.814.196-3.124-.305l-1.43 3.735zm30.372-29.979c3.402-1.185 5.664-.708 7.663.559 2.217 1.405 4.175 3.804 6.769 6.893 5.082 6.055 11.802 13.66 25.64 15.545l.54-3.964c-12.292-1.674-18.179-8.27-23.117-14.153-2.417-2.879-4.823-5.882-7.691-7.7-3.085-1.955-6.628-2.522-11.12-.957l1.316 3.777zM290 2c6.023-.058 10.852 2.513 15.087 6.413 4.259 3.876 7.414 8.808 9.606 13.443l3.614-1.712c-2.308-4.865-5.903-10.433-10.519-14.682C303.148 1.237 296.977-1.942 290-2v4zm24.693 19.856c2.237 4.722 6.645 14.815 11.759 23.746 2.562 4.469 5.384 8.762 8.174 11.892 2.726 3.05 5.935 5.596 9.374 5.596v-4c-1.561 0-3.727-1.279-6.391-4.261-2.601-2.902-5.186-6.85-7.686-11.216-5.011-8.74-9.353-18.691-11.616-23.47l-3.614 1.713zM259.5 70.676c2.966 0 5.424-1.438 7.415-3.593 1.882-2.058 3.57-5.041 4.962-8.366 2.744-6.592 4.823-15.35 6.702-23.952 1.879-8.602 3.576-17.094 5.607-23.424 1.004-3.14 2.005-5.564 3.168-7.272C288.481 2.396 289.371 2 290 2v-4c-2.621 0-4.56 1.75-5.963 3.833-1.368 2.048-2.602 4.988-3.66 8.288-2.094 6.546-3.835 15.223-5.706 23.79-1.871 8.568-3.855 16.98-6.485 23.265-1.296 3.113-2.624 5.496-4.21 7.193-1.478 1.6-2.942 2.308-4.476 2.308v4zM344 63.09c.991 0 1.689-.58 2.022-.902.335-.33.728-.837 1.042-1.32.588-.915 1.261-2.218 1.953-3.673 1.375-2.89 3.003-6.694 4.838-10.473 1.835-3.782 3.81-7.436 5.971-10.206 2.203-2.834 4.142-4.14 5.75-4.201l-.152-3.997c-3.518.133-6.445 2.77-8.756 5.743-2.352 3.037-4.536 7.052-6.412 10.914-1.875 3.866-3.509 7.683-4.851 10.502-.665 1.4-1.215 2.474-1.701 3.221-.224.35-.331.496-.458.61-.129.124.146-.218.754-.218v4zm21.576-30.775c-.162.088.148-.023.696.583.638.663 1.256 1.602 1.985 2.914 1.488 2.663 3.017 6.268 4.614 9.971 1.597 3.703 3.271 7.518 4.964 10.391.864 1.457 1.845 2.82 2.793 3.75.987.957 2.309 1.83 3.919 1.792l-.094-4c-.047.002-.38-.023-1.041-.664-.7-.667-1.361-1.603-2.133-2.913-1.577-2.66-3.142-6.247-4.735-9.94-1.593-3.694-3.206-7.482-4.793-10.335-.808-1.446-1.712-2.795-2.575-3.717-.875-.924-2.142-1.89-3.752-1.83l.152 3.998zm18.971 29.4c3.404-.079 6.389-2.656 8.863-5.518 2.547-2.954 5.076-6.843 7.482-10.603 2.407-3.76 4.7-7.4 6.912-10.08 1.088-1.326 2.029-2.295 2.997-2.982.911-.654 1.559-.833 2.004-.817l.145-3.997c-1.669-.06-3.186.633-4.483 1.566-1.241.9-2.552 2.232-3.752 3.688-2.364 2.879-4.791 6.716-7.192 10.465-2.4 3.75-4.765 7.404-7.139 10.144-2.449 2.833-4.414 4.1-5.931 4.136l.094 3.999zm28.258-30c.432.016 1.038.232 1.839.93.865.743 1.654 1.752 2.537 3.139 1.802 2.813 3.47 6.551 5.045 10.453 1.577 3.9 3.01 7.87 4.271 10.97.634 1.558 1.258 2.968 1.823 4.006.295.537.642 1.082.948 1.467.306.381.804.915 1.518 1.188l1.429-3.736c.292.112.34.254.171.043-.169-.206-.324-.454-.555-.88-.488-.889-1.017-2.091-1.629-3.596-1.231-3.026-2.663-6.99-4.267-10.96-1.604-3.97-3.432-8.04-5.383-11.108-.994-1.553-2.147-3.002-3.28-4-1.197-1.044-2.647-1.853-4.322-1.913l-.145 3.997zm17.981 32.153c1.924.736 3.578-.246 4.656-1.302 1.091-1.068 2.079-2.64 2.985-4.375 1.816-3.482 3.668-8.342 5.512-13.205 1.843-4.863 3.684-9.744 5.548-13.474.921-1.848 1.764-3.28 2.638-4.335.876-1.066 1.43-1.296 1.633-1.322l-.516-3.966c-1.755.228-3.149 1.46-4.207 2.749-1.06 1.299-2.14 3.113-3.127 5.088-1.951 3.914-3.867 8.98-5.71 13.842-1.842 4.861-3.604 9.501-5.316 12.77-.857 1.64-1.611 2.755-2.239 3.37-.641.629-.681.327-.428.424l-1.429 3.736zm22.972-38.013c.022-.003.375-.038 1.156.735.816.795 1.604 1.958 2.512 3.567 1.851 3.261 3.723 7.709 5.65 12.209 1.927 4.5 3.922 9.073 5.924 12.345 1.006 1.639 2.117 3.124 3.354 4.115 1.27 1.018 2.95 1.709 4.805 1.063l-1.316-3.778c-.075.026-.326.124-.988-.406-.696-.558-1.518-1.576-2.446-3.087-1.864-3.028-3.733-7.337-5.656-11.827-1.923-4.49-3.887-9.138-5.846-12.605-.996-1.755-2.106-3.364-3.179-4.439-1.108-1.096-2.636-2.1-4.486-1.858l.516 3.966zm23.401 34.034c3.264-1.138 5.724-4.225 7.684-7.545 1.988-3.377 3.743-7.493 5.389-11.33 1.646-3.836 3.165-7.36 4.789-9.834.784-1.209 1.42-1.978 2.163-2.49.596-.426 1.038-.5 1.447-.423l.738-3.93c-1.707-.32-3.236.188-4.51 1.099-1.128.824-2.261 2.145-3.188 3.557-1.797 2.766-3.466 6.601-5.115 10.444-1.648 3.843-3.295 7.727-5.158 10.874-1.891 3.204-3.731 5.165-5.555 5.8l1.316 3.778zm21.472-31.622c-.31-.058-.109-.164.524.782.565.838 1.14 1.985 1.804 3.478 1.343 3.014 2.814 7.012 4.453 11.083 1.64 4.07 3.488 8.283 5.506 11.533 1.95 3.131 4.499 6.104 7.812 6.555l.54-3.963c-1.328-.181-3.016-1.592-4.957-4.707-1.874-2.998-3.573-6.896-5.19-10.912-1.618-4.016-3.115-8.08-4.51-11.215-.704-1.582-1.439-3.031-2.134-4.076-.627-.937-1.635-2.212-3.11-2.489l-.738 3.931zm20.099 33.431c2.025.276 3.831-.472 5.339-1.649 1.398-1.106 2.798-2.813 3.995-4.69 2.344-3.701 4.502-8.764 6.433-13.733 1.93-4.97 3.678-9.93 5.287-13.646.796-1.843 1.496-3.265 2.183-4.276.319-.479.513-.719.753-.913.178-.152.134-.045-.108-.032l-.224-3.993c-.947.053-1.709.51-2.26.978-.491.427-1.041 1.08-1.478 1.724-.828 1.237-1.699 2.987-2.538 4.924-1.661 3.844-3.436 8.875-5.344 13.786-1.907 4.911-3.9 9.619-6.08 13.036-1.066 1.683-2.021 2.872-3.079 3.681-.948.74-1.699.927-2.339.84l-.54 3.963zm23.882-38.939c.149-.008.579.047 1.332.878.805.876 1.541 2.128 2.362 3.864 1.676 3.524 3.241 8.318 4.825 13.328 1.585 5.01 3.173 10.2 4.834 14.307.839 2.069 1.757 3.98 2.685 5.412.92 1.411 2.113 2.782 3.683 3.337l1.334-3.77c-.284-.101-.867-.526-1.666-1.752-.792-1.205-1.537-2.773-2.328-4.729-1.599-3.942-3.138-8.983-4.728-14.011-1.591-5.03-3.248-10.08-5.025-13.836-.905-1.904-1.953-3.65-3.01-4.833-1.111-1.228-2.624-2.294-4.522-2.188l.224 3.993zm19.721 41.127c2.012.712 3.892.167 5.443-.947 1.48-1.064 2.78-2.714 3.939-4.57 2.298-3.692 4.484-8.936 6.547-14.19 2.062-5.254 4.036-10.581 5.997-14.682.971-2.034 1.865-3.645 2.786-4.843.932-1.22 1.555-1.549 1.823-1.6l-.752-3.929c-1.776.34-3.174 1.693-4.25 3.101-1.087 1.432-2.189 3.399-3.217 5.547-2.035 4.266-4.062 9.726-6.111 14.944-2.047 5.217-4.08 10.127-6.215 13.533-1.057 1.692-2.027 2.826-2.881 3.44-.785.564-1.307.59-1.775.425l-1.334 3.77zm26.535-40.832c-.307.059-.493-.067-.46-.045.164.095.259.209.527.595.607.844 1.204 2.1 1.893 3.834 1.399 3.514 2.841 8.352 4.364 13.384 1.523 5.03 3.127 10.256 4.802 14.37.847 2.073 1.772 3.984 2.698 5.406.911 1.392 2.102 2.769 3.669 3.297l1.278-3.79c-.231-.078-.794-.467-1.6-1.698-.791-1.2-1.543-2.767-2.341-4.725-1.611-3.947-3.157-8.995-4.677-14.019-1.521-5.024-3.015-10.024-4.477-13.703-.742-1.863-1.556-3.543-2.346-4.67-.43-.599-1.03-1.23-1.557-1.6-.658-.442-1.532-.755-2.525-.565l.752 3.929z"/><path id="h" d="M-.027 15.146c0-.455.063-.92.191-1.394.137-.474.32-.934.547-1.38.237-.447.515-.871.834-1.272a6.11 6.11 0 0 1 1.08-1.04 4.97 4.97 0 0 1 1.271-.697c.456-.173.926-.26 1.409-.26.21 0 .478.023.806.069.338.045.661.123.971.232.319.11.588.256.807.438.228.173.341.383.341.629a.121.121 0 0 1-.013.054v.041a.121.121 0 0 0-.014.055 2.031 2.031 0 0 1-.137.164 1.32 1.32 0 0 1-.15.137.152.152 0 0 1-.068.013.256.256 0 0 1-.164 0 .121.121 0 0 1-.055-.013 5.01 5.01 0 0 0-.328-.164 30.86 30.86 0 0 0-1.121-.56 4.97 4.97 0 0 0-.328-.165.45.45 0 0 1-.11-.013H5.66a.225.225 0 0 0-.068-.014c-.429 0-.839.077-1.23.232-.393.155-.753.37-1.08.643a5.471 5.471 0 0 0-.89.943 6.82 6.82 0 0 0-.683 1.135 6.416 6.416 0 0 0-.424 1.217c-.091.41-.137.811-.137 1.203 0 .51.082.966.247 1.367.164.401.391.738.683 1.012.292.264.638.465 1.04.601.41.137.851.205 1.325.205.274 0 .611-.036 1.012-.109a4.94 4.94 0 0 0 1.149-.355c.373-.165.688-.374.943-.63.255-.264.383-.587.383-.97a.745.745 0 0 0-.069-.355.39.39 0 0 0-.191-.192.612.612 0 0 0-.3-.068A4.823 4.823 0 0 0 7 15.87c-.2 0-.374.032-.52.096a4.9 4.9 0 0 0-.437.219 3.714 3.714 0 0 1-.424.218c-.137.064-.3.096-.492.096-.237 0-.424-.037-.56-.11-.137-.072-.206-.24-.206-.505 0-.255.091-.46.274-.615a1.92 1.92 0 0 1 .67-.37c.264-.082.537-.136.82-.164.283-.027.515-.04.697-.04.328 0 .634.027.916.081.283.046.524.137.725.274.21.127.369.31.478.547.11.227.164.524.164.888 0 .565-.154 1.058-.464 1.477-.31.41-.702.747-1.176 1.012-.465.264-.97.464-1.518.601a6.537 6.537 0 0 1-1.504.192 4.75 4.75 0 0 1-1.818-.342 4.108 4.108 0 0 1-1.408-.957A4.534 4.534 0 0 1 .3 16.992a5.14 5.14 0 0 1-.328-1.846zm9.953 2.079c0-.566.132-1.09.396-1.573.265-.492.61-.911 1.04-1.257a5.168 5.168 0 0 1 1.462-.835c.547-.2 1.098-.3 1.655-.3.31 0 .583.1.82.3.246.201.451.447.615.739.164.282.287.583.37.902.09.32.136.597.136.834 0 .51-.123 1.007-.37 1.49a4.81 4.81 0 0 1-.956 1.272c-.392.364-.834.66-1.326.889a3.488 3.488 0 0 1-1.477.341c-.438 0-.807-.073-1.107-.218a2.054 2.054 0 0 1-.725-.602 2.747 2.747 0 0 1-.41-.889 4.735 4.735 0 0 1-.123-1.093zm1.162.136c0 .237.018.447.055.63.045.172.118.323.218.45.11.128.251.228.424.301.173.064.387.096.643.096.337 0 .674-.091 1.011-.274.338-.191.639-.428.903-.71.273-.292.492-.611.656-.957.164-.347.246-.684.246-1.012 0-.146-.014-.306-.04-.479a1.946 1.946 0 0 0-.138-.478 1.003 1.003 0 0 0-.273-.37.674.674 0 0 0-.451-.15c-.164 0-.36.055-.588.164a5.49 5.49 0 0 0-.697.424 8.09 8.09 0 0 0-.711.588 10.45 10.45 0 0 0-.63.656 4.258 4.258 0 0 0-.464.63c-.11.2-.164.364-.164.491zm5.865-.136c0-.566.132-1.09.397-1.573.264-.492.61-.911 1.039-1.257a5.167 5.167 0 0 1 1.463-.835c.546-.2 1.098-.3 1.654-.3.31 0 .583.1.82.3.246.201.451.447.615.739.165.282.288.583.37.902.09.32.136.597.136.834 0 .51-.123 1.007-.369 1.49a4.81 4.81 0 0 1-.957 1.272c-.392.364-.834.66-1.326.889a3.488 3.488 0 0 1-1.477.341c-.437 0-.806-.073-1.107-.218a2.055 2.055 0 0 1-.725-.602 2.745 2.745 0 0 1-.41-.889 4.73 4.73 0 0 1-.123-1.093zm1.162.136c0 .237.019.447.055.63.045.172.118.323.219.45.109.128.25.228.424.301.173.064.387.096.642.096.337 0 .675-.091 1.012-.274.337-.191.638-.428.902-.71.274-.292.492-.611.656-.957.165-.347.247-.684.247-1.012a3.09 3.09 0 0 0-.041-.479 1.95 1.95 0 0 0-.137-.478 1.005 1.005 0 0 0-.274-.37.674.674 0 0 0-.45-.15c-.165 0-.36.055-.589.164a5.49 5.49 0 0 0-.697.424c-.237.173-.474.37-.711.588-.228.219-.438.438-.629.656a4.265 4.265 0 0 0-.465.63c-.11.2-.164.364-.164.491zm5.565 1.026c0-.529.132-.998.396-1.409.264-.41.593-.765.985-1.066.392-.31.815-.57 1.271-.78.456-.218.88-.396 1.271-.532.392-.146.72-.26.985-.342.264-.091.396-.164.396-.219 0-.319-.018-.629-.054-.93-.028-.31-.06-.62-.096-.93l-.11-.915c-.027-.31-.04-.616-.04-.916v-.889c.373-.137.638-.123.793.041.164.164.191.447.082.848.036.2.086.515.15.943.064.428.132.912.205 1.45.082.537.164 1.102.246 1.694.091.593.173 1.163.246 1.71.082.537.15 1.02.205 1.449l.123.943c.01.046.019.137.028.274.009.127.013.268.013.423.01.146.014.283.014.41.01.128.014.22.014.274-.347 0-.584-.014-.711-.041-.119-.027-.196-.082-.233-.164a1.181 1.181 0 0 1-.04-.356c0-.154-.046-.369-.137-.642a8.204 8.204 0 0 1-.957.656c-.301.173-.602.315-.903.424-.3.1-.606.168-.916.205-.3.046-.624.068-.97.068-.292 0-.575-.022-.848-.068a2.22 2.22 0 0 1-.711-.273c-.21-.128-.378-.301-.506-.52-.127-.219-.191-.492-.191-.82zm1.19-.287c0 .145.031.264.095.355a.86.86 0 0 0 .246.233c.1.063.205.109.314.136.119.018.233.028.342.028.32 0 .661-.06 1.026-.178a4.02 4.02 0 0 0 1.025-.52c.319-.228.579-.496.78-.806.209-.31.314-.647.314-1.012 0-.283-.05-.479-.15-.588-.1-.11-.292-.164-.575-.164-.292 0-.633.068-1.025.205a5.787 5.787 0 0 0-1.121.547 3.669 3.669 0 0 0-.903.807c-.246.3-.369.62-.369.957zm13.042-1.9c0-.493.06-.985.178-1.477.118-.493.305-.935.56-1.327a3.174 3.174 0 0 1 1.012-.957c.42-.246.925-.369 1.518-.369.337 0 .633.064.888.192.256.118.47.278.643.478.173.2.3.438.383.711.09.264.136.542.136.834 0 .465-.109.916-.328 1.354a3.82 3.82 0 0 1-.861 1.162 3.697 3.697 0 0 1-1.23.752c-.465.164-.94.2-1.422.11.009.263.095.478.26.642.173.155.378.273.615.355.237.082.483.137.738.164.255.018.483.028.683.028a3 3 0 0 0 .588-.055 11.8 11.8 0 0 0 .547-.123 11.8 11.8 0 0 1 .547-.123c.192-.037.392-.055.602-.055.082 0 .164.005.246.014.082.009.16.032.232.068a.355.355 0 0 1 .178.15.413.413 0 0 1 .068.247.574.574 0 0 1-.191.437c-.128.11-.292.205-.492.287a3.127 3.127 0 0 1-.643.192c-.237.036-.47.068-.697.095a7.401 7.401 0 0 1-.615.028c-.183.009-.32.013-.41.013a4.277 4.277 0 0 1-1.573-.273 3.444 3.444 0 0 1-1.175-.78 3.512 3.512 0 0 1-.739-1.203 4.78 4.78 0 0 1-.246-1.572zm1.45-.89c0 .32.04.552.122.698.091.146.306.219.643.219.237 0 .47-.041.697-.123a2.21 2.21 0 0 0 .616-.37c.19-.155.341-.337.45-.546.11-.21.165-.438.165-.684 0-.137-.014-.278-.041-.424a.98.98 0 0 0-.137-.396.829.829 0 0 0-.287-.301.712.712 0 0 0-.438-.123c-.273 0-.524.064-.752.191a1.764 1.764 0 0 0-.56.479c-.155.191-.274.41-.356.656a2.2 2.2 0 0 0-.123.724zm5.906-1.763c-.01-.01-.014-.023-.014-.041a.235.235 0 0 1-.014-.096c0-.173.073-.292.219-.355a.946.946 0 0 1 .424-.11c.018 0 .036.005.054.014h.096c.027.01.069.014.123.014l1.914 1.613c.328-.474.593-.843.793-1.107.21-.265.374-.456.492-.575.119-.127.206-.2.26-.219a.414.414 0 0 1 .137-.04h.205c.082 0 .164.009.246.027.082.009.15.036.205.082a.38.38 0 0 1 .137.219c-.155.155-.3.31-.438.464a4.326 4.326 0 0 0-.382.506c-.119.174-.233.37-.342.588-.1.219-.205.465-.315.739.174.127.388.31.643.546.264.228.529.483.793.766.273.273.538.556.793.848.255.282.465.551.629.806.173.255.282.474.328.657.055.182.023.3-.096.355a3.309 3.309 0 0 0-.26.37c-.045.072-.095.095-.15.068-.045-.028-.11-.114-.191-.26a4.692 4.692 0 0 0-.452-.615c-.21-.274-.5-.616-.874-1.026-.374-.41-.871-.898-1.49-1.463l-.11 3.377c0 .01-.018.028-.055.055l-.123.096a1.818 1.818 0 0 1-.246.15H47.906a5.323 5.323 0 0 1-.191-.164c-.073-.073-.11-.119-.11-.137v-3.814l-2.337-2.338zm7.013 1.408c0-.884.205-1.54.616-1.969.41-.428 1.038-.642 1.886-.642.347 0 .702.032 1.067.096a3.4 3.4 0 0 1 1.025.341c.31.155.56.374.752.656.2.283.3.648.3 1.094 0 .492-.109.957-.327 1.395-.21.428-.479.834-.807 1.217a8.96 8.96 0 0 1-1.066 1.052 77.71 77.71 0 0 0-1.08.916.953.953 0 0 0-.055.233c-.01.11-.014.182-.014.218 0 .301.087.602.26.903.182.31.378.62.588.93.21.319.4.647.574.984.173.337.26.688.26 1.053 0 .218-.046.346-.137.383-.091.045-.282.068-.574.068-.182-.073-.365-.246-.547-.52a7.866 7.866 0 0 1-.533-.984 18.445 18.445 0 0 1-.52-1.326 56.536 56.536 0 0 1-.478-1.477 212.88 212.88 0 0 1-.424-1.504 97.63 97.63 0 0 1-.342-1.38c-.1-.42-.191-.78-.273-1.08a39.87 39.87 0 0 1-.15-.657zm1.162.123c0 .137.01.337.028.602.018.255.054.51.11.765.063.256.154.479.272.67a.557.557 0 0 0 .493.274c.282 0 .565-.096.847-.287.292-.192.547-.433.766-.725a4.02 4.02 0 0 0 .547-.93c.146-.337.219-.642.219-.916 0-.228-.055-.405-.165-.533a1.056 1.056 0 0 0-.423-.314 1.499 1.499 0 0 0-.534-.15 3.878 3.878 0 0 0-.546-.042c-.52 0-.92.141-1.204.424-.273.274-.41.66-.41 1.162zm5.291 1.121c0-.492.06-.984.178-1.476.119-.493.305-.935.56-1.327a3.173 3.173 0 0 1 1.012-.957c.42-.246.925-.369 1.518-.369.337 0 .633.064.889.192.255.118.469.278.642.478.173.2.301.438.383.711.091.264.137.542.137.834 0 .465-.11.916-.328 1.354a3.82 3.82 0 0 1-.862 1.162 3.697 3.697 0 0 1-1.23.752c-.465.164-.939.2-1.422.11.01.263.096.478.26.642.173.155.378.273.615.355.237.082.483.137.738.164.255.018.483.028.684.028.21 0 .405-.019.588-.055a11.8 11.8 0 0 0 .547-.123 11.8 11.8 0 0 1 .546-.123c.192-.037.392-.055.602-.055.082 0 .164.005.246.014.082.009.16.032.232.068a.355.355 0 0 1 .178.15.414.414 0 0 1 .069.247.574.574 0 0 1-.192.437c-.127.11-.291.205-.492.287a3.128 3.128 0 0 1-.642.192c-.237.036-.47.068-.698.095a7.403 7.403 0 0 1-.615.028c-.182.009-.32.013-.41.013a4.278 4.278 0 0 1-1.572-.273 3.444 3.444 0 0 1-1.176-.78 3.509 3.509 0 0 1-.739-1.203 4.78 4.78 0 0 1-.246-1.572zm1.45-.889c0 .32.04.552.123.698.09.146.305.219.642.219.237 0 .47-.041.698-.123a2.21 2.21 0 0 0 .615-.37c.191-.155.341-.337.45-.546.11-.21.165-.438.165-.684 0-.137-.014-.278-.041-.424a.978.978 0 0 0-.137-.396.828.828 0 0 0-.287-.301.712.712 0 0 0-.437-.123c-.274 0-.525.064-.752.191a1.764 1.764 0 0 0-.56.479c-.156.191-.274.41-.356.656a2.202 2.202 0 0 0-.123.724zm6.18-1.052c0-.082.004-.164.013-.246a.793.793 0 0 1 .055-.233.416.416 0 0 1 .123-.177.439.439 0 0 1 .26-.069c.09 0 .19.073.3.219.119.137.237.314.356.533.118.21.232.442.341.697.119.256.22.493.301.711.091.21.164.392.219.547.055.155.087.237.096.246.118-.319.25-.665.396-1.039.146-.373.324-.72.533-1.039.22-.328.474-.601.766-.82.3-.219.665-.328 1.094-.328.219 0 .424.036.615.11.2.063.374.163.52.3.154.127.278.283.369.465.09.182.136.392.136.629 0 .2-.082.341-.246.424a1.123 1.123 0 0 1-.533.122h-.137l-.588-.587c-.018 0-.031-.005-.04-.014h-.055c-.01-.01-.023-.014-.041-.014-.32 0-.57.091-.752.274a1.69 1.69 0 0 0-.397.656c-.09.255-.15.529-.177.82-.019.283-.028.543-.028.78 0 .182.019.369.055.56.036.182.077.365.123.547.046.173.087.355.123.547.037.182.055.374.055.574 0 .383-.205.574-.615.574-.228 0-.465-.118-.711-.355a5.912 5.912 0 0 1-.739-.93 12.87 12.87 0 0 1-.683-1.23c-.219-.456-.41-.898-.575-1.326a14.763 14.763 0 0 1-.396-1.163c-.091-.346-.137-.601-.137-.765zm7.56.615v-.26c.009-.127.013-.26.013-.396.01-.137.014-.27.014-.397.01-.127.014-.218.014-.273.1-.146.228-.264.383-.356.164-.09.328-.164.492-.218.027.492.105 1.016.232 1.572.128.556.265 1.117.41 1.682.146.556.274 1.107.383 1.654.119.547.178 1.057.178 1.531 0 .41-.21.615-.629.615a.802.802 0 0 1-.642-.314 2.51 2.51 0 0 1-.424-.793 8.215 8.215 0 0 1-.246-1.08c-.064-.401-.11-.793-.137-1.176a55.893 55.893 0 0 1-.041-1.053v-.738zm.191-5.127c.173.073.32.191.438.356.118.164.168.314.15.45-.009.128-.11.22-.3.274-.192.046-.511-.009-.958-.164 0-.246.046-.46.137-.643.1-.182.278-.273.533-.273zm2.461 6.453c0-.492.06-.984.178-1.476.118-.493.305-.935.56-1.327a3.173 3.173 0 0 1 1.012-.957c.42-.246.925-.369 1.518-.369.337 0 .633.064.888.192.256.118.47.278.643.478.173.2.3.438.383.711.091.264.136.542.136.834 0 .465-.109.916-.328 1.354a3.82 3.82 0 0 1-.86 1.162 3.697 3.697 0 0 1-1.231.752c-.465.164-.94.2-1.422.11.009.263.095.478.26.642.173.155.378.273.615.355.237.082.483.137.738.164.255.018.483.028.684.028.21 0 .405-.019.588-.055a11.8 11.8 0 0 0 .546-.123c.183-.046.365-.087.547-.123.192-.037.392-.055.602-.055.082 0 .164.005.246.014.082.009.16.032.232.068a.355.355 0 0 1 .178.15.414.414 0 0 1 .068.247.574.574 0 0 1-.191.437c-.128.11-.292.205-.492.287a3.127 3.127 0 0 1-.643.192c-.237.036-.47.068-.697.095a7.403 7.403 0 0 1-.615.028c-.182.009-.32.013-.41.013a4.278 4.278 0 0 1-1.573-.273 3.446 3.446 0 0 1-1.175-.78 3.51 3.51 0 0 1-.739-1.203 4.78 4.78 0 0 1-.246-1.572zm1.45-.889c0 .32.04.552.122.698.092.146.306.219.643.219.237 0 .47-.041.697-.123a2.21 2.21 0 0 0 .615-.37c.192-.155.342-.337.452-.546.11-.21.164-.438.164-.684 0-.137-.014-.278-.041-.424a.978.978 0 0 0-.137-.396.828.828 0 0 0-.287-.301.712.712 0 0 0-.438-.123c-.273 0-.524.064-.752.191a1.764 1.764 0 0 0-.56.479c-.155.191-.273.41-.356.656a2.202 2.202 0 0 0-.123.724zm6.18.083c0-.237.058-.406.177-.506.118-.11.31-.164.574-.164h.137l.096.505a3.8 3.8 0 0 0 .423 1.149c.1.164.224.296.37.396.008-.319.086-.624.232-.916.155-.3.342-.565.56-.792a3.43 3.43 0 0 1 .739-.588c.273-.165.542-.274.806-.329h.301c.438 0 .811.1 1.121.301.31.192.565.447.766.766.21.31.369.665.478 1.066.11.401.192.811.246 1.23.064.41.1.812.11 1.204.018.383.027.71.027.984h-.998a25.413 25.413 0 0 0-.205-1.572 9.11 9.11 0 0 0-.11-.629 7.995 7.995 0 0 0-.328-1.176 1.958 1.958 0 0 0-.218-.437l-.15-.15a3.412 3.412 0 0 0-.356-.356.367.367 0 0 0-.096-.069.719.719 0 0 0-.71.165c-.201.173-.379.41-.534.71-.155.301-.282.643-.383 1.026-.09.383-.168.752-.232 1.107-.064.347-.11.652-.137.916-.027.256-.046.41-.055.465-.227.164-.442.214-.642.15-.2-.072-.392-.218-.574-.437a3.815 3.815 0 0 1-.479-.82 13.766 13.766 0 0 1-.383-1.04 25.9 25.9 0 0 1-.328-1.12c-.091-.374-.173-.72-.246-1.04zm7.642.492a3.3 3.3 0 0 1 .246-1.203c.173-.42.4-.798.683-1.135.283-.347.606-.634.971-.862a2.225 2.225 0 0 1 1.176-.341 1.904 1.904 0 0 1 1.19.424c.172.136.31.3.41.492.109.191.163.405.163.642-.164 0-.314-.018-.45-.054a6.223 6.223 0 0 1-.383-.123 3.198 3.198 0 0 0-.383-.137 1.344 1.344 0 0 0-.397-.055c-.373 0-.679.096-.916.287-.228.183-.41.415-.547.698a3.36 3.36 0 0 0-.287.916 6.39 6.39 0 0 0-.068.902v.26c.009.127.013.264.013.41.01.137.014.269.014.396.01.128.018.214.028.26.1.219.195.387.287.506.1.119.205.21.314.273.11.055.228.092.356.11.127.009.278.014.45.014.238 0 .443-.037.616-.11.182-.073.35-.16.506-.26.155-.1.3-.21.437-.328a3.67 3.67 0 0 1 .424-.342c.155-.109.32-.196.492-.26.183-.072.388-.109.616-.109 0 .447-.082.843-.246 1.19a2.467 2.467 0 0 1-.67.888c-.283.246-.62.438-1.012.575a3.958 3.958 0 0 1-1.258.191c-.428 0-.816-.146-1.162-.438a4.217 4.217 0 0 1-.875-1.066 6.022 6.022 0 0 1-.547-1.353 4.913 4.913 0 0 1-.191-1.258zm6.726.314c0-.492.06-.984.178-1.476.118-.493.305-.935.56-1.327a3.175 3.175 0 0 1 1.012-.957c.419-.246.925-.369 1.518-.369.337 0 .633.064.888.192.256.118.47.278.643.478.173.2.301.438.383.711.091.264.137.542.137.834 0 .465-.11.916-.329 1.354a3.804 3.804 0 0 1-.861 1.162 3.689 3.689 0 0 1-1.23.752c-.465.164-.939.2-1.422.11a.912.912 0 0 0 .26.642c.173.155.378.273.615.355.237.082.483.137.738.164.255.018.483.028.684.028.209 0 .405-.019.588-.055.182-.037.364-.078.546-.123.183-.046.365-.087.547-.123.192-.037.392-.055.602-.055.082 0 .164.005.246.014.082.009.159.032.232.068a.352.352 0 0 1 .178.15.41.41 0 0 1 .068.247.572.572 0 0 1-.191.437c-.128.11-.292.205-.492.287a3.142 3.142 0 0 1-.643.192 20.91 20.91 0 0 1-.697.095 7.41 7.41 0 0 1-.615.028c-.182.009-.319.013-.41.013a4.28 4.28 0 0 1-1.573-.273 3.45 3.45 0 0 1-1.175-.78 3.512 3.512 0 0 1-.739-1.203 4.78 4.78 0 0 1-.246-1.572zm1.449-.889c0 .32.041.552.123.698.092.146.306.219.643.219.237 0 .469-.041.697-.123.228-.092.433-.215.616-.37a1.74 1.74 0 0 0 .451-.546 1.46 1.46 0 0 0 .164-.684c0-.137-.014-.278-.041-.424a.974.974 0 0 0-.137-.396.832.832 0 0 0-.287-.301.711.711 0 0 0-.438-.123c-.273 0-.524.064-.752.191a1.77 1.77 0 0 0-.56.479c-.155.191-.273.41-.356.656a2.202 2.202 0 0 0-.123.724z"/><path id="i" d="M0 0h16.331v308H0V0z"/><path id="k" d="M0-1a1 1 0 1 0 0 2v-2zm328 2a1 1 0 0 0 0-2v2zM5.125 1a1 1 0 0 0 0-2v2zm10.25-2a1 1 0 1 0 0 2v-2zm10.25 2a1 1 0 1 0 0-2v2zm10.25-2a1 1 0 1 0 0 2v-2zm10.25 2a1 1 0 1 0 0-2v2zm10.25-2a1 1 0 1 0 0 2v-2zm10.25 2a1 1 0 1 0 0-2v2zm10.25-2a1 1 0 1 0 0 2v-2zm10.25 2a1 1 0 1 0 0-2v2zm10.25-2a1 1 0 1 0 0 2v-2zm10.25 2a1 1 0 0 0 0-2v2zm10.25-2a1 1 0 0 0 0 2v-2zm10.25 2a1 1 0 0 0 0-2v2zm10.25-2a1 1 0 0 0 0 2v-2zm10.25 2a1 1 0 0 0 0-2v2zm10.25-2a1 1 0 0 0 0 2v-2zm10.25 2a1 1 0 0 0 0-2v2zm10.25-2a1 1 0 0 0 0 2v-2zm10.25 2a1 1 0 0 0 0-2v2zm10.25-2a1 1 0 0 0 0 2v-2zm10.25 2a1 1 0 0 0 0-2v2zm10.25-2a1 1 0 0 0 0 2v-2zm10.25 2a1 1 0 0 0 0-2v2zm10.25-2a1 1 0 0 0 0 2v-2zm10.25 2a1 1 0 0 0 0-2v2zm10.25-2a1 1 0 0 0 0 2v-2zm10.25 2a1 1 0 0 0 0-2v2zm10.25-2a1 1 0 0 0 0 2v-2zm10.25 2a1 1 0 0 0 0-2v2zm10.25-2a1 1 0 0 0 0 2v-2zm10.25 2a1 1 0 0 0 0-2v2zm10.25-2a1 1 0 0 0 0 2v-2zM0 1h5.125v-2H0v2zm15.375 0h10.25v-2h-10.25v2zm20.5 0h10.25v-2h-10.25v2zm20.5 0h10.25v-2h-10.25v2zm20.5 0h10.25v-2h-10.25v2zm20.5 0h10.25v-2h-10.25v2zm20.5 0h10.25v-2h-10.25v2zm20.5 0h10.25v-2h-10.25v2zm20.5 0h10.25v-2h-10.25v2zm20.5 0h10.25v-2h-10.25v2zm20.5 0h10.25v-2h-10.25v2zm20.5 0h10.25v-2h-10.25v2zm20.5 0h10.25v-2h-10.25v2zm20.5 0h10.25v-2h-10.25v2zm20.5 0h10.25v-2h-10.25v2zm20.5 0h10.25v-2h-10.25v2zm20.5 0H328v-2h-5.125v2zM0-2a2 2 0 1 0 0 4v-4zm328 4a2 2 0 1 0 0-4v4zM5.125 2a2 2 0 1 0 0-4v4zm10.25-4a2 2 0 1 0 0 4v-4zm10.25 4a2 2 0 1 0 0-4v4zm10.25-4a2 2 0 1 0 0 4v-4zm10.25 4a2 2 0 1 0 0-4v4zm10.25-4a2 2 0 1 0 0 4v-4zm10.25 4a2 2 0 1 0 0-4v4zm10.25-4a2 2 0 1 0 0 4v-4zm10.25 4a2 2 0 1 0 0-4v4zm10.25-4a2 2 0 1 0 0 4v-4zm10.25 4a2 2 0 1 0 0-4v4zm10.25-4a2 2 0 1 0 0 4v-4zm10.25 4a2 2 0 1 0 0-4v4zm10.25-4a2 2 0 1 0 0 4v-4zm10.25 4a2 2 0 1 0 0-4v4zm10.25-4a2 2 0 1 0 0 4v-4zm10.25 4a2 2 0 1 0 0-4v4zm10.25-4a2 2 0 1 0 0 4v-4zm10.25 4a2 2 0 1 0 0-4v4zm10.25-4a2 2 0 1 0 0 4v-4zm10.25 4a2 2 0 1 0 0-4v4zm10.25-4a2 2 0 1 0 0 4v-4zm10.25 4a2 2 0 1 0 0-4v4zm10.25-4a2 2 0 1 0 0 4v-4zm10.25 4a2 2 0 1 0 0-4v4zm10.25-4a2 2 0 1 0 0 4v-4zm10.25 4a2 2 0 1 0 0-4v4zm10.25-4a2 2 0 1 0 0 4v-4zm10.25 4a2 2 0 1 0 0-4v4zm10.25-4a2 2 0 1 0 0 4v-4zm10.25 4a2 2 0 1 0 0-4v4zm10.25-4a2 2 0 1 0 0 4v-4zM0 2h5.125v-4H0v4zm15.375 0h10.25v-4h-10.25v4zm20.5 0h10.25v-4h-10.25v4zm20.5 0h10.25v-4h-10.25v4zm20.5 0h10.25v-4h-10.25v4zm20.5 0h10.25v-4h-10.25v4zm20.5 0h10.25v-4h-10.25v4zm20.5 0h10.25v-4h-10.25v4zm20.5 0h10.25v-4h-10.25v4zm20.5 0h10.25v-4h-10.25v4zm20.5 0h10.25v-4h-10.25v4zm20.5 0h10.25v-4h-10.25v4zm20.5 0h10.25v-4h-10.25v4zm20.5 0h10.25v-4h-10.25v4zm20.5 0h10.25v-4h-10.25v4zm20.5 0h10.25v-4h-10.25v4zm20.5 0H328v-4h-5.125v4z"/><path id="m" d="M1.576 14.148v-.533c.01-.255.014-.52.014-.793v-.793c.009-.246.014-.419.014-.52.009-.063.031-.159.068-.286.036-.137.077-.27.123-.397.055-.127.123-.237.205-.328.091-.1.2-.15.328-.15.3 0 .583.082.848.246.264.164.52.383.765.656.247.264.479.56.698.889.228.328.45.656.67.984.218.32.433.624.642.916.21.283.42.51.63.684.227-.1.405-.283.532-.547.128-.274.233-.584.315-.93.082-.355.155-.72.218-1.094.073-.382.17-.733.288-1.052.118-.32.273-.58.464-.78.201-.21.474-.314.82-.314.41 0 .78.16 1.108.478.337.32.638.725.902 1.217a8.94 8.94 0 0 1 .67 1.64c.192.602.351 1.181.479 1.737s.223 1.057.287 1.504c.064.447.096.766.096.957 0 .082-.005.173-.014.273a.841.841 0 0 1-.068.26.417.417 0 0 1-.178.178c-.082.037-.2.032-.355-.014a.575.575 0 0 1-.165-.068 2.701 2.701 0 0 1-.341-.342c-.046-.064-.069-.118-.069-.164l-.273-1.49a18.8 18.8 0 0 0-.383-1.654 11.224 11.224 0 0 0-.56-1.641 5.104 5.104 0 0 0-.848-1.367c-.264.146-.474.369-.629.67a5.515 5.515 0 0 0-.37.97c-.1.347-.19.702-.273 1.067a5.125 5.125 0 0 1-.328.998c-.136.292-.31.533-.52.725-.209.19-.491.287-.847.287a1.31 1.31 0 0 1-.725-.233 3.875 3.875 0 0 1-.67-.629 11.136 11.136 0 0 1-.642-.861c-.2-.32-.401-.629-.602-.93-.191-.31-.382-.597-.574-.861a2.974 2.974 0 0 0-.56-.629c-.073.283-.133.533-.178.752-.037.21-.068.415-.096.615-.018.2-.032.406-.04.615v.698c0 .383.031.765.095 1.148.064.374.132.748.205 1.121.073.374.141.752.205 1.135.073.374.11.752.11 1.135v.11a1.7 1.7 0 0 1-.11.136l-.178.178a1.638 1.638 0 0 1-.177.177L2.465 20c-.01.01-.027.014-.055.014a.258.258 0 0 1-.082.013.225.225 0 0 1-.068-.013A.226.226 0 0 0 2.19 20a46.813 46.813 0 0 0-.205-1.504 87.677 87.677 0 0 1-.205-1.408 66.694 66.694 0 0 1-.15-1.408 20.03 20.03 0 0 1-.055-1.532zm12.004.274v-.287a7.25 7.25 0 0 0 .014-.451v-.424a5.05 5.05 0 0 0 .013-.287c.064-.11.137-.215.22-.315a.72.72 0 0 1 .273-.218.466.466 0 0 1 .314-.028c.119.027.237.119.356.273v.288a37.219 37.219 0 0 1-.26 1.436 2.6 2.6 0 0 0-.041.314c0 .173.018.392.054.656.037.255.087.524.15.807.074.282.16.565.26.847.11.283.238.538.383.766.146.219.306.4.479.547a.979.979 0 0 0 .629.218c.291 0 .547-.077.765-.232.228-.155.424-.355.588-.602.164-.246.297-.524.397-.834.11-.31.196-.62.26-.93a8.92 8.92 0 0 0 .177-1.68c0-.22-.018-.425-.054-.616a6.098 6.098 0 0 0-.11-.588 15.824 15.824 0 0 1-.123-.56 4.062 4.062 0 0 1-.04-.575c0-.173.058-.296.177-.369a.84.84 0 0 1 .424-.11c.191 0 .346.06.465.178.118.11.21.251.273.424.073.173.118.374.137.602.027.219.04.437.04.656 0 .219-.004.429-.013.629-.009.191-.014.346-.014.465 0 .31-.022.66-.068 1.053a7.789 7.789 0 0 1-.246 1.216c-.11.41-.25.816-.424 1.217-.164.401-.369.761-.615 1.08-.237.31-.515.56-.834.752-.31.192-.66.287-1.053.287-.41 0-.77-.095-1.08-.287-.31-.2-.574-.46-.793-.78a5.417 5.417 0 0 1-.533-1.107c-.146-.41-.26-.82-.342-1.23a14.82 14.82 0 0 1-.164-1.19c-.027-.391-.04-.729-.04-1.011zm7.027.97c0-.236.06-.405.178-.505.119-.11.31-.164.574-.164h.137l.096.505a3.8 3.8 0 0 0 .424 1.149c.1.164.223.296.369.396.009-.319.086-.624.232-.916.155-.3.342-.565.56-.792.229-.237.475-.433.739-.588.273-.165.542-.274.807-.329h.3c.438 0 .812.1 1.122.301.31.192.565.447.765.766.21.31.37.665.479 1.066.109.401.191.811.246 1.23.064.41.1.812.11 1.204.017.383.026.71.026.984h-.998a25.338 25.338 0 0 0-.205-1.572 9.17 9.17 0 0 0-.109-.629 8.04 8.04 0 0 0-.328-1.176 1.958 1.958 0 0 0-.219-.437l-.15-.15a3.41 3.41 0 0 0-.356-.356.363.363 0 0 0-.095-.069.719.719 0 0 0-.711.165c-.2.173-.379.41-.534.71a5.01 5.01 0 0 0-.382 1.026 20.14 20.14 0 0 0-.233 1.107c-.064.347-.11.652-.137.916-.027.256-.045.41-.054.465-.228.164-.442.214-.643.15-.2-.072-.392-.218-.574-.437a3.815 3.815 0 0 1-.479-.82 13.722 13.722 0 0 1-.382-1.04 26.186 26.186 0 0 1-.328-1.12 74.36 74.36 0 0 1-.247-1.04zm7.616 2.995c0-.529.132-.998.396-1.409.265-.41.593-.765.985-1.066a6.26 6.26 0 0 1 1.271-.78c.456-.218.88-.396 1.272-.532.391-.146.72-.26.984-.342.264-.091.396-.164.396-.219 0-.319-.018-.629-.054-.93-.028-.31-.06-.62-.096-.93l-.11-.915c-.027-.31-.04-.616-.04-.916v-.889c.373-.137.638-.123.793.041.164.164.19.447.082.848.036.2.086.515.15.943.064.428.132.912.205 1.45.082.537.164 1.102.246 1.694.091.593.173 1.163.246 1.71.082.537.15 1.02.205 1.449l.123.943c.01.046.019.137.028.274.009.127.013.268.013.423.01.146.014.283.014.41.01.128.014.22.014.274-.347 0-.584-.014-.711-.041-.119-.027-.196-.082-.233-.164a1.184 1.184 0 0 1-.04-.356c0-.154-.046-.369-.137-.642a8.204 8.204 0 0 1-.957.656c-.301.173-.602.315-.903.424-.3.1-.606.168-.916.205-.3.046-.624.068-.97.068-.292 0-.575-.022-.848-.068a2.221 2.221 0 0 1-.711-.273c-.21-.128-.378-.301-.506-.52-.128-.219-.191-.492-.191-.82zm1.19-.287c0 .145.031.264.095.355a.859.859 0 0 0 .246.233c.1.063.205.109.314.136.119.018.233.028.342.028.32 0 .661-.06 1.026-.178a4.02 4.02 0 0 0 1.025-.52c.319-.228.579-.496.78-.806.209-.31.314-.647.314-1.012 0-.283-.05-.479-.15-.588-.101-.11-.292-.164-.575-.164-.292 0-.633.068-1.025.205a5.787 5.787 0 0 0-1.121.547 3.667 3.667 0 0 0-.903.807c-.246.3-.369.62-.369.957zm12.618.136c-.346.237-.647.451-.902.643a6.021 6.021 0 0 1-.725.465 3.086 3.086 0 0 1-.765.287 4.278 4.278 0 0 1-.985.096c-.847 0-1.476-.224-1.886-.67-.41-.456-.616-1.13-.616-2.024 0-.346.046-.706.137-1.08a5.76 5.76 0 0 1 .396-1.107c.183-.374.397-.725.643-1.053a4.84 4.84 0 0 1 .834-.889 3.97 3.97 0 0 1 .985-.601c.355-.155.729-.233 1.12-.233.657.064 1.172.228 1.545.492.374.256.657.588.848.998.192.402.324.853.397 1.354.073.492.127 1.003.164 1.531.045.529.1 1.058.164 1.586.064.529.196 1.017.396 1.463-.118.3-.232.51-.341.629-.1.128-.215.15-.342.068-.128-.082-.278-.282-.451-.601-.165-.32-.37-.77-.616-1.354zm-4.716-1.175c0 .52.095.902.287 1.148.2.237.551.355 1.052.355.374 0 .73-.063 1.067-.191.346-.137.647-.319.902-.547.255-.237.46-.52.615-.848a2.53 2.53 0 0 0 .233-1.093c0-.164.004-.392.013-.684.01-.3-.009-.597-.054-.889a2.038 2.038 0 0 0-.26-.752.623.623 0 0 0-.574-.328c-.474 0-.912.123-1.313.37a3.69 3.69 0 0 0-1.039.916 4.47 4.47 0 0 0-.684 1.244c-.163.446-.245.88-.245 1.299zm7.328-1.668c0-.237.059-.406.177-.506.119-.11.31-.164.575-.164h.136l.096.505a3.8 3.8 0 0 0 .424 1.149c.1.164.223.296.369.396.009-.319.087-.624.232-.916.155-.3.342-.565.56-.792a3.43 3.43 0 0 1 .74-.588c.273-.165.541-.274.806-.329h.3c.438 0 .812.1 1.122.301.31.192.565.447.765.766.21.31.37.665.479 1.066.11.401.191.811.246 1.23.064.41.1.812.11 1.204.017.383.027.71.027.984h-.998a25.413 25.413 0 0 0-.206-1.572 9.11 9.11 0 0 0-.109-.629 8.042 8.042 0 0 0-.328-1.176 1.958 1.958 0 0 0-.219-.437l-.15-.15a3.412 3.412 0 0 0-.356-.356.367.367 0 0 0-.095-.069.719.719 0 0 0-.711.165c-.2.173-.378.41-.533.71-.155.301-.283.643-.383 1.026-.091.383-.169.752-.233 1.107-.063.347-.109.652-.136.916-.028.256-.046.41-.055.465-.228.164-.442.214-.643.15-.2-.072-.392-.218-.574-.437a3.815 3.815 0 0 1-.478-.82 13.766 13.766 0 0 1-.383-1.04 25.9 25.9 0 0 1-.328-1.12c-.092-.374-.174-.72-.246-1.04zm7.916.806c0-.492.059-.984.177-1.476.119-.493.306-.935.56-1.327a3.173 3.173 0 0 1 1.013-.957c.419-.246.925-.369 1.517-.369.337 0 .634.064.889.192.255.118.47.278.642.478.174.2.301.438.383.711.091.264.137.542.137.834 0 .465-.11.916-.328 1.354a3.82 3.82 0 0 1-.861 1.162 3.697 3.697 0 0 1-1.231.752c-.465.164-.939.2-1.422.11.01.263.096.478.26.642.173.155.378.273.615.355.237.082.483.137.738.164.256.018.483.028.684.028a3 3 0 0 0 .588-.055 11.8 11.8 0 0 0 .547-.123 11.8 11.8 0 0 1 .547-.123c.191-.037.392-.055.601-.055.082 0 .164.005.246.014.082.009.16.032.233.068a.355.355 0 0 1 .178.15.413.413 0 0 1 .068.247.574.574 0 0 1-.192.437c-.127.11-.291.205-.492.287a3.126 3.126 0 0 1-.642.192c-.237.036-.47.068-.698.095a7.401 7.401 0 0 1-.615.028c-.182.009-.319.013-.41.013a4.277 4.277 0 0 1-1.572-.273 3.444 3.444 0 0 1-1.176-.78 3.512 3.512 0 0 1-.738-1.203 4.78 4.78 0 0 1-.246-1.572zm1.449-.889c0 .32.04.552.123.698.091.146.305.219.642.219.237 0 .47-.041.698-.123a2.21 2.21 0 0 0 .615-.37c.191-.155.342-.337.451-.546.11-.21.164-.438.164-.684 0-.137-.014-.278-.04-.424a.978.978 0 0 0-.138-.396.828.828 0 0 0-.287-.301.712.712 0 0 0-.437-.123c-.274 0-.524.064-.752.191a1.764 1.764 0 0 0-.56.479c-.156.191-.274.41-.356.656a2.2 2.2 0 0 0-.123.724zm13.098-6.152a1.15 1.15 0 0 1-.206-.027 8.927 8.927 0 0 0-.26-.082 4.724 4.724 0 0 0-.26-.096 1.294 1.294 0 0 1-.163-.082.122.122 0 0 1-.014-.055.152.152 0 0 1-.014-.068c0-.128.05-.237.15-.328.101-.091.215-.164.343-.219.136-.064.269-.11.396-.137.128-.036.228-.059.3-.068H67.68c.218.018.496.046.834.082.337.037.692.078 1.066.123.383.037.766.078 1.148.123.392.037.743.078 1.053.123.32.037.584.069.793.096.219.018.347.027.383.027.073.01.164.028.274.055.118.018.236.055.355.11.118.045.228.104.328.177.1.064.173.146.219.246-.073.146-.137.26-.192.342a.82.82 0 0 1-.177.178.407.407 0 0 1-.205.054h-.246c-.383 0-.77-.013-1.163-.04l-1.148-.083-1.162-.082c-.383-.027-.77-.04-1.162-.04a5.9 5.9 0 0 1-.069.738 29 29 0 0 0-.095 1.039c-.019.364-.01.729.027 1.093.046.356.15.657.315.903.319-.192.651-.292.998-.301.346-.01.697-.014 1.052-.014h.588c.237 0 .465.028.684.082.228.055.419.146.574.274.155.127.232.319.232.574 0 .182-.036.319-.109.41-.073.091-.242.137-.506.137a.837.837 0 0 1-.178-.041 11.24 11.24 0 0 1-.533-.191.67.67 0 0 0-.164-.042h-.11a1.284 1.284 0 0 0-.204-.013h-.246a1.5 1.5 0 0 0-.178-.014c-.21 0-.415.014-.615.041-.192.027-.36.082-.506.164a.95.95 0 0 0-.356.356c-.082.155-.123.355-.123.601 0 .082.01.224.028.424.018.2.04.424.068.67.036.237.082.483.137.738.054.255.127.492.218.711.092.21.192.387.301.533.119.137.26.205.424.205.018 0 .064-.004.137-.013.073-.01.118-.014.137-.014.31-.21.62-.437.93-.683.318-.247.646-.474.983-.684a6.092 6.092 0 0 1 1.053-.547 2.873 2.873 0 0 1 1.135-.232v.67c0 .036-.091.136-.273.3a8.114 8.114 0 0 1-.698.575c-.282.218-.601.45-.957.697-.355.246-.71.474-1.066.683-.356.2-.697.37-1.025.506-.32.137-.588.205-.807.205-.31 0-.588-.136-.834-.41-.237-.282-.451-.652-.643-1.107a9.262 9.262 0 0 1-.478-1.6 35.534 35.534 0 0 1-.342-1.86 46.83 46.83 0 0 1-.232-1.9c-.055-.638-.1-1.226-.137-1.763a67.264 67.264 0 0 1-.082-1.395 27.42 27.42 0 0 0-.027-.834zm8.189 4.389c-.01-.01-.014-.023-.014-.041a.236.236 0 0 1-.013-.096c0-.173.073-.292.218-.355a.946.946 0 0 1 .424-.11c.018 0 .037.005.055.014h.096c.027.01.068.014.123.014l1.914 1.613c.328-.474.592-.843.793-1.107.21-.265.373-.456.492-.575.118-.127.205-.2.26-.219a.415.415 0 0 1 .136-.04h.205c.082 0 .164.009.247.027.082.009.15.036.205.082a.38.38 0 0 1 .136.219c-.155.155-.3.31-.437.464a4.304 4.304 0 0 0-.383.506 4.99 4.99 0 0 0-.342.588c-.1.219-.205.465-.314.739.173.127.387.31.642.546.265.228.529.483.793.766.274.273.538.556.793.848.255.282.465.551.63.806.172.255.282.474.327.657.055.182.023.3-.096.355a3.305 3.305 0 0 0-.26.37c-.045.072-.095.095-.15.068-.045-.028-.109-.114-.191-.26a4.685 4.685 0 0 0-.451-.615 16.56 16.56 0 0 0-.875-1.026c-.374-.41-.87-.898-1.49-1.463l-.11 3.377c0 .01-.018.028-.055.055a5.06 5.06 0 0 0-.122.096 1.842 1.842 0 0 1-.246.15H77.933a5.151 5.151 0 0 1-.192-.164c-.073-.073-.11-.119-.11-.137v-3.814l-2.337-2.338zm7.014 1.408c0-.884.205-1.54.615-1.969.41-.428 1.039-.642 1.886-.642.347 0 .702.032 1.067.096.374.063.715.177 1.025.341.31.155.56.374.752.656.2.283.301.648.301 1.094 0 .492-.11.957-.328 1.395-.21.428-.479.834-.807 1.217a8.96 8.96 0 0 1-1.066 1.052 78.3 78.3 0 0 0-1.08.916.958.958 0 0 0-.055.233c-.009.11-.013.182-.013.218 0 .301.086.602.26.903.181.31.377.62.587.93.21.319.401.647.574.984.174.337.26.688.26 1.053 0 .218-.046.346-.137.383-.09.045-.282.068-.574.068-.182-.073-.364-.246-.547-.52a7.879 7.879 0 0 1-.533-.984 18.4 18.4 0 0 1-.52-1.326 56.159 56.159 0 0 1-.478-1.477 212.88 212.88 0 0 1-.424-1.504 99.024 99.024 0 0 1-.342-1.38c-.1-.42-.191-.78-.273-1.08-.073-.31-.123-.53-.15-.657zm1.162.123c0 .137.009.337.027.602.018.255.055.51.11.765.063.256.154.479.273.67a.557.557 0 0 0 .492.274c.283 0 .565-.096.848-.287.291-.192.547-.433.765-.725.228-.292.41-.602.547-.93.146-.337.219-.642.219-.916 0-.228-.055-.405-.164-.533a1.057 1.057 0 0 0-.424-.314 1.5 1.5 0 0 0-.533-.15 3.878 3.878 0 0 0-.547-.042c-.52 0-.92.141-1.203.424-.274.274-.41.66-.41 1.162zm5.29 1.121c0-.492.06-.984.178-1.476.119-.493.306-.935.561-1.327a3.174 3.174 0 0 1 1.012-.957c.419-.246.925-.369 1.517-.369.338 0 .634.064.889.192.255.118.47.278.642.478.174.2.301.438.383.711.091.264.137.542.137.834 0 .465-.11.916-.328 1.354-.21.437-.497.825-.861 1.162a3.697 3.697 0 0 1-1.23.752c-.466.164-.94.2-1.423.11.01.263.096.478.26.642.173.155.378.273.615.355.237.082.483.137.739.164.255.018.483.028.683.028a3 3 0 0 0 .588-.055 11.8 11.8 0 0 0 .547-.123 11.8 11.8 0 0 1 .547-.123c.191-.037.392-.055.601-.055.082 0 .164.005.246.014.083.009.16.032.233.068a.355.355 0 0 1 .178.15.413.413 0 0 1 .068.247.574.574 0 0 1-.191.437c-.128.11-.292.205-.493.287a3.127 3.127 0 0 1-.642.192c-.237.036-.47.068-.698.095a7.401 7.401 0 0 1-.615.028c-.182.009-.319.013-.41.013a4.277 4.277 0 0 1-1.572-.273 3.444 3.444 0 0 1-1.176-.78 3.512 3.512 0 0 1-.738-1.203 4.783 4.783 0 0 1-.246-1.572zm1.45-.889c0 .32.041.552.123.698.091.146.305.219.643.219.236 0 .469-.041.697-.123a2.21 2.21 0 0 0 .615-.37c.192-.155.342-.337.451-.546.11-.21.164-.438.164-.684 0-.137-.013-.278-.04-.424a.978.978 0 0 0-.137-.396.83.83 0 0 0-.288-.301.712.712 0 0 0-.437-.123c-.273 0-.524.064-.752.191a1.763 1.763 0 0 0-.56.479c-.156.191-.274.41-.356.656a2.202 2.202 0 0 0-.123.724zm6.18-1.052c0-.082.004-.164.013-.246a.79.79 0 0 1 .055-.233.415.415 0 0 1 .123-.177.439.439 0 0 1 .26-.069c.09 0 .191.073.3.219.12.137.238.314.356.533.118.21.233.442.342.697.118.256.219.493.3.711.092.21.165.392.22.547.054.155.086.237.095.246.119-.319.25-.665.397-1.039.145-.373.323-.72.533-1.039.218-.328.474-.601.765-.82.301-.219.666-.328 1.094-.328.219 0 .424.036.615.11.201.063.374.163.52.3.155.127.278.283.369.465.091.182.137.392.137.629 0 .2-.082.341-.246.424a1.125 1.125 0 0 1-.534.122h-.136l-.588-.587c-.018 0-.032-.005-.041-.014h-.055c-.009-.01-.023-.014-.041-.014-.319 0-.57.091-.752.274a1.689 1.689 0 0 0-.396.656c-.091.255-.15.529-.178.82-.018.283-.027.543-.027.78 0 .182.018.369.054.56.037.182.078.365.123.547.046.173.087.355.123.547.037.182.055.374.055.574 0 .383-.205.574-.615.574-.228 0-.465-.118-.711-.355a5.912 5.912 0 0 1-.738-.93 12.892 12.892 0 0 1-.684-1.23 17.73 17.73 0 0 1-.574-1.326 14.804 14.804 0 0 1-.397-1.163c-.09-.346-.136-.601-.136-.765zm7.56.615v-.26c.009-.127.014-.26.014-.396a6.05 6.05 0 0 0 .014-.397c.009-.127.013-.218.013-.273.1-.146.228-.264.383-.356.164-.09.328-.164.492-.218.028.492.105 1.016.233 1.572.127.556.264 1.117.41 1.682.146.556.273 1.107.383 1.654.118.547.177 1.057.177 1.531 0 .41-.209.615-.629.615a.801.801 0 0 1-.642-.314 2.508 2.508 0 0 1-.424-.793 8.297 8.297 0 0 1-.246-1.08 13.881 13.881 0 0 1-.137-1.176 56.752 56.752 0 0 1-.041-1.053v-.738zm.192-5.127c.173.073.319.191.437.356.119.164.169.314.15.45-.009.128-.109.22-.3.274-.192.046-.511-.009-.957-.164 0-.246.045-.46.136-.643.101-.182.278-.273.534-.273zm2.461 6.453c0-.492.059-.984.177-1.476.119-.493.306-.935.561-1.327a3.163 3.163 0 0 1 1.012-.957c.419-.246.925-.369 1.517-.369.337 0 .634.064.889.192.255.118.469.278.642.478.174.2.301.438.383.711.091.264.137.542.137.834 0 .465-.11.916-.328 1.354-.21.437-.497.825-.862 1.162a3.689 3.689 0 0 1-1.23.752c-.465.164-.939.2-1.422.11a.916.916 0 0 0 .26.642c.173.155.378.273.615.355.237.082.483.137.738.164.256.018.483.028.684.028.21 0 .406-.019.588-.055.182-.037.364-.078.547-.123.182-.046.364-.087.547-.123.191-.037.392-.055.601-.055.082 0 .164.005.246.014a.69.69 0 0 1 .233.068.35.35 0 0 1 .177.15.41.41 0 0 1 .069.247.573.573 0 0 1-.192.437c-.127.11-.291.205-.492.287a3.113 3.113 0 0 1-.642.192c-.237.036-.47.068-.698.095a7.372 7.372 0 0 1-.615.028c-.182.009-.319.013-.41.013a4.278 4.278 0 0 1-1.572-.273 3.444 3.444 0 0 1-1.176-.78 3.508 3.508 0 0 1-.738-1.203 4.783 4.783 0 0 1-.246-1.572zm1.449-.889c0 .32.041.552.123.698.091.146.305.219.642.219.237 0 .47-.041.698-.123.227-.092.433-.215.615-.37.191-.155.342-.337.451-.546a1.46 1.46 0 0 0 .164-.684c0-.137-.014-.278-.041-.424a.974.974 0 0 0-.137-.396.824.824 0 0 0-.287-.301.71.71 0 0 0-.437-.123c-.274 0-.524.064-.752.191a1.763 1.763 0 0 0-.561.479c-.155.191-.273.41-.355.656a2.202 2.202 0 0 0-.123.724zm6.179.083c0-.237.06-.406.178-.506.119-.11.31-.164.574-.164h.137l.096.505a3.745 3.745 0 0 0 .424 1.149c.1.164.223.296.369.396a2.16 2.16 0 0 1 .232-.916c.155-.3.342-.565.561-.792a3.44 3.44 0 0 1 .738-.588c.273-.165.542-.274.807-.329h.3c.438 0 .812.1 1.122.301.309.192.565.447.765.766.21.31.369.665.479 1.066.109.401.191.811.246 1.23.064.41.1.812.109 1.204.018.383.027.71.027.984h-.998a24.89 24.89 0 0 0-.205-1.572c-.027-.2-.063-.41-.109-.629a8.577 8.577 0 0 0-.15-.629 5.545 5.545 0 0 0-.178-.547 1.966 1.966 0 0 0-.219-.437 26.97 26.97 0 0 0-.15-.15 3.456 3.456 0 0 0-.356-.356.36.36 0 0 0-.095-.069.719.719 0 0 0-.711.165c-.201.173-.379.41-.534.71-.155.301-.282.643-.382 1.026-.092.383-.169.752-.233 1.107-.064.347-.109.652-.137.916-.027.256-.045.41-.054.465-.228.164-.442.214-.643.15-.2-.072-.392-.218-.574-.437a3.832 3.832 0 0 1-.479-.82 13.855 13.855 0 0 1-.382-1.04 24.944 24.944 0 0 1-.328-1.12c-.092-.374-.174-.72-.247-1.04zm7.643.492c0-.383.082-.784.246-1.203a4.31 4.31 0 0 1 .684-1.135c.282-.347.606-.634.97-.862a2.227 2.227 0 0 1 1.176-.341 1.905 1.905 0 0 1 1.19.424c.173.136.31.3.41.492.109.191.164.405.164.642-.164 0-.315-.018-.451-.054a6.016 6.016 0 0 1-.383-.123 3.201 3.201 0 0 0-.383-.137 1.342 1.342 0 0 0-.396-.055c-.374 0-.679.096-.916.287a1.974 1.974 0 0 0-.547.698 3.325 3.325 0 0 0-.287.916c-.046.319-.069.62-.069.902v.26c.009.127.014.264.014.41.009.137.014.269.014.396.009.128.018.214.027.26.1.219.196.387.287.506.1.119.205.21.314.273.11.055.228.092.356.11.128.009.278.014.451.014.237 0 .442-.037.615-.11.183-.073.351-.16.506-.26.155-.1.301-.21.438-.328.136-.127.278-.241.424-.342.154-.109.319-.196.492-.26.182-.072.387-.109.615-.109 0 .447-.082.843-.246 1.19a2.464 2.464 0 0 1-.67.888c-.283.246-.62.438-1.012.575a3.958 3.958 0 0 1-1.258.191 1.76 1.76 0 0 1-1.162-.438 4.219 4.219 0 0 1-.875-1.066 6.037 6.037 0 0 1-.547-1.353 4.937 4.937 0 0 1-.191-1.258zm6.727.314c0-.492.059-.984.177-1.476.119-.493.306-.935.561-1.327a3.163 3.163 0 0 1 1.012-.957c.419-.246.925-.369 1.517-.369.337 0 .634.064.889.192.255.118.469.278.642.478.174.2.301.438.383.711.091.264.137.542.137.834 0 .465-.109.916-.328 1.354-.21.437-.497.825-.862 1.162a3.689 3.689 0 0 1-1.23.752c-.465.164-.939.2-1.422.11a.916.916 0 0 0 .26.642c.173.155.378.273.615.355.237.082.483.137.738.164.256.018.483.028.684.028.21 0 .406-.019.588-.055.182-.037.364-.078.547-.123.182-.046.364-.087.547-.123.191-.037.392-.055.601-.055.082 0 .164.005.246.014a.69.69 0 0 1 .233.068.35.35 0 0 1 .177.15.41.41 0 0 1 .069.247.573.573 0 0 1-.192.437c-.127.11-.291.205-.492.287a3.113 3.113 0 0 1-.642.192c-.237.036-.47.068-.698.095a7.372 7.372 0 0 1-.615.028c-.182.009-.319.013-.41.013a4.278 4.278 0 0 1-1.572-.273 3.444 3.444 0 0 1-1.176-.78 3.508 3.508 0 0 1-.738-1.203 4.783 4.783 0 0 1-.246-1.572zm1.449-.889c0 .32.041.552.123.698.091.146.305.219.642.219.237 0 .47-.041.698-.123.228-.092.433-.215.615-.37.191-.155.342-.337.451-.546a1.46 1.46 0 0 0 .164-.684c0-.137-.014-.278-.041-.424a.974.974 0 0 0-.137-.396.824.824 0 0 0-.287-.301.71.71 0 0 0-.437-.123c-.274 0-.524.064-.752.191a1.763 1.763 0 0 0-.561.479c-.155.191-.273.41-.355.656a2.202 2.202 0 0 0-.123.724zm8.804 4.075c.146-.1.319-.228.52-.383.21-.164.419-.337.629-.52.21-.182.406-.373.588-.574.182-.2.323-.392.424-.574a1.09 1.09 0 0 0 .164-.533c0-.164-.082-.301-.246-.41-.292 0-.611.013-.957.04-.347.019-.693.028-1.039.028a7.307 7.307 0 0 1-1.012-.096 2.62 2.62 0 0 1-.862-.3 1.661 1.661 0 0 1-.615-.616c-.146-.273-.219-.62-.219-1.039 0-.492.092-.934.274-1.326.191-.401.442-.752.752-1.053.31-.31.656-.579 1.039-.806a8.97 8.97 0 0 1 1.176-.602c.237.064.455.178.656.342.2.164.374.346.519.547a.8.8 0 0 1-.382.465c-.183.109-.397.205-.643.287l-.752.26a2.846 2.846 0 0 0-.724.369c-.21.146-.388.341-.534.588-.146.237-.218.55-.218.943 0 .291.072.506.218.643.146.136.338.232.575.287.237.045.505.063.806.054.301-.018.606-.04.916-.068.319-.027.629-.041.93-.041.301-.01.57.027.807.11.237.072.423.195.56.368.146.174.219.429.219.766 0 .146-.05.333-.151.56a4.784 4.784 0 0 1-.382.739c-.155.255-.342.51-.561.765-.21.256-.433.488-.67.698-.228.2-.46.369-.697.506a1.325 1.325 0 0 1-.643.191c-.191 0-.319-.068-.382-.205a1.092 1.092 0 0 1-.083-.41z"/><path id="o" d="M0-.5a.5.5 0 0 0 0 1v-1zm328 1a.5.5 0 0 0 0-1v1zM5.125.5a.5.5 0 0 0 0-1v1zm10.25-1a.5.5 0 0 0 0 1v-1zm10.25 1a.5.5 0 0 0 0-1v1zm10.25-1a.5.5 0 0 0 0 1v-1zm10.25 1a.5.5 0 0 0 0-1v1zm10.25-1a.5.5 0 0 0 0 1v-1zm10.25 1a.5.5 0 0 0 0-1v1zm10.25-1a.5.5 0 0 0 0 1v-1zm10.25 1a.5.5 0 0 0 0-1v1zm10.25-1a.5.5 0 0 0 0 1v-1zm10.25 1a.5.5 0 0 0 0-1v1zm10.25-1a.5.5 0 0 0 0 1v-1zm10.25 1a.5.5 0 0 0 0-1v1zm10.25-1a.5.5 0 0 0 0 1v-1zm10.25 1a.5.5 0 0 0 0-1v1zm10.25-1a.5.5 0 0 0 0 1v-1zm10.25 1a.5.5 0 0 0 0-1v1zm10.25-1a.5.5 0 0 0 0 1v-1zm10.25 1a.5.5 0 0 0 0-1v1zm10.25-1a.5.5 0 0 0 0 1v-1zm10.25 1a.5.5 0 0 0 0-1v1zm10.25-1a.5.5 0 0 0 0 1v-1zm10.25 1a.5.5 0 0 0 0-1v1zm10.25-1a.5.5 0 0 0 0 1v-1zm10.25 1a.5.5 0 0 0 0-1v1zm10.25-1a.5.5 0 0 0 0 1v-1zm10.25 1a.5.5 0 0 0 0-1v1zm10.25-1a.5.5 0 0 0 0 1v-1zm10.25 1a.5.5 0 0 0 0-1v1zm10.25-1a.5.5 0 0 0 0 1v-1zm10.25 1a.5.5 0 0 0 0-1v1zm10.25-1a.5.5 0 0 0 0 1v-1zM0 .5h5.125v-1H0v1zm15.375 0h10.25v-1h-10.25v1zm20.5 0h10.25v-1h-10.25v1zm20.5 0h10.25v-1h-10.25v1zm20.5 0h10.25v-1h-10.25v1zm20.5 0h10.25v-1h-10.25v1zm20.5 0h10.25v-1h-10.25v1zm20.5 0h10.25v-1h-10.25v1zm20.5 0h10.25v-1h-10.25v1zm20.5 0h10.25v-1h-10.25v1zm20.5 0h10.25v-1h-10.25v1zm20.5 0h10.25v-1h-10.25v1zm20.5 0h10.25v-1h-10.25v1zm20.5 0h10.25v-1h-10.25v1zm20.5 0h10.25v-1h-10.25v1zm20.5 0h10.25v-1h-10.25v1zm20.5 0H328v-1h-5.125v1zM0-1a1 1 0 1 0 0 2v-2zm328 2a1 1 0 0 0 0-2v2zM5.125 1a1 1 0 0 0 0-2v2zm10.25-2a1 1 0 1 0 0 2v-2zm10.25 2a1 1 0 1 0 0-2v2zm10.25-2a1 1 0 1 0 0 2v-2zm10.25 2a1 1 0 1 0 0-2v2zm10.25-2a1 1 0 1 0 0 2v-2zm10.25 2a1 1 0 1 0 0-2v2zm10.25-2a1 1 0 1 0 0 2v-2zm10.25 2a1 1 0 1 0 0-2v2zm10.25-2a1 1 0 1 0 0 2v-2zm10.25 2a1 1 0 0 0 0-2v2zm10.25-2a1 1 0 0 0 0 2v-2zm10.25 2a1 1 0 0 0 0-2v2zm10.25-2a1 1 0 0 0 0 2v-2zm10.25 2a1 1 0 0 0 0-2v2zm10.25-2a1 1 0 0 0 0 2v-2zm10.25 2a1 1 0 0 0 0-2v2zm10.25-2a1 1 0 0 0 0 2v-2zm10.25 2a1 1 0 0 0 0-2v2zm10.25-2a1 1 0 0 0 0 2v-2zm10.25 2a1 1 0 0 0 0-2v2zm10.25-2a1 1 0 0 0 0 2v-2zm10.25 2a1 1 0 0 0 0-2v2zm10.25-2a1 1 0 0 0 0 2v-2zm10.25 2a1 1 0 0 0 0-2v2zm10.25-2a1 1 0 0 0 0 2v-2zm10.25 2a1 1 0 0 0 0-2v2zm10.25-2a1 1 0 0 0 0 2v-2zm10.25 2a1 1 0 0 0 0-2v2zm10.25-2a1 1 0 0 0 0 2v-2zm10.25 2a1 1 0 0 0 0-2v2zm10.25-2a1 1 0 0 0 0 2v-2zM0 1h5.125v-2H0v2zm15.375 0h10.25v-2h-10.25v2zm20.5 0h10.25v-2h-10.25v2zm20.5 0h10.25v-2h-10.25v2zm20.5 0h10.25v-2h-10.25v2zm20.5 0h10.25v-2h-10.25v2zm20.5 0h10.25v-2h-10.25v2zm20.5 0h10.25v-2h-10.25v2zm20.5 0h10.25v-2h-10.25v2zm20.5 0h10.25v-2h-10.25v2zm20.5 0h10.25v-2h-10.25v2zm20.5 0h10.25v-2h-10.25v2zm20.5 0h10.25v-2h-10.25v2zm20.5 0h10.25v-2h-10.25v2zm20.5 0h10.25v-2h-10.25v2zm20.5 0h10.25v-2h-10.25v2zm20.5 0H328v-2h-5.125v2z"/><path id="v" d="M0 0h30v308H0V0z"/><path id="x" d="M.46 14.148v-.533c.01-.255.014-.52.014-.793v-.793c.009-.246.013-.419.013-.52.01-.063.032-.159.069-.286.036-.137.077-.27.123-.397.054-.127.123-.237.205-.328.09-.1.2-.15.328-.15.3 0 .583.082.848.246.264.164.52.383.765.656.246.264.479.56.697.889.228.328.452.656.67.984.22.32.433.624.643.916.21.283.42.51.629.684.228-.1.405-.283.533-.547.128-.274.232-.584.315-.93.082-.355.154-.72.218-1.094.073-.382.169-.733.287-1.052.119-.32.274-.58.465-.78.2-.21.474-.314.82-.314.41 0 .78.16 1.108.478.337.32.638.725.902 1.217a8.94 8.94 0 0 1 .67 1.64c.192.602.351 1.181.479 1.737.127.556.223 1.057.287 1.504.064.447.096.766.096.957 0 .082-.005.173-.014.273a.841.841 0 0 1-.069.26.417.417 0 0 1-.177.178c-.082.037-.2.032-.356-.014a.574.574 0 0 1-.164-.068 2.701 2.701 0 0 1-.341-.342c-.046-.064-.069-.118-.069-.164l-.273-1.49c-.1-.547-.228-1.098-.383-1.654a11.22 11.22 0 0 0-.56-1.641 5.106 5.106 0 0 0-.848-1.367c-.265.146-.474.369-.63.67a5.515 5.515 0 0 0-.368.97c-.1.347-.192.702-.274 1.067a5.124 5.124 0 0 1-.328.998c-.137.292-.31.533-.52.725-.21.19-.492.287-.847.287a1.31 1.31 0 0 1-.725-.233 3.875 3.875 0 0 1-.67-.629 11.136 11.136 0 0 1-.642-.861c-.2-.32-.401-.629-.602-.93-.191-.31-.383-.597-.574-.861a2.974 2.974 0 0 0-.56-.629c-.073.283-.133.533-.178.752-.037.21-.069.415-.096.615-.018.2-.032.406-.041.615v.698c0 .383.032.765.096 1.148.063.374.132.748.205 1.121.073.374.141.752.205 1.135.073.374.11.752.11 1.135v.11a1.7 1.7 0 0 1-.11.136l-.178.178a1.638 1.638 0 0 1-.178.177c-.063.046-.109.078-.136.096-.01.01-.028.014-.055.014a.258.258 0 0 1-.082.013.225.225 0 0 1-.068-.013.226.226 0 0 0-.069-.014 46.793 46.793 0 0 0-.205-1.504 87.744 87.744 0 0 1-.205-1.408 66.734 66.734 0 0 1-.15-1.408 20.031 20.031 0 0 1-.055-1.532zM12.464 16.2c0-.492.06-.984.178-1.476.118-.493.305-.935.56-1.327a3.174 3.174 0 0 1 1.012-.957c.42-.246.925-.369 1.517-.369.338 0 .634.064.89.192.254.118.469.278.642.478.173.2.3.438.382.711.092.264.137.542.137.834 0 .465-.11.916-.328 1.354a3.82 3.82 0 0 1-.861 1.162 3.698 3.698 0 0 1-1.23.752c-.465.164-.94.2-1.423.11.01.263.096.478.26.642.173.155.379.273.615.355.237.082.484.137.739.164.255.018.483.028.683.028.21 0 .406-.019.588-.055a11.8 11.8 0 0 0 .547-.123c.182-.046.365-.087.547-.123.191-.037.392-.055.601-.055.082 0 .165.005.247.014.082.009.16.032.232.068a.355.355 0 0 1 .178.15.414.414 0 0 1 .068.247.574.574 0 0 1-.191.437c-.128.11-.292.205-.492.287a3.127 3.127 0 0 1-.643.192c-.237.036-.47.068-.697.095a7.403 7.403 0 0 1-.616.028c-.182.009-.319.013-.41.013a4.278 4.278 0 0 1-1.572-.273 3.446 3.446 0 0 1-1.176-.78 3.51 3.51 0 0 1-.738-1.203 4.78 4.78 0 0 1-.246-1.572zm1.45-.889c0 .32.04.552.122.698.091.146.306.219.643.219.237 0 .47-.041.697-.123a2.21 2.21 0 0 0 .615-.37c.192-.155.342-.337.451-.546.11-.21.164-.438.164-.684 0-.137-.013-.278-.04-.424a.978.978 0 0 0-.137-.396.828.828 0 0 0-.287-.301.712.712 0 0 0-.438-.123c-.273 0-.524.064-.752.191a1.764 1.764 0 0 0-.56.479c-.155.191-.274.41-.356.656a2.202 2.202 0 0 0-.123.724zm5.878 3.077c0-.529.132-.998.396-1.409.265-.41.593-.765.985-1.066.392-.31.816-.57 1.271-.78.456-.218.88-.396 1.272-.532.392-.146.72-.26.984-.342.265-.091.397-.164.397-.219 0-.319-.019-.629-.055-.93-.027-.31-.06-.62-.096-.93-.036-.31-.073-.614-.11-.915-.026-.31-.04-.616-.04-.916v-.889c.374-.137.638-.123.793.041.164.164.191.447.082.848.036.2.087.515.15.943.064.428.132.912.205 1.45.082.537.164 1.102.247 1.694.09.593.173 1.163.246 1.71.082.537.15 1.02.205 1.449l.123.943a5.998 5.998 0 0 1 .041.697c.009.146.013.283.013.41.01.128.014.22.014.274-.346 0-.583-.014-.71-.041-.12-.027-.197-.082-.233-.164a1.181 1.181 0 0 1-.041-.356c0-.154-.046-.369-.137-.642a8.204 8.204 0 0 1-.957.656c-.3.173-.602.315-.902.424-.301.1-.607.168-.916.205-.301.046-.625.068-.971.068-.292 0-.574-.022-.848-.068a2.22 2.22 0 0 1-.71-.273c-.21-.128-.379-.301-.507-.52-.127-.219-.191-.492-.191-.82zm1.19-.287c0 .145.031.264.095.355a.861.861 0 0 0 .246.233c.1.063.205.109.315.136.118.018.232.028.341.028.32 0 .661-.06 1.026-.178a4.02 4.02 0 0 0 1.025-.52c.32-.228.579-.496.78-.806.21-.31.314-.647.314-1.012 0-.283-.05-.479-.15-.588-.1-.11-.292-.164-.575-.164-.291 0-.633.068-1.025.205a5.787 5.787 0 0 0-1.121.547 3.669 3.669 0 0 0-.902.807c-.246.3-.37.62-.37.957zm7.314-3.227v-.26c.009-.127.014-.26.014-.396.009-.137.013-.27.013-.397.01-.127.014-.218.014-.273.1-.146.228-.264.383-.356.164-.09.328-.164.492-.218.027.492.105 1.016.232 1.572.128.556.265 1.117.41 1.682.146.556.274 1.107.383 1.654.119.547.178 1.057.178 1.531 0 .41-.21.615-.629.615a.802.802 0 0 1-.642-.314 2.512 2.512 0 0 1-.424-.793 8.231 8.231 0 0 1-.246-1.08c-.064-.401-.11-.793-.137-1.176a55.893 55.893 0 0 1-.041-1.053v-.738zm.191-5.127c.174.073.32.191.438.356.118.164.168.314.15.45-.009.128-.11.22-.3.274-.192.046-.511-.009-.958-.164 0-.246.046-.46.137-.643.1-.182.278-.273.533-.273zm2.16 3.363c0-.027.005-.05.014-.068 0-.018.005-.041.014-.068.036-.046.091-.105.164-.178.073-.073.118-.11.137-.11h2.748c0-.1-.014-.26-.041-.478-.028-.219-.055-.46-.082-.725a8.131 8.131 0 0 1-.014-.82c.009-.292.045-.551.11-.78a1.36 1.36 0 0 1 .327-.573c.155-.155.37-.233.643-.233 0 .92.064 1.659.191 2.215.128.556.297.984.506 1.285.219.301.465.497.739.588.273.091.551.132.834.123a4.33 4.33 0 0 0 .847-.137c.274-.072.515-.123.725-.15.218-.027.392-.005.52.068.127.064.19.224.19.479 0 .191-.045.328-.136.41-.082.082-.246.146-.492.191-.073.01-.196.028-.37.055-.163.018-.35.037-.56.055-.21.018-.433.04-.67.068-.237.018-.46.037-.67.055-.21.018-.4.032-.574.04h-.383c0 .046-.004.124-.013.233a3.32 3.32 0 0 0-.014.219c0 .401.064.793.191 1.176.128.373.265.747.41 1.12.155.375.297.748.424 1.122.128.374.192.761.192 1.162 0 .073-.01.15-.028.233a.443.443 0 0 1-.082.205.33.33 0 0 1-.177.123c-.073.036-.178.032-.315-.014a1.22 1.22 0 0 1-.78-.588 3.756 3.756 0 0 1-.368-1.066 9.963 9.963 0 0 1-.164-1.326 13.22 13.22 0 0 0-.137-1.3 3.737 3.737 0 0 0-.273-1.038c-.128-.292-.333-.47-.616-.534l-2.638-.601c-.037 0-.092-.037-.165-.11a1.022 1.022 0 0 1-.136-.177.153.153 0 0 1-.014-.069.19.19 0 0 1-.014-.082zm14.971 5.127c-.346.237-.647.451-.902.643a6.021 6.021 0 0 1-.725.465 3.086 3.086 0 0 1-.765.287 4.277 4.277 0 0 1-.985.096c-.847 0-1.476-.224-1.886-.67-.41-.456-.616-1.13-.616-2.024 0-.346.046-.706.137-1.08.091-.374.223-.743.397-1.107.182-.374.396-.725.642-1.053a4.84 4.84 0 0 1 .834-.889 3.97 3.97 0 0 1 .984-.601c.356-.155.73-.233 1.122-.233.656.064 1.17.228 1.544.492.374.256.657.588.848.998.191.402.324.853.397 1.354.073.492.127 1.003.164 1.531.045.529.1 1.058.164 1.586.063.529.196 1.017.396 1.463-.118.3-.232.51-.342.629-.1.128-.214.15-.341.068-.128-.082-.278-.282-.452-.601a20.8 20.8 0 0 1-.615-1.354zm-4.717-1.175c0 .52.096.902.287 1.148.201.237.552.355 1.053.355.374 0 .73-.063 1.067-.191.346-.137.647-.319.902-.547.255-.237.46-.52.615-.848a2.53 2.53 0 0 0 .233-1.093c0-.164.004-.392.013-.684.01-.3-.009-.597-.054-.889a2.038 2.038 0 0 0-.26-.752.623.623 0 0 0-.574-.328c-.474 0-.912.123-1.313.37a3.688 3.688 0 0 0-1.039.916c-.292.373-.52.788-.684 1.244-.164.446-.246.88-.246 1.299zm7.028-3.952c0-.027.004-.05.013-.068 0-.018.005-.041.014-.068a2.3 2.3 0 0 1 .164-.178c.073-.073.119-.11.137-.11h2.748c0-.1-.014-.26-.041-.478-.027-.219-.055-.46-.082-.725a8.103 8.103 0 0 1-.014-.82c.01-.292.046-.551.11-.78.072-.236.182-.428.328-.573.155-.155.369-.233.642-.233 0 .92.064 1.659.192 2.215.127.556.296.984.505 1.285.22.301.465.497.739.588.273.091.551.132.834.123.291-.018.574-.064.847-.137.274-.072.515-.123.725-.15.219-.027.392-.005.52.068.127.064.191.224.191.479 0 .191-.046.328-.137.41-.082.082-.246.146-.492.191-.073.01-.196.028-.37.055-.163.018-.35.037-.56.055-.21.018-.433.04-.67.068-.236.018-.46.037-.67.055-.21.018-.4.032-.574.04h-.383c0 .046-.004.124-.013.233-.01.11-.014.183-.014.219 0 .401.064.793.192 1.176.127.373.264.747.41 1.12.155.375.296.748.424 1.122.127.374.191.761.191 1.162 0 .073-.01.15-.027.233a.443.443 0 0 1-.082.205.33.33 0 0 1-.178.123c-.073.036-.178.032-.315-.014a1.22 1.22 0 0 1-.779-.588 3.756 3.756 0 0 1-.369-1.066 9.93 9.93 0 0 1-.164-1.326 13.22 13.22 0 0 0-.137-1.3 3.737 3.737 0 0 0-.273-1.038c-.128-.292-.333-.47-.616-.534l-2.638-.601c-.037 0-.091-.037-.164-.11a1.022 1.022 0 0 1-.137-.177.151.151 0 0 1-.014-.069.19.19 0 0 1-.013-.082zm9.666 1.764v-.26c.009-.127.013-.26.013-.396.01-.137.014-.27.014-.397.01-.127.014-.218.014-.273.1-.146.228-.264.383-.356.164-.09.328-.164.492-.218.027.492.105 1.016.232 1.572.128.556.264 1.117.41 1.682.146.556.274 1.107.383 1.654.119.547.178 1.057.178 1.531 0 .41-.21.615-.629.615a.802.802 0 0 1-.643-.314 2.51 2.51 0 0 1-.423-.793 8.215 8.215 0 0 1-.246-1.08c-.064-.401-.11-.793-.137-1.176a55.893 55.893 0 0 1-.041-1.053v-.738zm.191-5.127c.173.073.32.191.438.356.118.164.168.314.15.45-.01.128-.11.22-.3.274-.192.046-.511-.009-.958-.164 0-.246.046-.46.137-.643.1-.182.278-.273.533-.273zm2.461 7.479c0-.566.132-1.09.397-1.573.264-.492.61-.911 1.039-1.257a5.167 5.167 0 0 1 1.462-.835c.547-.2 1.099-.3 1.655-.3.31 0 .583.1.82.3.246.201.451.447.615.739.164.282.287.583.37.902.09.32.136.597.136.834 0 .51-.123 1.007-.369 1.49a4.808 4.808 0 0 1-.957 1.272c-.392.364-.834.66-1.326.889a3.488 3.488 0 0 1-1.477.341c-.437 0-.806-.073-1.107-.218a2.054 2.054 0 0 1-.725-.602 2.747 2.747 0 0 1-.41-.889 4.735 4.735 0 0 1-.123-1.093zm1.162.136c0 .237.018.447.055.63.045.172.118.323.219.45.109.128.25.228.423.301.174.064.388.096.643.096.337 0 .674-.091 1.012-.274a3.79 3.79 0 0 0 .902-.71c.273-.292.492-.611.656-.957.164-.347.246-.684.246-1.012 0-.146-.013-.306-.04-.479a1.946 1.946 0 0 0-.137-.478 1.004 1.004 0 0 0-.274-.37.674.674 0 0 0-.45-.15c-.165 0-.36.055-.589.164-.219.11-.451.25-.697.424a8.09 8.09 0 0 0-.711.588 10.45 10.45 0 0 0-.629.656 4.266 4.266 0 0 0-.465.63c-.11.2-.164.364-.164.491zm5.865-1.968c0-.237.06-.406.178-.506.119-.11.31-.164.574-.164h.137l.096.505a3.79 3.79 0 0 0 .424 1.149c.1.164.223.296.369.396.009-.319.086-.624.232-.916.155-.3.342-.565.56-.792.229-.237.475-.433.739-.588.273-.165.542-.274.807-.329h.3c.438 0 .812.1 1.121.301.31.192.566.447.766.766.21.31.37.665.479 1.066.109.401.191.811.246 1.23.064.41.1.812.11 1.204.017.383.026.71.026.984h-.998a25.414 25.414 0 0 0-.205-1.572c-.027-.2-.064-.41-.109-.629a8.04 8.04 0 0 0-.328-1.176 1.962 1.962 0 0 0-.219-.437l-.15-.15a3.41 3.41 0 0 0-.356-.356.363.363 0 0 0-.095-.069.719.719 0 0 0-.711.165c-.2.173-.379.41-.534.71-.154.301-.282.643-.382 1.026a20.14 20.14 0 0 0-.233 1.107c-.064.347-.11.652-.137.916-.027.256-.045.41-.054.465-.228.164-.442.214-.643.15-.2-.072-.392-.218-.574-.437a3.819 3.819 0 0 1-.479-.82 13.766 13.766 0 0 1-.382-1.04 26.042 26.042 0 0 1-.329-1.12 74.36 74.36 0 0 1-.246-1.04zm16.284 4.02a.869.869 0 0 1 .341-.534c.192-.146.406-.278.643-.397.246-.118.501-.227.766-.328.264-.11.505-.223.724-.341.228-.119.415-.256.56-.41a.855.855 0 0 0 .22-.588c0-.292-.078-.534-.233-.725a1.821 1.821 0 0 0-.601-.492 4.004 4.004 0 0 0-.848-.342 71.407 71.407 0 0 0-.984-.274 30.28 30.28 0 0 1-.971-.314 4.022 4.022 0 0 1-.861-.438 2.194 2.194 0 0 1-.602-.628c-.146-.247-.219-.552-.219-.917 0-.3.06-.583.178-.847.127-.273.292-.529.492-.766.21-.246.447-.47.711-.67.273-.2.556-.369.848-.506.3-.136.601-.241.902-.314.3-.082.579-.123.834-.123h.15c.082.027.192.073.328.137.137.064.27.127.397.191.128.055.237.11.328.164.091.046.137.073.137.082v.315a7.63 7.63 0 0 0-.67.109c-.273.046-.56.11-.861.191-.301.082-.606.187-.916.315-.31.118-.588.26-.834.424a2.27 2.27 0 0 0-.602.574c-.155.21-.232.451-.232.724 0 .393.136.702.41.93.273.219.615.401 1.025.547.41.146.857.278 1.34.397.492.109.943.246 1.353.41.41.155.752.364 1.026.629.273.255.41.601.41 1.039 0 .237-.073.487-.219.752-.136.255-.323.51-.56.765a7.06 7.06 0 0 1-1.682 1.313c-.3.164-.597.3-.889.41-.291.1-.551.15-.779.15-.073 0-.15-.009-.232-.027a.78.78 0 0 1-.219-.082.516.516 0 0 1-.137-.191c-.027-.082-.018-.187.028-.315zm5.25-3.214c0-.492.059-.984.177-1.476.119-.493.306-.935.56-1.327a3.174 3.174 0 0 1 1.013-.957c.419-.246.925-.369 1.517-.369.337 0 .634.064.889.192.255.118.47.278.642.478.174.2.301.438.383.711.091.264.137.542.137.834 0 .465-.11.916-.328 1.354-.21.437-.497.825-.862 1.162a3.697 3.697 0 0 1-1.23.752c-.465.164-.939.2-1.422.11.01.263.096.478.26.642.173.155.378.273.615.355.237.082.483.137.738.164.256.018.483.028.684.028a3 3 0 0 0 .588-.055 11.8 11.8 0 0 0 .547-.123 11.8 11.8 0 0 1 .547-.123c.191-.037.392-.055.601-.055.082 0 .164.005.246.014.082.009.16.032.233.068a.355.355 0 0 1 .177.15.413.413 0 0 1 .069.247.574.574 0 0 1-.192.437c-.127.11-.291.205-.492.287a3.127 3.127 0 0 1-.642.192c-.237.036-.47.068-.698.095a7.401 7.401 0 0 1-.615.028c-.182.009-.319.013-.41.013a4.277 4.277 0 0 1-1.572-.273 3.444 3.444 0 0 1-1.176-.78 3.512 3.512 0 0 1-.738-1.203 4.78 4.78 0 0 1-.246-1.572zm1.449-.889c0 .32.04.552.123.698.091.146.305.219.642.219.237 0 .47-.041.698-.123a2.21 2.21 0 0 0 .615-.37c.191-.155.342-.337.451-.546.11-.21.164-.438.164-.684 0-.137-.014-.278-.04-.424a.978.978 0 0 0-.138-.396.83.83 0 0 0-.287-.301.712.712 0 0 0-.437-.123c-.274 0-.524.064-.752.191a1.763 1.763 0 0 0-.56.479c-.156.191-.274.41-.356.656a2.202 2.202 0 0 0-.123.724zm8.804 4.075c.146-.1.32-.228.52-.383.21-.164.419-.337.629-.52.21-.182.406-.373.588-.574.182-.2.323-.392.424-.574a1.09 1.09 0 0 0 .164-.533c0-.164-.082-.301-.246-.41-.292 0-.611.013-.957.04-.347.019-.693.028-1.04.028a7.316 7.316 0 0 1-1.011-.096 2.61 2.61 0 0 1-.862-.3 1.66 1.66 0 0 1-.615-.616c-.146-.273-.219-.62-.219-1.039 0-.492.092-.934.274-1.326.191-.401.442-.752.752-1.053.31-.31.656-.579 1.039-.806a8.963 8.963 0 0 1 1.176-.602c.237.064.455.178.656.342.201.164.374.346.52.547a.804.804 0 0 1-.383.465c-.183.109-.397.205-.643.287l-.752.26a2.857 2.857 0 0 0-.724.369c-.21.146-.388.341-.534.588-.145.237-.218.55-.218.943 0 .291.072.506.218.643.146.136.338.232.575.287a3.7 3.7 0 0 0 .806.054c.301-.018.606-.04.916-.068.319-.027.629-.041.93-.041.301-.01.57.027.807.11.237.072.423.195.56.368.146.174.219.429.219.766 0 .146-.05.333-.151.56a4.784 4.784 0 0 1-.382.739c-.155.255-.342.51-.561.765-.21.256-.433.488-.67.698-.228.2-.46.369-.697.506a1.324 1.324 0 0 1-.643.191c-.191 0-.319-.068-.382-.205a1.097 1.097 0 0 1-.083-.41zm6.741 0c.146-.1.319-.228.519-.383.21-.164.42-.337.629-.52.21-.182.406-.373.588-.574.182-.2.324-.392.424-.574a1.09 1.09 0 0 0 .164-.533c0-.164-.082-.301-.246-.41-.292 0-.611.013-.957.04-.347.019-.693.028-1.039.028a7.307 7.307 0 0 1-1.012-.096 2.607 2.607 0 0 1-.861-.3 1.654 1.654 0 0 1-.615-.616c-.146-.273-.219-.62-.219-1.039 0-.492.091-.934.273-1.326.192-.401.442-.752.752-1.053.31-.31.656-.579 1.039-.806a8.97 8.97 0 0 1 1.176-.602c.237.064.456.178.656.342.201.164.374.346.52.547a.804.804 0 0 1-.383.465c-.182.109-.397.205-.643.287l-.752.26a2.863 2.863 0 0 0-.724.369c-.21.146-.388.341-.533.588-.146.237-.219.55-.219.943 0 .291.073.506.219.643.145.136.337.232.574.287.237.045.506.063.806.054.301-.018.607-.04.916-.068.32-.027.629-.041.93-.041.301-.01.57.027.807.11.237.072.424.195.56.368.146.174.219.429.219.766 0 .146-.05.333-.15.56a4.796 4.796 0 0 1-.383.739c-.155.255-.342.51-.561.765a6.027 6.027 0 0 1-.67.698c-.227.2-.46.369-.697.506a1.324 1.324 0 0 1-.642.191c-.192 0-.319-.068-.383-.205a1.09 1.09 0 0 1-.082-.41zm4.689-4.512v-.26c.009-.127.014-.26.014-.396a6.05 6.05 0 0 0 .014-.397c.009-.127.013-.218.013-.273.1-.146.228-.264.383-.356.164-.09.328-.164.492-.218.028.492.105 1.016.233 1.572.127.556.264 1.117.41 1.682.146.556.273 1.107.383 1.654.118.547.177 1.057.177 1.531 0 .41-.209.615-.629.615a.801.801 0 0 1-.642-.314 2.508 2.508 0 0 1-.424-.793 8.297 8.297 0 0 1-.246-1.08 13.881 13.881 0 0 1-.137-1.176 56.752 56.752 0 0 1-.041-1.053v-.738zm.192-5.127c.173.073.319.191.437.356.119.164.169.314.151.45-.01.128-.11.22-.301.274-.192.046-.511-.009-.957-.164 0-.246.045-.46.136-.643.101-.182.278-.273.534-.273zm2.461 7.479c0-.566.132-1.09.396-1.573a4.088 4.088 0 0 1 1.039-1.257 5.172 5.172 0 0 1 1.463-.835c.547-.2 1.098-.3 1.654-.3.31 0 .584.1.821.3.246.201.451.447.615.739.164.282.287.583.369.902.091.32.137.597.137.834 0 .51-.123 1.007-.369 1.49a4.848 4.848 0 0 1-.957 1.272c-.392.364-.834.66-1.327.889a3.486 3.486 0 0 1-1.476.341c-.438 0-.807-.073-1.108-.218a2.056 2.056 0 0 1-.724-.602 2.728 2.728 0 0 1-.41-.889 4.735 4.735 0 0 1-.123-1.093zm1.162.136c0 .237.018.447.054.63.046.172.119.323.219.45.109.128.251.228.424.301.173.064.387.096.643.096a2.11 2.11 0 0 0 1.011-.274 3.814 3.814 0 0 0 1.559-1.668c.164-.346.246-.683.246-1.011 0-.146-.014-.306-.041-.479a1.925 1.925 0 0 0-.137-.478 1.01 1.01 0 0 0-.273-.37.675.675 0 0 0-.451-.15c-.164 0-.36.055-.588.164-.219.11-.451.25-.698.424-.237.173-.474.37-.711.588-.227.219-.437.438-.628.656a4.19 4.19 0 0 0-.465.63c-.11.2-.164.364-.164.491zm5.865-1.968c0-.237.059-.406.178-.506.118-.11.31-.164.574-.164h.137l.095.505a3.857 3.857 0 0 0 .424 1.149c.1.164.223.296.369.396a2.16 2.16 0 0 1 .233-.916c.155-.3.341-.565.56-.792a3.44 3.44 0 0 1 .738-.588c.274-.165.543-.274.807-.329h.301c.437 0 .811.1 1.121.301.31.192.565.447.766.766.209.31.369.665.478 1.066.11.401.192.811.246 1.23.064.41.101.812.11 1.204.018.383.027.71.027.984h-.998a25.646 25.646 0 0 0-.205-1.572c-.028-.2-.064-.41-.11-.629a7.66 7.66 0 0 0-.328-1.176 1.924 1.924 0 0 0-.218-.437l-.151-.15a3.11 3.11 0 0 0-.355-.356.373.373 0 0 0-.096-.069.72.72 0 0 0-.711.165c-.2.173-.378.41-.533.71-.155.301-.283.643-.383 1.026-.091.383-.169.752-.232 1.107-.064.347-.11.652-.137.916-.027.256-.046.41-.055.465-.228.164-.442.214-.642.15-.201-.072-.392-.218-.575-.437a3.831 3.831 0 0 1-.478-.82 13.852 13.852 0 0 1-.383-1.04 26.33 26.33 0 0 1-.328-1.12c-.091-.374-.173-.72-.246-1.04z"/></defs></svg>