<svg width="700" height="400" viewBox="0 0 700 400" xmlns="http://www.w3.org/2000/svg" xmlns:xlink="http://www.w3.org/1999/xlink"><title>Nine</title><desc>Created using Figma</desc><g transform="translate(-5591 282)"><clipPath id="a" clip-rule="evenodd"><path d="M5591-282h700v400h-700v-400z" fill="#FFF"/></clipPath><g clip-path="url(#a)"><path d="M5591-282h700v400h-700v-400z" fill="#FFF"/><use xlink:href="#b" transform="matrix(0 1 1 0 5668 -231)" fill="#C4C4C4"/><use xlink:href="#c" transform="matrix(1 0 0 1 5644 -82)" fill="#C4C4C4"/><use xlink:href="#d" transform="translate(5632 -255)"/><use xlink:href="#e" transform="translate(5635 68)"/><use xlink:href="#f" transform="translate(6214 -73)"/><use xlink:href="#g" transform="translate(5645 -59.615)"/><use xlink:href="#h" transform="translate(5725 72)" fill="#219653"/><mask id="j"><use xlink:href="#i" transform="translate(5764 -236)" fill="#C4C4C4"/></mask><g mask="url(#j)"><use xlink:href="#k" transform="matrix(0 1 1 0 5777 -246)" fill="#219653"/></g><mask id="l"><use xlink:href="#i" transform="translate(5956 -235)" fill="#C4C4C4"/></mask><g mask="url(#l)"><use xlink:href="#k" transform="matrix(0 1 1 0 5969 -245)" fill="#EB5757"/></g><use xlink:href="#m" transform="translate(5919 72)" fill="#EB5757"/><g><use xlink:href="#n" transform="translate(6007 -88)" fill="#828282"/></g><g><use xlink:href="#o" transform="rotate(19.265 3221.12 17963.644)" fill="#BDBDBD"/></g></g></g><defs><path id="b" d="M-1.06-1.06a1.5 1.5 0 0 0 0 2.12l9.545 9.547a1.5 1.5 0 1 0 2.122-2.122L2.12 0l8.486-8.485a1.5 1.5 0 1 0-2.122-2.122L-1.06-1.06zM300.06 1.06a1.501 1.501 0 0 0 0-2.12l-9.546-9.547a1.5 1.5 0 0 0-2.122 2.122L296.879 0l-8.486 8.485a1.501 1.501 0 0 0 2.122 2.122l9.546-9.546zM0 1.5h299v-3H0v3z"/><path id="c" d="M-1.06-1.06a1.5 1.5 0 0 0 0 2.12l9.545 9.547a1.5 1.5 0 1 0 2.122-2.122L2.12 0l8.486-8.485a1.5 1.5 0 1 0-2.122-2.122L-1.06-1.06zM595.06 1.06a1.501 1.501 0 0 0 0-2.12l-9.546-9.547a1.5 1.5 0 0 0-2.122 2.122L591.879 0l-8.486 8.485a1.501 1.501 0 0 0 2.122 2.122l9.546-9.546zM0 1.5h594v-3H0v3z"/><path id="d" d="M.229 15.146c0-.455.063-.92.19-1.394.138-.474.32-.934.548-1.38.237-.447.515-.871.834-1.272a6.11 6.11 0 0 1 1.08-1.04 4.97 4.97 0 0 1 1.271-.697c.456-.173.925-.26 1.409-.26.21 0 .478.023.806.069.337.045.661.123.97.232.32.11.589.256.808.438.227.173.341.383.341.629a.121.121 0 0 1-.013.054v.041a.121.121 0 0 0-.014.055 2.031 2.031 0 0 1-.137.164 1.32 1.32 0 0 1-.15.137.152.152 0 0 1-.068.013.256.256 0 0 1-.165 0 .121.121 0 0 1-.054-.013 5.01 5.01 0 0 0-.328-.164 30.894 30.894 0 0 0-1.121-.56 4.974 4.974 0 0 0-.329-.165.45.45 0 0 1-.109-.013h-.082a.225.225 0 0 0-.068-.014c-.429 0-.839.077-1.23.232-.393.155-.753.37-1.08.643a5.471 5.471 0 0 0-.89.943 6.82 6.82 0 0 0-.683 1.135 6.416 6.416 0 0 0-.424 1.217c-.091.41-.137.811-.137 1.203 0 .51.082.966.246 1.367.164.401.392.738.684 1.012.292.264.638.465 1.039.601.41.137.852.205 1.326.205.274 0 .61-.036 1.012-.109a4.94 4.94 0 0 0 1.148-.355c.374-.165.689-.374.944-.63.255-.264.383-.587.383-.97a.745.745 0 0 0-.069-.355.391.391 0 0 0-.191-.192.612.612 0 0 0-.301-.068 4.823 4.823 0 0 0-.37-.014c-.2 0-.373.032-.519.096a4.9 4.9 0 0 0-.437.219 3.714 3.714 0 0 1-.424.218c-.137.064-.3.096-.492.096-.237 0-.424-.037-.56-.11-.137-.072-.206-.24-.206-.505 0-.255.091-.46.274-.615a1.92 1.92 0 0 1 .67-.37c.264-.082.537-.136.82-.164.282-.027.515-.04.697-.04.328 0 .634.027.916.081.283.046.524.137.725.274.21.127.369.31.478.547.11.227.164.524.164.888 0 .565-.155 1.058-.465 1.477-.31.41-.701.747-1.175 1.012-.465.264-.971.464-1.518.601a6.537 6.537 0 0 1-1.504.192 4.75 4.75 0 0 1-1.818-.342 4.108 4.108 0 0 1-1.408-.957 4.534 4.534 0 0 1-.916-1.477 5.14 5.14 0 0 1-.328-1.846zm9.953 2.079c0-.566.132-1.09.396-1.573.264-.492.61-.911 1.04-1.257a5.167 5.167 0 0 1 1.462-.835c.547-.2 1.098-.3 1.654-.3.31 0 .584.1.82.3.247.201.452.447.616.739.164.282.287.583.37.902.09.32.136.597.136.834 0 .51-.123 1.007-.37 1.49a4.81 4.81 0 0 1-.956 1.272c-.392.364-.834.66-1.327.889a3.488 3.488 0 0 1-1.476.341c-.438 0-.807-.073-1.107-.218a2.054 2.054 0 0 1-.725-.602 2.747 2.747 0 0 1-.41-.889 4.735 4.735 0 0 1-.123-1.093zm1.162.136c0 .237.018.447.054.63.046.172.119.323.22.45.109.128.25.228.423.301.173.064.387.096.643.096.337 0 .674-.091 1.011-.274.338-.191.638-.428.903-.71a3.73 3.73 0 0 0 .656-.957c.164-.347.246-.684.246-1.012a3.09 3.09 0 0 0-.041-.479 1.95 1.95 0 0 0-.137-.478 1.004 1.004 0 0 0-.273-.37.674.674 0 0 0-.451-.15c-.164 0-.36.055-.588.164-.219.11-.451.25-.697.424a8.06 8.06 0 0 0-.711.588 10.45 10.45 0 0 0-.63.656 4.259 4.259 0 0 0-.464.63c-.11.2-.164.364-.164.491zm5.865-.136c0-.566.132-1.09.396-1.573.265-.492.611-.911 1.04-1.257a5.168 5.168 0 0 1 1.462-.835c.547-.2 1.099-.3 1.655-.3.31 0 .583.1.82.3.246.201.451.447.615.739.164.282.287.583.37.902.09.32.136.597.136.834 0 .51-.123 1.007-.369 1.49a4.81 4.81 0 0 1-.957 1.272c-.392.364-.834.66-1.326.889a3.488 3.488 0 0 1-1.477.341c-.437 0-.806-.073-1.107-.218a2.054 2.054 0 0 1-.725-.602 2.747 2.747 0 0 1-.41-.889 4.735 4.735 0 0 1-.123-1.093zm1.162.136c0 .237.018.447.055.63.045.172.118.323.219.45.109.128.25.228.423.301.173.064.388.096.643.096.337 0 .674-.091 1.012-.274.337-.191.638-.428.902-.71.273-.292.492-.611.656-.957.164-.347.246-.684.246-1.012 0-.146-.013-.306-.04-.479a1.946 1.946 0 0 0-.137-.478 1.003 1.003 0 0 0-.274-.37.674.674 0 0 0-.451-.15c-.164 0-.36.055-.588.164a5.49 5.49 0 0 0-.697.424 8.09 8.09 0 0 0-.711.588 10.45 10.45 0 0 0-.629.656 4.258 4.258 0 0 0-.465.63c-.11.2-.164.364-.164.491zm5.565 1.026c0-.529.132-.998.396-1.409.264-.41.592-.765.984-1.066a6.26 6.26 0 0 1 1.272-.78c.456-.218.88-.396 1.271-.532.392-.146.72-.26.985-.342.264-.091.396-.164.396-.219 0-.319-.018-.629-.054-.93-.028-.31-.06-.62-.096-.93l-.11-.915c-.027-.31-.04-.616-.04-.916v-.889c.373-.137.637-.123.792.041.165.164.192.447.082.848.037.2.087.515.15.943.065.428.133.912.206 1.45.082.537.164 1.102.246 1.694.091.593.173 1.163.246 1.71.082.537.15 1.02.205 1.449l.123.943c.01.046.019.137.028.274.009.127.013.268.013.423.01.146.014.283.014.41.009.128.014.22.014.274-.347 0-.584-.014-.711-.041-.119-.027-.196-.082-.233-.164a1.184 1.184 0 0 1-.04-.356c0-.154-.046-.369-.137-.642a8.213 8.213 0 0 1-.957.656c-.301.173-.602.315-.903.424-.3.1-.606.168-.916.205-.3.046-.624.068-.97.068-.292 0-.575-.022-.848-.068a2.22 2.22 0 0 1-.711-.273c-.21-.128-.378-.301-.506-.52-.128-.219-.191-.492-.191-.82zm1.189-.287c0 .145.032.264.096.355a.859.859 0 0 0 .246.233c.1.063.205.109.314.136.119.018.233.028.342.028.32 0 .66-.06 1.025-.178a4.02 4.02 0 0 0 1.026-.52c.319-.228.579-.496.78-.806.209-.31.314-.647.314-1.012 0-.283-.05-.479-.15-.588-.101-.11-.292-.164-.575-.164-.292 0-.633.068-1.025.205a5.787 5.787 0 0 0-1.122.547 3.667 3.667 0 0 0-.902.807c-.246.3-.369.62-.369.957zm18.607 3.171a20.83 20.83 0 0 1-.642-1.326l-.711-1.668a32.482 32.482 0 0 0-.78-1.709 11.608 11.608 0 0 0-.806-1.449.881.881 0 0 0-.451-.15 4.343 4.343 0 0 0-.602-.014c-.21 0-.419-.005-.629-.014a1.4 1.4 0 0 1-.533-.15.76.76 0 0 1-.328-.383c-.073-.173-.087-.424-.041-.752h2.297c.045-.51.123-1.016.232-1.517.11-.502.255-.98.438-1.436.191-.456.42-.88.683-1.271a4.21 4.21 0 0 1 .957-1.012 4.526 4.526 0 0 1 1.286-.67 5.26 5.26 0 0 1 1.668-.246c.218 0 .437.055.656.164.218.1.414.237.588.41.173.173.31.37.41.588.11.219.164.438.164.656-.173 0-.328-.032-.465-.095a5.646 5.646 0 0 1-.396-.233 3.055 3.055 0 0 0-.41-.246.986.986 0 0 0-.493-.123 3.61 3.61 0 0 0-1.531.328c-.465.219-.875.51-1.23.875a4.12 4.12 0 0 0-.82 1.272c-.201.483-.302.993-.302 1.53v.206c.01.091.014.191.014.3v.315c.01.1.014.169.014.205.337.11.715.192 1.134.246.42.055.84.091 1.258.11.429.009.839.004 1.23-.014.402-.018.757-.041 1.067-.068l.15.15a.458.458 0 0 1 .124.164c0 .027.004.046.013.055l.028.082c0 .191-.1.342-.301.451-.2.11-.456.191-.766.246-.31.046-.656.078-1.039.096-.373.018-.738.036-1.094.055-.346.009-.66.027-.943.054-.273.018-.465.06-.574.123.118.547.328 1.076.629 1.586.31.51.624 1.021.943 1.531.32.51.602 1.026.848 1.545.246.52.369 1.053.369 1.6h-.26c-.127.01-.264.005-.41-.014a1.407 1.407 0 0 1-.424-.123c-.127-.054-.2-.141-.219-.26zM47.82 16.2c0-.492.06-.984.178-1.476.119-.493.305-.935.56-1.327a3.174 3.174 0 0 1 1.012-.957c.42-.246.925-.369 1.518-.369.337 0 .633.064.889.192.255.118.469.278.642.478.173.2.3.438.383.711.091.264.137.542.137.834 0 .465-.11.916-.329 1.354a3.82 3.82 0 0 1-.86 1.162 3.697 3.697 0 0 1-1.231.752c-.465.164-.94.2-1.422.11.009.263.096.478.26.642.173.155.378.273.615.355.237.082.483.137.738.164.255.018.483.028.684.028a3 3 0 0 0 .588-.055 11.8 11.8 0 0 0 .546-.123 11.8 11.8 0 0 1 .547-.123c.192-.037.392-.055.602-.055.082 0 .164.005.246.014.082.009.16.032.233.068a.355.355 0 0 1 .177.15.413.413 0 0 1 .069.247.574.574 0 0 1-.192.437c-.127.11-.291.205-.492.287a3.127 3.127 0 0 1-.643.192c-.237.036-.469.068-.697.095a7.401 7.401 0 0 1-.615.028c-.182.009-.32.013-.41.013a4.277 4.277 0 0 1-1.572-.273 3.444 3.444 0 0 1-1.176-.78 3.512 3.512 0 0 1-.739-1.203 4.78 4.78 0 0 1-.246-1.572zm1.45-.889c0 .32.04.552.123.698.09.146.305.219.642.219.237 0 .47-.041.697-.123a2.21 2.21 0 0 0 .616-.37c.191-.155.342-.337.45-.546.11-.21.165-.438.165-.684 0-.137-.014-.278-.041-.424a.98.98 0 0 0-.137-.396.829.829 0 0 0-.287-.301.712.712 0 0 0-.438-.123c-.273 0-.524.064-.751.191a1.764 1.764 0 0 0-.561.479c-.155.191-.273.41-.355.656a2.2 2.2 0 0 0-.123.724zm6.18.89c0-.493.058-.985.177-1.477.118-.493.305-.935.56-1.327a3.174 3.174 0 0 1 1.012-.957c.42-.246.925-.369 1.518-.369.337 0 .633.064.889.192.255.118.469.278.642.478.173.2.3.438.383.711.091.264.137.542.137.834 0 .465-.11.916-.328 1.354-.21.437-.497.825-.862 1.162a3.697 3.697 0 0 1-1.23.752c-.465.164-.94.2-1.422.11.009.263.096.478.26.642.173.155.378.273.615.355.237.082.483.137.738.164.255.018.483.028.684.028a3 3 0 0 0 .587-.055 11.8 11.8 0 0 0 .547-.123 11.8 11.8 0 0 1 .547-.123c.192-.037.392-.055.602-.055.082 0 .164.005.246.014.082.009.16.032.232.068a.355.355 0 0 1 .178.15.413.413 0 0 1 .069.247.574.574 0 0 1-.192.437c-.128.11-.292.205-.492.287a3.127 3.127 0 0 1-.643.192c-.237.036-.47.068-.697.095a7.401 7.401 0 0 1-.615.028c-.182.009-.32.013-.41.013a4.277 4.277 0 0 1-1.573-.273 3.444 3.444 0 0 1-1.175-.78 3.512 3.512 0 0 1-.739-1.203 4.78 4.78 0 0 1-.246-1.572zm1.448-.89c0 .32.041.552.123.698.092.146.306.219.643.219.237 0 .47-.041.697-.123a2.21 2.21 0 0 0 .616-.37c.191-.155.341-.337.45-.546.11-.21.165-.438.165-.684 0-.137-.014-.278-.041-.424a.978.978 0 0 0-.137-.396.83.83 0 0 0-.287-.301.712.712 0 0 0-.438-.123c-.273 0-.524.064-.752.191a1.764 1.764 0 0 0-.56.479c-.155.191-.274.41-.355.656a2.202 2.202 0 0 0-.124.724zm6.508-3.048c0-.265-.018-.52-.054-.766a2.873 2.873 0 0 1-.028-.67c.018-.2.087-.36.205-.478.128-.119.356-.178.684-.178.1.21.196.529.287.957.1.428.196.92.287 1.476.091.556.178 1.163.26 1.819.082.647.155 1.299.219 1.955.072.656.132 1.303.177 1.941.055.63.096 1.203.123 1.723-.3.2-.542.214-.724.041-.183-.173-.333-.465-.451-.875a9.333 9.333 0 0 1-.274-1.518c-.064-.601-.127-1.22-.191-1.859a40.486 40.486 0 0 0-.205-1.9 13.319 13.319 0 0 0-.315-1.668zm5.496 7.123c.146-.1.32-.228.52-.383.21-.164.42-.337.629-.52a7.02 7.02 0 0 0 .588-.574c.182-.2.323-.392.424-.574.109-.191.164-.37.164-.533 0-.164-.083-.301-.246-.41-.292 0-.611.013-.958.04-.346.019-.692.028-1.039.028a7.313 7.313 0 0 1-1.011-.096 2.61 2.61 0 0 1-.862-.3 1.66 1.66 0 0 1-.615-.616c-.146-.273-.219-.62-.219-1.039 0-.492.091-.934.274-1.326.191-.401.442-.752.752-1.053.31-.31.656-.579 1.039-.806a8.969 8.969 0 0 1 1.176-.602c.237.064.455.178.656.342.2.164.373.346.52.547a.802.802 0 0 1-.383.465c-.183.109-.397.205-.643.287l-.752.26a2.858 2.858 0 0 0-.725.369c-.21.146-.387.341-.533.588-.146.237-.219.55-.219.943 0 .291.073.506.22.643.145.136.336.232.573.287a3.7 3.7 0 0 0 .807.054c.3-.018.606-.04.916-.068.32-.027.629-.041.93-.041.3-.01.57.027.806.11.237.072.424.195.561.368.146.174.219.429.219.766 0 .146-.05.333-.15.56a4.794 4.794 0 0 1-.383.739c-.155.255-.342.51-.561.765-.21.256-.433.488-.67.698-.228.2-.46.369-.697.506a1.324 1.324 0 0 1-.643.191c-.191 0-.319-.068-.383-.205a1.097 1.097 0 0 1-.082-.41z"/><path id="e" d="M.728 9.8c.109-.555.31-.993.601-1.312a2.23 2.23 0 0 1 .998-.67 2.714 2.714 0 0 1 1.217-.082c.437.055.848.187 1.23.397.392.21.734.483 1.026.82.291.328.497.707.615 1.135.119.42.119.875 0 1.367-.118.492-.387.998-.807 1.518.329.118.634.237.916.355.283.119.52.264.711.438.2.173.356.382.465.629.11.246.164.551.164.915 0 .301-.054.62-.164.958-.11.337-.264.67-.465.998a6.035 6.035 0 0 1-1.517 1.722c-.301.228-.61.41-.93.547-.31.128-.615.192-.916.192-.2 0-.396-.128-.588-.383a5.075 5.075 0 0 1-.56-1.012 15.06 15.06 0 0 1-.534-1.45 28.576 28.576 0 0 1-.478-1.695 47.398 47.398 0 0 1-.397-1.75 95.458 95.458 0 0 1-.314-1.613c-.082-.492-.15-.916-.205-1.271A7.275 7.275 0 0 1 .728 9.8zm2.433 5.92c0 .156.037.36.11.616.072.255.164.51.273.766.118.255.246.492.383.71.136.21.282.351.437.424.128.073.278.069.451-.013.174-.091.347-.228.52-.41.182-.192.355-.406.52-.643a9.01 9.01 0 0 0 .437-.725c.137-.237.242-.455.314-.656.082-.21.123-.37.123-.479a1.45 1.45 0 0 0-.095-.574.83.83 0 0 0-.287-.369 1.065 1.065 0 0 0-.438-.191 2.523 2.523 0 0 0-.547-.055c-.228 0-.47.037-.724.11a2.77 2.77 0 0 0-.711.314c-.21.137-.392.305-.547.506-.146.2-.219.424-.219.67zm-.875-4.648c0 .164-.004.37-.014.616-.009.236-.009.483 0 .738.01.255.037.51.082.765.046.256.128.474.247.657a2.942 2.942 0 0 0 1.162-.465 2.91 2.91 0 0 0 .806-.793c.21-.31.36-.638.452-.985.09-.346.123-.683.095-1.011a2.277 2.277 0 0 0-.232-.903 1.423 1.423 0 0 0-.547-.629c-.237-.154-.524-.232-.861-.232-.338 0-.725.11-1.163.328 0 .073-.004.2-.013.383 0 .182-.005.374-.014.574v.957zm12.332 7.164c-.346.237-.647.451-.902.643a6.021 6.021 0 0 1-.725.465 3.086 3.086 0 0 1-.765.287 4.277 4.277 0 0 1-.985.096c-.847 0-1.476-.224-1.887-.67-.41-.456-.615-1.13-.615-2.024 0-.346.046-.706.137-1.08.091-.374.223-.743.396-1.107.183-.374.397-.725.643-1.053.246-.337.524-.633.834-.889a3.97 3.97 0 0 1 .984-.601c.356-.155.73-.233 1.121-.233.657.064 1.172.228 1.545.492.374.256.657.588.848.998.191.402.324.853.397 1.354.072.492.127 1.003.164 1.531.045.529.1 1.058.164 1.586.063.529.196 1.017.396 1.463-.118.3-.232.51-.342.629-.1.128-.214.15-.341.068-.128-.082-.278-.282-.452-.601a20.8 20.8 0 0 1-.615-1.354zm-4.717-1.175c0 .52.096.902.287 1.148.201.237.552.355 1.053.355.374 0 .73-.063 1.067-.191.346-.137.647-.319.902-.547.255-.237.46-.52.615-.848a2.53 2.53 0 0 0 .233-1.093c0-.164.004-.392.013-.684.01-.3-.009-.597-.054-.889a2.038 2.038 0 0 0-.26-.752.623.623 0 0 0-.574-.328c-.474 0-.912.123-1.313.37a3.688 3.688 0 0 0-1.039.916c-.292.373-.52.788-.683 1.244-.165.446-.247.88-.247 1.299zm7.028 1.326c0-.529.132-.998.396-1.409.265-.41.593-.765.985-1.066.392-.31.815-.57 1.271-.78.456-.218.88-.396 1.271-.532.392-.146.72-.26.985-.342.264-.091.396-.164.396-.219 0-.319-.018-.629-.054-.93-.028-.31-.06-.62-.096-.93-.036-.31-.073-.614-.11-.915-.027-.31-.04-.616-.04-.916v-.889c.373-.137.638-.123.793.041.164.164.191.447.082.848.036.2.086.515.15.943.064.428.132.912.205 1.45.082.537.164 1.102.246 1.694.091.593.173 1.163.246 1.71.082.537.15 1.02.205 1.449l.123.943c.01.046.019.137.028.274.009.127.013.268.013.423.01.146.014.283.014.41.01.128.014.22.014.274-.347 0-.584-.014-.711-.041-.119-.027-.196-.082-.233-.164a1.184 1.184 0 0 1-.04-.356c0-.154-.046-.369-.137-.642a8.213 8.213 0 0 1-.957.656 5.74 5.74 0 0 1-.903.424c-.3.1-.606.168-.916.205-.3.046-.624.068-.97.068-.292 0-.575-.022-.848-.068a2.22 2.22 0 0 1-.711-.273c-.21-.128-.378-.301-.506-.52-.128-.219-.191-.492-.191-.82zm1.19-.287c0 .145.031.264.095.355a.859.859 0 0 0 .246.233c.1.063.205.109.314.136.119.018.233.028.342.028.32 0 .661-.06 1.026-.178a4.02 4.02 0 0 0 1.025-.52c.319-.228.579-.496.78-.806.209-.31.314-.647.314-1.012 0-.283-.05-.479-.15-.588-.1-.11-.292-.164-.575-.164-.292 0-.633.068-1.025.205a5.787 5.787 0 0 0-1.121.547 3.669 3.669 0 0 0-.903.807c-.246.3-.369.62-.369.957zm18.607 3.171a20.83 20.83 0 0 1-.643-1.326l-.71-1.668a32.482 32.482 0 0 0-.78-1.709 11.595 11.595 0 0 0-.807-1.449.88.88 0 0 0-.451-.15 4.344 4.344 0 0 0-.602-.014c-.21 0-.419-.005-.628-.014a1.399 1.399 0 0 1-.534-.15.76.76 0 0 1-.328-.383c-.073-.173-.086-.424-.04-.752h2.296c.046-.51.123-1.016.232-1.517.11-.502.256-.98.438-1.436.191-.456.42-.88.684-1.271.264-.392.583-.73.957-1.012a4.527 4.527 0 0 1 1.285-.67 5.26 5.26 0 0 1 1.668-.246c.218 0 .437.055.656.164.219.1.415.237.588.41s.31.37.41.588c.11.219.164.438.164.656-.173 0-.328-.032-.465-.095a5.649 5.649 0 0 1-.396-.233 3.054 3.054 0 0 0-.41-.246.987.987 0 0 0-.493-.123 3.61 3.61 0 0 0-1.53.328c-.466.219-.876.51-1.231.875a4.12 4.12 0 0 0-.82 1.272c-.201.483-.301.993-.301 1.53v.206c.009.091.013.191.013.3v.315c.01.1.014.169.014.205.337.11.715.192 1.135.246.419.055.838.091 1.258.11.428.009.838.004 1.23-.014.401-.018.757-.041 1.066-.068l.15.15a.458.458 0 0 1 .124.164c0 .027.004.046.014.055l.027.082c0 .191-.1.342-.301.451-.2.11-.456.191-.766.246-.31.046-.656.078-1.039.096-.373.018-.738.036-1.093.055-.347.009-.661.027-.944.054-.273.018-.465.06-.574.123.118.547.328 1.076.629 1.586.31.51.624 1.021.943 1.531.32.51.602 1.026.848 1.545.246.52.37 1.053.37 1.6h-.26c-.128.01-.265.005-.41-.014a1.408 1.408 0 0 1-.425-.123c-.127-.054-.2-.141-.218-.26zm4.087-5.072c0-.492.06-.984.178-1.476.119-.493.306-.935.56-1.327a3.173 3.173 0 0 1 1.012-.957c.42-.246.926-.369 1.518-.369.337 0 .633.064.889.192.255.118.47.278.642.478.173.2.301.438.383.711.091.264.137.542.137.834 0 .465-.11.916-.328 1.354a3.82 3.82 0 0 1-.862 1.162 3.697 3.697 0 0 1-1.23.752c-.465.164-.939.2-1.422.11.01.263.096.478.26.642.173.155.378.273.615.355.237.082.483.137.738.164.255.018.483.028.684.028.21 0 .405-.019.588-.055a11.8 11.8 0 0 0 .547-.123 11.8 11.8 0 0 1 .547-.123c.191-.037.392-.055.601-.055.082 0 .164.005.246.014.082.009.16.032.233.068a.355.355 0 0 1 .177.15.414.414 0 0 1 .069.247.574.574 0 0 1-.192.437c-.127.11-.291.205-.492.287a3.128 3.128 0 0 1-.642.192c-.237.036-.47.068-.698.095a7.403 7.403 0 0 1-.615.028c-.182.009-.319.013-.41.013a4.278 4.278 0 0 1-1.572-.273 3.444 3.444 0 0 1-1.176-.78 3.509 3.509 0 0 1-.738-1.203 4.78 4.78 0 0 1-.247-1.572zm1.45-.889c0 .32.04.552.123.698.09.146.305.219.642.219.237 0 .47-.041.698-.123a2.21 2.21 0 0 0 .615-.37c.191-.155.342-.337.451-.546.11-.21.164-.438.164-.684 0-.137-.014-.278-.041-.424a.978.978 0 0 0-.137-.396.828.828 0 0 0-.287-.301.712.712 0 0 0-.437-.123c-.274 0-.524.064-.752.191a1.764 1.764 0 0 0-.56.479c-.156.191-.274.41-.356.656a2.202 2.202 0 0 0-.123.724zm6.18.89c0-.493.059-.985.177-1.477.119-.493.306-.935.56-1.327a3.173 3.173 0 0 1 1.012-.957c.42-.246.925-.369 1.518-.369.337 0 .633.064.889.192.255.118.469.278.642.478.173.2.301.438.383.711.091.264.137.542.137.834 0 .465-.11.916-.328 1.354a3.82 3.82 0 0 1-.862 1.162 3.697 3.697 0 0 1-1.23.752c-.465.164-.939.2-1.422.11.01.263.096.478.26.642.173.155.378.273.615.355.237.082.483.137.738.164.255.018.483.028.684.028a3 3 0 0 0 .588-.055 11.8 11.8 0 0 0 .547-.123 11.8 11.8 0 0 1 .547-.123c.19-.037.391-.055.601-.055.082 0 .164.005.246.014.082.009.16.032.233.068a.354.354 0 0 1 .177.15.414.414 0 0 1 .069.247.574.574 0 0 1-.192.437c-.127.11-.291.205-.492.287a3.128 3.128 0 0 1-.642.192c-.238.036-.47.068-.698.095a7.403 7.403 0 0 1-.615.028c-.182.009-.319.013-.41.013a4.278 4.278 0 0 1-1.572-.273 3.444 3.444 0 0 1-1.176-.78 3.51 3.51 0 0 1-.739-1.203 4.78 4.78 0 0 1-.246-1.572zm1.449-.89c0 .32.04.552.123.698.09.146.305.219.642.219.237 0 .47-.041.698-.123a2.21 2.21 0 0 0 .615-.37c.191-.155.342-.337.45-.546.11-.21.165-.438.165-.684 0-.137-.014-.278-.041-.424a.978.978 0 0 0-.137-.396.828.828 0 0 0-.287-.301.712.712 0 0 0-.437-.123c-.274 0-.525.064-.752.191a1.764 1.764 0 0 0-.56.479c-.156.191-.274.41-.356.656a2.202 2.202 0 0 0-.123.724zm6.507-3.048c0-.265-.018-.52-.054-.766a2.878 2.878 0 0 1-.028-.67c.019-.2.087-.36.206-.478.127-.119.355-.178.683-.178.1.21.196.529.287.957.1.428.196.92.287 1.476.091.556.178 1.163.26 1.819.082.647.155 1.299.219 1.955.073.656.132 1.303.178 1.941.054.63.095 1.203.123 1.723-.301.2-.543.214-.725.041-.182-.173-.333-.465-.451-.875a9.333 9.333 0 0 1-.274-1.518c-.063-.601-.127-1.22-.191-1.859a40.354 40.354 0 0 0-.205-1.9 13.355 13.355 0 0 0-.315-1.668zm5.496 7.123c.146-.1.32-.228.52-.383.21-.164.42-.337.629-.52.21-.182.406-.373.588-.574.182-.2.323-.392.424-.574.109-.191.164-.37.164-.533 0-.164-.082-.301-.246-.41-.292 0-.611.013-.957.04-.347.019-.693.028-1.04.028a7.315 7.315 0 0 1-1.011-.096 2.61 2.61 0 0 1-.861-.3 1.66 1.66 0 0 1-.616-.616c-.146-.273-.218-.62-.218-1.039 0-.492.09-.934.273-1.326.191-.401.442-.752.752-1.053.31-.31.656-.579 1.039-.806a8.968 8.968 0 0 1 1.176-.602c.237.064.456.178.656.342.2.164.374.346.52.547a.802.802 0 0 1-.383.465c-.183.109-.397.205-.643.287l-.752.26a2.857 2.857 0 0 0-.724.369c-.21.146-.388.341-.534.588-.146.237-.218.55-.218.943 0 .291.072.506.218.643.146.136.338.232.575.287a3.7 3.7 0 0 0 .806.054c.301-.018.606-.04.916-.068.32-.027.63-.041.93-.041.3-.01.57.027.807.11.236.072.423.195.56.368.146.174.219.429.219.766 0 .146-.05.333-.15.56a4.811 4.811 0 0 1-.383.739 5.83 5.83 0 0 1-.56.765c-.21.256-.434.488-.67.698-.229.2-.461.369-.698.506a1.324 1.324 0 0 1-.643.191c-.191 0-.319-.068-.383-.205a1.099 1.099 0 0 1-.081-.41z"/><path id="f" d="M5.584 11.797a.374.374 0 0 0-.219-.26.817.817 0 0 0-.342-.068 1.546 1.546 0 0 0-.355.013 1.93 1.93 0 0 1-.273.028 75.89 75.89 0 0 1-.807-.055c-.383-.027-.798-.055-1.244-.082-.438-.036-.848-.068-1.23-.096-.384-.036-.652-.059-.807-.068 0-.018-.005-.064-.014-.137a1.458 1.458 0 0 1-.014-.15c0-.128.01-.242.028-.342.027-.1.118-.178.273-.232.857.018 1.7.013 2.53-.014.838-.027 1.672-.064 2.501-.11a245.3 245.3 0 0 1 2.502-.15 46.573 46.573 0 0 1 2.53-.068c0 .346-.083.601-.247.765a1.28 1.28 0 0 1-.615.315 3.1 3.1 0 0 1-.793.068 8.655 8.655 0 0 0-.847.014 2.142 2.142 0 0 0-.711.164.663.663 0 0 0-.397.465c-.009.055-.018.16-.027.314-.01.155-.018.32-.027.492 0 .174-.005.338-.014.493v.314c0 .52.064 1.035.191 1.545.137.501.283 1.003.438 1.504.164.492.31.989.437 1.49.137.492.205.994.205 1.504 0 .383-.218.574-.656.574-.264 0-.501-.182-.71-.547-.201-.364-.38-.829-.534-1.394a18.337 18.337 0 0 1-.37-1.846 60.253 60.253 0 0 1-.232-1.914 53.7 53.7 0 0 1-.123-1.613c-.018-.465-.027-.77-.027-.916zm6.398 3.076v-.26c.01-.127.014-.26.014-.396.01-.137.014-.27.014-.397.009-.127.013-.218.013-.273.1-.146.228-.264.383-.356.164-.09.328-.164.492-.218.028.492.105 1.016.233 1.572.127.556.264 1.117.41 1.682.146.556.274 1.107.383 1.654.118.547.178 1.057.178 1.531 0 .41-.21.615-.63.615a.802.802 0 0 1-.642-.314 2.512 2.512 0 0 1-.424-.793 8.232 8.232 0 0 1-.246-1.08c-.064-.401-.11-.793-.137-1.176a55.893 55.893 0 0 1-.04-1.053v-.738zm.192-5.127c.173.073.319.191.437.356.119.164.169.314.15.45-.008.128-.109.22-.3.274-.191.046-.51-.009-.957-.164 0-.246.046-.46.137-.643.1-.182.278-.273.533-.273zm2.16 4.512c0-.228.036-.406.11-.533.081-.128.25-.192.505-.192.028 0 .078.005.15.014h.151c.064.282.128.592.191.93.073.328.155.66.246.998.092.337.192.67.301.998.119.328.26.624.424.888.164-.173.283-.378.356-.615.072-.237.127-.474.164-.71.036-.247.068-.48.095-.698.037-.228.105-.42.205-.574a.85.85 0 0 1 .438-.356c.2-.073.474-.073.82 0 .383 0 .688.073.916.219.228.137.424.314.588.533.173.21.337.438.492.684.164.237.37.45.616.642.054-.118.123-.264.205-.437.082-.182.182-.37.3-.56.128-.201.26-.397.397-.589.146-.2.296-.378.451-.533.155-.164.315-.296.479-.396a.864.864 0 0 1 .478-.164c.374 0 .697.118.97.355.274.228.507.52.698.875.2.346.365.738.492 1.176a11.688 11.688 0 0 1 .451 2.351c.037.329.055.566.055.711 0 .119-.027.21-.082.274a.57.57 0 0 1-.205.15 1.207 1.207 0 0 1-.273.055c-.092.009-.178.014-.26.014h-.082a2.674 2.674 0 0 0-.123-.028 5.05 5.05 0 0 1-.15-.04l-.89-4.089c0-.027-.036-.077-.109-.15a.702.702 0 0 0-.164-.15.152.152 0 0 1-.068-.014h-.041c-.01-.01-.018-.014-.027-.014-.192 0-.374.078-.547.233-.164.155-.32.35-.465.588a6.434 6.434 0 0 0-.41.793c-.128.291-.242.583-.342.875-.1.282-.192.546-.274.793-.072.236-.132.419-.177.546a.905.905 0 0 1-.22.055 3.32 3.32 0 0 1-.218.014c-.255 0-.451-.087-.588-.26a2.429 2.429 0 0 1-.341-.67 9.114 9.114 0 0 1-.22-.861 5.583 5.583 0 0 0-.218-.875 1.742 1.742 0 0 0-.355-.657c-.146-.182-.356-.273-.63-.273-.1 0-.195.1-.287.3-.09.201-.173.456-.246.766-.072.301-.14.63-.205.985a27.48 27.48 0 0 0-.164.984c-.036.3-.063.556-.082.766l-.027.314a.4.4 0 0 1-.11.096c-.054.027-.113.06-.177.096a.632.632 0 0 1-.178.082A.434.434 0 0 1 17 20c-.255 0-.501-.114-.738-.342a3.978 3.978 0 0 1-.657-.902c-.19-.374-.369-.784-.533-1.23a17.724 17.724 0 0 1-.656-2.475 5.51 5.51 0 0 1-.082-.793zm12.305 1.941c0-.492.059-.984.177-1.476.119-.493.306-.935.561-1.327a3.173 3.173 0 0 1 1.012-.957c.419-.246.925-.369 1.517-.369.338 0 .634.064.889.192.255.118.47.278.642.478.174.2.301.438.383.711.091.264.137.542.137.834 0 .465-.11.916-.328 1.354a3.82 3.82 0 0 1-.861 1.162 3.697 3.697 0 0 1-1.23.752c-.466.164-.94.2-1.423.11.01.263.096.478.26.642.173.155.378.273.615.355.237.082.483.137.739.164.255.018.483.028.683.028.21 0 .406-.019.588-.055a11.8 11.8 0 0 0 .547-.123 11.8 11.8 0 0 1 .547-.123c.191-.037.392-.055.601-.055.082 0 .164.005.246.014.082.009.16.032.233.068a.355.355 0 0 1 .178.15.414.414 0 0 1 .068.247.574.574 0 0 1-.192.437c-.127.11-.291.205-.492.287a3.128 3.128 0 0 1-.642.192c-.237.036-.47.068-.698.095a7.403 7.403 0 0 1-.615.028c-.182.009-.319.013-.41.013a4.278 4.278 0 0 1-1.572-.273 3.446 3.446 0 0 1-1.176-.78 3.51 3.51 0 0 1-.738-1.203 4.78 4.78 0 0 1-.246-1.572zm1.449-.889c0 .32.04.552.123.698.091.146.305.219.643.219.236 0 .469-.041.697-.123a2.21 2.21 0 0 0 .615-.37c.191-.155.342-.337.451-.546.11-.21.164-.438.164-.684 0-.137-.013-.278-.04-.424a.978.978 0 0 0-.137-.396.828.828 0 0 0-.288-.301.712.712 0 0 0-.437-.123c-.274 0-.524.064-.752.191a1.764 1.764 0 0 0-.56.479c-.155.191-.274.41-.356.656a2.202 2.202 0 0 0-.123.724z"/><path id="g" d="M70 1.556l-.725-1.863L70 1.556zm292 118.059l-.378 1.963.378-1.963zM32 20.24l-1.034-1.712L32 20.24zm329.622 101.338c4.463.86 9.234-.563 14.034-3.048 4.782-2.483 9.967-6.223 15.314-10.414 10.678-8.373 22.336-18.752 34.326-25.697 11.966-6.941 23.788-10.212 35.11-5.286 11.431 4.973 23.024 18.574 33.721 47.182l3.746-1.401c-10.803-28.892-22.905-43.808-35.872-49.45-13.077-5.689-26.358-1.672-38.712 5.495-12.328 7.164-24.205 17.714-34.787 26.009-5.284 4.143-10.161 7.673-14.686 10.01-4.508 2.334-8.289 3.279-11.438 2.673l-.756 3.927zm132.505 2.737c5.393 14.425 10.397 24.04 15.168 29.647 2.394 2.813 4.834 4.743 7.361 5.692 2.593.974 5.144.864 7.554-.17 4.6-1.973 8.502-7.229 11.972-13.886 3.509-6.741 6.857-15.495 10.089-25.095 6.456-19.185 12.606-42.103 19.252-60.62 3.317-9.245 6.7-17.274 10.323-23.253 3.657-6.046 7.195-9.364 10.557-10.056l-.806-3.918c-5.138 1.058-9.444 5.74-13.173 11.904-3.764 6.232-7.311 14.625-10.666 23.973-6.698 18.672-12.86 41.628-19.279 60.694-3.205 9.524-6.436 17.989-9.844 24.522-3.449 6.616-6.804 10.688-10.001 12.059-1.488.638-2.971.703-4.571.102-1.666-.626-3.578-2.022-5.721-4.541-4.304-5.057-9.112-14.13-14.469-28.455l-3.746 1.401zM314 3.556c8.232 0 14.049 6.07 18.45 16.595 4.412 10.521 7.011 24.623 9.193 39.07 2.182 14.448 3.912 29.144 6.544 40.528 1.325 5.716 2.941 10.773 4.945 14.476 2.036 3.743 4.748 6.633 8.49 7.353l.756-3.927c-2.012-.388-3.927-2.019-5.732-5.338-1.838-3.36-3.277-7.906-4.562-13.466-2.588-11.168-4.295-25.71-6.486-40.223-2.192-14.513-4.903-29.094-9.458-40.016C331.575 7.689 324.768-.444 314-.444v4zM70.726 3.42C78.039.573 87.155 2.337 97.923 5.768c10.662 3.396 22.49 8.259 34.669 10.805l.816-3.916c-11.821-2.454-23.453-7.251-34.27-10.7C88.427-1.456 78.042-3.72 69.274-.307l1.451 3.727zm61.866 13.153c5.44 1.133 11.072 5.027 17.055 10.523 5.958 5.468 12.008 12.28 18.283 18.839 6.277 6.558 12.863 12.922 19.685 17.267 6.901 4.381 14.329 6.881 22.258 5.378l-.746-3.93c-6.571 1.246-12.956-.754-19.367-4.825-6.491-4.11-12.717-10.152-18.94-16.656-6.225-6.504-12.363-13.41-18.467-19.02-6.079-5.582-12.385-10.126-18.945-11.492l-.816 3.916zM1.283 44.677c10.32-8.637 20.86-16.15 31.75-22.725l-2.067-3.424C19.946 25.184 9.158 32.876-1.284 41.61l2.567 3.067zm31.75-22.725A242.937 242.937 0 0 1 70.726 3.42l-1.45-3.727a248.666 248.666 0 0 0-38.309 18.835l2.068 3.424zm176.84 46.628c7.747-1.47 15.847-6.485 24.072-12.871 8.255-6.412 16.894-14.412 25.749-22.183 8.855-7.771 17.875-15.28 27.065-20.87 9.159-5.575 18.258-9.1 27.241-9.1v-4c-10.017 0-19.855 3.92-29.321 9.684-9.435 5.75-18.728 13.474-27.623 21.28-8.895 7.806-17.444 15.727-25.564 22.03-8.15 6.327-15.612 10.819-22.365 12.1l.746 3.93z"/><path id="h" d="M-.027 15.146c0-.455.063-.92.191-1.394.137-.474.32-.934.547-1.38.237-.447.515-.871.834-1.272a6.11 6.11 0 0 1 1.08-1.04 4.97 4.97 0 0 1 1.271-.697c.456-.173.926-.26 1.409-.26.21 0 .478.023.806.069.338.045.661.123.971.232.319.11.588.256.807.438.228.173.341.383.341.629a.121.121 0 0 1-.013.054v.041a.121.121 0 0 0-.014.055 2.031 2.031 0 0 1-.137.164 1.32 1.32 0 0 1-.15.137.152.152 0 0 1-.068.013.256.256 0 0 1-.164 0 .121.121 0 0 1-.055-.013 5.01 5.01 0 0 0-.328-.164 30.86 30.86 0 0 0-1.121-.56 4.97 4.97 0 0 0-.328-.165.45.45 0 0 1-.11-.013H5.66a.225.225 0 0 0-.068-.014c-.429 0-.839.077-1.23.232-.393.155-.753.37-1.08.643a5.471 5.471 0 0 0-.89.943 6.82 6.82 0 0 0-.683 1.135 6.416 6.416 0 0 0-.424 1.217c-.091.41-.137.811-.137 1.203 0 .51.082.966.247 1.367.164.401.391.738.683 1.012.292.264.638.465 1.04.601.41.137.851.205 1.325.205.274 0 .611-.036 1.012-.109a4.94 4.94 0 0 0 1.149-.355c.373-.165.688-.374.943-.63.255-.264.383-.587.383-.97a.745.745 0 0 0-.069-.355.39.39 0 0 0-.191-.192.612.612 0 0 0-.3-.068A4.823 4.823 0 0 0 7 15.87c-.2 0-.374.032-.52.096a4.9 4.9 0 0 0-.437.219 3.714 3.714 0 0 1-.424.218c-.137.064-.3.096-.492.096-.237 0-.424-.037-.56-.11-.137-.072-.206-.24-.206-.505 0-.255.091-.46.274-.615a1.92 1.92 0 0 1 .67-.37c.264-.082.537-.136.82-.164.283-.027.515-.04.697-.04.328 0 .634.027.916.081.283.046.524.137.725.274.21.127.369.31.478.547.11.227.164.524.164.888 0 .565-.154 1.058-.464 1.477-.31.41-.702.747-1.176 1.012-.465.264-.97.464-1.518.601a6.537 6.537 0 0 1-1.504.192 4.75 4.75 0 0 1-1.818-.342 4.108 4.108 0 0 1-1.408-.957A4.534 4.534 0 0 1 .3 16.992a5.14 5.14 0 0 1-.328-1.846zm9.953 2.079c0-.566.132-1.09.396-1.573.265-.492.61-.911 1.04-1.257a5.168 5.168 0 0 1 1.462-.835c.547-.2 1.098-.3 1.655-.3.31 0 .583.1.82.3.246.201.451.447.615.739.164.282.287.583.37.902.09.32.136.597.136.834 0 .51-.123 1.007-.37 1.49a4.81 4.81 0 0 1-.956 1.272c-.392.364-.834.66-1.326.889a3.488 3.488 0 0 1-1.477.341c-.438 0-.807-.073-1.107-.218a2.054 2.054 0 0 1-.725-.602 2.747 2.747 0 0 1-.41-.889 4.735 4.735 0 0 1-.123-1.093zm1.162.136c0 .237.018.447.055.63.045.172.118.323.218.45.11.128.251.228.424.301.173.064.387.096.643.096.337 0 .674-.091 1.011-.274.338-.191.639-.428.903-.71.273-.292.492-.611.656-.957.164-.347.246-.684.246-1.012 0-.146-.014-.306-.04-.479a1.946 1.946 0 0 0-.138-.478 1.003 1.003 0 0 0-.273-.37.674.674 0 0 0-.451-.15c-.164 0-.36.055-.588.164a5.49 5.49 0 0 0-.697.424 8.09 8.09 0 0 0-.711.588 10.45 10.45 0 0 0-.63.656 4.258 4.258 0 0 0-.464.63c-.11.2-.164.364-.164.491zm5.865-.136c0-.566.132-1.09.397-1.573.264-.492.61-.911 1.039-1.257a5.167 5.167 0 0 1 1.463-.835c.546-.2 1.098-.3 1.654-.3.31 0 .583.1.82.3.246.201.451.447.615.739.165.282.288.583.37.902.09.32.136.597.136.834 0 .51-.123 1.007-.369 1.49a4.81 4.81 0 0 1-.957 1.272c-.392.364-.834.66-1.326.889a3.488 3.488 0 0 1-1.477.341c-.437 0-.806-.073-1.107-.218a2.055 2.055 0 0 1-.725-.602 2.745 2.745 0 0 1-.41-.889 4.73 4.73 0 0 1-.123-1.093zm1.162.136c0 .237.019.447.055.63.045.172.118.323.219.45.109.128.25.228.424.301.173.064.387.096.642.096.337 0 .675-.091 1.012-.274.337-.191.638-.428.902-.71.274-.292.492-.611.656-.957.165-.347.247-.684.247-1.012a3.09 3.09 0 0 0-.041-.479 1.95 1.95 0 0 0-.137-.478 1.005 1.005 0 0 0-.274-.37.674.674 0 0 0-.45-.15c-.165 0-.36.055-.589.164a5.49 5.49 0 0 0-.697.424c-.237.173-.474.37-.711.588-.228.219-.438.438-.629.656a4.265 4.265 0 0 0-.465.63c-.11.2-.164.364-.164.491zm5.565 1.026c0-.529.132-.998.396-1.409.264-.41.593-.765.985-1.066.392-.31.815-.57 1.271-.78.456-.218.88-.396 1.271-.532.392-.146.72-.26.985-.342.264-.091.396-.164.396-.219 0-.319-.018-.629-.054-.93-.028-.31-.06-.62-.096-.93l-.11-.915c-.027-.31-.04-.616-.04-.916v-.889c.373-.137.638-.123.793.041.164.164.191.447.082.848.036.2.086.515.15.943.064.428.132.912.205 1.45.082.537.164 1.102.246 1.694.091.593.173 1.163.246 1.71.082.537.15 1.02.205 1.449l.123.943c.01.046.019.137.028.274.009.127.013.268.013.423.01.146.014.283.014.41.01.128.014.22.014.274-.347 0-.584-.014-.711-.041-.119-.027-.196-.082-.233-.164a1.181 1.181 0 0 1-.04-.356c0-.154-.046-.369-.137-.642a8.204 8.204 0 0 1-.957.656c-.301.173-.602.315-.903.424-.3.1-.606.168-.916.205-.3.046-.624.068-.97.068-.292 0-.575-.022-.848-.068a2.22 2.22 0 0 1-.711-.273c-.21-.128-.378-.301-.506-.52-.127-.219-.191-.492-.191-.82zm1.19-.287c0 .145.031.264.095.355a.86.86 0 0 0 .246.233c.1.063.205.109.314.136.119.018.233.028.342.028.32 0 .661-.06 1.026-.178a4.02 4.02 0 0 0 1.025-.52c.319-.228.579-.496.78-.806.209-.31.314-.647.314-1.012 0-.283-.05-.479-.15-.588-.1-.11-.292-.164-.575-.164-.292 0-.633.068-1.025.205a5.787 5.787 0 0 0-1.121.547 3.669 3.669 0 0 0-.903.807c-.246.3-.369.62-.369.957zm13.042-1.9c0-.493.06-.985.178-1.477.118-.493.305-.935.56-1.327a3.174 3.174 0 0 1 1.012-.957c.42-.246.925-.369 1.518-.369.337 0 .633.064.888.192.256.118.47.278.643.478.173.2.3.438.383.711.09.264.136.542.136.834 0 .465-.109.916-.328 1.354a3.82 3.82 0 0 1-.861 1.162 3.697 3.697 0 0 1-1.23.752c-.465.164-.94.2-1.422.11.009.263.095.478.26.642.173.155.378.273.615.355.237.082.483.137.738.164.255.018.483.028.683.028a3 3 0 0 0 .588-.055 11.8 11.8 0 0 0 .547-.123 11.8 11.8 0 0 1 .547-.123c.192-.037.392-.055.602-.055.082 0 .164.005.246.014.082.009.16.032.232.068a.355.355 0 0 1 .178.15.413.413 0 0 1 .068.247.574.574 0 0 1-.191.437c-.128.11-.292.205-.492.287a3.127 3.127 0 0 1-.643.192c-.237.036-.47.068-.697.095a7.401 7.401 0 0 1-.615.028c-.183.009-.32.013-.41.013a4.277 4.277 0 0 1-1.573-.273 3.444 3.444 0 0 1-1.175-.78 3.512 3.512 0 0 1-.739-1.203 4.78 4.78 0 0 1-.246-1.572zm1.45-.89c0 .32.04.552.122.698.091.146.306.219.643.219.237 0 .47-.041.697-.123a2.21 2.21 0 0 0 .616-.37c.19-.155.341-.337.45-.546.11-.21.165-.438.165-.684 0-.137-.014-.278-.041-.424a.98.98 0 0 0-.137-.396.829.829 0 0 0-.287-.301.712.712 0 0 0-.438-.123c-.273 0-.524.064-.752.191a1.764 1.764 0 0 0-.56.479c-.155.191-.274.41-.356.656a2.2 2.2 0 0 0-.123.724zm5.906-1.763c-.01-.01-.014-.023-.014-.041a.235.235 0 0 1-.014-.096c0-.173.073-.292.219-.355a.946.946 0 0 1 .424-.11c.018 0 .036.005.054.014h.096c.027.01.069.014.123.014l1.914 1.613c.328-.474.593-.843.793-1.107.21-.265.374-.456.492-.575.119-.127.206-.2.26-.219a.414.414 0 0 1 .137-.04h.205c.082 0 .164.009.246.027.082.009.15.036.205.082a.38.38 0 0 1 .137.219c-.155.155-.3.31-.438.464a4.326 4.326 0 0 0-.382.506c-.119.174-.233.37-.342.588-.1.219-.205.465-.315.739.174.127.388.31.643.546.264.228.529.483.793.766.273.273.538.556.793.848.255.282.465.551.629.806.173.255.282.474.328.657.055.182.023.3-.096.355a3.309 3.309 0 0 0-.26.37c-.045.072-.095.095-.15.068-.045-.028-.11-.114-.191-.26a4.692 4.692 0 0 0-.452-.615c-.21-.274-.5-.616-.874-1.026-.374-.41-.871-.898-1.49-1.463l-.11 3.377c0 .01-.018.028-.055.055l-.123.096a1.818 1.818 0 0 1-.246.15H47.906a5.323 5.323 0 0 1-.191-.164c-.073-.073-.11-.119-.11-.137v-3.814l-2.337-2.338zm7.013 1.408c0-.884.205-1.54.616-1.969.41-.428 1.038-.642 1.886-.642.347 0 .702.032 1.067.096a3.4 3.4 0 0 1 1.025.341c.31.155.56.374.752.656.2.283.3.648.3 1.094 0 .492-.109.957-.327 1.395-.21.428-.479.834-.807 1.217a8.96 8.96 0 0 1-1.066 1.052 77.71 77.71 0 0 0-1.08.916.953.953 0 0 0-.055.233c-.01.11-.014.182-.014.218 0 .301.087.602.26.903.182.31.378.62.588.93.21.319.4.647.574.984.173.337.26.688.26 1.053 0 .218-.046.346-.137.383-.091.045-.282.068-.574.068-.182-.073-.365-.246-.547-.52a7.866 7.866 0 0 1-.533-.984 18.445 18.445 0 0 1-.52-1.326 56.536 56.536 0 0 1-.478-1.477 212.88 212.88 0 0 1-.424-1.504 97.63 97.63 0 0 1-.342-1.38c-.1-.42-.191-.78-.273-1.08a39.87 39.87 0 0 1-.15-.657zm1.162.123c0 .137.01.337.028.602.018.255.054.51.11.765.063.256.154.479.272.67a.557.557 0 0 0 .493.274c.282 0 .565-.096.847-.287.292-.192.547-.433.766-.725a4.02 4.02 0 0 0 .547-.93c.146-.337.219-.642.219-.916 0-.228-.055-.405-.165-.533a1.056 1.056 0 0 0-.423-.314 1.499 1.499 0 0 0-.534-.15 3.878 3.878 0 0 0-.546-.042c-.52 0-.92.141-1.204.424-.273.274-.41.66-.41 1.162zm5.291 1.121c0-.492.06-.984.178-1.476.119-.493.305-.935.56-1.327a3.173 3.173 0 0 1 1.012-.957c.42-.246.925-.369 1.518-.369.337 0 .633.064.889.192.255.118.469.278.642.478.173.2.301.438.383.711.091.264.137.542.137.834 0 .465-.11.916-.328 1.354a3.82 3.82 0 0 1-.862 1.162 3.697 3.697 0 0 1-1.23.752c-.465.164-.939.2-1.422.11.01.263.096.478.26.642.173.155.378.273.615.355.237.082.483.137.738.164.255.018.483.028.684.028.21 0 .405-.019.588-.055a11.8 11.8 0 0 0 .547-.123 11.8 11.8 0 0 1 .546-.123c.192-.037.392-.055.602-.055.082 0 .164.005.246.014.082.009.16.032.232.068a.355.355 0 0 1 .178.15.414.414 0 0 1 .069.247.574.574 0 0 1-.192.437c-.127.11-.291.205-.492.287a3.128 3.128 0 0 1-.642.192c-.237.036-.47.068-.698.095a7.403 7.403 0 0 1-.615.028c-.182.009-.32.013-.41.013a4.278 4.278 0 0 1-1.572-.273 3.444 3.444 0 0 1-1.176-.78 3.509 3.509 0 0 1-.739-1.203 4.78 4.78 0 0 1-.246-1.572zm1.45-.889c0 .32.04.552.123.698.09.146.305.219.642.219.237 0 .47-.041.698-.123a2.21 2.21 0 0 0 .615-.37c.191-.155.341-.337.45-.546.11-.21.165-.438.165-.684 0-.137-.014-.278-.041-.424a.978.978 0 0 0-.137-.396.828.828 0 0 0-.287-.301.712.712 0 0 0-.437-.123c-.274 0-.525.064-.752.191a1.764 1.764 0 0 0-.56.479c-.156.191-.274.41-.356.656a2.202 2.202 0 0 0-.123.724zm6.18-1.052c0-.082.004-.164.013-.246a.793.793 0 0 1 .055-.233.416.416 0 0 1 .123-.177.439.439 0 0 1 .26-.069c.09 0 .19.073.3.219.119.137.237.314.356.533.118.21.232.442.341.697.119.256.22.493.301.711.091.21.164.392.219.547.055.155.087.237.096.246.118-.319.25-.665.396-1.039.146-.373.324-.72.533-1.039.22-.328.474-.601.766-.82.3-.219.665-.328 1.094-.328.219 0 .424.036.615.11.2.063.374.163.52.3.154.127.278.283.369.465.09.182.136.392.136.629 0 .2-.082.341-.246.424a1.123 1.123 0 0 1-.533.122h-.137l-.588-.587c-.018 0-.031-.005-.04-.014h-.055c-.01-.01-.023-.014-.041-.014-.32 0-.57.091-.752.274a1.69 1.69 0 0 0-.397.656c-.09.255-.15.529-.177.82-.019.283-.028.543-.028.78 0 .182.019.369.055.56.036.182.077.365.123.547.046.173.087.355.123.547.037.182.055.374.055.574 0 .383-.205.574-.615.574-.228 0-.465-.118-.711-.355a5.912 5.912 0 0 1-.739-.93 12.87 12.87 0 0 1-.683-1.23c-.219-.456-.41-.898-.575-1.326a14.763 14.763 0 0 1-.396-1.163c-.091-.346-.137-.601-.137-.765zm7.56.615v-.26c.009-.127.013-.26.013-.396.01-.137.014-.27.014-.397.01-.127.014-.218.014-.273.1-.146.228-.264.383-.356.164-.09.328-.164.492-.218.027.492.105 1.016.232 1.572.128.556.265 1.117.41 1.682.146.556.274 1.107.383 1.654.119.547.178 1.057.178 1.531 0 .41-.21.615-.629.615a.802.802 0 0 1-.642-.314 2.51 2.51 0 0 1-.424-.793 8.215 8.215 0 0 1-.246-1.08c-.064-.401-.11-.793-.137-1.176a55.893 55.893 0 0 1-.041-1.053v-.738zm.191-5.127c.173.073.32.191.438.356.118.164.168.314.15.45-.009.128-.11.22-.3.274-.192.046-.511-.009-.958-.164 0-.246.046-.46.137-.643.1-.182.278-.273.533-.273zm2.461 6.453c0-.492.06-.984.178-1.476.118-.493.305-.935.56-1.327a3.173 3.173 0 0 1 1.012-.957c.42-.246.925-.369 1.518-.369.337 0 .633.064.888.192.256.118.47.278.643.478.173.2.3.438.383.711.091.264.136.542.136.834 0 .465-.109.916-.328 1.354a3.82 3.82 0 0 1-.86 1.162 3.697 3.697 0 0 1-1.231.752c-.465.164-.94.2-1.422.11.009.263.095.478.26.642.173.155.378.273.615.355.237.082.483.137.738.164.255.018.483.028.684.028.21 0 .405-.019.588-.055a11.8 11.8 0 0 0 .546-.123c.183-.046.365-.087.547-.123.192-.037.392-.055.602-.055.082 0 .164.005.246.014.082.009.16.032.232.068a.355.355 0 0 1 .178.15.414.414 0 0 1 .068.247.574.574 0 0 1-.191.437c-.128.11-.292.205-.492.287a3.127 3.127 0 0 1-.643.192c-.237.036-.47.068-.697.095a7.403 7.403 0 0 1-.615.028c-.182.009-.32.013-.41.013a4.278 4.278 0 0 1-1.573-.273 3.446 3.446 0 0 1-1.175-.78 3.51 3.51 0 0 1-.739-1.203 4.78 4.78 0 0 1-.246-1.572zm1.45-.889c0 .32.04.552.122.698.092.146.306.219.643.219.237 0 .47-.041.697-.123a2.21 2.21 0 0 0 .615-.37c.192-.155.342-.337.452-.546.11-.21.164-.438.164-.684 0-.137-.014-.278-.041-.424a.978.978 0 0 0-.137-.396.828.828 0 0 0-.287-.301.712.712 0 0 0-.438-.123c-.273 0-.524.064-.752.191a1.764 1.764 0 0 0-.56.479c-.155.191-.273.41-.356.656a2.202 2.202 0 0 0-.123.724zm6.18.083c0-.237.058-.406.177-.506.118-.11.31-.164.574-.164h.137l.096.505a3.8 3.8 0 0 0 .423 1.149c.1.164.224.296.37.396.008-.319.086-.624.232-.916.155-.3.342-.565.56-.792a3.43 3.43 0 0 1 .739-.588c.273-.165.542-.274.806-.329h.301c.438 0 .811.1 1.121.301.31.192.565.447.766.766.21.31.369.665.478 1.066.11.401.192.811.246 1.23.064.41.1.812.11 1.204.018.383.027.71.027.984h-.998a25.413 25.413 0 0 0-.205-1.572 9.11 9.11 0 0 0-.11-.629 7.995 7.995 0 0 0-.328-1.176 1.958 1.958 0 0 0-.218-.437l-.15-.15a3.412 3.412 0 0 0-.356-.356.367.367 0 0 0-.096-.069.719.719 0 0 0-.71.165c-.201.173-.379.41-.534.71-.155.301-.282.643-.383 1.026-.09.383-.168.752-.232 1.107-.064.347-.11.652-.137.916-.027.256-.046.41-.055.465-.227.164-.442.214-.642.15-.2-.072-.392-.218-.574-.437a3.815 3.815 0 0 1-.479-.82 13.766 13.766 0 0 1-.383-1.04 25.9 25.9 0 0 1-.328-1.12c-.091-.374-.173-.72-.246-1.04zm7.642.492a3.3 3.3 0 0 1 .246-1.203c.173-.42.4-.798.683-1.135.283-.347.606-.634.971-.862a2.225 2.225 0 0 1 1.176-.341 1.904 1.904 0 0 1 1.19.424c.172.136.31.3.41.492.109.191.163.405.163.642-.164 0-.314-.018-.45-.054a6.223 6.223 0 0 1-.383-.123 3.198 3.198 0 0 0-.383-.137 1.344 1.344 0 0 0-.397-.055c-.373 0-.679.096-.916.287-.228.183-.41.415-.547.698a3.36 3.36 0 0 0-.287.916 6.39 6.39 0 0 0-.068.902v.26c.009.127.013.264.013.41.01.137.014.269.014.396.01.128.018.214.028.26.1.219.195.387.287.506.1.119.205.21.314.273.11.055.228.092.356.11.127.009.278.014.45.014.238 0 .443-.037.616-.11.182-.073.35-.16.506-.26.155-.1.3-.21.437-.328a3.67 3.67 0 0 1 .424-.342c.155-.109.32-.196.492-.26.183-.072.388-.109.616-.109 0 .447-.082.843-.246 1.19a2.467 2.467 0 0 1-.67.888c-.283.246-.62.438-1.012.575a3.958 3.958 0 0 1-1.258.191c-.428 0-.816-.146-1.162-.438a4.217 4.217 0 0 1-.875-1.066 6.022 6.022 0 0 1-.547-1.353 4.913 4.913 0 0 1-.191-1.258zm6.726.314c0-.492.06-.984.178-1.476.118-.493.305-.935.56-1.327a3.175 3.175 0 0 1 1.012-.957c.419-.246.925-.369 1.518-.369.337 0 .633.064.888.192.256.118.47.278.643.478.173.2.301.438.383.711.091.264.137.542.137.834 0 .465-.11.916-.329 1.354a3.804 3.804 0 0 1-.861 1.162 3.689 3.689 0 0 1-1.23.752c-.465.164-.939.2-1.422.11a.912.912 0 0 0 .26.642c.173.155.378.273.615.355.237.082.483.137.738.164.255.018.483.028.684.028.209 0 .405-.019.588-.055.182-.037.364-.078.546-.123.183-.046.365-.087.547-.123.192-.037.392-.055.602-.055.082 0 .164.005.246.014.082.009.159.032.232.068a.352.352 0 0 1 .178.15.41.41 0 0 1 .068.247.572.572 0 0 1-.191.437c-.128.11-.292.205-.492.287a3.142 3.142 0 0 1-.643.192 20.91 20.91 0 0 1-.697.095 7.41 7.41 0 0 1-.615.028c-.182.009-.319.013-.41.013a4.28 4.28 0 0 1-1.573-.273 3.45 3.45 0 0 1-1.175-.78 3.512 3.512 0 0 1-.739-1.203 4.78 4.78 0 0 1-.246-1.572zm1.449-.889c0 .32.041.552.123.698.092.146.306.219.643.219.237 0 .469-.041.697-.123.228-.092.433-.215.616-.37a1.74 1.74 0 0 0 .451-.546 1.46 1.46 0 0 0 .164-.684c0-.137-.014-.278-.041-.424a.974.974 0 0 0-.137-.396.832.832 0 0 0-.287-.301.711.711 0 0 0-.438-.123c-.273 0-.524.064-.752.191a1.77 1.77 0 0 0-.56.479c-.155.191-.273.41-.356.656a2.202 2.202 0 0 0-.123.724z"/><path id="i" d="M0 0h30v308H0V0z"/><path id="k" d="M0-1a1 1 0 1 0 0 2v-2zm328 2a1 1 0 0 0 0-2v2zM5.125 1a1 1 0 0 0 0-2v2zm10.25-2a1 1 0 1 0 0 2v-2zm10.25 2a1 1 0 1 0 0-2v2zm10.25-2a1 1 0 1 0 0 2v-2zm10.25 2a1 1 0 1 0 0-2v2zm10.25-2a1 1 0 1 0 0 2v-2zm10.25 2a1 1 0 1 0 0-2v2zm10.25-2a1 1 0 1 0 0 2v-2zm10.25 2a1 1 0 1 0 0-2v2zm10.25-2a1 1 0 1 0 0 2v-2zm10.25 2a1 1 0 0 0 0-2v2zm10.25-2a1 1 0 0 0 0 2v-2zm10.25 2a1 1 0 0 0 0-2v2zm10.25-2a1 1 0 0 0 0 2v-2zm10.25 2a1 1 0 0 0 0-2v2zm10.25-2a1 1 0 0 0 0 2v-2zm10.25 2a1 1 0 0 0 0-2v2zm10.25-2a1 1 0 0 0 0 2v-2zm10.25 2a1 1 0 0 0 0-2v2zm10.25-2a1 1 0 0 0 0 2v-2zm10.25 2a1 1 0 0 0 0-2v2zm10.25-2a1 1 0 0 0 0 2v-2zm10.25 2a1 1 0 0 0 0-2v2zm10.25-2a1 1 0 0 0 0 2v-2zm10.25 2a1 1 0 0 0 0-2v2zm10.25-2a1 1 0 0 0 0 2v-2zm10.25 2a1 1 0 0 0 0-2v2zm10.25-2a1 1 0 0 0 0 2v-2zm10.25 2a1 1 0 0 0 0-2v2zm10.25-2a1 1 0 0 0 0 2v-2zm10.25 2a1 1 0 0 0 0-2v2zm10.25-2a1 1 0 0 0 0 2v-2zM0 1h5.125v-2H0v2zm15.375 0h10.25v-2h-10.25v2zm20.5 0h10.25v-2h-10.25v2zm20.5 0h10.25v-2h-10.25v2zm20.5 0h10.25v-2h-10.25v2zm20.5 0h10.25v-2h-10.25v2zm20.5 0h10.25v-2h-10.25v2zm20.5 0h10.25v-2h-10.25v2zm20.5 0h10.25v-2h-10.25v2zm20.5 0h10.25v-2h-10.25v2zm20.5 0h10.25v-2h-10.25v2zm20.5 0h10.25v-2h-10.25v2zm20.5 0h10.25v-2h-10.25v2zm20.5 0h10.25v-2h-10.25v2zm20.5 0h10.25v-2h-10.25v2zm20.5 0h10.25v-2h-10.25v2zm20.5 0H328v-2h-5.125v2zM0-2a2 2 0 1 0 0 4v-4zm328 4a2 2 0 1 0 0-4v4zM5.125 2a2 2 0 1 0 0-4v4zm10.25-4a2 2 0 1 0 0 4v-4zm10.25 4a2 2 0 1 0 0-4v4zm10.25-4a2 2 0 1 0 0 4v-4zm10.25 4a2 2 0 1 0 0-4v4zm10.25-4a2 2 0 1 0 0 4v-4zm10.25 4a2 2 0 1 0 0-4v4zm10.25-4a2 2 0 1 0 0 4v-4zm10.25 4a2 2 0 1 0 0-4v4zm10.25-4a2 2 0 1 0 0 4v-4zm10.25 4a2 2 0 1 0 0-4v4zm10.25-4a2 2 0 1 0 0 4v-4zm10.25 4a2 2 0 1 0 0-4v4zm10.25-4a2 2 0 1 0 0 4v-4zm10.25 4a2 2 0 1 0 0-4v4zm10.25-4a2 2 0 1 0 0 4v-4zm10.25 4a2 2 0 1 0 0-4v4zm10.25-4a2 2 0 1 0 0 4v-4zm10.25 4a2 2 0 1 0 0-4v4zm10.25-4a2 2 0 1 0 0 4v-4zm10.25 4a2 2 0 1 0 0-4v4zm10.25-4a2 2 0 1 0 0 4v-4zm10.25 4a2 2 0 1 0 0-4v4zm10.25-4a2 2 0 1 0 0 4v-4zm10.25 4a2 2 0 1 0 0-4v4zm10.25-4a2 2 0 1 0 0 4v-4zm10.25 4a2 2 0 1 0 0-4v4zm10.25-4a2 2 0 1 0 0 4v-4zm10.25 4a2 2 0 1 0 0-4v4zm10.25-4a2 2 0 1 0 0 4v-4zm10.25 4a2 2 0 1 0 0-4v4zm10.25-4a2 2 0 1 0 0 4v-4zM0 2h5.125v-4H0v4zm15.375 0h10.25v-4h-10.25v4zm20.5 0h10.25v-4h-10.25v4zm20.5 0h10.25v-4h-10.25v4zm20.5 0h10.25v-4h-10.25v4zm20.5 0h10.25v-4h-10.25v4zm20.5 0h10.25v-4h-10.25v4zm20.5 0h10.25v-4h-10.25v4zm20.5 0h10.25v-4h-10.25v4zm20.5 0h10.25v-4h-10.25v4zm20.5 0h10.25v-4h-10.25v4zm20.5 0h10.25v-4h-10.25v4zm20.5 0h10.25v-4h-10.25v4zm20.5 0h10.25v-4h-10.25v4zm20.5 0h10.25v-4h-10.25v4zm20.5 0h10.25v-4h-10.25v4zm20.5 0H328v-4h-5.125v4z"/><path id="m" d="M.465 9.8c.11-.555.31-.993.601-1.312a2.23 2.23 0 0 1 .998-.67 2.714 2.714 0 0 1 1.217-.082c.438.055.848.187 1.23.397.393.21.734.483 1.026.82.292.328.497.707.615 1.135.119.42.119.875 0 1.367-.118.492-.387.998-.806 1.518.328.118.633.237.916.355.282.119.52.264.71.438.201.173.356.382.465.629.11.246.165.551.165.915 0 .301-.055.62-.165.958-.109.337-.264.67-.464.998a6.035 6.035 0 0 1-1.518 1.722c-.3.228-.61.41-.93.547-.31.128-.615.192-.916.192-.2 0-.396-.128-.588-.383a5.075 5.075 0 0 1-.56-1.012 15.06 15.06 0 0 1-.533-1.45 28.576 28.576 0 0 1-.479-1.695 47.398 47.398 0 0 1-.396-1.75 95.567 95.567 0 0 1-.315-1.613c-.082-.492-.15-.916-.205-1.271A7.275 7.275 0 0 1 .465 9.8zm2.433 5.92c0 .156.037.36.11.616.073.255.164.51.273.766.119.255.246.492.383.71.137.21.283.351.438.424.127.073.278.069.45-.013.174-.091.347-.228.52-.41.183-.192.356-.406.52-.643.164-.246.31-.488.437-.725.137-.237.242-.455.315-.656.082-.21.123-.37.123-.479a1.45 1.45 0 0 0-.096-.574.83.83 0 0 0-.287-.369 1.065 1.065 0 0 0-.438-.191 2.523 2.523 0 0 0-.546-.055c-.228 0-.47.037-.725.11a2.77 2.77 0 0 0-.71.314c-.21.137-.393.305-.548.506-.146.2-.219.424-.219.67zm-.875-4.648c0 .164-.004.37-.013.616-.01.236-.01.483 0 .738.009.255.036.51.082.765.045.256.127.474.246.657a2.942 2.942 0 0 0 1.162-.465 2.91 2.91 0 0 0 .807-.793c.21-.31.36-.638.45-.985.092-.346.124-.683.097-1.011a2.277 2.277 0 0 0-.233-.903 1.423 1.423 0 0 0-.547-.629c-.237-.154-.524-.232-.861-.232-.337 0-.725.11-1.162.328 0 .073-.005.2-.014.383 0 .182-.004.374-.014.574v.957zm12.332 7.164c-.346.237-.647.451-.902.643a6.021 6.021 0 0 1-.724.465 3.086 3.086 0 0 1-.766.287 4.277 4.277 0 0 1-.984.096c-.848 0-1.477-.224-1.887-.67-.41-.456-.615-1.13-.615-2.024 0-.346.045-.706.136-1.08.091-.374.224-.743.397-1.107.182-.374.396-.725.642-1.053a4.84 4.84 0 0 1 .834-.889 3.97 3.97 0 0 1 .985-.601c.355-.155.729-.233 1.12-.233.657.064 1.172.228 1.546.492.373.256.656.588.847.998.192.402.324.853.397 1.354.073.492.127 1.003.164 1.531.046.529.1 1.058.164 1.586.064.529.196 1.017.396 1.463-.118.3-.232.51-.341.629-.1.128-.214.15-.342.068-.128-.082-.278-.282-.451-.601a20.8 20.8 0 0 1-.616-1.354zM9.64 17.061c0 .52.095.902.287 1.148.2.237.551.355 1.053.355.373 0 .729-.063 1.066-.191.346-.137.647-.319.902-.547.256-.237.46-.52.616-.848a2.53 2.53 0 0 0 .232-1.093c0-.164.005-.392.014-.684.009-.3-.01-.597-.055-.889a2.038 2.038 0 0 0-.26-.752.623.623 0 0 0-.574-.328c-.474 0-.912.123-1.313.37a3.688 3.688 0 0 0-1.039.916c-.291.373-.52.788-.683 1.244-.164.446-.246.88-.246 1.299zm7.027 1.326c0-.529.132-.998.396-1.409.265-.41.593-.765.985-1.066.392-.31.816-.57 1.271-.78.456-.218.88-.396 1.272-.532.392-.146.72-.26.984-.342.264-.091.397-.164.397-.219 0-.319-.018-.629-.055-.93-.027-.31-.06-.62-.096-.93-.036-.31-.073-.614-.11-.915-.026-.31-.04-.616-.04-.916v-.889c.374-.137.638-.123.793.041.164.164.191.447.082.848.036.2.086.515.15.943.064.428.133.912.205 1.45.082.537.165 1.102.247 1.694.09.593.173 1.163.246 1.71.082.537.15 1.02.205 1.449l.123.943a5.938 5.938 0 0 1 .041.697c.009.146.013.283.013.41.01.128.014.22.014.274-.346 0-.583-.014-.71-.041-.12-.027-.197-.082-.233-.164a1.184 1.184 0 0 1-.041-.356c0-.154-.046-.369-.137-.642a8.213 8.213 0 0 1-.957.656 5.74 5.74 0 0 1-.902.424c-.301.1-.607.168-.916.205-.301.046-.625.068-.971.068-.292 0-.574-.022-.848-.068a2.22 2.22 0 0 1-.71-.273c-.21-.128-.379-.301-.507-.52-.127-.219-.191-.492-.191-.82zm1.19-.287c0 .145.031.264.095.355a.859.859 0 0 0 .246.233c.1.063.205.109.315.136.118.018.232.028.341.028.32 0 .661-.06 1.026-.178a4.02 4.02 0 0 0 1.025-.52c.32-.228.58-.496.78-.806.21-.31.314-.647.314-1.012 0-.283-.05-.479-.15-.588-.1-.11-.292-.164-.575-.164-.291 0-.633.068-1.025.205a5.784 5.784 0 0 0-1.121.547 3.667 3.667 0 0 0-.902.807c-.247.3-.37.62-.37.957zm13.042-1.9c0-.493.06-.985.178-1.477.119-.493.305-.935.56-1.327a3.174 3.174 0 0 1 1.012-.957c.42-.246.926-.369 1.518-.369.337 0 .634.064.889.192.255.118.47.278.642.478.173.2.301.438.383.711.091.264.137.542.137.834 0 .465-.11.916-.328 1.354-.21.437-.497.825-.862 1.162a3.697 3.697 0 0 1-1.23.752c-.465.164-.939.2-1.422.11.01.263.096.478.26.642.173.155.378.273.615.355.237.082.483.137.738.164.255.018.483.028.684.028.21 0 .406-.019.588-.055.182-.037.364-.078.547-.123a11.8 11.8 0 0 1 .546-.123c.192-.037.392-.055.602-.055.082 0 .164.005.246.014.082.009.16.032.233.068a.354.354 0 0 1 .177.15.413.413 0 0 1 .069.247.574.574 0 0 1-.192.437c-.127.11-.291.205-.492.287a3.127 3.127 0 0 1-.643.192c-.236.036-.469.068-.697.095a7.401 7.401 0 0 1-.615.028c-.182.009-.319.013-.41.013a4.277 4.277 0 0 1-1.572-.273 3.445 3.445 0 0 1-1.176-.78 3.512 3.512 0 0 1-.738-1.203 4.783 4.783 0 0 1-.247-1.572zm1.45-.89c0 .32.04.552.123.698.09.146.305.219.642.219.237 0 .47-.041.697-.123a2.21 2.21 0 0 0 .616-.37c.191-.155.342-.337.451-.546.11-.21.164-.438.164-.684 0-.137-.014-.278-.041-.424a.978.978 0 0 0-.137-.396.828.828 0 0 0-.287-.301.712.712 0 0 0-.437-.123c-.274 0-.524.064-.752.191a1.764 1.764 0 0 0-.56.479c-.156.191-.274.41-.356.656a2.202 2.202 0 0 0-.123.724zm5.906-1.763c-.01-.01-.014-.023-.014-.041a.236.236 0 0 1-.013-.096c0-.173.073-.292.218-.355a.946.946 0 0 1 .424-.11c.018 0 .037.005.055.014h.096c.027.01.068.014.123.014l1.914 1.613c.328-.474.592-.843.793-1.107.21-.265.373-.456.492-.575.118-.127.205-.2.26-.219a.414.414 0 0 1 .136-.04h.205c.082 0 .164.009.247.027.082.009.15.036.205.082a.38.38 0 0 1 .136.219c-.155.155-.3.31-.437.464a4.316 4.316 0 0 0-.383.506c-.119.174-.233.37-.342.588-.1.219-.205.465-.314.739.173.127.387.31.642.546.265.228.529.483.793.766.274.273.538.556.793.848.255.282.465.551.63.806.172.255.282.474.327.657.055.182.023.3-.096.355a3.291 3.291 0 0 0-.26.37c-.045.072-.095.095-.15.068-.045-.028-.109-.114-.191-.26a4.704 4.704 0 0 0-.451-.615 16.56 16.56 0 0 0-.875-1.026c-.374-.41-.87-.898-1.49-1.463l-.11 3.377c0 .01-.018.028-.054.055-.037.027-.078.06-.123.096a1.842 1.842 0 0 1-.246.15H40.892a5.151 5.151 0 0 1-.192-.164c-.073-.073-.11-.119-.11-.137v-3.814l-2.337-2.338zm7.014 1.408c0-.884.205-1.54.615-1.969.41-.428 1.039-.642 1.886-.642.347 0 .702.032 1.067.096a3.4 3.4 0 0 1 1.025.341c.31.155.56.374.752.656.2.283.301.648.301 1.094 0 .492-.11.957-.328 1.395-.21.428-.479.834-.807 1.217a8.96 8.96 0 0 1-1.066 1.052 78.3 78.3 0 0 0-1.08.916.958.958 0 0 0-.055.233c-.009.11-.014.182-.014.218 0 .301.087.602.26.903.183.31.379.62.588.93.21.319.401.647.574.984.174.337.26.688.26 1.053 0 .218-.046.346-.137.383-.09.045-.282.068-.574.068-.182-.073-.364-.246-.547-.52a7.879 7.879 0 0 1-.533-.984 18.445 18.445 0 0 1-.52-1.326 56.536 56.536 0 0 1-.478-1.477 212.88 212.88 0 0 1-.424-1.504 99.024 99.024 0 0 1-.342-1.38c-.1-.42-.191-.78-.273-1.08-.073-.31-.123-.53-.15-.657zm1.162.123c0 .137.009.337.027.602.018.255.055.51.11.765.063.256.154.479.273.67a.557.557 0 0 0 .492.274c.283 0 .565-.096.848-.287.291-.192.547-.433.765-.725.228-.292.41-.602.547-.93.146-.337.219-.642.219-.916 0-.228-.055-.405-.164-.533a1.057 1.057 0 0 0-.424-.314 1.499 1.499 0 0 0-.533-.15 3.878 3.878 0 0 0-.547-.042c-.52 0-.92.141-1.203.424-.274.274-.41.66-.41 1.162zm5.29 1.121c0-.492.06-.984.178-1.476.119-.493.306-.935.561-1.327a3.173 3.173 0 0 1 1.012-.957c.419-.246.925-.369 1.517-.369.337 0 .634.064.889.192.255.118.47.278.642.478.174.2.301.438.383.711.091.264.137.542.137.834 0 .465-.11.916-.328 1.354a3.82 3.82 0 0 1-.861 1.162 3.697 3.697 0 0 1-1.23.752c-.466.164-.94.2-1.423.11.01.263.096.478.26.642.173.155.378.273.615.355.237.082.483.137.738.164.256.018.484.028.684.028a3 3 0 0 0 .588-.055 11.8 11.8 0 0 0 .547-.123 11.8 11.8 0 0 1 .547-.123c.191-.037.392-.055.601-.055.082 0 .164.005.246.014.082.009.16.032.233.068a.355.355 0 0 1 .178.15.413.413 0 0 1 .068.247.573.573 0 0 1-.192.437c-.127.11-.291.205-.492.287a3.127 3.127 0 0 1-.642.192c-.237.036-.47.068-.698.095a7.401 7.401 0 0 1-.615.028c-.182.009-.319.013-.41.013a4.277 4.277 0 0 1-1.572-.273 3.444 3.444 0 0 1-1.176-.78 3.512 3.512 0 0 1-.738-1.203 4.78 4.78 0 0 1-.246-1.572zm1.45-.889c0 .32.04.552.123.698.091.146.305.219.642.219.237 0 .47-.041.698-.123.228-.092.433-.215.615-.37.192-.155.342-.337.451-.546.11-.21.164-.438.164-.684 0-.137-.013-.278-.04-.424a.978.978 0 0 0-.138-.396.828.828 0 0 0-.287-.301.712.712 0 0 0-.437-.123c-.273 0-.524.064-.752.191a1.764 1.764 0 0 0-.56.479c-.156.191-.274.41-.356.656a2.2 2.2 0 0 0-.123.724zm6.18-1.052c0-.082.004-.164.013-.246a.79.79 0 0 1 .055-.233.415.415 0 0 1 .123-.177.439.439 0 0 1 .26-.069c.09 0 .191.073.3.219.12.137.238.314.356.533.118.21.233.442.342.697.118.256.219.493.3.711.092.21.165.392.22.547.054.155.086.237.095.246.119-.319.25-.665.396-1.039.146-.373.324-.72.534-1.039.218-.328.474-.601.765-.82.301-.219.666-.328 1.094-.328.219 0 .424.036.615.11.2.063.374.163.52.3.155.127.278.283.369.465.091.182.137.392.137.629 0 .2-.082.341-.246.424a1.123 1.123 0 0 1-.534.122h-.136l-.588-.587c-.018 0-.032-.005-.041-.014h-.055c-.009-.01-.023-.014-.04-.014-.32 0-.57.091-.753.274a1.689 1.689 0 0 0-.396.656c-.091.255-.15.529-.178.82-.018.283-.027.543-.027.78 0 .182.018.369.054.56.037.182.078.365.123.547.046.173.087.355.123.547.037.182.055.374.055.574 0 .383-.205.574-.615.574-.228 0-.465-.118-.711-.355a5.912 5.912 0 0 1-.738-.93 12.87 12.87 0 0 1-.684-1.23 17.73 17.73 0 0 1-.574-1.326 14.804 14.804 0 0 1-.397-1.163c-.09-.346-.136-.601-.136-.765zm7.56.615v-.26c.01-.127.014-.26.014-.396.009-.137.013-.27.013-.397.01-.127.014-.218.014-.273.1-.146.228-.264.383-.356a2.9 2.9 0 0 1 .492-.218c.028.492.105 1.016.233 1.572.127.556.264 1.117.41 1.682.146.556.273 1.107.383 1.654.118.547.177 1.057.177 1.531 0 .41-.21.615-.629.615a.802.802 0 0 1-.642-.314 2.512 2.512 0 0 1-.424-.793 8.215 8.215 0 0 1-.246-1.08c-.064-.401-.11-.793-.137-1.176a55.06 55.06 0 0 1-.04-1.053v-.738zm.192-5.127c.173.073.319.191.437.356.119.164.169.314.15.45-.009.128-.109.22-.3.274-.192.046-.51-.009-.957-.164 0-.246.045-.46.136-.643.1-.182.278-.273.534-.273zm2.46 6.453c0-.492.06-.984.178-1.476.119-.493.306-.935.56-1.327a3.173 3.173 0 0 1 1.013-.957c.419-.246.925-.369 1.517-.369.337 0 .633.064.889.192.255.118.47.278.642.478.173.2.301.438.383.711.091.264.137.542.137.834 0 .465-.11.916-.328 1.354a3.82 3.82 0 0 1-.862 1.162 3.697 3.697 0 0 1-1.23.752c-.465.164-.939.2-1.422.11.01.263.096.478.26.642.173.155.378.273.615.355.237.082.483.137.738.164.256.018.483.028.684.028a3 3 0 0 0 .588-.055 11.8 11.8 0 0 0 .547-.123 11.8 11.8 0 0 1 .547-.123c.191-.037.391-.055.601-.055.082 0 .164.005.246.014.082.009.16.032.233.068a.355.355 0 0 1 .177.15.413.413 0 0 1 .069.247.574.574 0 0 1-.192.437c-.127.11-.291.205-.492.287a3.127 3.127 0 0 1-.642.192c-.237.036-.47.068-.698.095a7.401 7.401 0 0 1-.615.028c-.182.009-.319.013-.41.013a4.277 4.277 0 0 1-1.572-.273 3.444 3.444 0 0 1-1.176-.78 3.512 3.512 0 0 1-.738-1.203 4.78 4.78 0 0 1-.246-1.572zm1.45-.889c0 .32.04.552.123.698.09.146.305.219.642.219.237 0 .47-.041.698-.123.228-.092.433-.215.615-.37.191-.155.342-.337.451-.546.11-.21.164-.438.164-.684 0-.137-.014-.278-.04-.424a.978.978 0 0 0-.138-.396.828.828 0 0 0-.287-.301.712.712 0 0 0-.437-.123c-.274 0-.524.064-.752.191a1.764 1.764 0 0 0-.56.479c-.156.191-.274.41-.356.656a2.2 2.2 0 0 0-.123.724zm6.18.083c0-.237.059-.406.177-.506.119-.11.31-.164.574-.164h.137l.096.505a3.8 3.8 0 0 0 .424 1.149c.1.164.223.296.369.396.009-.319.086-.624.232-.916.155-.3.342-.565.56-.792.229-.237.475-.433.739-.588.273-.165.542-.274.807-.329h.3c.438 0 .812.1 1.121.301.31.192.566.447.766.766.21.31.37.665.479 1.066.109.401.191.811.246 1.23.064.41.1.812.11 1.204.017.383.027.71.027.984h-.999a25.336 25.336 0 0 0-.205-1.572c-.027-.2-.064-.41-.109-.629a8.04 8.04 0 0 0-.328-1.176 1.958 1.958 0 0 0-.219-.437l-.15-.15a3.41 3.41 0 0 0-.356-.356.367.367 0 0 0-.096-.069.719.719 0 0 0-.71.165c-.2.173-.379.41-.534.71-.155.301-.282.643-.382 1.026a20.14 20.14 0 0 0-.233 1.107c-.064.347-.11.652-.137.916-.027.256-.045.41-.054.465-.228.164-.442.214-.643.15-.2-.072-.392-.218-.574-.437a3.819 3.819 0 0 1-.479-.82 13.766 13.766 0 0 1-.382-1.04 26.042 26.042 0 0 1-.329-1.12 74.36 74.36 0 0 1-.246-1.04zm7.642.492a3.3 3.3 0 0 1 .246-1.203c.173-.42.401-.798.684-1.135.282-.347.606-.634.97-.862a2.225 2.225 0 0 1 1.176-.341 1.905 1.905 0 0 1 1.19.424c.173.136.31.3.41.492.11.191.164.405.164.642-.164 0-.315-.018-.451-.054a6.226 6.226 0 0 1-.383-.123 3.198 3.198 0 0 0-.383-.137 1.344 1.344 0 0 0-.396-.055c-.374 0-.68.096-.917.287-.227.183-.41.415-.546.698a3.356 3.356 0 0 0-.287.916c-.046.319-.069.62-.069.902v.26c.01.127.014.264.014.41.009.137.013.269.013.396.01.128.019.214.028.26.1.219.196.387.287.506.1.119.205.21.314.273.11.055.228.092.356.11.127.009.278.014.451.014.237 0 .442-.037.615-.11.183-.073.351-.16.506-.26.155-.1.301-.21.438-.328a3.67 3.67 0 0 1 .424-.342c.154-.109.319-.196.492-.26.182-.072.387-.109.615-.109 0 .447-.082.843-.246 1.19a2.466 2.466 0 0 1-.67.888 3.05 3.05 0 0 1-1.012.575A3.957 3.957 0 0 1 87.61 20c-.428 0-.815-.146-1.162-.438a4.215 4.215 0 0 1-.875-1.066 6.018 6.018 0 0 1-.547-1.353 4.913 4.913 0 0 1-.191-1.258zm6.727.314c0-.492.059-.984.177-1.476.119-.493.306-.935.56-1.327a3.175 3.175 0 0 1 1.013-.957c.419-.246.925-.369 1.517-.369.337 0 .634.064.889.192.255.118.47.278.642.478.174.2.301.438.383.711.091.264.137.542.137.834 0 .465-.11.916-.328 1.354-.21.437-.497.825-.862 1.162a3.698 3.698 0 0 1-1.23.752c-.465.164-.939.2-1.422.11.01.263.096.478.26.642.173.155.378.273.615.355.237.082.483.137.738.164.256.018.483.028.684.028.21 0 .406-.019.588-.055a11.8 11.8 0 0 0 .547-.123c.182-.046.364-.087.547-.123.191-.037.392-.055.601-.055.082 0 .164.005.246.014.082.009.16.032.233.068a.354.354 0 0 1 .177.15.413.413 0 0 1 .069.247.574.574 0 0 1-.192.437c-.127.11-.291.205-.492.287a3.127 3.127 0 0 1-.642.192c-.237.036-.47.068-.698.095a7.405 7.405 0 0 1-.615.028c-.182.009-.319.013-.41.013a4.277 4.277 0 0 1-1.572-.273 3.445 3.445 0 0 1-1.176-.78 3.512 3.512 0 0 1-.738-1.203 4.783 4.783 0 0 1-.246-1.572zm1.449-.889c0 .32.04.552.123.698.091.146.305.219.642.219.237 0 .47-.041.698-.123a2.21 2.21 0 0 0 .615-.37c.191-.155.342-.337.451-.546.11-.21.164-.438.164-.684 0-.137-.014-.278-.04-.424a.978.978 0 0 0-.138-.396.828.828 0 0 0-.287-.301.712.712 0 0 0-.437-.123c-.274 0-.524.064-.752.191a1.764 1.764 0 0 0-.56.479c-.156.191-.274.41-.356.656a2.202 2.202 0 0 0-.123.724z"/><path id="n" d="M27.263 15.31c0-.31.04-.647.123-1.011.09-.365.214-.73.369-1.094.155-.374.342-.734.56-1.08.22-.355.465-.665.739-.93a3.29 3.29 0 0 1 .888-.642 2.183 2.183 0 0 1 1.012-.246c.292 0 .565.04.82.123.256.073.474.187.657.341.182.155.323.351.424.588.109.228.164.502.164.82-.201 0-.365-.05-.493-.15a4.215 4.215 0 0 1-.341-.355 2.025 2.025 0 0 0-.342-.342.696.696 0 0 0-.465-.15c-.283 0-.556.073-.82.218a3.067 3.067 0 0 0-.725.588 4.705 4.705 0 0 0-.588.834c-.164.31-.31.625-.437.944a7.54 7.54 0 0 0-.288.916c-.063.3-.095.56-.095.779 0 .474.068.92.205 1.34.146.41.35.77.615 1.08.264.3.593.538.985.71.391.174.838.26 1.34.26.318 0 .62-.045.902-.136.291-.1.57-.205.834-.315.273-.118.542-.227.806-.328.265-.1.529-.15.793-.15.037 0 .087.004.15.014.074 0 .137.009.192.027.064.018.119.05.164.096.046.036.069.095.069.177 0 .328-.128.606-.383.834a3.016 3.016 0 0 1-.889.56 5.416 5.416 0 0 1-1.08.302 5.673 5.673 0 0 1-.916.095c-.693 0-1.34-.109-1.942-.328a4.823 4.823 0 0 1-1.572-.957 4.413 4.413 0 0 1-1.053-1.476c-.255-.584-.382-1.235-.382-1.955zm8.79-1.052c0-.082.005-.164.014-.246a.79.79 0 0 1 .055-.233.415.415 0 0 1 .123-.177.439.439 0 0 1 .26-.069c.091 0 .191.073.3.219.12.137.238.314.356.533.119.21.233.442.342.697.118.256.219.493.3.711.092.21.165.392.22.547.054.155.086.237.095.246.119-.319.25-.665.397-1.039.145-.373.323-.72.533-1.039.219-.328.474-.601.765-.82.301-.219.666-.328 1.094-.328.219 0 .424.036.616.11.2.063.373.163.519.3.155.127.278.283.37.465.09.182.136.392.136.629 0 .2-.082.341-.246.424a1.123 1.123 0 0 1-.533.122h-.137l-.588-.587c-.018 0-.032-.005-.041-.014h-.055c-.009-.01-.023-.014-.04-.014-.32 0-.57.091-.753.274a1.689 1.689 0 0 0-.396.656c-.091.255-.15.529-.178.82-.018.283-.027.543-.027.78 0 .182.018.369.054.56.037.182.078.365.123.547.046.173.087.355.123.547.037.182.055.374.055.574 0 .383-.205.574-.615.574-.228 0-.465-.118-.711-.355a5.912 5.912 0 0 1-.738-.93 12.87 12.87 0 0 1-.684-1.23 17.73 17.73 0 0 1-.574-1.326 14.804 14.804 0 0 1-.397-1.163c-.09-.346-.136-.601-.136-.765zm6.755-1.326v-.247a.977.977 0 0 1 .054-.245.402.402 0 0 1 .137-.178.466.466 0 0 1 .273-.069h.083c.027.01.05.014.068.014.173.237.323.542.451.916.128.365.25.757.37 1.176.118.41.245.83.382 1.258.137.419.314.797.533 1.134.219.338.488.607.807.807.319.2.715.287 1.19.26.209 0 .346-.114.41-.342a3.32 3.32 0 0 0 .095-.875c.01-.355 0-.747-.027-1.176a13.555 13.555 0 0 1 0-1.217c.027-.391.096-.733.205-1.025a.984.984 0 0 1 .601-.588c.119.237.215.61.288 1.121.082.502.14 1.085.177 1.75.037.656.055 1.372.055 2.147 0 .765-.018 1.531-.055 2.297a39.709 39.709 0 0 1-.164 2.187 28.044 28.044 0 0 1-.246 1.846c-.091.529-.2.943-.328 1.244-.119.31-.246.442-.383.396a1.869 1.869 0 0 1-.451-.71 4.896 4.896 0 0 1-.219-.971 9.104 9.104 0 0 1-.04-1.135c.008-.392.022-.788.04-1.19l.082-1.175c.037-.383.055-.734.055-1.053a2.343 2.343 0 0 1-1.012-.15 3.67 3.67 0 0 1-.998-.588 6.505 6.505 0 0 1-.943-.985 7.202 7.202 0 0 1-.78-1.298 8.049 8.049 0 0 1-.711-3.336zm7.547 1.941v-.26c.009-.127.013-.26.013-.396.01-.137.014-.27.014-.397.009-.127.014-.218.014-.273.1-.146.227-.264.382-.356.164-.09.328-.164.492-.218.028.492.105 1.016.233 1.572.127.556.264 1.117.41 1.682.146.556.274 1.107.383 1.654.118.547.178 1.057.178 1.531 0 .41-.21.615-.63.615a.802.802 0 0 1-.642-.314 2.514 2.514 0 0 1-.424-.793 8.231 8.231 0 0 1-.246-1.08c-.064-.401-.11-.793-.136-1.176a55.893 55.893 0 0 1-.041-1.053v-.738zm.19-5.127c.174.073.32.191.438.356.119.164.169.314.15.45-.008.128-.109.22-.3.274-.191.046-.51-.009-.957-.164 0-.246.046-.46.137-.643.1-.182.278-.273.533-.273zm2.462 5.647c0-.237.06-.406.178-.506.118-.11.31-.164.574-.164h.136l.096.505a3.812 3.812 0 0 0 .424 1.149c.1.164.223.296.37.396.008-.319.086-.624.232-.916.154-.3.341-.565.56-.792.228-.237.474-.433.738-.588.274-.165.543-.274.807-.329h.3c.438 0 .812.1 1.122.301.31.192.565.447.766.766.21.31.369.665.478 1.066.11.401.192.811.246 1.23.064.41.1.812.11 1.204.018.383.027.71.027.984h-.998a25.413 25.413 0 0 0-.205-1.572 9.17 9.17 0 0 0-.11-.629 8.04 8.04 0 0 0-.328-1.176 1.953 1.953 0 0 0-.218-.437l-.15-.15a3.41 3.41 0 0 0-.356-.356.367.367 0 0 0-.096-.069.72.72 0 0 0-.711.165c-.2.173-.378.41-.533.71a5.01 5.01 0 0 0-.383 1.026c-.091.383-.169.752-.232 1.107-.064.347-.11.652-.137.916-.027.256-.046.41-.055.465-.228.164-.442.214-.642.15-.2-.072-.392-.218-.575-.437a3.815 3.815 0 0 1-.478-.82 13.68 13.68 0 0 1-.383-1.04 26.044 26.044 0 0 1-.328-1.12c-.091-.374-.173-.72-.246-1.04zm11.443 11.88c.51 0 .966-.095 1.367-.287a2.812 2.812 0 0 0 1.012-.765c.283-.32.497-.688.643-1.108.155-.41.232-.838.232-1.285 0-.228-.014-.529-.04-.902-.02-.374-.051-.78-.097-1.217a14.482 14.482 0 0 0-.205-1.34 10.188 10.188 0 0 0-.314-1.285 4.435 4.435 0 0 0-.479-1.066c-.182-.31-.396-.53-.642-.657-.237.183-.47.351-.698.506a4.39 4.39 0 0 1-.71.37c-.247.1-.502.182-.766.245a4.178 4.178 0 0 1-.848.082 4.09 4.09 0 0 1-1.011-.109 1.656 1.656 0 0 1-.698-.37 1.598 1.598 0 0 1-.41-.683c-.091-.282-.137-.638-.137-1.066 0-.3.073-.592.22-.875.145-.292.336-.56.573-.807.246-.255.52-.487.82-.697.31-.21.625-.392.944-.547.328-.155.647-.273.957-.355.32-.082.602-.123.848-.123.237 0 .433.009.588.027a.88.88 0 0 1 .396.11c.11.054.2.145.274.273.082.118.16.282.232.492.21.71.451 1.476.725 2.297.273.82.533 1.663.779 2.53.246.865.451 1.735.615 2.61.173.885.26 1.737.26 2.557 0 .73-.105 1.345-.315 1.846-.2.51-.469.925-.806 1.244a3.382 3.382 0 0 1-1.135.752c-.42.173-.843.282-1.271.328a6.385 6.385 0 0 1-1.245.041 5.184 5.184 0 0 1-1.039-.164c-.291-.073-.515-.16-.67-.26-.145-.1-.182-.187-.109-.26.082-.063.292-.109.629-.136.337-.028.848-.01 1.531.054zm.192-13.193c-.675.146-1.222.351-1.641.615-.41.255-.72.534-.93.834-.2.292-.31.588-.328.889-.018.292.037.542.164.752.128.21.31.37.547.478.246.1.524.105.834.014.31-.1.638-.31.984-.629.356-.319.711-.793 1.067-1.422v-.506a1.686 1.686 0 0 0-.041-.492.781.781 0 0 0-.205-.383c-.1-.1-.25-.15-.451-.15zm11.074.793v-.26c.009-.127.014-.26.014-.396.009-.137.013-.27.013-.397.01-.127.014-.218.014-.273.1-.146.228-.264.383-.356.164-.09.328-.164.492-.218.027.492.105 1.016.232 1.572.128.556.265 1.117.41 1.682.146.556.274 1.107.383 1.654.119.547.178 1.057.178 1.531 0 .41-.21.615-.629.615a.802.802 0 0 1-.642-.314 2.512 2.512 0 0 1-.424-.793 8.232 8.232 0 0 1-.246-1.08c-.064-.401-.11-.793-.137-1.176a55.893 55.893 0 0 1-.041-1.053v-.738zm.191-5.127c.173.073.32.191.438.356.118.164.168.314.15.45-.009.128-.11.22-.3.274-.192.046-.511-.009-.958-.164 0-.246.046-.46.137-.643.1-.182.278-.273.533-.273zm2.461 5.647c0-.237.06-.406.178-.506.118-.11.31-.164.574-.164h.137l.096.505a3.812 3.812 0 0 0 .423 1.149c.1.164.224.296.37.396.009-.319.086-.624.232-.916.155-.3.342-.565.56-.792.228-.237.474-.433.739-.588.273-.165.542-.274.806-.329h.301c.438 0 .811.1 1.121.301.31.192.565.447.766.766.21.31.369.665.478 1.066.11.401.192.811.246 1.23.064.41.1.812.11 1.204.018.383.027.71.027.984h-.998a25.413 25.413 0 0 0-.205-1.572 9.11 9.11 0 0 0-.11-.629 7.995 7.995 0 0 0-.327-1.176 1.958 1.958 0 0 0-.22-.437l-.15-.15a3.412 3.412 0 0 0-.355-.356.367.367 0 0 0-.096-.069.719.719 0 0 0-.71.165c-.201.173-.379.41-.534.71a5.01 5.01 0 0 0-.383 1.026c-.09.383-.168.752-.232 1.107-.064.347-.11.652-.137.916-.027.256-.045.41-.055.465-.227.164-.441.214-.642.15-.2-.072-.392-.218-.574-.437a3.815 3.815 0 0 1-.479-.82 13.766 13.766 0 0 1-.383-1.04 25.9 25.9 0 0 1-.328-1.12c-.09-.374-.173-.72-.246-1.04zm-57.012 20.02c-.282-.821-.551-1.587-.806-2.298a39.161 39.161 0 0 1-.656-2.105 20.52 20.52 0 0 1-.438-2.106c-.11-.71-.164-1.472-.164-2.283v-.342c.01-.173.014-.35.014-.533v-.52c.009-.173.013-.291.013-.355.082-.182.224-.35.424-.506.21-.155.42-.232.63-.232 0 .674.008 1.394.026 2.16.019.756.073 1.513.165 2.27.1.756.255 1.499.464 2.228.22.72.524 1.38.916 1.982.01-.218.019-.46.028-.724.009-.264.032-.529.068-.793.046-.265.114-.52.205-.766.091-.246.223-.465.397-.656.182-.191.414-.342.697-.451.292-.11.656-.16 1.094-.15.392 0 .742.072 1.052.218.32.146.584.346.793.602.22.246.383.537.492.875.119.328.178.679.178 1.052 0 .502-.123.994-.369 1.477a4.664 4.664 0 0 1-.984 1.299 5.11 5.11 0 0 1-1.354.93 3.666 3.666 0 0 1-1.531.341c-.264 0-.52-.045-.766-.136-.246-.1-.442-.26-.588-.479zm3.24-4.991c-.182.1-.373.219-.573.355-.201.137-.388.351-.561.643-.164.282-.305.67-.424 1.162-.118.492-.191 1.144-.219 1.955.019 0 .064.005.137.014.082.009.137.014.164.014.246 0 .524-.078.834-.233.32-.155.624-.346.916-.574.3-.228.56-.479.78-.752.218-.283.35-.552.396-.807.027-.155-.005-.332-.096-.533a2.46 2.46 0 0 0-.369-.574 2.221 2.221 0 0 0-.492-.479c-.173-.127-.337-.191-.492-.191zm3.186 1.777c0-.492.06-.984.178-1.476s.305-.935.56-1.326a3.174 3.174 0 0 1 1.012-.957c.42-.247.925-.37 1.518-.37.337 0 .633.064.889.192.255.118.469.278.642.478.173.2.3.438.383.711.091.264.137.543.137.834 0 .465-.11.916-.328 1.354-.21.437-.497.825-.862 1.162a3.697 3.697 0 0 1-1.23.752c-.465.164-.94.2-1.422.11.009.263.096.478.26.642.173.155.378.273.615.355.237.082.483.137.738.164.255.018.483.028.684.028.21 0 .405-.019.588-.055.182-.037.364-.078.546-.123a11.8 11.8 0 0 1 .547-.123c.192-.037.392-.055.602-.055.082 0 .164.005.246.014.082.009.16.032.232.068a.355.355 0 0 1 .178.15.413.413 0 0 1 .069.247.574.574 0 0 1-.192.437c-.127.11-.292.205-.492.287a3.127 3.127 0 0 1-.643.192c-.237.036-.47.068-.697.095a7.401 7.401 0 0 1-.615.028c-.183.009-.32.013-.41.013a4.277 4.277 0 0 1-1.573-.273 3.444 3.444 0 0 1-1.175-.78 3.512 3.512 0 0 1-.739-1.202 4.783 4.783 0 0 1-.246-1.573zm1.45-.888c0 .319.04.551.123.697.09.146.305.219.642.219.237 0 .47-.041.697-.123a2.21 2.21 0 0 0 .616-.37c.191-.155.341-.337.45-.547.11-.21.165-.437.165-.683 0-.137-.014-.278-.041-.424a.978.978 0 0 0-.137-.396.828.828 0 0 0-.287-.301.712.712 0 0 0-.438-.123c-.273 0-.524.064-.752.191a1.764 1.764 0 0 0-.56.479c-.155.191-.274.41-.355.656a2.202 2.202 0 0 0-.124.725zm5.878 3.076c0-.529.133-.998.397-1.409.264-.41.592-.765.984-1.066a6.26 6.26 0 0 1 1.272-.78c.455-.218.88-.396 1.271-.532.392-.146.72-.26.985-.342.264-.091.396-.164.396-.219 0-.319-.018-.629-.055-.93-.027-.31-.059-.62-.095-.93l-.11-.915c-.027-.31-.04-.616-.04-.916v-.889c.373-.137.637-.123.792.041.164.164.192.447.082.848.037.2.087.515.15.943.064.428.133.912.206 1.45.082.537.164 1.102.246 1.695.091.592.173 1.162.246 1.709.082.537.15 1.02.205 1.449l.123.943a5.998 5.998 0 0 1 .041.697c.01.146.014.283.014.41.009.128.013.22.013.274-.346 0-.583-.014-.71-.041-.119-.027-.197-.082-.233-.164a1.184 1.184 0 0 1-.041-.356c0-.154-.046-.369-.137-.642a8.204 8.204 0 0 1-.957.656c-.3.173-.601.314-.902.424-.3.1-.606.169-.916.205-.3.046-.624.068-.97.068-.292 0-.575-.022-.848-.068a2.221 2.221 0 0 1-.711-.273c-.21-.128-.379-.301-.506-.52-.128-.219-.192-.492-.192-.82zm1.19-.287c0 .145.032.264.096.355a.859.859 0 0 0 .246.233c.1.063.205.109.314.136.118.018.232.028.342.028.319 0 .66-.06 1.025-.178a4.02 4.02 0 0 0 1.026-.52c.319-.228.578-.496.779-.806.21-.31.314-.648.314-1.012 0-.283-.05-.479-.15-.588-.1-.11-.292-.164-.574-.164-.292 0-.634.068-1.026.205a5.787 5.787 0 0 0-1.12.547 3.667 3.667 0 0 0-.903.807c-.246.3-.37.62-.37.957zm18.607 3.172a20.83 20.83 0 0 1-.642-1.327l-.711-1.668a32.4 32.4 0 0 0-.78-1.709 11.608 11.608 0 0 0-.806-1.449.881.881 0 0 0-.451-.15 4.343 4.343 0 0 0-.602-.014c-.21 0-.42-.004-.629-.014a1.4 1.4 0 0 1-.533-.15.76.76 0 0 1-.328-.383c-.073-.173-.087-.424-.041-.752h2.297c.045-.51.123-1.016.232-1.517.11-.502.255-.98.438-1.436.191-.456.419-.88.683-1.271a4.21 4.21 0 0 1 .957-1.012 4.528 4.528 0 0 1 1.285-.67 5.259 5.259 0 0 1 1.668-.246c.22 0 .438.055.657.164.218.1.414.237.587.41.174.173.31.37.41.588.11.219.165.438.165.656-.173 0-.328-.032-.465-.095a5.634 5.634 0 0 1-.397-.233 3.07 3.07 0 0 0-.41-.246.987.987 0 0 0-.492-.123 3.61 3.61 0 0 0-1.531.328c-.465.219-.875.51-1.23.875-.347.365-.62.788-.821 1.272-.2.483-.3.993-.3 1.53v.206c.008.091.013.191.013.3v.315c.009.1.014.169.014.205.337.11.715.192 1.134.246.42.055.839.091 1.258.11.428.009.839.004 1.23-.014.402-.018.757-.041 1.067-.068l.15.15a.458.458 0 0 1 .123.164c0 .027.005.046.014.055l.028.082c0 .191-.1.342-.301.451-.2.11-.456.191-.766.246-.31.046-.656.078-1.039.096-.374.018-.738.036-1.094.055-.346.009-.66.027-.943.054-.274.018-.465.06-.574.123.118.547.328 1.076.629 1.586.31.51.624 1.021.943 1.531.319.51.602 1.026.848 1.545.246.52.369 1.053.369 1.6h-.26c-.128.01-.264.005-.41-.014a1.407 1.407 0 0 1-.424-.123c-.128-.054-.2-.141-.219-.26zm4.088-4.047c0-.566.132-1.09.397-1.573.264-.492.61-.911 1.039-1.258a5.167 5.167 0 0 1 1.463-.833c.546-.201 1.098-.301 1.654-.301.31 0 .583.1.82.3.246.201.451.447.615.739.164.282.287.583.37.902.09.32.136.597.136.834 0 .51-.123 1.007-.369 1.49a4.81 4.81 0 0 1-.957 1.272c-.392.364-.834.66-1.326.889a3.488 3.488 0 0 1-1.477.341c-.437 0-.806-.073-1.107-.218a2.054 2.054 0 0 1-.725-.602 2.745 2.745 0 0 1-.41-.889 4.73 4.73 0 0 1-.123-1.093zm1.162.136c0 .237.019.447.055.63.045.172.118.323.219.45.109.128.25.228.424.301.173.064.387.096.642.096.337 0 .675-.091 1.012-.273.337-.192.638-.429.902-.712.274-.291.492-.61.656-.956.164-.347.247-.684.247-1.012a3.09 3.09 0 0 0-.041-.479 1.95 1.95 0 0 0-.137-.478 1.003 1.003 0 0 0-.274-.37.674.674 0 0 0-.45-.15c-.165 0-.36.055-.589.164a5.49 5.49 0 0 0-.697.424c-.237.173-.474.37-.711.588-.228.219-.438.438-.629.656a4.265 4.265 0 0 0-.465.63c-.11.2-.164.364-.164.491zm5.865-3.103c0-.082.005-.164.014-.246a.793.793 0 0 1 .055-.233.416.416 0 0 1 .123-.177.439.439 0 0 1 .26-.069c.09 0 .191.073.3.219.119.137.237.314.356.533.118.21.232.442.342.697.118.256.218.493.3.711.092.21.164.392.22.547.054.155.086.237.095.246.118-.319.25-.665.396-1.039.146-.373.324-.72.534-1.039.218-.328.474-.601.765-.82.301-.219.666-.328 1.094-.328.219 0 .424.036.615.11.2.063.374.163.52.3.155.127.278.282.369.465.091.182.137.392.137.629 0 .2-.082.341-.246.424a1.123 1.123 0 0 1-.534.123h-.136l-.588-.588c-.019 0-.032-.005-.041-.014h-.055c-.01-.01-.023-.014-.041-.014-.319 0-.57.091-.752.274a1.69 1.69 0 0 0-.396.656c-.092.255-.15.529-.178.82-.018.283-.028.543-.028.78 0 .182.019.369.055.56.037.182.078.365.123.547.046.173.087.355.123.547.037.182.055.374.055.574 0 .383-.205.574-.615.574-.228 0-.465-.118-.711-.355a5.912 5.912 0 0 1-.739-.93 12.848 12.848 0 0 1-.683-1.23c-.219-.456-.41-.898-.574-1.327a14.722 14.722 0 0 1-.397-1.162c-.091-.346-.137-.601-.137-.765zm13.29 1.135c0-.237.059-.406.177-.506.119-.11.31-.164.575-.164h.136l.096.506a3.8 3.8 0 0 0 .424 1.148c.1.164.223.296.369.396.009-.319.087-.624.232-.916.155-.3.342-.565.56-.793.229-.236.475-.433.74-.587.273-.165.541-.274.806-.329h.3c.438 0 .812.1 1.122.301.31.192.565.447.765.766.21.31.37.665.479 1.066.11.401.191.811.246 1.23.064.41.1.812.11 1.204.017.383.027.71.027.984h-.998a25.338 25.338 0 0 0-.206-1.572 9.17 9.17 0 0 0-.109-.629 8.04 8.04 0 0 0-.328-1.176 1.958 1.958 0 0 0-.219-.437l-.15-.15a3.41 3.41 0 0 0-.356-.356.365.365 0 0 0-.095-.069.719.719 0 0 0-.711.165c-.2.173-.379.41-.534.71a5.01 5.01 0 0 0-.382 1.026 20.14 20.14 0 0 0-.233 1.107c-.064.347-.11.652-.136.916-.028.256-.046.41-.055.465-.228.164-.442.214-.643.15-.2-.072-.392-.218-.574-.437a3.815 3.815 0 0 1-.478-.82 13.722 13.722 0 0 1-.383-1.04 26.186 26.186 0 0 1-.328-1.12 74.36 74.36 0 0 1-.247-1.04zm7.916 1.832c0-.566.132-1.09.396-1.573.264-.492.61-.911 1.04-1.258a5.167 5.167 0 0 1 1.462-.833c.547-.201 1.098-.301 1.654-.301.31 0 .584.1.82.3.247.201.452.447.616.739.164.282.287.583.369.902.091.32.137.597.137.834 0 .51-.123 1.007-.37 1.49a4.81 4.81 0 0 1-.957 1.272c-.391.364-.834.66-1.326.889a3.488 3.488 0 0 1-1.476.341c-.438 0-.807-.073-1.108-.218a2.054 2.054 0 0 1-.724-.602 2.747 2.747 0 0 1-.41-.889 4.735 4.735 0 0 1-.123-1.093zm1.162.136c0 .237.018.447.054.63.046.172.119.323.22.45.108.128.25.228.423.301.173.064.387.096.642.096.338 0 .675-.091 1.012-.273.338-.192.638-.429.903-.712a3.73 3.73 0 0 0 .656-.956c.164-.347.246-.684.246-1.012a3.09 3.09 0 0 0-.041-.479 1.95 1.95 0 0 0-.137-.478 1.004 1.004 0 0 0-.273-.37.674.674 0 0 0-.451-.15c-.165 0-.36.055-.588.164-.22.11-.451.25-.698.424a8.06 8.06 0 0 0-.71.588 10.45 10.45 0 0 0-.63.656 4.259 4.259 0 0 0-.464.63c-.11.2-.164.364-.164.491zM6.502 50.236c-.346.237-.647.452-.902.643a6.022 6.022 0 0 1-.725.465 3.086 3.086 0 0 1-.766.287 4.277 4.277 0 0 1-.984.096c-.848 0-1.477-.224-1.887-.67-.41-.456-.615-1.13-.615-2.024 0-.346.046-.706.137-1.08.09-.374.223-.743.396-1.107.183-.374.397-.725.643-1.053a4.84 4.84 0 0 1 .834-.889c.31-.255.638-.455.984-.601.356-.155.73-.233 1.121-.233.657.064 1.172.228 1.545.492.374.256.656.588.848.998.191.402.323.853.396 1.354.073.492.128 1.003.164 1.531.046.529.1 1.058.164 1.586.064.529.196 1.017.397 1.463-.119.3-.232.51-.342.629-.1.128-.214.15-.342.068-.127-.082-.278-.282-.45-.601-.165-.32-.37-.77-.616-1.354zm-4.717-1.175c0 .52.096.902.287 1.148.2.237.552.355 1.053.355.374 0 .73-.063 1.066-.191.347-.137.648-.319.903-.547.255-.237.46-.52.615-.848a2.53 2.53 0 0 0 .232-1.093c0-.164.005-.392.014-.684.01-.3-.009-.597-.055-.889a2.038 2.038 0 0 0-.26-.752.623.623 0 0 0-.574-.328c-.474 0-.911.123-1.312.37a3.688 3.688 0 0 0-1.04.916c-.29.373-.519.788-.683 1.244-.164.446-.246.88-.246 1.298zm7.328-2.106c0-.884.205-1.54.616-1.969.41-.428 1.039-.642 1.886-.642.347 0 .702.032 1.067.096a3.4 3.4 0 0 1 1.025.341c.31.155.56.374.752.657.2.282.3.647.3 1.093 0 .492-.109.957-.327 1.395-.21.428-.479.834-.807 1.217a8.96 8.96 0 0 1-1.066 1.052 78.3 78.3 0 0 0-1.08.916.958.958 0 0 0-.055.233c-.01.11-.014.182-.014.218 0 .301.087.602.26.903.182.31.378.62.588.93.21.319.4.647.574.984.173.337.26.688.26 1.053 0 .218-.046.346-.137.383-.091.045-.283.068-.574.068-.182-.073-.365-.246-.547-.52a7.879 7.879 0 0 1-.533-.984 18.445 18.445 0 0 1-.52-1.326 56.536 56.536 0 0 1-.478-1.477c-.146-.51-.287-1.011-.424-1.504a98.322 98.322 0 0 1-.342-1.38c-.1-.42-.191-.78-.273-1.08-.073-.31-.123-.53-.15-.657zm1.162.123c0 .137.01.337.028.602.018.255.054.51.11.765.063.255.154.479.272.67a.557.557 0 0 0 .493.274c.282 0 .565-.096.847-.287.292-.192.547-.433.766-.725.228-.292.41-.602.547-.93.146-.337.219-.642.219-.916 0-.228-.055-.405-.164-.533a1.057 1.057 0 0 0-.424-.314 1.5 1.5 0 0 0-.534-.15 3.878 3.878 0 0 0-.546-.042c-.52 0-.92.142-1.204.424-.273.274-.41.66-.41 1.162zm5.291-.123c0-.884.205-1.54.616-1.969.41-.428 1.039-.642 1.886-.642.347 0 .702.032 1.067.096a3.4 3.4 0 0 1 1.025.341c.31.155.56.374.752.657.2.282.3.647.3 1.093 0 .492-.108.957-.327 1.395-.21.428-.479.834-.807 1.217a8.96 8.96 0 0 1-1.066 1.052 78.3 78.3 0 0 0-1.08.916.954.954 0 0 0-.055.233 3.24 3.24 0 0 0-.014.218c0 .301.087.602.26.903.182.31.378.62.588.93.21.319.401.647.574.984.173.337.26.688.26 1.053 0 .218-.046.346-.137.383-.09.045-.282.068-.574.068-.182-.073-.365-.246-.547-.52a7.879 7.879 0 0 1-.533-.984 18.447 18.447 0 0 1-.52-1.326 55.789 55.789 0 0 1-.478-1.477c-.146-.51-.287-1.011-.424-1.504a99.024 99.024 0 0 1-.342-1.38c-.1-.42-.191-.78-.273-1.08a39.87 39.87 0 0 1-.15-.657zm1.162.123c0 .137.01.337.028.602.018.255.055.51.11.765.063.255.154.479.273.67a.557.557 0 0 0 .492.274c.282 0 .565-.096.848-.287.291-.192.546-.433.765-.725.228-.292.41-.602.547-.93.146-.337.219-.642.219-.916 0-.228-.055-.405-.164-.533a1.056 1.056 0 0 0-.424-.314 1.5 1.5 0 0 0-.533-.15 3.878 3.878 0 0 0-.547-.042c-.52 0-.92.142-1.203.424-.274.274-.41.66-.41 1.162zm11.17 3.158c-.346.237-.647.452-.902.643a6.021 6.021 0 0 1-.724.465 3.086 3.086 0 0 1-.766.287 4.278 4.278 0 0 1-.985.096c-.847 0-1.476-.224-1.886-.67-.41-.456-.616-1.13-.616-2.024 0-.346.046-.706.137-1.08.091-.374.224-.743.397-1.107.182-.374.396-.725.642-1.053a4.84 4.84 0 0 1 .834-.889 3.97 3.97 0 0 1 .985-.601c.355-.155.729-.233 1.12-.233.657.064 1.172.228 1.546.492.373.256.656.588.847.998.192.402.324.853.397 1.354.073.492.127 1.003.164 1.531.046.529.1 1.058.164 1.586.064.529.196 1.017.396 1.463-.118.3-.232.51-.341.629-.1.128-.215.15-.342.068-.128-.082-.278-.282-.451-.601-.164-.32-.37-.77-.616-1.354zm-4.716-1.175c0 .52.095.902.287 1.148.2.237.551.355 1.052.355.374 0 .73-.063 1.067-.191.346-.137.647-.319.902-.547.255-.237.46-.52.616-.848a2.53 2.53 0 0 0 .232-1.093c0-.164.004-.392.014-.684.009-.3-.01-.597-.055-.889a2.038 2.038 0 0 0-.26-.752.623.623 0 0 0-.574-.328c-.474 0-.912.123-1.313.37a3.688 3.688 0 0 0-1.039.916 4.47 4.47 0 0 0-.683 1.244c-.164.446-.246.88-.246 1.298zm7.328-2.803c0-.082.004-.164.013-.246a.796.796 0 0 1 .055-.233.416.416 0 0 1 .123-.177.439.439 0 0 1 .26-.069c.091 0 .191.073.3.219.12.137.238.314.356.533.119.21.233.442.342.697.119.256.219.493.3.711.092.21.165.392.22.547.054.155.086.237.095.246.119-.319.25-.665.397-1.039.146-.373.323-.72.533-1.039.219-.328.474-.601.766-.82.3-.219.665-.328 1.093-.328.219 0 .424.036.615.11.201.063.374.163.52.3.155.127.278.282.37.465.09.182.136.392.136.629 0 .2-.082.341-.246.423a1.123 1.123 0 0 1-.533.123h-.137l-.588-.587c-.018 0-.032-.005-.041-.014h-.055c-.009-.01-.023-.014-.04-.014-.32 0-.57.091-.753.274a1.69 1.69 0 0 0-.396.656c-.091.255-.15.529-.178.82-.018.283-.027.543-.027.78 0 .182.018.369.055.56.036.182.077.365.123.547.045.173.086.355.122.547.037.182.055.374.055.574 0 .383-.205.574-.615.574-.228 0-.465-.118-.71-.355a5.912 5.912 0 0 1-.74-.93 12.848 12.848 0 0 1-.683-1.23c-.219-.456-.41-.898-.574-1.327a14.722 14.722 0 0 1-.396-1.162c-.092-.346-.137-.601-.137-.765zm6.986 1.941c0-.492.06-.984.178-1.476s.305-.935.56-1.326a3.173 3.173 0 0 1 1.012-.957c.42-.247.925-.37 1.518-.37.337 0 .633.064.888.192.256.118.47.278.643.478.173.2.3.438.383.711.09.264.137.542.137.834 0 .465-.11.916-.329 1.354a3.82 3.82 0 0 1-.861 1.162 3.697 3.697 0 0 1-1.23.752c-.465.164-.94.2-1.422.11.009.263.095.478.26.642.173.155.378.273.615.355.237.082.483.137.738.164.255.018.483.028.684.028a3 3 0 0 0 .587-.055 11.8 11.8 0 0 0 .547-.123 11.8 11.8 0 0 1 .547-.123c.192-.037.392-.055.602-.055.082 0 .164.005.246.014.082.009.16.032.232.068a.354.354 0 0 1 .178.15.413.413 0 0 1 .068.247.574.574 0 0 1-.191.437c-.128.11-.292.205-.492.287a3.129 3.129 0 0 1-.643.192c-.237.036-.47.068-.697.095a7.401 7.401 0 0 1-.615.028c-.183.009-.32.013-.41.013a4.278 4.278 0 0 1-1.573-.273 3.444 3.444 0 0 1-1.175-.78 3.512 3.512 0 0 1-.739-1.202 4.78 4.78 0 0 1-.246-1.573zm1.45-.889c0 .32.04.552.122.698.092.146.306.219.643.219.237 0 .47-.041.697-.123a2.21 2.21 0 0 0 .615-.37c.192-.155.342-.337.452-.547.109-.21.164-.437.164-.683 0-.137-.014-.278-.041-.424a.978.978 0 0 0-.137-.396.828.828 0 0 0-.287-.301.712.712 0 0 0-.438-.123c-.273 0-.524.064-.752.191a1.764 1.764 0 0 0-.56.479c-.155.191-.274.41-.356.656a2.2 2.2 0 0 0-.123.724zm6.179.083c0-.237.06-.406.178-.506.118-.11.31-.164.574-.164h.137l.095.505a3.8 3.8 0 0 0 .424 1.149c.1.164.224.296.37.396.008-.319.086-.624.232-.916.155-.3.342-.565.56-.792.228-.237.474-.433.739-.588.273-.164.542-.274.806-.329h.301c.438 0 .811.1 1.121.301.31.192.565.447.766.766.21.31.369.665.478 1.066.11.401.192.811.246 1.23.064.41.1.812.11 1.204.018.383.027.71.027.984h-.998a25.336 25.336 0 0 0-.205-1.572c-.027-.2-.064-.41-.11-.629a8.04 8.04 0 0 0-.328-1.176 1.958 1.958 0 0 0-.218-.437l-.15-.15a3.41 3.41 0 0 0-.356-.356.367.367 0 0 0-.096-.069.719.719 0 0 0-.71.165c-.201.173-.38.41-.534.71-.155.301-.283.643-.383 1.026a20.14 20.14 0 0 0-.232 1.107c-.064.347-.11.652-.137.916-.027.256-.046.41-.055.465-.227.164-.442.214-.642.15-.2-.072-.392-.218-.575-.437a3.823 3.823 0 0 1-.478-.82 13.766 13.766 0 0 1-.383-1.04 26.042 26.042 0 0 1-.328-1.12c-.091-.374-.173-.72-.246-1.04zm7.615-2.284c0-.027.005-.05.014-.068 0-.018.005-.041.014-.068a2.3 2.3 0 0 1 .164-.178c.073-.073.118-.11.136-.11h2.748c0-.1-.013-.26-.04-.478a33.84 33.84 0 0 1-.083-.725 8.102 8.102 0 0 1-.013-.82c.009-.292.045-.551.11-.78a1.36 1.36 0 0 1 .327-.573c.155-.155.37-.233.643-.233 0 .92.064 1.659.191 2.215.128.556.296.984.506 1.285.219.301.465.497.738.588.274.091.552.132.834.123a4.33 4.33 0 0 0 .848-.137c.273-.072.515-.123.725-.15.218-.027.392-.005.52.068.127.064.19.224.19.479 0 .191-.045.328-.136.41-.082.082-.246.146-.492.191-.073.01-.196.028-.37.055-.164.018-.35.037-.56.055-.21.018-.433.04-.67.068-.237.018-.46.037-.67.055-.21.018-.401.032-.574.04h-.383c0 .046-.005.124-.014.233-.009.11-.013.183-.013.219 0 .401.063.793.191 1.176.128.373.264.747.41 1.12.155.375.297.748.424 1.122.128.374.192.761.192 1.162 0 .073-.01.15-.028.232a.443.443 0 0 1-.082.206.33.33 0 0 1-.178.123c-.073.036-.177.032-.314-.014a1.22 1.22 0 0 1-.78-.588 3.76 3.76 0 0 1-.368-1.066 9.963 9.963 0 0 1-.165-1.326 13.22 13.22 0 0 0-.136-1.3 3.737 3.737 0 0 0-.274-1.038c-.127-.292-.332-.47-.615-.534l-2.639-.601c-.036 0-.09-.037-.164-.11a1.022 1.022 0 0 1-.136-.177.153.153 0 0 1-.014-.069.19.19 0 0 1-.014-.082zm15.395 1.149c0-.082.004-.164.013-.246a.796.796 0 0 1 .055-.233.416.416 0 0 1 .123-.177.439.439 0 0 1 .26-.069c.091 0 .191.073.3.219.12.137.238.314.356.533.119.21.233.442.342.697.118.256.219.493.3.711.092.21.165.392.22.547.054.155.086.237.095.246.119-.319.25-.665.397-1.039.145-.373.323-.72.533-1.039.219-.328.474-.601.765-.82.301-.219.666-.328 1.094-.328.219 0 .424.036.615.11.201.063.374.163.52.3.155.127.278.282.37.465.09.182.136.392.136.629 0 .2-.082.341-.246.423a1.123 1.123 0 0 1-.533.123h-.137l-.588-.587c-.018 0-.032-.005-.041-.014h-.055c-.009-.01-.022-.014-.04-.014-.32 0-.57.091-.753.274a1.69 1.69 0 0 0-.396.656c-.091.255-.15.529-.178.82-.018.283-.027.543-.027.78 0 .182.018.369.054.56.037.182.078.365.124.547.045.173.086.355.123.547.036.182.054.374.054.574 0 .383-.205.574-.615.574-.228 0-.465-.118-.71-.355a5.912 5.912 0 0 1-.74-.93 12.848 12.848 0 0 1-.683-1.23c-.219-.456-.41-.898-.574-1.327a14.722 14.722 0 0 1-.397-1.162c-.09-.346-.136-.601-.136-.765zm6.986 1.941c0-.492.06-.984.178-1.476s.305-.935.56-1.326a3.173 3.173 0 0 1 1.012-.957c.42-.247.925-.37 1.518-.37.337 0 .633.064.888.192.256.118.47.278.643.478.173.2.3.438.383.711.09.264.136.542.136.834 0 .465-.109.916-.328 1.354a3.82 3.82 0 0 1-.861 1.162 3.697 3.697 0 0 1-1.23.752c-.465.164-.94.2-1.422.11.009.263.095.478.26.642.173.155.378.273.615.355.237.082.483.137.738.164.255.018.483.028.683.028a3 3 0 0 0 .588-.055 11.8 11.8 0 0 0 .547-.123 11.8 11.8 0 0 1 .547-.123c.192-.037.392-.055.602-.055.082 0 .164.005.246.014.082.009.16.032.232.068a.354.354 0 0 1 .178.15.413.413 0 0 1 .068.247.574.574 0 0 1-.191.437c-.128.11-.292.205-.492.287a3.129 3.129 0 0 1-.643.192c-.237.036-.47.068-.697.095a7.401 7.401 0 0 1-.615.028c-.183.009-.32.013-.41.013a4.278 4.278 0 0 1-1.573-.273 3.444 3.444 0 0 1-1.175-.78 3.512 3.512 0 0 1-.739-1.202 4.78 4.78 0 0 1-.246-1.573zm1.45-.889c0 .32.04.552.122.698.091.146.306.219.643.219.237 0 .47-.041.697-.123a2.21 2.21 0 0 0 .615-.37c.192-.155.342-.337.452-.547.109-.21.164-.437.164-.683 0-.137-.014-.278-.041-.424a.978.978 0 0 0-.137-.396.828.828 0 0 0-.287-.301.712.712 0 0 0-.438-.123c-.273 0-.524.064-.752.191a1.764 1.764 0 0 0-.56.479c-.155.191-.274.41-.356.656a2.2 2.2 0 0 0-.123.724zm12.058 2.926c-.346.237-.647.452-.902.643a6.03 6.03 0 0 1-.725.465 3.086 3.086 0 0 1-.766.287 4.276 4.276 0 0 1-.984.096c-.848 0-1.477-.224-1.887-.67-.41-.456-.615-1.13-.615-2.024 0-.346.046-.706.137-1.08a5.76 5.76 0 0 1 .396-1.107c.183-.374.397-.725.643-1.053a4.84 4.84 0 0 1 .834-.889c.31-.255.638-.455.984-.601.356-.155.73-.233 1.121-.233.657.064 1.172.228 1.545.492.374.256.656.588.848.998.191.402.323.853.396 1.354.073.492.128 1.003.164 1.531.046.529.1 1.058.164 1.586.064.529.196 1.017.397 1.463-.119.3-.233.51-.342.629-.1.128-.214.15-.342.068-.127-.082-.278-.282-.45-.601-.165-.32-.37-.77-.616-1.354zm-4.717-1.175c0 .52.096.902.287 1.148.2.237.552.355 1.053.355.374 0 .73-.063 1.066-.191.347-.137.648-.319.903-.547.255-.237.46-.52.615-.848.155-.328.232-.692.232-1.093 0-.164.005-.392.014-.684.01-.3-.01-.597-.055-.889a2.037 2.037 0 0 0-.26-.752.623.623 0 0 0-.574-.328c-.474 0-.911.123-1.312.37a3.688 3.688 0 0 0-1.04.916c-.29.373-.519.788-.683 1.244-.164.446-.246.88-.246 1.298zm9.953 2.324c.146-.1.32-.228.52-.383.21-.164.419-.337.629-.52a7.02 7.02 0 0 0 .588-.574c.182-.2.323-.392.423-.574.11-.191.164-.37.164-.533 0-.164-.082-.301-.246-.41-.291 0-.61.013-.957.04-.346.019-.692.028-1.039.028a7.316 7.316 0 0 1-1.011-.096 2.61 2.61 0 0 1-.862-.3 1.66 1.66 0 0 1-.615-.616c-.146-.273-.219-.62-.219-1.039 0-.492.091-.934.274-1.326.191-.401.442-.752.752-1.053.31-.31.656-.579 1.039-.806a8.963 8.963 0 0 1 1.175-.602c.237.064.456.178.657.342.2.164.373.346.52.547a.802.802 0 0 1-.384.465c-.182.109-.396.205-.642.287l-.752.26a2.857 2.857 0 0 0-.725.369c-.21.145-.387.341-.533.587-.146.237-.219.552-.219.944 0 .292.073.506.22.643.145.136.336.232.573.287a3.7 3.7 0 0 0 .807.054c.3-.018.606-.04.916-.068.319-.028.629-.041.93-.041.3-.01.57.027.806.11.237.072.424.195.56.368.147.174.22.429.22.766 0 .146-.05.333-.15.56a4.794 4.794 0 0 1-.384.739 5.83 5.83 0 0 1-.56.765c-.21.256-.433.488-.67.698-.228.2-.46.369-.697.506a1.324 1.324 0 0 1-.643.191c-.191 0-.319-.068-.383-.205a1.097 1.097 0 0 1-.082-.41zm4.116-2.16c0-.566.132-1.09.396-1.573.264-.492.61-.911 1.039-1.258a5.165 5.165 0 0 1 1.463-.834c.547-.2 1.098-.3 1.654-.3.31 0 .584.1.821.3.246.201.451.447.615.739.164.282.287.583.369.902.091.32.137.597.137.834 0 .51-.123 1.007-.37 1.49a4.805 4.805 0 0 1-.957 1.272c-.391.364-.834.66-1.326.889a3.486 3.486 0 0 1-1.476.341c-.438 0-.807-.073-1.108-.218a2.054 2.054 0 0 1-.724-.602 2.747 2.747 0 0 1-.41-.889 4.735 4.735 0 0 1-.123-1.093zm1.162.136c0 .237.018.447.054.63.046.172.119.323.219.45.11.128.25.228.424.301.173.064.387.096.642.096a2.11 2.11 0 0 0 1.012-.273c.337-.192.638-.429.902-.712.274-.291.493-.61.657-.956.164-.347.246-.684.246-1.012 0-.146-.014-.306-.041-.479a1.968 1.968 0 0 0-.137-.478 1.01 1.01 0 0 0-.273-.37.676.676 0 0 0-.452-.15c-.164 0-.36.055-.587.164-.219.11-.452.25-.698.424-.237.173-.474.37-.711.588-.227.219-.437.438-.629.656a4.266 4.266 0 0 0-.464.63c-.11.2-.164.364-.164.491zm5.865-1.968c0-.237.059-.406.178-.506.118-.11.309-.164.574-.164h.136l.096.505a3.857 3.857 0 0 0 .424 1.149c.1.164.223.296.369.396a2.16 2.16 0 0 1 .233-.916c.155-.3.341-.565.56-.792a3.44 3.44 0 0 1 .738-.588c.274-.164.543-.274.807-.329h.301c.437 0 .811.1 1.121.301.31.192.565.447.766.766.209.31.369.665.478 1.066.109.401.191.811.246 1.23.064.41.1.812.11 1.204.018.383.027.71.027.984h-.998a25.646 25.646 0 0 0-.205-1.572c-.028-.2-.064-.41-.11-.629a7.66 7.66 0 0 0-.328-1.176 1.924 1.924 0 0 0-.219-.437 26.97 26.97 0 0 0-.15-.15 3.456 3.456 0 0 0-.355-.356.373.373 0 0 0-.096-.069.72.72 0 0 0-.711.165c-.201.173-.378.41-.533.71-.155.301-.283.643-.383 1.026-.091.383-.169.752-.232 1.107-.064.347-.11.652-.137.916-.027.256-.046.41-.055.465-.228.164-.442.214-.642.15-.201-.072-.392-.218-.575-.437a3.831 3.831 0 0 1-.478-.82 13.852 13.852 0 0 1-.383-1.04 26.33 26.33 0 0 1-.328-1.12c-.091-.374-.173-.72-.246-1.04z"/><path id="o" d="M98.681 113.641l-1.416.495.003.008.002.007 1.411-.51zM98.044 115a1.5 1.5 0 0 0 1.995-.722l5.73-12.224a1.5 1.5 0 1 0-2.716-1.273l-5.093 10.866-10.866-5.094a1.5 1.5 0 0 0-1.273 2.717L98.044 115zM.041 1.588c14.525-.404 25.654.503 34.868 3.577 9.178 3.034 16.21 8.09 22.67 16.271 13.003 16.422 22.977 44.895 39.686 92.7l2.832-.99C83.482 65.608 73.33 36.496 59.931 19.574 53.19 11.084 45.45 5.527 35.855 2.319 26.295-.85 14.648-1.815-.04-1.411L.04 1.588zm97.23 112.563v.001l2.821-1.021-2.822 1.02z"/></defs></svg>