<svg width="700" height="400" viewBox="0 0 700 400" xmlns="http://www.w3.org/2000/svg" xmlns:xlink="http://www.w3.org/1999/xlink"><title>Six</title><desc>Created using Figma</desc><g transform="translate(-3371 282)"><clipPath id="a" clip-rule="evenodd"><path d="M3371-282h700v400h-700v-400z" fill="#FFF"/></clipPath><g clip-path="url(#a)"><path d="M3371-282h700v400h-700v-400z" fill="#FFF"/><use xlink:href="#b" transform="matrix(0 1 1 0 3448 -231)" fill="#C4C4C4"/><use xlink:href="#c" transform="matrix(1 0 0 1 3424 -82)" fill="#C4C4C4"/><use xlink:href="#d" transform="translate(3412 -255)"/><use xlink:href="#e" transform="translate(3415 68)"/><use xlink:href="#f" transform="translate(3994 -73)"/><use xlink:href="#g" transform="translate(3425 -178.5)"/><use xlink:href="#h" transform="translate(3509 72)" fill="#2F80ED"/><mask id="j"><use xlink:href="#i" transform="translate(3548 -236)" fill="#C4C4C4"/></mask><g mask="url(#j)"><use xlink:href="#k" transform="matrix(0 1 1 0 3561 -246)" fill="#2F80ED"/></g></g></g><defs><path id="b" d="M-1.06-1.06a1.5 1.5 0 0 0 0 2.12l9.545 9.547a1.5 1.5 0 1 0 2.122-2.122L2.12 0l8.486-8.485a1.5 1.5 0 1 0-2.122-2.122L-1.06-1.06zM300.06 1.06a1.501 1.501 0 0 0 0-2.12l-9.546-9.547a1.5 1.5 0 0 0-2.122 2.122L296.879 0l-8.486 8.485a1.501 1.501 0 0 0 2.122 2.122l9.546-9.546zM0 1.5h299v-3H0v3z"/><path id="c" d="M-1.06-1.06a1.5 1.5 0 0 0 0 2.12l9.545 9.547a1.5 1.5 0 1 0 2.122-2.122L2.12 0l8.486-8.485a1.5 1.5 0 1 0-2.122-2.122L-1.06-1.06zM595.06 1.06a1.501 1.501 0 0 0 0-2.12l-9.546-9.547a1.5 1.5 0 0 0-2.122 2.122L591.879 0l-8.486 8.485a1.501 1.501 0 0 0 2.122 2.122l9.546-9.546zM0 1.5h594v-3H0v3z"/><path id="d" d="M.229 15.146c0-.455.063-.92.19-1.394.138-.474.32-.934.548-1.38.237-.447.515-.871.834-1.272a6.11 6.11 0 0 1 1.08-1.04 4.97 4.97 0 0 1 1.271-.697c.456-.173.925-.26 1.409-.26.21 0 .478.023.806.069.337.045.661.123.97.232.32.11.589.256.808.438.227.173.341.383.341.629a.121.121 0 0 1-.013.054v.041a.121.121 0 0 0-.014.055 2.031 2.031 0 0 1-.137.164 1.32 1.32 0 0 1-.15.137.152.152 0 0 1-.068.013.256.256 0 0 1-.165 0 .121.121 0 0 1-.054-.013 5.01 5.01 0 0 0-.328-.164 30.894 30.894 0 0 0-1.121-.56 4.974 4.974 0 0 0-.329-.165.45.45 0 0 1-.109-.013h-.082a.225.225 0 0 0-.068-.014c-.429 0-.839.077-1.23.232-.393.155-.753.37-1.08.643a5.471 5.471 0 0 0-.89.943 6.82 6.82 0 0 0-.683 1.135 6.416 6.416 0 0 0-.424 1.217c-.091.41-.137.811-.137 1.203 0 .51.082.966.246 1.367.164.401.392.738.684 1.012.292.264.638.465 1.039.601.41.137.852.205 1.326.205.274 0 .61-.036 1.012-.109a4.94 4.94 0 0 0 1.148-.355c.374-.165.689-.374.944-.63.255-.264.383-.587.383-.97a.745.745 0 0 0-.069-.355.391.391 0 0 0-.191-.192.612.612 0 0 0-.301-.068 4.823 4.823 0 0 0-.37-.014c-.2 0-.373.032-.519.096a4.9 4.9 0 0 0-.437.219 3.714 3.714 0 0 1-.424.218c-.137.064-.3.096-.492.096-.237 0-.424-.037-.56-.11-.137-.072-.206-.24-.206-.505 0-.255.091-.46.274-.615a1.92 1.92 0 0 1 .67-.37c.264-.082.537-.136.82-.164.282-.027.515-.04.697-.04.328 0 .634.027.916.081.283.046.524.137.725.274.21.127.369.31.478.547.11.227.164.524.164.888 0 .565-.155 1.058-.465 1.477-.31.41-.701.747-1.175 1.012-.465.264-.971.464-1.518.601a6.537 6.537 0 0 1-1.504.192 4.75 4.75 0 0 1-1.818-.342 4.108 4.108 0 0 1-1.408-.957 4.534 4.534 0 0 1-.916-1.477 5.14 5.14 0 0 1-.328-1.846zm9.953 2.079c0-.566.132-1.09.396-1.573.264-.492.61-.911 1.04-1.257a5.167 5.167 0 0 1 1.462-.835c.547-.2 1.098-.3 1.654-.3.31 0 .584.1.82.3.247.201.452.447.616.739.164.282.287.583.37.902.09.32.136.597.136.834 0 .51-.123 1.007-.37 1.49a4.81 4.81 0 0 1-.956 1.272c-.392.364-.834.66-1.327.889a3.488 3.488 0 0 1-1.476.341c-.438 0-.807-.073-1.107-.218a2.054 2.054 0 0 1-.725-.602 2.747 2.747 0 0 1-.41-.889 4.735 4.735 0 0 1-.123-1.093zm1.162.136c0 .237.018.447.054.63.046.172.119.323.22.45.109.128.25.228.423.301.173.064.387.096.643.096.337 0 .674-.091 1.011-.274.338-.191.638-.428.903-.71a3.73 3.73 0 0 0 .656-.957c.164-.347.246-.684.246-1.012a3.09 3.09 0 0 0-.041-.479 1.95 1.95 0 0 0-.137-.478 1.004 1.004 0 0 0-.273-.37.674.674 0 0 0-.451-.15c-.164 0-.36.055-.588.164-.219.11-.451.25-.697.424a8.06 8.06 0 0 0-.711.588 10.45 10.45 0 0 0-.63.656 4.259 4.259 0 0 0-.464.63c-.11.2-.164.364-.164.491zm5.865-.136c0-.566.132-1.09.396-1.573.265-.492.611-.911 1.04-1.257a5.168 5.168 0 0 1 1.462-.835c.547-.2 1.099-.3 1.655-.3.31 0 .583.1.82.3.246.201.451.447.615.739.164.282.287.583.37.902.09.32.136.597.136.834 0 .51-.123 1.007-.369 1.49a4.81 4.81 0 0 1-.957 1.272c-.392.364-.834.66-1.326.889a3.488 3.488 0 0 1-1.477.341c-.437 0-.806-.073-1.107-.218a2.054 2.054 0 0 1-.725-.602 2.747 2.747 0 0 1-.41-.889 4.735 4.735 0 0 1-.123-1.093zm1.162.136c0 .237.018.447.055.63.045.172.118.323.219.45.109.128.25.228.423.301.173.064.388.096.643.096.337 0 .674-.091 1.012-.274.337-.191.638-.428.902-.71.273-.292.492-.611.656-.957.164-.347.246-.684.246-1.012 0-.146-.013-.306-.04-.479a1.946 1.946 0 0 0-.137-.478 1.003 1.003 0 0 0-.274-.37.674.674 0 0 0-.451-.15c-.164 0-.36.055-.588.164a5.49 5.49 0 0 0-.697.424 8.09 8.09 0 0 0-.711.588 10.45 10.45 0 0 0-.629.656 4.258 4.258 0 0 0-.465.63c-.11.2-.164.364-.164.491zm5.565 1.026c0-.529.132-.998.396-1.409.264-.41.592-.765.984-1.066a6.26 6.26 0 0 1 1.272-.78c.456-.218.88-.396 1.271-.532.392-.146.72-.26.985-.342.264-.091.396-.164.396-.219 0-.319-.018-.629-.054-.93-.028-.31-.06-.62-.096-.93l-.11-.915c-.027-.31-.04-.616-.04-.916v-.889c.373-.137.637-.123.792.041.165.164.192.447.082.848.037.2.087.515.15.943.065.428.133.912.206 1.45.082.537.164 1.102.246 1.694.091.593.173 1.163.246 1.71.082.537.15 1.02.205 1.449l.123.943c.01.046.019.137.028.274.009.127.013.268.013.423.01.146.014.283.014.41.009.128.014.22.014.274-.347 0-.584-.014-.711-.041-.119-.027-.196-.082-.233-.164a1.184 1.184 0 0 1-.04-.356c0-.154-.046-.369-.137-.642a8.213 8.213 0 0 1-.957.656c-.301.173-.602.315-.903.424-.3.1-.606.168-.916.205-.3.046-.624.068-.97.068-.292 0-.575-.022-.848-.068a2.22 2.22 0 0 1-.711-.273c-.21-.128-.378-.301-.506-.52-.128-.219-.191-.492-.191-.82zm1.189-.287c0 .145.032.264.096.355a.859.859 0 0 0 .246.233c.1.063.205.109.314.136.119.018.233.028.342.028.32 0 .66-.06 1.025-.178a4.02 4.02 0 0 0 1.026-.52c.319-.228.579-.496.78-.806.209-.31.314-.647.314-1.012 0-.283-.05-.479-.15-.588-.101-.11-.292-.164-.575-.164-.292 0-.633.068-1.025.205a5.787 5.787 0 0 0-1.122.547 3.667 3.667 0 0 0-.902.807c-.246.3-.369.62-.369.957zm18.607 3.171a20.83 20.83 0 0 1-.642-1.326l-.711-1.668a32.482 32.482 0 0 0-.78-1.709 11.608 11.608 0 0 0-.806-1.449.881.881 0 0 0-.451-.15 4.343 4.343 0 0 0-.602-.014c-.21 0-.419-.005-.629-.014a1.4 1.4 0 0 1-.533-.15.76.76 0 0 1-.328-.383c-.073-.173-.087-.424-.041-.752h2.297c.045-.51.123-1.016.232-1.517.11-.502.255-.98.438-1.436.191-.456.42-.88.683-1.271a4.21 4.21 0 0 1 .957-1.012 4.526 4.526 0 0 1 1.286-.67 5.26 5.26 0 0 1 1.668-.246c.218 0 .437.055.656.164.218.1.414.237.588.41.173.173.31.37.41.588.11.219.164.438.164.656-.173 0-.328-.032-.465-.095a5.646 5.646 0 0 1-.396-.233 3.055 3.055 0 0 0-.41-.246.986.986 0 0 0-.493-.123 3.61 3.61 0 0 0-1.531.328c-.465.219-.875.51-1.23.875a4.12 4.12 0 0 0-.82 1.272c-.201.483-.302.993-.302 1.53v.206c.01.091.014.191.014.3v.315c.01.1.014.169.014.205.337.11.715.192 1.134.246.42.055.84.091 1.258.11.429.009.839.004 1.23-.014.402-.018.757-.041 1.067-.068l.15.15a.458.458 0 0 1 .124.164c0 .027.004.046.013.055l.028.082c0 .191-.1.342-.301.451-.2.11-.456.191-.766.246-.31.046-.656.078-1.039.096-.373.018-.738.036-1.094.055-.346.009-.66.027-.943.054-.273.018-.465.06-.574.123.118.547.328 1.076.629 1.586.31.51.624 1.021.943 1.531.32.51.602 1.026.848 1.545.246.52.369 1.053.369 1.6h-.26c-.127.01-.264.005-.41-.014a1.407 1.407 0 0 1-.424-.123c-.127-.054-.2-.141-.219-.26zM47.82 16.2c0-.492.06-.984.178-1.476.119-.493.305-.935.56-1.327a3.174 3.174 0 0 1 1.012-.957c.42-.246.925-.369 1.518-.369.337 0 .633.064.889.192.255.118.469.278.642.478.173.2.3.438.383.711.091.264.137.542.137.834 0 .465-.11.916-.329 1.354a3.82 3.82 0 0 1-.86 1.162 3.697 3.697 0 0 1-1.231.752c-.465.164-.94.2-1.422.11.009.263.096.478.26.642.173.155.378.273.615.355.237.082.483.137.738.164.255.018.483.028.684.028a3 3 0 0 0 .588-.055 11.8 11.8 0 0 0 .546-.123 11.8 11.8 0 0 1 .547-.123c.192-.037.392-.055.602-.055.082 0 .164.005.246.014.082.009.16.032.233.068a.355.355 0 0 1 .177.15.413.413 0 0 1 .069.247.574.574 0 0 1-.192.437c-.127.11-.291.205-.492.287a3.127 3.127 0 0 1-.643.192c-.237.036-.469.068-.697.095a7.401 7.401 0 0 1-.615.028c-.182.009-.32.013-.41.013a4.277 4.277 0 0 1-1.572-.273 3.444 3.444 0 0 1-1.176-.78 3.512 3.512 0 0 1-.739-1.203 4.78 4.78 0 0 1-.246-1.572zm1.45-.889c0 .32.04.552.123.698.09.146.305.219.642.219.237 0 .47-.041.697-.123a2.21 2.21 0 0 0 .616-.37c.191-.155.342-.337.45-.546.11-.21.165-.438.165-.684 0-.137-.014-.278-.041-.424a.98.98 0 0 0-.137-.396.829.829 0 0 0-.287-.301.712.712 0 0 0-.438-.123c-.273 0-.524.064-.751.191a1.764 1.764 0 0 0-.561.479c-.155.191-.273.41-.355.656a2.2 2.2 0 0 0-.123.724zm6.18.89c0-.493.058-.985.177-1.477.118-.493.305-.935.56-1.327a3.174 3.174 0 0 1 1.012-.957c.42-.246.925-.369 1.518-.369.337 0 .633.064.889.192.255.118.469.278.642.478.173.2.3.438.383.711.091.264.137.542.137.834 0 .465-.11.916-.328 1.354-.21.437-.497.825-.862 1.162a3.697 3.697 0 0 1-1.23.752c-.465.164-.94.2-1.422.11.009.263.096.478.26.642.173.155.378.273.615.355.237.082.483.137.738.164.255.018.483.028.684.028a3 3 0 0 0 .587-.055 11.8 11.8 0 0 0 .547-.123 11.8 11.8 0 0 1 .547-.123c.192-.037.392-.055.602-.055.082 0 .164.005.246.014.082.009.16.032.232.068a.355.355 0 0 1 .178.15.413.413 0 0 1 .069.247.574.574 0 0 1-.192.437c-.128.11-.292.205-.492.287a3.127 3.127 0 0 1-.643.192c-.237.036-.47.068-.697.095a7.401 7.401 0 0 1-.615.028c-.182.009-.32.013-.41.013a4.277 4.277 0 0 1-1.573-.273 3.444 3.444 0 0 1-1.175-.78 3.512 3.512 0 0 1-.739-1.203 4.78 4.78 0 0 1-.246-1.572zm1.448-.89c0 .32.041.552.123.698.092.146.306.219.643.219.237 0 .47-.041.697-.123a2.21 2.21 0 0 0 .616-.37c.191-.155.341-.337.45-.546.11-.21.165-.438.165-.684 0-.137-.014-.278-.041-.424a.978.978 0 0 0-.137-.396.83.83 0 0 0-.287-.301.712.712 0 0 0-.438-.123c-.273 0-.524.064-.752.191a1.764 1.764 0 0 0-.56.479c-.155.191-.274.41-.355.656a2.202 2.202 0 0 0-.124.724zm6.508-3.048c0-.265-.018-.52-.054-.766a2.873 2.873 0 0 1-.028-.67c.018-.2.087-.36.205-.478.128-.119.356-.178.684-.178.1.21.196.529.287.957.1.428.196.92.287 1.476.091.556.178 1.163.26 1.819.082.647.155 1.299.219 1.955.072.656.132 1.303.177 1.941.055.63.096 1.203.123 1.723-.3.2-.542.214-.724.041-.183-.173-.333-.465-.451-.875a9.333 9.333 0 0 1-.274-1.518c-.064-.601-.127-1.22-.191-1.859a40.486 40.486 0 0 0-.205-1.9 13.319 13.319 0 0 0-.315-1.668zm5.496 7.123c.146-.1.32-.228.52-.383.21-.164.42-.337.629-.52a7.02 7.02 0 0 0 .588-.574c.182-.2.323-.392.424-.574.109-.191.164-.37.164-.533 0-.164-.083-.301-.246-.41-.292 0-.611.013-.958.04-.346.019-.692.028-1.039.028a7.313 7.313 0 0 1-1.011-.096 2.61 2.61 0 0 1-.862-.3 1.66 1.66 0 0 1-.615-.616c-.146-.273-.219-.62-.219-1.039 0-.492.091-.934.274-1.326.191-.401.442-.752.752-1.053.31-.31.656-.579 1.039-.806a8.969 8.969 0 0 1 1.176-.602c.237.064.455.178.656.342.2.164.373.346.52.547a.802.802 0 0 1-.383.465c-.183.109-.397.205-.643.287l-.752.26a2.858 2.858 0 0 0-.725.369c-.21.146-.387.341-.533.588-.146.237-.219.55-.219.943 0 .291.073.506.22.643.145.136.336.232.573.287a3.7 3.7 0 0 0 .807.054c.3-.018.606-.04.916-.068.32-.027.629-.041.93-.041.3-.01.57.027.806.11.237.072.424.195.561.368.146.174.219.429.219.766 0 .146-.05.333-.15.56a4.794 4.794 0 0 1-.383.739c-.155.255-.342.51-.561.765-.21.256-.433.488-.67.698-.228.2-.46.369-.697.506a1.324 1.324 0 0 1-.643.191c-.191 0-.319-.068-.383-.205a1.097 1.097 0 0 1-.082-.41z"/><path id="e" d="M.728 9.8c.109-.555.31-.993.601-1.312a2.23 2.23 0 0 1 .998-.67 2.714 2.714 0 0 1 1.217-.082c.437.055.848.187 1.23.397.392.21.734.483 1.026.82.291.328.497.707.615 1.135.119.42.119.875 0 1.367-.118.492-.387.998-.807 1.518.329.118.634.237.916.355.283.119.52.264.711.438.2.173.356.382.465.629.11.246.164.551.164.915 0 .301-.054.62-.164.958-.11.337-.264.67-.465.998a6.035 6.035 0 0 1-1.517 1.722c-.301.228-.61.41-.93.547-.31.128-.615.192-.916.192-.2 0-.396-.128-.588-.383a5.075 5.075 0 0 1-.56-1.012 15.06 15.06 0 0 1-.534-1.45 28.576 28.576 0 0 1-.478-1.695 47.398 47.398 0 0 1-.397-1.75 95.458 95.458 0 0 1-.314-1.613c-.082-.492-.15-.916-.205-1.271A7.275 7.275 0 0 1 .728 9.8zm2.433 5.92c0 .156.037.36.11.616.072.255.164.51.273.766.118.255.246.492.383.71.136.21.282.351.437.424.128.073.278.069.451-.013.174-.091.347-.228.52-.41.182-.192.355-.406.52-.643a9.01 9.01 0 0 0 .437-.725c.137-.237.242-.455.314-.656.082-.21.123-.37.123-.479a1.45 1.45 0 0 0-.095-.574.83.83 0 0 0-.287-.369 1.065 1.065 0 0 0-.438-.191 2.523 2.523 0 0 0-.547-.055c-.228 0-.47.037-.724.11a2.77 2.77 0 0 0-.711.314c-.21.137-.392.305-.547.506-.146.2-.219.424-.219.67zm-.875-4.648c0 .164-.004.37-.014.616-.009.236-.009.483 0 .738.01.255.037.51.082.765.046.256.128.474.247.657a2.942 2.942 0 0 0 1.162-.465 2.91 2.91 0 0 0 .806-.793c.21-.31.36-.638.452-.985.09-.346.123-.683.095-1.011a2.277 2.277 0 0 0-.232-.903 1.423 1.423 0 0 0-.547-.629c-.237-.154-.524-.232-.861-.232-.338 0-.725.11-1.163.328 0 .073-.004.2-.013.383 0 .182-.005.374-.014.574v.957zm12.332 7.164c-.346.237-.647.451-.902.643a6.021 6.021 0 0 1-.725.465 3.086 3.086 0 0 1-.765.287 4.277 4.277 0 0 1-.985.096c-.847 0-1.476-.224-1.887-.67-.41-.456-.615-1.13-.615-2.024 0-.346.046-.706.137-1.08.091-.374.223-.743.396-1.107.183-.374.397-.725.643-1.053.246-.337.524-.633.834-.889a3.97 3.97 0 0 1 .984-.601c.356-.155.73-.233 1.121-.233.657.064 1.172.228 1.545.492.374.256.657.588.848.998.191.402.324.853.397 1.354.072.492.127 1.003.164 1.531.045.529.1 1.058.164 1.586.063.529.196 1.017.396 1.463-.118.3-.232.51-.342.629-.1.128-.214.15-.341.068-.128-.082-.278-.282-.452-.601a20.8 20.8 0 0 1-.615-1.354zm-4.717-1.175c0 .52.096.902.287 1.148.201.237.552.355 1.053.355.374 0 .73-.063 1.067-.191.346-.137.647-.319.902-.547.255-.237.46-.52.615-.848a2.53 2.53 0 0 0 .233-1.093c0-.164.004-.392.013-.684.01-.3-.009-.597-.054-.889a2.038 2.038 0 0 0-.26-.752.623.623 0 0 0-.574-.328c-.474 0-.912.123-1.313.37a3.688 3.688 0 0 0-1.039.916c-.292.373-.52.788-.683 1.244-.165.446-.247.88-.247 1.299zm7.028 1.326c0-.529.132-.998.396-1.409.265-.41.593-.765.985-1.066.392-.31.815-.57 1.271-.78.456-.218.88-.396 1.271-.532.392-.146.72-.26.985-.342.264-.091.396-.164.396-.219 0-.319-.018-.629-.054-.93-.028-.31-.06-.62-.096-.93-.036-.31-.073-.614-.11-.915-.027-.31-.04-.616-.04-.916v-.889c.373-.137.638-.123.793.041.164.164.191.447.082.848.036.2.086.515.15.943.064.428.132.912.205 1.45.082.537.164 1.102.246 1.694.091.593.173 1.163.246 1.71.082.537.15 1.02.205 1.449l.123.943c.01.046.019.137.028.274.009.127.013.268.013.423.01.146.014.283.014.41.01.128.014.22.014.274-.347 0-.584-.014-.711-.041-.119-.027-.196-.082-.233-.164a1.184 1.184 0 0 1-.04-.356c0-.154-.046-.369-.137-.642a8.213 8.213 0 0 1-.957.656 5.74 5.74 0 0 1-.903.424c-.3.1-.606.168-.916.205-.3.046-.624.068-.97.068-.292 0-.575-.022-.848-.068a2.22 2.22 0 0 1-.711-.273c-.21-.128-.378-.301-.506-.52-.128-.219-.191-.492-.191-.82zm1.19-.287c0 .145.031.264.095.355a.859.859 0 0 0 .246.233c.1.063.205.109.314.136.119.018.233.028.342.028.32 0 .661-.06 1.026-.178a4.02 4.02 0 0 0 1.025-.52c.319-.228.579-.496.78-.806.209-.31.314-.647.314-1.012 0-.283-.05-.479-.15-.588-.1-.11-.292-.164-.575-.164-.292 0-.633.068-1.025.205a5.787 5.787 0 0 0-1.121.547 3.669 3.669 0 0 0-.903.807c-.246.3-.369.62-.369.957zm18.607 3.171a20.83 20.83 0 0 1-.643-1.326l-.71-1.668a32.482 32.482 0 0 0-.78-1.709 11.595 11.595 0 0 0-.807-1.449.88.88 0 0 0-.451-.15 4.344 4.344 0 0 0-.602-.014c-.21 0-.419-.005-.628-.014a1.399 1.399 0 0 1-.534-.15.76.76 0 0 1-.328-.383c-.073-.173-.086-.424-.04-.752h2.296c.046-.51.123-1.016.232-1.517.11-.502.256-.98.438-1.436.191-.456.42-.88.684-1.271.264-.392.583-.73.957-1.012a4.527 4.527 0 0 1 1.285-.67 5.26 5.26 0 0 1 1.668-.246c.218 0 .437.055.656.164.219.1.415.237.588.41s.31.37.41.588c.11.219.164.438.164.656-.173 0-.328-.032-.465-.095a5.649 5.649 0 0 1-.396-.233 3.054 3.054 0 0 0-.41-.246.987.987 0 0 0-.493-.123 3.61 3.61 0 0 0-1.53.328c-.466.219-.876.51-1.231.875a4.12 4.12 0 0 0-.82 1.272c-.201.483-.301.993-.301 1.53v.206c.009.091.013.191.013.3v.315c.01.1.014.169.014.205.337.11.715.192 1.135.246.419.055.838.091 1.258.11.428.009.838.004 1.23-.014.401-.018.757-.041 1.066-.068l.15.15a.458.458 0 0 1 .124.164c0 .027.004.046.014.055l.027.082c0 .191-.1.342-.301.451-.2.11-.456.191-.766.246-.31.046-.656.078-1.039.096-.373.018-.738.036-1.093.055-.347.009-.661.027-.944.054-.273.018-.465.06-.574.123.118.547.328 1.076.629 1.586.31.51.624 1.021.943 1.531.32.51.602 1.026.848 1.545.246.52.37 1.053.37 1.6h-.26c-.128.01-.265.005-.41-.014a1.408 1.408 0 0 1-.425-.123c-.127-.054-.2-.141-.218-.26zm4.087-5.072c0-.492.06-.984.178-1.476.119-.493.306-.935.56-1.327a3.173 3.173 0 0 1 1.012-.957c.42-.246.926-.369 1.518-.369.337 0 .633.064.889.192.255.118.47.278.642.478.173.2.301.438.383.711.091.264.137.542.137.834 0 .465-.11.916-.328 1.354a3.82 3.82 0 0 1-.862 1.162 3.697 3.697 0 0 1-1.23.752c-.465.164-.939.2-1.422.11.01.263.096.478.26.642.173.155.378.273.615.355.237.082.483.137.738.164.255.018.483.028.684.028.21 0 .405-.019.588-.055a11.8 11.8 0 0 0 .547-.123 11.8 11.8 0 0 1 .547-.123c.191-.037.392-.055.601-.055.082 0 .164.005.246.014.082.009.16.032.233.068a.355.355 0 0 1 .177.15.414.414 0 0 1 .069.247.574.574 0 0 1-.192.437c-.127.11-.291.205-.492.287a3.128 3.128 0 0 1-.642.192c-.237.036-.47.068-.698.095a7.403 7.403 0 0 1-.615.028c-.182.009-.319.013-.41.013a4.278 4.278 0 0 1-1.572-.273 3.444 3.444 0 0 1-1.176-.78 3.509 3.509 0 0 1-.738-1.203 4.78 4.78 0 0 1-.247-1.572zm1.45-.889c0 .32.04.552.123.698.09.146.305.219.642.219.237 0 .47-.041.698-.123a2.21 2.21 0 0 0 .615-.37c.191-.155.342-.337.451-.546.11-.21.164-.438.164-.684 0-.137-.014-.278-.041-.424a.978.978 0 0 0-.137-.396.828.828 0 0 0-.287-.301.712.712 0 0 0-.437-.123c-.274 0-.524.064-.752.191a1.764 1.764 0 0 0-.56.479c-.156.191-.274.41-.356.656a2.202 2.202 0 0 0-.123.724zm6.18.89c0-.493.059-.985.177-1.477.119-.493.306-.935.56-1.327a3.173 3.173 0 0 1 1.012-.957c.42-.246.925-.369 1.518-.369.337 0 .633.064.889.192.255.118.469.278.642.478.173.2.301.438.383.711.091.264.137.542.137.834 0 .465-.11.916-.328 1.354a3.82 3.82 0 0 1-.862 1.162 3.697 3.697 0 0 1-1.23.752c-.465.164-.939.2-1.422.11.01.263.096.478.26.642.173.155.378.273.615.355.237.082.483.137.738.164.255.018.483.028.684.028a3 3 0 0 0 .588-.055 11.8 11.8 0 0 0 .547-.123 11.8 11.8 0 0 1 .547-.123c.19-.037.391-.055.601-.055.082 0 .164.005.246.014.082.009.16.032.233.068a.354.354 0 0 1 .177.15.414.414 0 0 1 .069.247.574.574 0 0 1-.192.437c-.127.11-.291.205-.492.287a3.128 3.128 0 0 1-.642.192c-.238.036-.47.068-.698.095a7.403 7.403 0 0 1-.615.028c-.182.009-.319.013-.41.013a4.278 4.278 0 0 1-1.572-.273 3.444 3.444 0 0 1-1.176-.78 3.51 3.51 0 0 1-.739-1.203 4.78 4.78 0 0 1-.246-1.572zm1.449-.89c0 .32.04.552.123.698.09.146.305.219.642.219.237 0 .47-.041.698-.123a2.21 2.21 0 0 0 .615-.37c.191-.155.342-.337.45-.546.11-.21.165-.438.165-.684 0-.137-.014-.278-.041-.424a.978.978 0 0 0-.137-.396.828.828 0 0 0-.287-.301.712.712 0 0 0-.437-.123c-.274 0-.525.064-.752.191a1.764 1.764 0 0 0-.56.479c-.156.191-.274.41-.356.656a2.202 2.202 0 0 0-.123.724zm6.507-3.048c0-.265-.018-.52-.054-.766a2.878 2.878 0 0 1-.028-.67c.019-.2.087-.36.206-.478.127-.119.355-.178.683-.178.1.21.196.529.287.957.1.428.196.92.287 1.476.091.556.178 1.163.26 1.819.082.647.155 1.299.219 1.955.073.656.132 1.303.178 1.941.054.63.095 1.203.123 1.723-.301.2-.543.214-.725.041-.182-.173-.333-.465-.451-.875a9.333 9.333 0 0 1-.274-1.518c-.063-.601-.127-1.22-.191-1.859a40.354 40.354 0 0 0-.205-1.9 13.355 13.355 0 0 0-.315-1.668zm5.496 7.123c.146-.1.32-.228.52-.383.21-.164.42-.337.629-.52.21-.182.406-.373.588-.574.182-.2.323-.392.424-.574.109-.191.164-.37.164-.533 0-.164-.082-.301-.246-.41-.292 0-.611.013-.957.04-.347.019-.693.028-1.04.028a7.315 7.315 0 0 1-1.011-.096 2.61 2.61 0 0 1-.861-.3 1.66 1.66 0 0 1-.616-.616c-.146-.273-.218-.62-.218-1.039 0-.492.09-.934.273-1.326.191-.401.442-.752.752-1.053.31-.31.656-.579 1.039-.806a8.968 8.968 0 0 1 1.176-.602c.237.064.456.178.656.342.2.164.374.346.52.547a.802.802 0 0 1-.383.465c-.183.109-.397.205-.643.287l-.752.26a2.857 2.857 0 0 0-.724.369c-.21.146-.388.341-.534.588-.146.237-.218.55-.218.943 0 .291.072.506.218.643.146.136.338.232.575.287a3.7 3.7 0 0 0 .806.054c.301-.018.606-.04.916-.068.32-.027.63-.041.93-.041.3-.01.57.027.807.11.236.072.423.195.56.368.146.174.219.429.219.766 0 .146-.05.333-.15.56a4.811 4.811 0 0 1-.383.739 5.83 5.83 0 0 1-.56.765c-.21.256-.434.488-.67.698-.229.2-.461.369-.698.506a1.324 1.324 0 0 1-.643.191c-.191 0-.319-.068-.383-.205a1.099 1.099 0 0 1-.081-.41z"/><path id="f" d="M5.584 11.797a.374.374 0 0 0-.219-.26.817.817 0 0 0-.342-.068 1.546 1.546 0 0 0-.355.013 1.93 1.93 0 0 1-.273.028 75.89 75.89 0 0 1-.807-.055c-.383-.027-.798-.055-1.244-.082-.438-.036-.848-.068-1.23-.096-.384-.036-.652-.059-.807-.068 0-.018-.005-.064-.014-.137a1.458 1.458 0 0 1-.014-.15c0-.128.01-.242.028-.342.027-.1.118-.178.273-.232.857.018 1.7.013 2.53-.014.838-.027 1.672-.064 2.501-.11a245.3 245.3 0 0 1 2.502-.15 46.573 46.573 0 0 1 2.53-.068c0 .346-.083.601-.247.765a1.28 1.28 0 0 1-.615.315 3.1 3.1 0 0 1-.793.068 8.655 8.655 0 0 0-.847.014 2.142 2.142 0 0 0-.711.164.663.663 0 0 0-.397.465c-.009.055-.018.16-.027.314-.01.155-.018.32-.027.492 0 .174-.005.338-.014.493v.314c0 .52.064 1.035.191 1.545.137.501.283 1.003.438 1.504.164.492.31.989.437 1.49.137.492.205.994.205 1.504 0 .383-.218.574-.656.574-.264 0-.501-.182-.71-.547-.201-.364-.38-.829-.534-1.394a18.337 18.337 0 0 1-.37-1.846 60.253 60.253 0 0 1-.232-1.914 53.7 53.7 0 0 1-.123-1.613c-.018-.465-.027-.77-.027-.916zm6.398 3.076v-.26c.01-.127.014-.26.014-.396.01-.137.014-.27.014-.397.009-.127.013-.218.013-.273.1-.146.228-.264.383-.356.164-.09.328-.164.492-.218.028.492.105 1.016.233 1.572.127.556.264 1.117.41 1.682.146.556.274 1.107.383 1.654.118.547.178 1.057.178 1.531 0 .41-.21.615-.63.615a.802.802 0 0 1-.642-.314 2.512 2.512 0 0 1-.424-.793 8.232 8.232 0 0 1-.246-1.08c-.064-.401-.11-.793-.137-1.176a55.893 55.893 0 0 1-.04-1.053v-.738zm.192-5.127c.173.073.319.191.437.356.119.164.169.314.15.45-.008.128-.109.22-.3.274-.191.046-.51-.009-.957-.164 0-.246.046-.46.137-.643.1-.182.278-.273.533-.273zm2.16 4.512c0-.228.036-.406.11-.533.081-.128.25-.192.505-.192.028 0 .078.005.15.014h.151c.064.282.128.592.191.93.073.328.155.66.246.998.092.337.192.67.301.998.119.328.26.624.424.888.164-.173.283-.378.356-.615.072-.237.127-.474.164-.71.036-.247.068-.48.095-.698.037-.228.105-.42.205-.574a.85.85 0 0 1 .438-.356c.2-.073.474-.073.82 0 .383 0 .688.073.916.219.228.137.424.314.588.533.173.21.337.438.492.684.164.237.37.45.616.642.054-.118.123-.264.205-.437.082-.182.182-.37.3-.56.128-.201.26-.397.397-.589.146-.2.296-.378.451-.533.155-.164.315-.296.479-.396a.864.864 0 0 1 .478-.164c.374 0 .697.118.97.355.274.228.507.52.698.875.2.346.365.738.492 1.176a11.688 11.688 0 0 1 .451 2.351c.037.329.055.566.055.711 0 .119-.027.21-.082.274a.57.57 0 0 1-.205.15 1.207 1.207 0 0 1-.273.055c-.092.009-.178.014-.26.014h-.082a2.674 2.674 0 0 0-.123-.028 5.05 5.05 0 0 1-.15-.04l-.89-4.089c0-.027-.036-.077-.109-.15a.702.702 0 0 0-.164-.15.152.152 0 0 1-.068-.014h-.041c-.01-.01-.018-.014-.027-.014-.192 0-.374.078-.547.233-.164.155-.32.35-.465.588a6.434 6.434 0 0 0-.41.793c-.128.291-.242.583-.342.875-.1.282-.192.546-.274.793-.072.236-.132.419-.177.546a.905.905 0 0 1-.22.055 3.32 3.32 0 0 1-.218.014c-.255 0-.451-.087-.588-.26a2.429 2.429 0 0 1-.341-.67 9.114 9.114 0 0 1-.22-.861 5.583 5.583 0 0 0-.218-.875 1.742 1.742 0 0 0-.355-.657c-.146-.182-.356-.273-.63-.273-.1 0-.195.1-.287.3-.09.201-.173.456-.246.766-.072.301-.14.63-.205.985a27.48 27.48 0 0 0-.164.984c-.036.3-.063.556-.082.766l-.027.314a.4.4 0 0 1-.11.096c-.054.027-.113.06-.177.096a.632.632 0 0 1-.178.082A.434.434 0 0 1 17 20c-.255 0-.501-.114-.738-.342a3.978 3.978 0 0 1-.657-.902c-.19-.374-.369-.784-.533-1.23a17.724 17.724 0 0 1-.656-2.475 5.51 5.51 0 0 1-.082-.793zm12.305 1.941c0-.492.059-.984.177-1.476.119-.493.306-.935.561-1.327a3.173 3.173 0 0 1 1.012-.957c.419-.246.925-.369 1.517-.369.338 0 .634.064.889.192.255.118.47.278.642.478.174.2.301.438.383.711.091.264.137.542.137.834 0 .465-.11.916-.328 1.354a3.82 3.82 0 0 1-.861 1.162 3.697 3.697 0 0 1-1.23.752c-.466.164-.94.2-1.423.11.01.263.096.478.26.642.173.155.378.273.615.355.237.082.483.137.739.164.255.018.483.028.683.028.21 0 .406-.019.588-.055a11.8 11.8 0 0 0 .547-.123 11.8 11.8 0 0 1 .547-.123c.191-.037.392-.055.601-.055.082 0 .164.005.246.014.082.009.16.032.233.068a.355.355 0 0 1 .178.15.414.414 0 0 1 .068.247.574.574 0 0 1-.192.437c-.127.11-.291.205-.492.287a3.128 3.128 0 0 1-.642.192c-.237.036-.47.068-.698.095a7.403 7.403 0 0 1-.615.028c-.182.009-.319.013-.41.013a4.278 4.278 0 0 1-1.572-.273 3.446 3.446 0 0 1-1.176-.78 3.51 3.51 0 0 1-.738-1.203 4.78 4.78 0 0 1-.246-1.572zm1.449-.889c0 .32.04.552.123.698.091.146.305.219.643.219.236 0 .469-.041.697-.123a2.21 2.21 0 0 0 .615-.37c.191-.155.342-.337.451-.546.11-.21.164-.438.164-.684 0-.137-.013-.278-.04-.424a.978.978 0 0 0-.137-.396.828.828 0 0 0-.288-.301.712.712 0 0 0-.437-.123c-.274 0-.524.064-.752.191a1.764 1.764 0 0 0-.56.479c-.155.191-.274.41-.356.656a2.202 2.202 0 0 0-.123.724z"/><path id="g" d="M70 84.442l-.725-1.864.725 1.864zM494 102.5l-.361 1.967.361-1.967zm-462 .626l-1.034-1.712L32 103.126zM250 44.5l.698-1.874L250 44.5zm166 55c31.074-.001 44.989-1.045 77.639 4.967l.722-3.934C461.205 94.461 446.926 95.501 416 95.5v4zm77.639 4.967c28.658 5.263 58.338 12.033 92.764 4.992l-.806-3.918c-33.574 6.959-62.491.271-91.236-5.008l-.722 3.934zM330 78.5c18.637-.033 32.016 5.11 44.87 10.352 12.852 5.24 25.221 10.606 41.13 10.648v-4c-15.091.042-26.722-5.092-39.62-10.352C363.484 79.89 349.363 74.533 330 74.5v4zM70.726 86.305c7.313-2.847 16.429-1.083 27.197 2.349 10.662 3.395 22.49 8.258 34.669 10.804l.816-3.916c-11.821-2.454-23.453-7.25-34.27-10.7-10.711-3.412-21.096-5.677-29.864-2.264l1.451 3.727zm61.866 13.153c3.812.794 7.143-.62 9.946-3.254 2.746-2.58 5.126-6.44 7.277-10.971 4.287-9.048 8.007-21.533 11.787-34.029 3.78-12.496 7.617-25 12.218-34.387 2.281-4.669 4.621-8.378 7.275-11.006C183.65 3.264 186.249 2 189 2v-4c-4.124 0-7.681 1.94-10.729 4.978-2.95 2.958-5.661 7.217-8.044 12.08-4.727 9.675-8.671 22.484-12.454 34.988-3.782 12.504-7.406 24.707-11.572 33.472-2.076 4.374-4.2 7.702-6.402 9.77-2.143 2.015-4.203 2.71-6.391 2.254l-.816 3.916zM1.283 127.563c10.32-8.637 20.86-16.15 31.75-22.725l-2.067-3.424c-11.02 6.656-21.808 14.347-32.25 23.081l2.567 3.068zm31.75-22.725a242.917 242.917 0 0 1 37.692-18.533l-1.45-3.727a248.624 248.624 0 0 0-38.309 18.836l2.068 3.424zM189 2c2.898 0 6.534 1.822 11.006 5.266 4.414 3.395 9.229 8.036 14.431 13.034 10.311 9.906 22.251 21.378 34.865 26.074l1.396-3.748c-11.677-4.348-22.995-15.127-33.49-25.21-5.2-4.996-10.176-9.784-14.762-13.32C197.918.61 193.344-2 189-2v4zm60.302 44.374c10.802 4.019 26.235 11.985 41.296 18.987 7.532 3.502 15.009 6.776 21.713 9.166C318.99 76.907 325.144 78.5 330 78.5v-4c-4.136 0-9.751-1.39-16.347-3.741-6.571-2.34-13.878-5.542-21.369-9.025-14.986-6.966-30.562-15-41.586-19.108l-1.396 3.748z"/><path id="h" d="M5.58 11.797a.374.374 0 0 0-.219-.26.817.817 0 0 0-.341-.068 1.546 1.546 0 0 0-.356.013 1.93 1.93 0 0 1-.273.028l-.807-.055c-.383-.027-.798-.055-1.244-.082-.438-.036-.848-.068-1.23-.096-.383-.036-.652-.059-.807-.068 0-.018-.005-.064-.014-.137a1.459 1.459 0 0 1-.014-.15c0-.128.01-.242.028-.342.027-.1.118-.178.273-.232.857.018 1.7.013 2.53-.014.838-.027 1.672-.064 2.501-.11.839-.054 1.673-.104 2.502-.15a46.573 46.573 0 0 1 2.53-.068c0 .346-.082.601-.246.765a1.28 1.28 0 0 1-.616.315 3.1 3.1 0 0 1-.793.068 8.655 8.655 0 0 0-.847.014 2.142 2.142 0 0 0-.711.164.663.663 0 0 0-.397.465 3.61 3.61 0 0 0-.027.314c-.01.155-.018.32-.027.492 0 .174-.005.338-.014.493v.314c0 .52.064 1.035.191 1.545.137.501.283 1.003.438 1.504.164.492.31.989.437 1.49.137.492.205.994.205 1.504 0 .383-.218.574-.656.574-.264 0-.501-.182-.71-.547-.201-.364-.379-.829-.534-1.394a18.34 18.34 0 0 1-.37-1.846 60.253 60.253 0 0 1-.232-1.914 53.733 53.733 0 0 1-.123-1.613c-.018-.465-.027-.77-.027-.916zm6.22-.684c0-.1.01-.223.028-.369.027-.155.069-.3.123-.437.064-.137.141-.251.233-.342.09-.1.21-.15.355-.15a.41.41 0 0 1 .068.013c.037.01.06.014.069.014.155.565.246 1.125.273 1.681.028.556.018 1.099-.027 1.627-.046.52-.114 1.026-.205 1.518-.091.483-.169.93-.233 1.34-.054.41-.09.78-.109 1.107-.01.328.041.606.15.834a6.73 6.73 0 0 1-.04-.52c0-.209.018-.423.054-.642.046-.219.114-.437.205-.656.1-.219.242-.415.424-.588s.415-.31.697-.41c.292-.1.652-.15 1.08-.15.447 0 .83.077 1.149.232.328.155.597.369.806.642.21.265.365.58.465.944.11.355.164.738.164 1.148 0 .192-.004.41-.013.656 0 .237-.032.46-.096.67a1.1 1.1 0 0 1-.315.52c-.145.137-.364.205-.656.205 0-.146.01-.342.028-.588.018-.255.027-.524.027-.806.009-.283 0-.57-.027-.862a2.277 2.277 0 0 0-.178-.78 1.435 1.435 0 0 0-.424-.573c-.173-.155-.415-.233-.725-.233-.109 0-.246.01-.41.027a1.38 1.38 0 0 0-.478.124 1.61 1.61 0 0 0-.479.341c-.155.146-.278.351-.369.616-.091.255-.146.583-.164.984-.01.392.041.875.15 1.45-.063.163-.145.259-.246.286-.09.028-.21.041-.355.041a.96.96 0 0 1-.725-.3c-.182-.21-.323-.488-.424-.834a6.104 6.104 0 0 1-.205-1.204c-.027-.455-.036-.93-.027-1.421.01-.502.032-1.008.068-1.518.046-.52.087-1.007.123-1.463l.123-1.258c.046-.383.069-.688.069-.916zm6.276 5.086c0-.492.06-.984.178-1.476.118-.493.305-.935.56-1.327a3.173 3.173 0 0 1 1.012-.957c.42-.246.925-.369 1.518-.369.337 0 .633.064.888.192.256.118.47.278.643.478.173.2.3.438.383.711.091.264.137.542.137.834 0 .465-.11.916-.329 1.354a3.82 3.82 0 0 1-.86 1.162 3.697 3.697 0 0 1-1.231.752c-.465.164-.94.2-1.422.11.009.263.095.478.26.642.173.155.378.273.615.355.237.082.483.137.738.164.255.018.483.028.684.028.21 0 .405-.019.587-.055a11.8 11.8 0 0 0 .547-.123c.183-.046.365-.087.547-.123.192-.037.392-.055.602-.055.082 0 .164.005.246.014.082.009.16.032.232.068a.355.355 0 0 1 .178.15.414.414 0 0 1 .068.247.574.574 0 0 1-.191.437c-.128.11-.292.205-.492.287a3.127 3.127 0 0 1-.643.192c-.237.036-.47.068-.697.095a7.403 7.403 0 0 1-.615.028c-.183.009-.32.013-.41.013a4.278 4.278 0 0 1-1.573-.273 3.446 3.446 0 0 1-1.175-.78 3.51 3.51 0 0 1-.739-1.203 4.78 4.78 0 0 1-.246-1.572zm1.45-.889c0 .32.04.552.122.698.092.146.306.219.643.219.237 0 .47-.041.697-.123a2.21 2.21 0 0 0 .616-.37c.19-.155.341-.337.45-.546.11-.21.165-.438.165-.684 0-.137-.014-.278-.041-.424a.978.978 0 0 0-.137-.396.828.828 0 0 0-.287-.301.712.712 0 0 0-.438-.123c-.273 0-.524.064-.752.191a1.764 1.764 0 0 0-.56.479c-.155.191-.274.41-.356.656a2.202 2.202 0 0 0-.123.724zm6.18-1.052c0-.082.004-.164.013-.246a.793.793 0 0 1 .054-.233.416.416 0 0 1 .123-.177.439.439 0 0 1 .26-.069c.091 0 .192.073.301.219.119.137.237.314.355.533.119.21.233.442.342.697.119.256.219.493.301.711.091.21.164.392.219.547.055.155.086.237.096.246.118-.319.25-.665.396-1.039.146-.373.324-.72.533-1.039.219-.328.474-.601.766-.82.3-.219.665-.328 1.094-.328.218 0 .423.036.615.11.2.063.373.163.52.3.154.127.277.283.369.465.09.182.136.392.136.629 0 .2-.082.341-.246.424a1.123 1.123 0 0 1-.533.122h-.137l-.588-.587c-.018 0-.032-.005-.04-.014H30.6c-.01-.01-.023-.014-.041-.014-.32 0-.57.091-.752.274a1.69 1.69 0 0 0-.397.656c-.091.255-.15.529-.178.82-.018.283-.027.543-.027.78 0 .182.018.369.055.56.036.182.077.365.123.547.045.173.086.355.123.547.036.182.055.374.055.574 0 .383-.206.574-.616.574-.228 0-.465-.118-.71-.355a5.912 5.912 0 0 1-.739-.93 12.848 12.848 0 0 1-.683-1.23c-.22-.456-.41-.898-.575-1.326a14.763 14.763 0 0 1-.396-1.163c-.091-.346-.137-.601-.137-.765zm12.864 3.978c-.346.237-.647.451-.902.643a6.03 6.03 0 0 1-.725.465 3.086 3.086 0 0 1-.765.287 4.276 4.276 0 0 1-.985.096c-.847 0-1.476-.224-1.886-.67-.41-.456-.616-1.13-.616-2.024 0-.346.046-.706.137-1.08a5.76 5.76 0 0 1 .397-1.107c.182-.374.396-.725.642-1.053a4.84 4.84 0 0 1 .834-.889c.31-.255.638-.455.984-.601.356-.155.73-.233 1.122-.233.656.064 1.17.228 1.545.492.373.256.656.588.847.998.192.402.324.853.397 1.354.073.492.127 1.003.164 1.531.045.529.1 1.058.164 1.586.064.529.196 1.017.396 1.463-.118.3-.232.51-.342.629-.1.128-.214.15-.341.068-.128-.082-.278-.282-.452-.601-.163-.32-.369-.77-.615-1.354zm-4.717-1.175c0 .52.096.902.288 1.148.2.237.551.355 1.052.355.374 0 .73-.063 1.067-.191.346-.137.647-.319.902-.547.255-.237.46-.52.615-.848.155-.328.233-.692.233-1.093 0-.164.004-.392.013-.684.01-.3-.009-.597-.054-.889a2.038 2.038 0 0 0-.26-.752.623.623 0 0 0-.574-.328c-.474 0-.912.123-1.313.37a3.688 3.688 0 0 0-1.039.916c-.291.373-.52.788-.683 1.244-.165.446-.247.88-.247 1.299zm7.329-2.106c0-.884.205-1.54.615-1.969.41-.428 1.039-.642 1.887-.642.346 0 .701.032 1.066.096a3.4 3.4 0 0 1 1.025.341c.31.155.56.374.752.656.2.283.301.648.301 1.094 0 .492-.11.957-.328 1.395-.21.428-.478.834-.807 1.217-.319.373-.674.724-1.066 1.052a77.13 77.13 0 0 0-1.08.916.948.948 0 0 0-.055.233c-.009.11-.014.182-.014.218 0 .301.087.602.26.903.183.31.379.62.588.93.21.319.401.647.574.984.174.337.26.688.26 1.053 0 .218-.045.346-.137.383-.09.045-.282.068-.574.068-.182-.073-.364-.246-.547-.52a7.892 7.892 0 0 1-.533-.984 18.494 18.494 0 0 1-.52-1.326 55.789 55.789 0 0 1-.478-1.477 212.88 212.88 0 0 1-.424-1.504 97.63 97.63 0 0 1-.342-1.38c-.1-.42-.19-.78-.273-1.08a39.87 39.87 0 0 1-.15-.657zm1.162.123c0 .137.009.337.027.602.018.255.055.51.11.765.063.256.154.479.273.67a.557.557 0 0 0 .492.274c.283 0 .565-.096.848-.287.291-.192.547-.433.765-.725.228-.292.41-.602.547-.93.146-.337.219-.642.219-.916 0-.228-.055-.405-.164-.533a1.056 1.056 0 0 0-.424-.314 1.5 1.5 0 0 0-.533-.15 3.878 3.878 0 0 0-.547-.042c-.52 0-.92.141-1.203.424-.273.274-.41.66-.41 1.162zm5.058-2.146v-.247a.982.982 0 0 1 .055-.245.402.402 0 0 1 .137-.178.466.466 0 0 1 .273-.069h.082c.028.01.05.014.069.014.173.237.323.542.45.916.128.365.251.757.37 1.176.118.41.246.83.383 1.258.136.419.314.797.533 1.134.219.338.488.607.806.807.32.2.716.287 1.19.26.21 0 .346-.114.41-.342a3.32 3.32 0 0 0 .096-.875c.009-.355 0-.747-.028-1.176a13.555 13.555 0 0 1 0-1.217 3.65 3.65 0 0 1 .206-1.025.984.984 0 0 1 .601-.588c.119.237.214.61.287 1.121.082.502.142 1.085.178 1.75.036.656.055 1.372.055 2.147 0 .765-.019 1.531-.055 2.297a39.61 39.61 0 0 1-.164 2.187 28.044 28.044 0 0 1-.246 1.846c-.091.529-.2.943-.328 1.244-.119.31-.246.442-.383.396a1.869 1.869 0 0 1-.451-.71 4.91 4.91 0 0 1-.219-.971 9.104 9.104 0 0 1-.041-1.135c.01-.392.023-.788.041-1.19l.082-1.175c.037-.383.055-.734.055-1.053a2.343 2.343 0 0 1-1.012-.15 3.671 3.671 0 0 1-.998-.588 6.51 6.51 0 0 1-.943-.985 7.202 7.202 0 0 1-.78-1.298 8.043 8.043 0 0 1-.711-3.336zm15.34 6.48a.869.869 0 0 1 .342-.533c.191-.146.406-.278.643-.397.246-.118.5-.227.765-.328.264-.11.506-.223.725-.341.228-.119.415-.256.56-.41a.854.854 0 0 0 .22-.588c0-.292-.078-.534-.233-.725a1.822 1.822 0 0 0-.602-.492 4.004 4.004 0 0 0-.848-.342c-.319-.091-.647-.182-.984-.274a30.28 30.28 0 0 1-.97-.314 4.025 4.025 0 0 1-.862-.438 2.194 2.194 0 0 1-.601-.628c-.146-.247-.22-.552-.22-.917 0-.3.06-.583.178-.847.128-.273.292-.529.493-.766.21-.246.446-.47.71-.67.274-.2.557-.369.848-.506.301-.136.602-.241.903-.314.3-.082.578-.123.834-.123h.15c.082.027.191.073.328.137.137.064.269.127.397.191.127.055.237.11.328.164.09.046.136.073.136.082v.315a7.622 7.622 0 0 0-.67.109c-.273.046-.56.11-.86.191-.302.082-.607.187-.917.315-.31.118-.588.26-.834.424a2.27 2.27 0 0 0-.601.574c-.155.21-.233.451-.233.724 0 .393.137.702.41.93.274.219.616.401 1.026.547.41.146.856.278 1.34.397.492.109.943.246 1.353.41.41.155.752.364 1.026.629.273.255.41.601.41 1.039 0 .237-.073.487-.22.752-.136.255-.323.51-.56.765a7.052 7.052 0 0 1-1.682 1.313c-.3.164-.596.3-.888.41-.292.1-.551.15-.78.15-.072 0-.15-.009-.232-.027a.78.78 0 0 1-.218-.082.518.518 0 0 1-.137-.191c-.028-.082-.018-.187.027-.315zm5.25-3.213c0-.492.06-.984.178-1.476.118-.493.305-.935.56-1.327a3.173 3.173 0 0 1 1.012-.957c.42-.246.925-.369 1.518-.369.337 0 .633.064.888.192.256.118.47.278.643.478.173.2.3.438.383.711.091.264.136.542.136.834 0 .465-.109.916-.328 1.354a3.82 3.82 0 0 1-.86 1.162 3.697 3.697 0 0 1-1.231.752c-.465.164-.94.2-1.422.11.009.263.096.478.26.642.173.155.378.273.615.355.237.082.483.137.738.164.255.018.483.028.684.028a3 3 0 0 0 .587-.055 11.8 11.8 0 0 0 .547-.123 11.8 11.8 0 0 1 .547-.123c.192-.037.392-.055.602-.055.082 0 .164.005.246.014.082.009.16.032.232.068a.354.354 0 0 1 .178.15.413.413 0 0 1 .068.247.574.574 0 0 1-.191.437c-.128.11-.292.205-.492.287a3.128 3.128 0 0 1-.643.192c-.237.036-.47.068-.697.095a7.403 7.403 0 0 1-.615.028c-.183.009-.32.013-.41.013a4.278 4.278 0 0 1-1.573-.273 3.444 3.444 0 0 1-1.175-.78 3.512 3.512 0 0 1-.739-1.203 4.78 4.78 0 0 1-.246-1.572zm1.45-.889c0 .32.04.552.123.698.09.146.305.219.642.219.237 0 .47-.041.697-.123a2.21 2.21 0 0 0 .615-.37c.192-.155.342-.337.452-.546.11-.21.164-.438.164-.684 0-.137-.014-.278-.041-.424a.98.98 0 0 0-.137-.396.828.828 0 0 0-.287-.301.712.712 0 0 0-.438-.123c-.273 0-.524.064-.751.191a1.764 1.764 0 0 0-.561.479c-.155.191-.273.41-.356.656a2.2 2.2 0 0 0-.123.724zm8.804 4.075c.146-.1.32-.228.52-.383.21-.164.419-.337.628-.52.21-.182.406-.373.588-.574.183-.2.324-.392.424-.574.11-.191.164-.37.164-.533 0-.164-.082-.301-.246-.41-.291 0-.61.013-.957.04-.346.019-.693.028-1.039.028a7.315 7.315 0 0 1-1.012-.096 2.61 2.61 0 0 1-.86-.3 1.66 1.66 0 0 1-.616-.616c-.146-.273-.219-.62-.219-1.039 0-.492.091-.934.273-1.326.192-.401.443-.752.752-1.053.31-.31.657-.579 1.04-.806a8.975 8.975 0 0 1 1.175-.602c.237.064.456.178.657.342.2.164.373.346.52.547a.802.802 0 0 1-.384.465c-.182.109-.396.205-.642.287l-.752.26a2.855 2.855 0 0 0-.725.369c-.21.146-.387.341-.533.588-.146.237-.219.55-.219.943 0 .291.073.506.219.643.146.136.337.232.574.287a3.7 3.7 0 0 0 .807.054c.3-.018.606-.04.916-.068.319-.027.629-.041.93-.041.3-.01.57.027.806.11.237.072.424.195.56.368.147.174.22.429.22.766 0 .146-.05.333-.15.56a4.804 4.804 0 0 1-.384.739 5.82 5.82 0 0 1-.56.765c-.21.256-.433.488-.67.698-.228.2-.46.369-.698.506a1.324 1.324 0 0 1-.642.191c-.192 0-.32-.068-.383-.205a1.097 1.097 0 0 1-.082-.41zm6.74 0c.146-.1.32-.228.52-.383.21-.164.42-.337.629-.52a7.02 7.02 0 0 0 .588-.574c.182-.2.323-.392.424-.574.109-.191.163-.37.163-.533 0-.164-.082-.301-.246-.41-.291 0-.61.013-.957.04-.346.019-.692.028-1.039.028a7.316 7.316 0 0 1-1.011-.096 2.61 2.61 0 0 1-.862-.3 1.66 1.66 0 0 1-.615-.616c-.146-.273-.219-.62-.219-1.039 0-.492.091-.934.274-1.326.191-.401.442-.752.752-1.053.31-.31.656-.579 1.039-.806a8.963 8.963 0 0 1 1.176-.602c.236.064.455.178.656.342.2.164.374.346.52.547a.802.802 0 0 1-.384.465c-.182.109-.396.205-.642.287l-.752.26a2.857 2.857 0 0 0-.725.369c-.21.146-.387.341-.533.588-.146.237-.219.55-.219.943 0 .291.073.506.22.643.145.136.336.232.573.287a3.7 3.7 0 0 0 .807.054c.3-.018.606-.04.916-.068.32-.027.629-.041.93-.041.3-.01.57.027.806.11.237.072.424.195.56.368.147.174.22.429.22.766 0 .146-.05.333-.15.56a4.803 4.803 0 0 1-.383.739 5.83 5.83 0 0 1-.561.765c-.21.256-.433.488-.67.698-.228.2-.46.369-.697.506a1.324 1.324 0 0 1-.643.191c-.191 0-.319-.068-.383-.205a1.097 1.097 0 0 1-.082-.41zm4.69-4.512v-.26c.009-.127.013-.26.013-.396.01-.137.014-.27.014-.397.01-.127.014-.218.014-.273.1-.146.228-.264.383-.356.164-.09.328-.164.492-.218.027.492.105 1.016.232 1.572.128.556.264 1.117.41 1.682.146.556.274 1.107.383 1.654.119.547.178 1.057.178 1.531 0 .41-.21.615-.629.615a.802.802 0 0 1-.643-.314 2.514 2.514 0 0 1-.423-.793 8.215 8.215 0 0 1-.246-1.08c-.064-.401-.11-.793-.137-1.176a55.893 55.893 0 0 1-.041-1.053v-.738zm.191-5.127c.173.073.32.191.438.356.118.164.168.314.15.45-.009.128-.11.22-.3.274-.192.046-.511-.009-.958-.164 0-.246.046-.46.137-.643.1-.182.278-.273.533-.273zm2.461 7.479c0-.566.132-1.09.397-1.573.264-.492.61-.911 1.039-1.257a5.167 5.167 0 0 1 1.463-.835c.546-.2 1.098-.3 1.654-.3.31 0 .583.1.82.3.246.201.451.447.615.739.165.282.287.583.37.902.09.32.136.597.136.834 0 .51-.123 1.007-.369 1.49a4.81 4.81 0 0 1-.957 1.272c-.392.364-.834.66-1.326.889a3.488 3.488 0 0 1-1.477.341c-.437 0-.806-.073-1.107-.218a2.055 2.055 0 0 1-.725-.602 2.745 2.745 0 0 1-.41-.889 4.73 4.73 0 0 1-.123-1.093zm1.162.136c0 .237.019.447.055.63.046.172.118.323.219.45.109.128.25.228.424.301.173.064.387.096.642.096.337 0 .675-.091 1.012-.274.337-.191.638-.428.902-.71.274-.292.492-.611.656-.957.164-.347.246-.684.246-1.012a3.09 3.09 0 0 0-.04-.479 1.95 1.95 0 0 0-.137-.478 1.005 1.005 0 0 0-.274-.37.674.674 0 0 0-.45-.15c-.165 0-.36.055-.589.164a5.49 5.49 0 0 0-.697.424c-.237.173-.474.37-.711.588-.228.219-.438.438-.629.656a4.265 4.265 0 0 0-.465.63c-.11.2-.164.364-.164.491zm5.866-1.968c0-.237.059-.406.177-.506.119-.11.31-.164.574-.164h.137l.096.505a3.745 3.745 0 0 0 .424 1.149c.1.164.223.296.369.396a2.16 2.16 0 0 1 .232-.916c.155-.3.342-.565.561-.792a3.44 3.44 0 0 1 .738-.588c.274-.165.542-.274.807-.329h.3c.438 0 .812.1 1.122.301.309.192.565.447.765.766.21.31.369.665.479 1.066.109.401.191.811.246 1.23.064.41.1.812.109 1.204.018.383.028.71.028.984h-.999a24.89 24.89 0 0 0-.205-1.572c-.027-.2-.063-.41-.109-.629a8.577 8.577 0 0 0-.15-.629 5.545 5.545 0 0 0-.178-.547 1.966 1.966 0 0 0-.219-.437 26.97 26.97 0 0 0-.15-.15 3.456 3.456 0 0 0-.356-.356.36.36 0 0 0-.095-.069.719.719 0 0 0-.711.165c-.201.173-.379.41-.534.71-.154.301-.282.643-.382 1.026-.092.383-.169.752-.233 1.107-.064.347-.109.652-.137.916-.027.256-.045.41-.054.465-.228.164-.442.214-.643.15-.2-.072-.392-.218-.574-.437a3.832 3.832 0 0 1-.479-.82 13.988 13.988 0 0 1-.382-1.04 25.9 25.9 0 0 1-.328-1.12c-.092-.374-.174-.72-.246-1.04z"/><path id="i" d="M0 0h30v308H0V0z"/><path id="k" d="M0-1a1 1 0 1 0 0 2v-2zm328 2a1 1 0 0 0 0-2v2zM5.125 1a1 1 0 0 0 0-2v2zm10.25-2a1 1 0 1 0 0 2v-2zm10.25 2a1 1 0 1 0 0-2v2zm10.25-2a1 1 0 1 0 0 2v-2zm10.25 2a1 1 0 1 0 0-2v2zm10.25-2a1 1 0 1 0 0 2v-2zm10.25 2a1 1 0 1 0 0-2v2zm10.25-2a1 1 0 1 0 0 2v-2zm10.25 2a1 1 0 1 0 0-2v2zm10.25-2a1 1 0 1 0 0 2v-2zm10.25 2a1 1 0 0 0 0-2v2zm10.25-2a1 1 0 0 0 0 2v-2zm10.25 2a1 1 0 0 0 0-2v2zm10.25-2a1 1 0 0 0 0 2v-2zm10.25 2a1 1 0 0 0 0-2v2zm10.25-2a1 1 0 0 0 0 2v-2zm10.25 2a1 1 0 0 0 0-2v2zm10.25-2a1 1 0 0 0 0 2v-2zm10.25 2a1 1 0 0 0 0-2v2zm10.25-2a1 1 0 0 0 0 2v-2zm10.25 2a1 1 0 0 0 0-2v2zm10.25-2a1 1 0 0 0 0 2v-2zm10.25 2a1 1 0 0 0 0-2v2zm10.25-2a1 1 0 0 0 0 2v-2zm10.25 2a1 1 0 0 0 0-2v2zm10.25-2a1 1 0 0 0 0 2v-2zm10.25 2a1 1 0 0 0 0-2v2zm10.25-2a1 1 0 0 0 0 2v-2zm10.25 2a1 1 0 0 0 0-2v2zm10.25-2a1 1 0 0 0 0 2v-2zm10.25 2a1 1 0 0 0 0-2v2zm10.25-2a1 1 0 0 0 0 2v-2zM0 1h5.125v-2H0v2zm15.375 0h10.25v-2h-10.25v2zm20.5 0h10.25v-2h-10.25v2zm20.5 0h10.25v-2h-10.25v2zm20.5 0h10.25v-2h-10.25v2zm20.5 0h10.25v-2h-10.25v2zm20.5 0h10.25v-2h-10.25v2zm20.5 0h10.25v-2h-10.25v2zm20.5 0h10.25v-2h-10.25v2zm20.5 0h10.25v-2h-10.25v2zm20.5 0h10.25v-2h-10.25v2zm20.5 0h10.25v-2h-10.25v2zm20.5 0h10.25v-2h-10.25v2zm20.5 0h10.25v-2h-10.25v2zm20.5 0h10.25v-2h-10.25v2zm20.5 0h10.25v-2h-10.25v2zm20.5 0H328v-2h-5.125v2zM0-2a2 2 0 1 0 0 4v-4zm328 4a2 2 0 1 0 0-4v4zM5.125 2a2 2 0 1 0 0-4v4zm10.25-4a2 2 0 1 0 0 4v-4zm10.25 4a2 2 0 1 0 0-4v4zm10.25-4a2 2 0 1 0 0 4v-4zm10.25 4a2 2 0 1 0 0-4v4zm10.25-4a2 2 0 1 0 0 4v-4zm10.25 4a2 2 0 1 0 0-4v4zm10.25-4a2 2 0 1 0 0 4v-4zm10.25 4a2 2 0 1 0 0-4v4zm10.25-4a2 2 0 1 0 0 4v-4zm10.25 4a2 2 0 1 0 0-4v4zm10.25-4a2 2 0 1 0 0 4v-4zm10.25 4a2 2 0 1 0 0-4v4zm10.25-4a2 2 0 1 0 0 4v-4zm10.25 4a2 2 0 1 0 0-4v4zm10.25-4a2 2 0 1 0 0 4v-4zm10.25 4a2 2 0 1 0 0-4v4zm10.25-4a2 2 0 1 0 0 4v-4zm10.25 4a2 2 0 1 0 0-4v4zm10.25-4a2 2 0 1 0 0 4v-4zm10.25 4a2 2 0 1 0 0-4v4zm10.25-4a2 2 0 1 0 0 4v-4zm10.25 4a2 2 0 1 0 0-4v4zm10.25-4a2 2 0 1 0 0 4v-4zm10.25 4a2 2 0 1 0 0-4v4zm10.25-4a2 2 0 1 0 0 4v-4zm10.25 4a2 2 0 1 0 0-4v4zm10.25-4a2 2 0 1 0 0 4v-4zm10.25 4a2 2 0 1 0 0-4v4zm10.25-4a2 2 0 1 0 0 4v-4zm10.25 4a2 2 0 1 0 0-4v4zm10.25-4a2 2 0 1 0 0 4v-4zM0 2h5.125v-4H0v4zm15.375 0h10.25v-4h-10.25v4zm20.5 0h10.25v-4h-10.25v4zm20.5 0h10.25v-4h-10.25v4zm20.5 0h10.25v-4h-10.25v4zm20.5 0h10.25v-4h-10.25v4zm20.5 0h10.25v-4h-10.25v4zm20.5 0h10.25v-4h-10.25v4zm20.5 0h10.25v-4h-10.25v4zm20.5 0h10.25v-4h-10.25v4zm20.5 0h10.25v-4h-10.25v4zm20.5 0h10.25v-4h-10.25v4zm20.5 0h10.25v-4h-10.25v4zm20.5 0h10.25v-4h-10.25v4zm20.5 0h10.25v-4h-10.25v4zm20.5 0h10.25v-4h-10.25v4zm20.5 0H328v-4h-5.125v4z"/></defs></svg>