<svg width="700" height="400" viewBox="0 0 700 400" xmlns="http://www.w3.org/2000/svg" xmlns:xlink="http://www.w3.org/1999/xlink"><title>Ten</title><desc>Created using Figma</desc><g transform="translate(-6331 282)"><clipPath id="a" clip-rule="evenodd"><path d="M6331-282h700v400h-700v-400z" fill="#FFF"/></clipPath><g clip-path="url(#a)"><path d="M6331-282h700v400h-700v-400z" fill="#FFF"/><use xlink:href="#b" transform="matrix(0 1 1 0 6408 -231)" fill="#C4C4C4"/><use xlink:href="#c" transform="matrix(1 0 0 1 6384 -82)" fill="#C4C4C4"/><use xlink:href="#d" transform="translate(6372 -255)"/><use xlink:href="#e" transform="translate(6375 68)"/><use xlink:href="#f" transform="translate(6954 -73)"/><use xlink:href="#g" transform="translate(6385 -89)"/><mask id="i"><use xlink:href="#h" transform="translate(6847 -235)" fill="#C4C4C4"/></mask><g mask="url(#i)"><use xlink:href="#j" transform="matrix(0 1 1 0 6860 -245)" fill="#56CCF2"/></g><g><use xlink:href="#k" transform="translate(6795 72)" fill="#56CCF2"/></g></g></g><defs><path id="b" d="M-1.06-1.06a1.5 1.5 0 0 0 0 2.12l9.545 9.547a1.5 1.5 0 1 0 2.122-2.122L2.12 0l8.486-8.485a1.5 1.5 0 1 0-2.122-2.122L-1.06-1.06zM300.06 1.06a1.501 1.501 0 0 0 0-2.12l-9.546-9.547a1.5 1.5 0 0 0-2.122 2.122L296.879 0l-8.486 8.485a1.501 1.501 0 0 0 2.122 2.122l9.546-9.546zM0 1.5h299v-3H0v3z"/><path id="c" d="M-1.06-1.06a1.5 1.5 0 0 0 0 2.12l9.545 9.547a1.5 1.5 0 1 0 2.122-2.122L2.12 0l8.486-8.485a1.5 1.5 0 1 0-2.122-2.122L-1.06-1.06zM595.06 1.06a1.501 1.501 0 0 0 0-2.12l-9.546-9.547a1.5 1.5 0 0 0-2.122 2.122L591.879 0l-8.486 8.485a1.501 1.501 0 0 0 2.122 2.122l9.546-9.546zM0 1.5h594v-3H0v3z"/><path id="d" d="M.229 15.146c0-.455.063-.92.19-1.394.138-.474.32-.934.548-1.38.237-.447.515-.871.834-1.272a6.11 6.11 0 0 1 1.08-1.04 4.97 4.97 0 0 1 1.271-.697c.456-.173.925-.26 1.409-.26.21 0 .478.023.806.069.337.045.661.123.97.232.32.11.589.256.808.438.227.173.341.383.341.629a.121.121 0 0 1-.013.054v.041a.121.121 0 0 0-.014.055 2.031 2.031 0 0 1-.137.164 1.32 1.32 0 0 1-.15.137.152.152 0 0 1-.068.013.256.256 0 0 1-.165 0 .121.121 0 0 1-.054-.013 5.01 5.01 0 0 0-.328-.164 30.894 30.894 0 0 0-1.121-.56 4.974 4.974 0 0 0-.329-.165.45.45 0 0 1-.109-.013h-.082a.225.225 0 0 0-.068-.014c-.429 0-.839.077-1.23.232-.393.155-.753.37-1.08.643a5.471 5.471 0 0 0-.89.943 6.82 6.82 0 0 0-.683 1.135 6.416 6.416 0 0 0-.424 1.217c-.091.41-.137.811-.137 1.203 0 .51.082.966.246 1.367.164.401.392.738.684 1.012.292.264.638.465 1.039.601.41.137.852.205 1.326.205.274 0 .61-.036 1.012-.109a4.94 4.94 0 0 0 1.148-.355c.374-.165.689-.374.944-.63.255-.264.383-.587.383-.97a.745.745 0 0 0-.069-.355.391.391 0 0 0-.191-.192.612.612 0 0 0-.301-.068 4.823 4.823 0 0 0-.37-.014c-.2 0-.373.032-.519.096a4.9 4.9 0 0 0-.437.219 3.714 3.714 0 0 1-.424.218c-.137.064-.3.096-.492.096-.237 0-.424-.037-.56-.11-.137-.072-.206-.24-.206-.505 0-.255.091-.46.274-.615a1.92 1.92 0 0 1 .67-.37c.264-.082.537-.136.82-.164.282-.027.515-.04.697-.04.328 0 .634.027.916.081.283.046.524.137.725.274.21.127.369.31.478.547.11.227.164.524.164.888 0 .565-.155 1.058-.465 1.477-.31.41-.701.747-1.175 1.012-.465.264-.971.464-1.518.601a6.537 6.537 0 0 1-1.504.192 4.75 4.75 0 0 1-1.818-.342 4.108 4.108 0 0 1-1.408-.957 4.534 4.534 0 0 1-.916-1.477 5.14 5.14 0 0 1-.328-1.846zm9.953 2.079c0-.566.132-1.09.396-1.573.264-.492.61-.911 1.04-1.257a5.167 5.167 0 0 1 1.462-.835c.547-.2 1.098-.3 1.654-.3.31 0 .584.1.82.3.247.201.452.447.616.739.164.282.287.583.37.902.09.32.136.597.136.834 0 .51-.123 1.007-.37 1.49a4.81 4.81 0 0 1-.956 1.272c-.392.364-.834.66-1.327.889a3.488 3.488 0 0 1-1.476.341c-.438 0-.807-.073-1.107-.218a2.054 2.054 0 0 1-.725-.602 2.747 2.747 0 0 1-.41-.889 4.735 4.735 0 0 1-.123-1.093zm1.162.136c0 .237.018.447.054.63.046.172.119.323.22.45.109.128.25.228.423.301.173.064.387.096.643.096.337 0 .674-.091 1.011-.274.338-.191.638-.428.903-.71a3.73 3.73 0 0 0 .656-.957c.164-.347.246-.684.246-1.012a3.09 3.09 0 0 0-.041-.479 1.95 1.95 0 0 0-.137-.478 1.004 1.004 0 0 0-.273-.37.674.674 0 0 0-.451-.15c-.164 0-.36.055-.588.164-.219.11-.451.25-.697.424a8.06 8.06 0 0 0-.711.588 10.45 10.45 0 0 0-.63.656 4.259 4.259 0 0 0-.464.63c-.11.2-.164.364-.164.491zm5.865-.136c0-.566.132-1.09.396-1.573.265-.492.611-.911 1.04-1.257a5.168 5.168 0 0 1 1.462-.835c.547-.2 1.099-.3 1.655-.3.31 0 .583.1.82.3.246.201.451.447.615.739.164.282.287.583.37.902.09.32.136.597.136.834 0 .51-.123 1.007-.369 1.49a4.81 4.81 0 0 1-.957 1.272c-.392.364-.834.66-1.326.889a3.488 3.488 0 0 1-1.477.341c-.437 0-.806-.073-1.107-.218a2.054 2.054 0 0 1-.725-.602 2.747 2.747 0 0 1-.41-.889 4.735 4.735 0 0 1-.123-1.093zm1.162.136c0 .237.018.447.055.63.045.172.118.323.219.45.109.128.25.228.423.301.173.064.388.096.643.096.337 0 .674-.091 1.012-.274.337-.191.638-.428.902-.71.273-.292.492-.611.656-.957.164-.347.246-.684.246-1.012 0-.146-.013-.306-.04-.479a1.946 1.946 0 0 0-.137-.478 1.003 1.003 0 0 0-.274-.37.674.674 0 0 0-.451-.15c-.164 0-.36.055-.588.164a5.49 5.49 0 0 0-.697.424 8.09 8.09 0 0 0-.711.588 10.45 10.45 0 0 0-.629.656 4.258 4.258 0 0 0-.465.63c-.11.2-.164.364-.164.491zm5.565 1.026c0-.529.132-.998.396-1.409.264-.41.592-.765.984-1.066a6.26 6.26 0 0 1 1.272-.78c.456-.218.88-.396 1.271-.532.392-.146.72-.26.985-.342.264-.091.396-.164.396-.219 0-.319-.018-.629-.054-.93-.028-.31-.06-.62-.096-.93l-.11-.915c-.027-.31-.04-.616-.04-.916v-.889c.373-.137.637-.123.792.041.165.164.192.447.082.848.037.2.087.515.15.943.065.428.133.912.206 1.45.082.537.164 1.102.246 1.694.091.593.173 1.163.246 1.71.082.537.15 1.02.205 1.449l.123.943c.01.046.019.137.028.274.009.127.013.268.013.423.01.146.014.283.014.41.009.128.014.22.014.274-.347 0-.584-.014-.711-.041-.119-.027-.196-.082-.233-.164a1.184 1.184 0 0 1-.04-.356c0-.154-.046-.369-.137-.642a8.213 8.213 0 0 1-.957.656c-.301.173-.602.315-.903.424-.3.1-.606.168-.916.205-.3.046-.624.068-.97.068-.292 0-.575-.022-.848-.068a2.22 2.22 0 0 1-.711-.273c-.21-.128-.378-.301-.506-.52-.128-.219-.191-.492-.191-.82zm1.189-.287c0 .145.032.264.096.355a.859.859 0 0 0 .246.233c.1.063.205.109.314.136.119.018.233.028.342.028.32 0 .66-.06 1.025-.178a4.02 4.02 0 0 0 1.026-.52c.319-.228.579-.496.78-.806.209-.31.314-.647.314-1.012 0-.283-.05-.479-.15-.588-.101-.11-.292-.164-.575-.164-.292 0-.633.068-1.025.205a5.787 5.787 0 0 0-1.122.547 3.667 3.667 0 0 0-.902.807c-.246.3-.369.62-.369.957zm18.607 3.171a20.83 20.83 0 0 1-.642-1.326l-.711-1.668a32.482 32.482 0 0 0-.78-1.709 11.608 11.608 0 0 0-.806-1.449.881.881 0 0 0-.451-.15 4.343 4.343 0 0 0-.602-.014c-.21 0-.419-.005-.629-.014a1.4 1.4 0 0 1-.533-.15.76.76 0 0 1-.328-.383c-.073-.173-.087-.424-.041-.752h2.297c.045-.51.123-1.016.232-1.517.11-.502.255-.98.438-1.436.191-.456.42-.88.683-1.271a4.21 4.21 0 0 1 .957-1.012 4.526 4.526 0 0 1 1.286-.67 5.26 5.26 0 0 1 1.668-.246c.218 0 .437.055.656.164.218.1.414.237.588.41.173.173.31.37.41.588.11.219.164.438.164.656-.173 0-.328-.032-.465-.095a5.646 5.646 0 0 1-.396-.233 3.055 3.055 0 0 0-.41-.246.986.986 0 0 0-.493-.123 3.61 3.61 0 0 0-1.531.328c-.465.219-.875.51-1.23.875a4.12 4.12 0 0 0-.82 1.272c-.201.483-.302.993-.302 1.53v.206c.01.091.014.191.014.3v.315c.01.1.014.169.014.205.337.11.715.192 1.134.246.42.055.84.091 1.258.11.429.009.839.004 1.23-.014.402-.018.757-.041 1.067-.068l.15.15a.458.458 0 0 1 .124.164c0 .027.004.046.013.055l.028.082c0 .191-.1.342-.301.451-.2.11-.456.191-.766.246-.31.046-.656.078-1.039.096-.373.018-.738.036-1.094.055-.346.009-.66.027-.943.054-.273.018-.465.06-.574.123.118.547.328 1.076.629 1.586.31.51.624 1.021.943 1.531.32.51.602 1.026.848 1.545.246.52.369 1.053.369 1.6h-.26c-.127.01-.264.005-.41-.014a1.407 1.407 0 0 1-.424-.123c-.127-.054-.2-.141-.219-.26zM47.82 16.2c0-.492.06-.984.178-1.476.119-.493.305-.935.56-1.327a3.174 3.174 0 0 1 1.012-.957c.42-.246.925-.369 1.518-.369.337 0 .633.064.889.192.255.118.469.278.642.478.173.2.3.438.383.711.091.264.137.542.137.834 0 .465-.11.916-.329 1.354a3.82 3.82 0 0 1-.86 1.162 3.697 3.697 0 0 1-1.231.752c-.465.164-.94.2-1.422.11.009.263.096.478.26.642.173.155.378.273.615.355.237.082.483.137.738.164.255.018.483.028.684.028a3 3 0 0 0 .588-.055 11.8 11.8 0 0 0 .546-.123 11.8 11.8 0 0 1 .547-.123c.192-.037.392-.055.602-.055.082 0 .164.005.246.014.082.009.16.032.233.068a.355.355 0 0 1 .177.15.413.413 0 0 1 .069.247.574.574 0 0 1-.192.437c-.127.11-.291.205-.492.287a3.127 3.127 0 0 1-.643.192c-.237.036-.469.068-.697.095a7.401 7.401 0 0 1-.615.028c-.182.009-.32.013-.41.013a4.277 4.277 0 0 1-1.572-.273 3.444 3.444 0 0 1-1.176-.78 3.512 3.512 0 0 1-.739-1.203 4.78 4.78 0 0 1-.246-1.572zm1.45-.889c0 .32.04.552.123.698.09.146.305.219.642.219.237 0 .47-.041.697-.123a2.21 2.21 0 0 0 .616-.37c.191-.155.342-.337.45-.546.11-.21.165-.438.165-.684 0-.137-.014-.278-.041-.424a.98.98 0 0 0-.137-.396.829.829 0 0 0-.287-.301.712.712 0 0 0-.438-.123c-.273 0-.524.064-.751.191a1.764 1.764 0 0 0-.561.479c-.155.191-.273.41-.355.656a2.2 2.2 0 0 0-.123.724zm6.18.89c0-.493.058-.985.177-1.477.118-.493.305-.935.56-1.327a3.174 3.174 0 0 1 1.012-.957c.42-.246.925-.369 1.518-.369.337 0 .633.064.889.192.255.118.469.278.642.478.173.2.3.438.383.711.091.264.137.542.137.834 0 .465-.11.916-.328 1.354-.21.437-.497.825-.862 1.162a3.697 3.697 0 0 1-1.23.752c-.465.164-.94.2-1.422.11.009.263.096.478.26.642.173.155.378.273.615.355.237.082.483.137.738.164.255.018.483.028.684.028a3 3 0 0 0 .587-.055 11.8 11.8 0 0 0 .547-.123 11.8 11.8 0 0 1 .547-.123c.192-.037.392-.055.602-.055.082 0 .164.005.246.014.082.009.16.032.232.068a.355.355 0 0 1 .178.15.413.413 0 0 1 .069.247.574.574 0 0 1-.192.437c-.128.11-.292.205-.492.287a3.127 3.127 0 0 1-.643.192c-.237.036-.47.068-.697.095a7.401 7.401 0 0 1-.615.028c-.182.009-.32.013-.41.013a4.277 4.277 0 0 1-1.573-.273 3.444 3.444 0 0 1-1.175-.78 3.512 3.512 0 0 1-.739-1.203 4.78 4.78 0 0 1-.246-1.572zm1.448-.89c0 .32.041.552.123.698.092.146.306.219.643.219.237 0 .47-.041.697-.123a2.21 2.21 0 0 0 .616-.37c.191-.155.341-.337.45-.546.11-.21.165-.438.165-.684 0-.137-.014-.278-.041-.424a.978.978 0 0 0-.137-.396.83.83 0 0 0-.287-.301.712.712 0 0 0-.438-.123c-.273 0-.524.064-.752.191a1.764 1.764 0 0 0-.56.479c-.155.191-.274.41-.355.656a2.202 2.202 0 0 0-.124.724zm6.508-3.048c0-.265-.018-.52-.054-.766a2.873 2.873 0 0 1-.028-.67c.018-.2.087-.36.205-.478.128-.119.356-.178.684-.178.1.21.196.529.287.957.1.428.196.92.287 1.476.091.556.178 1.163.26 1.819.082.647.155 1.299.219 1.955.072.656.132 1.303.177 1.941.055.63.096 1.203.123 1.723-.3.2-.542.214-.724.041-.183-.173-.333-.465-.451-.875a9.333 9.333 0 0 1-.274-1.518c-.064-.601-.127-1.22-.191-1.859a40.486 40.486 0 0 0-.205-1.9 13.319 13.319 0 0 0-.315-1.668zm5.496 7.123c.146-.1.32-.228.52-.383.21-.164.42-.337.629-.52a7.02 7.02 0 0 0 .588-.574c.182-.2.323-.392.424-.574.109-.191.164-.37.164-.533 0-.164-.083-.301-.246-.41-.292 0-.611.013-.958.04-.346.019-.692.028-1.039.028a7.313 7.313 0 0 1-1.011-.096 2.61 2.61 0 0 1-.862-.3 1.66 1.66 0 0 1-.615-.616c-.146-.273-.219-.62-.219-1.039 0-.492.091-.934.274-1.326.191-.401.442-.752.752-1.053.31-.31.656-.579 1.039-.806a8.969 8.969 0 0 1 1.176-.602c.237.064.455.178.656.342.2.164.373.346.52.547a.802.802 0 0 1-.383.465c-.183.109-.397.205-.643.287l-.752.26a2.858 2.858 0 0 0-.725.369c-.21.146-.387.341-.533.588-.146.237-.219.55-.219.943 0 .291.073.506.22.643.145.136.336.232.573.287a3.7 3.7 0 0 0 .807.054c.3-.018.606-.04.916-.068.32-.027.629-.041.93-.041.3-.01.57.027.806.11.237.072.424.195.561.368.146.174.219.429.219.766 0 .146-.05.333-.15.56a4.794 4.794 0 0 1-.383.739c-.155.255-.342.51-.561.765-.21.256-.433.488-.67.698-.228.2-.46.369-.697.506a1.324 1.324 0 0 1-.643.191c-.191 0-.319-.068-.383-.205a1.097 1.097 0 0 1-.082-.41z"/><path id="e" d="M.728 9.8c.109-.555.31-.993.601-1.312a2.23 2.23 0 0 1 .998-.67 2.714 2.714 0 0 1 1.217-.082c.437.055.848.187 1.23.397.392.21.734.483 1.026.82.291.328.497.707.615 1.135.119.42.119.875 0 1.367-.118.492-.387.998-.807 1.518.329.118.634.237.916.355.283.119.52.264.711.438.2.173.356.382.465.629.11.246.164.551.164.915 0 .301-.054.62-.164.958-.11.337-.264.67-.465.998a6.035 6.035 0 0 1-1.517 1.722c-.301.228-.61.41-.93.547-.31.128-.615.192-.916.192-.2 0-.396-.128-.588-.383a5.075 5.075 0 0 1-.56-1.012 15.06 15.06 0 0 1-.534-1.45 28.576 28.576 0 0 1-.478-1.695 47.398 47.398 0 0 1-.397-1.75 95.458 95.458 0 0 1-.314-1.613c-.082-.492-.15-.916-.205-1.271A7.275 7.275 0 0 1 .728 9.8zm2.433 5.92c0 .156.037.36.11.616.072.255.164.51.273.766.118.255.246.492.383.71.136.21.282.351.437.424.128.073.278.069.451-.013.174-.091.347-.228.52-.41.182-.192.355-.406.52-.643a9.01 9.01 0 0 0 .437-.725c.137-.237.242-.455.314-.656.082-.21.123-.37.123-.479a1.45 1.45 0 0 0-.095-.574.83.83 0 0 0-.287-.369 1.065 1.065 0 0 0-.438-.191 2.523 2.523 0 0 0-.547-.055c-.228 0-.47.037-.724.11a2.77 2.77 0 0 0-.711.314c-.21.137-.392.305-.547.506-.146.2-.219.424-.219.67zm-.875-4.648c0 .164-.004.37-.014.616-.009.236-.009.483 0 .738.01.255.037.51.082.765.046.256.128.474.247.657a2.942 2.942 0 0 0 1.162-.465 2.91 2.91 0 0 0 .806-.793c.21-.31.36-.638.452-.985.09-.346.123-.683.095-1.011a2.277 2.277 0 0 0-.232-.903 1.423 1.423 0 0 0-.547-.629c-.237-.154-.524-.232-.861-.232-.338 0-.725.11-1.163.328 0 .073-.004.2-.013.383 0 .182-.005.374-.014.574v.957zm12.332 7.164c-.346.237-.647.451-.902.643a6.021 6.021 0 0 1-.725.465 3.086 3.086 0 0 1-.765.287 4.277 4.277 0 0 1-.985.096c-.847 0-1.476-.224-1.887-.67-.41-.456-.615-1.13-.615-2.024 0-.346.046-.706.137-1.08.091-.374.223-.743.396-1.107.183-.374.397-.725.643-1.053.246-.337.524-.633.834-.889a3.97 3.97 0 0 1 .984-.601c.356-.155.73-.233 1.121-.233.657.064 1.172.228 1.545.492.374.256.657.588.848.998.191.402.324.853.397 1.354.072.492.127 1.003.164 1.531.045.529.1 1.058.164 1.586.063.529.196 1.017.396 1.463-.118.3-.232.51-.342.629-.1.128-.214.15-.341.068-.128-.082-.278-.282-.452-.601a20.8 20.8 0 0 1-.615-1.354zm-4.717-1.175c0 .52.096.902.287 1.148.201.237.552.355 1.053.355.374 0 .73-.063 1.067-.191.346-.137.647-.319.902-.547.255-.237.46-.52.615-.848a2.53 2.53 0 0 0 .233-1.093c0-.164.004-.392.013-.684.01-.3-.009-.597-.054-.889a2.038 2.038 0 0 0-.26-.752.623.623 0 0 0-.574-.328c-.474 0-.912.123-1.313.37a3.688 3.688 0 0 0-1.039.916c-.292.373-.52.788-.683 1.244-.165.446-.247.88-.247 1.299zm7.028 1.326c0-.529.132-.998.396-1.409.265-.41.593-.765.985-1.066.392-.31.815-.57 1.271-.78.456-.218.88-.396 1.271-.532.392-.146.72-.26.985-.342.264-.091.396-.164.396-.219 0-.319-.018-.629-.054-.93-.028-.31-.06-.62-.096-.93-.036-.31-.073-.614-.11-.915-.027-.31-.04-.616-.04-.916v-.889c.373-.137.638-.123.793.041.164.164.191.447.082.848.036.2.086.515.15.943.064.428.132.912.205 1.45.082.537.164 1.102.246 1.694.091.593.173 1.163.246 1.71.082.537.15 1.02.205 1.449l.123.943c.01.046.019.137.028.274.009.127.013.268.013.423.01.146.014.283.014.41.01.128.014.22.014.274-.347 0-.584-.014-.711-.041-.119-.027-.196-.082-.233-.164a1.184 1.184 0 0 1-.04-.356c0-.154-.046-.369-.137-.642a8.213 8.213 0 0 1-.957.656 5.74 5.74 0 0 1-.903.424c-.3.1-.606.168-.916.205-.3.046-.624.068-.97.068-.292 0-.575-.022-.848-.068a2.22 2.22 0 0 1-.711-.273c-.21-.128-.378-.301-.506-.52-.128-.219-.191-.492-.191-.82zm1.19-.287c0 .145.031.264.095.355a.859.859 0 0 0 .246.233c.1.063.205.109.314.136.119.018.233.028.342.028.32 0 .661-.06 1.026-.178a4.02 4.02 0 0 0 1.025-.52c.319-.228.579-.496.78-.806.209-.31.314-.647.314-1.012 0-.283-.05-.479-.15-.588-.1-.11-.292-.164-.575-.164-.292 0-.633.068-1.025.205a5.787 5.787 0 0 0-1.121.547 3.669 3.669 0 0 0-.903.807c-.246.3-.369.62-.369.957zm18.607 3.171a20.83 20.83 0 0 1-.643-1.326l-.71-1.668a32.482 32.482 0 0 0-.78-1.709 11.595 11.595 0 0 0-.807-1.449.88.88 0 0 0-.451-.15 4.344 4.344 0 0 0-.602-.014c-.21 0-.419-.005-.628-.014a1.399 1.399 0 0 1-.534-.15.76.76 0 0 1-.328-.383c-.073-.173-.086-.424-.04-.752h2.296c.046-.51.123-1.016.232-1.517.11-.502.256-.98.438-1.436.191-.456.42-.88.684-1.271.264-.392.583-.73.957-1.012a4.527 4.527 0 0 1 1.285-.67 5.26 5.26 0 0 1 1.668-.246c.218 0 .437.055.656.164.219.1.415.237.588.41s.31.37.41.588c.11.219.164.438.164.656-.173 0-.328-.032-.465-.095a5.649 5.649 0 0 1-.396-.233 3.054 3.054 0 0 0-.41-.246.987.987 0 0 0-.493-.123 3.61 3.61 0 0 0-1.53.328c-.466.219-.876.51-1.231.875a4.12 4.12 0 0 0-.82 1.272c-.201.483-.301.993-.301 1.53v.206c.009.091.013.191.013.3v.315c.01.1.014.169.014.205.337.11.715.192 1.135.246.419.055.838.091 1.258.11.428.009.838.004 1.23-.014.401-.018.757-.041 1.066-.068l.15.15a.458.458 0 0 1 .124.164c0 .027.004.046.014.055l.027.082c0 .191-.1.342-.301.451-.2.11-.456.191-.766.246-.31.046-.656.078-1.039.096-.373.018-.738.036-1.093.055-.347.009-.661.027-.944.054-.273.018-.465.06-.574.123.118.547.328 1.076.629 1.586.31.51.624 1.021.943 1.531.32.51.602 1.026.848 1.545.246.52.37 1.053.37 1.6h-.26c-.128.01-.265.005-.41-.014a1.408 1.408 0 0 1-.425-.123c-.127-.054-.2-.141-.218-.26zm4.087-5.072c0-.492.06-.984.178-1.476.119-.493.306-.935.56-1.327a3.173 3.173 0 0 1 1.012-.957c.42-.246.926-.369 1.518-.369.337 0 .633.064.889.192.255.118.47.278.642.478.173.2.301.438.383.711.091.264.137.542.137.834 0 .465-.11.916-.328 1.354a3.82 3.82 0 0 1-.862 1.162 3.697 3.697 0 0 1-1.23.752c-.465.164-.939.2-1.422.11.01.263.096.478.26.642.173.155.378.273.615.355.237.082.483.137.738.164.255.018.483.028.684.028.21 0 .405-.019.588-.055a11.8 11.8 0 0 0 .547-.123 11.8 11.8 0 0 1 .547-.123c.191-.037.392-.055.601-.055.082 0 .164.005.246.014.082.009.16.032.233.068a.355.355 0 0 1 .177.15.414.414 0 0 1 .069.247.574.574 0 0 1-.192.437c-.127.11-.291.205-.492.287a3.128 3.128 0 0 1-.642.192c-.237.036-.47.068-.698.095a7.403 7.403 0 0 1-.615.028c-.182.009-.319.013-.41.013a4.278 4.278 0 0 1-1.572-.273 3.444 3.444 0 0 1-1.176-.78 3.509 3.509 0 0 1-.738-1.203 4.78 4.78 0 0 1-.247-1.572zm1.45-.889c0 .32.04.552.123.698.09.146.305.219.642.219.237 0 .47-.041.698-.123a2.21 2.21 0 0 0 .615-.37c.191-.155.342-.337.451-.546.11-.21.164-.438.164-.684 0-.137-.014-.278-.041-.424a.978.978 0 0 0-.137-.396.828.828 0 0 0-.287-.301.712.712 0 0 0-.437-.123c-.274 0-.524.064-.752.191a1.764 1.764 0 0 0-.56.479c-.156.191-.274.41-.356.656a2.202 2.202 0 0 0-.123.724zm6.18.89c0-.493.059-.985.177-1.477.119-.493.306-.935.56-1.327a3.173 3.173 0 0 1 1.012-.957c.42-.246.925-.369 1.518-.369.337 0 .633.064.889.192.255.118.469.278.642.478.173.2.301.438.383.711.091.264.137.542.137.834 0 .465-.11.916-.328 1.354a3.82 3.82 0 0 1-.862 1.162 3.697 3.697 0 0 1-1.23.752c-.465.164-.939.2-1.422.11.01.263.096.478.26.642.173.155.378.273.615.355.237.082.483.137.738.164.255.018.483.028.684.028a3 3 0 0 0 .588-.055 11.8 11.8 0 0 0 .547-.123 11.8 11.8 0 0 1 .547-.123c.19-.037.391-.055.601-.055.082 0 .164.005.246.014.082.009.16.032.233.068a.354.354 0 0 1 .177.15.414.414 0 0 1 .069.247.574.574 0 0 1-.192.437c-.127.11-.291.205-.492.287a3.128 3.128 0 0 1-.642.192c-.238.036-.47.068-.698.095a7.403 7.403 0 0 1-.615.028c-.182.009-.319.013-.41.013a4.278 4.278 0 0 1-1.572-.273 3.444 3.444 0 0 1-1.176-.78 3.51 3.51 0 0 1-.739-1.203 4.78 4.78 0 0 1-.246-1.572zm1.449-.89c0 .32.04.552.123.698.09.146.305.219.642.219.237 0 .47-.041.698-.123a2.21 2.21 0 0 0 .615-.37c.191-.155.342-.337.45-.546.11-.21.165-.438.165-.684 0-.137-.014-.278-.041-.424a.978.978 0 0 0-.137-.396.828.828 0 0 0-.287-.301.712.712 0 0 0-.437-.123c-.274 0-.525.064-.752.191a1.764 1.764 0 0 0-.56.479c-.156.191-.274.41-.356.656a2.202 2.202 0 0 0-.123.724zm6.507-3.048c0-.265-.018-.52-.054-.766a2.878 2.878 0 0 1-.028-.67c.019-.2.087-.36.206-.478.127-.119.355-.178.683-.178.1.21.196.529.287.957.1.428.196.92.287 1.476.091.556.178 1.163.26 1.819.082.647.155 1.299.219 1.955.073.656.132 1.303.178 1.941.054.63.095 1.203.123 1.723-.301.2-.543.214-.725.041-.182-.173-.333-.465-.451-.875a9.333 9.333 0 0 1-.274-1.518c-.063-.601-.127-1.22-.191-1.859a40.354 40.354 0 0 0-.205-1.9 13.355 13.355 0 0 0-.315-1.668zm5.496 7.123c.146-.1.32-.228.52-.383.21-.164.42-.337.629-.52.21-.182.406-.373.588-.574.182-.2.323-.392.424-.574.109-.191.164-.37.164-.533 0-.164-.082-.301-.246-.41-.292 0-.611.013-.957.04-.347.019-.693.028-1.04.028a7.315 7.315 0 0 1-1.011-.096 2.61 2.61 0 0 1-.861-.3 1.66 1.66 0 0 1-.616-.616c-.146-.273-.218-.62-.218-1.039 0-.492.09-.934.273-1.326.191-.401.442-.752.752-1.053.31-.31.656-.579 1.039-.806a8.968 8.968 0 0 1 1.176-.602c.237.064.456.178.656.342.2.164.374.346.52.547a.802.802 0 0 1-.383.465c-.183.109-.397.205-.643.287l-.752.26a2.857 2.857 0 0 0-.724.369c-.21.146-.388.341-.534.588-.146.237-.218.55-.218.943 0 .291.072.506.218.643.146.136.338.232.575.287a3.7 3.7 0 0 0 .806.054c.301-.018.606-.04.916-.068.32-.027.63-.041.93-.041.3-.01.57.027.807.11.236.072.423.195.56.368.146.174.219.429.219.766 0 .146-.05.333-.15.56a4.811 4.811 0 0 1-.383.739 5.83 5.83 0 0 1-.56.765c-.21.256-.434.488-.67.698-.229.2-.461.369-.698.506a1.324 1.324 0 0 1-.643.191c-.191 0-.319-.068-.383-.205a1.099 1.099 0 0 1-.081-.41z"/><path id="f" d="M5.584 11.797a.374.374 0 0 0-.219-.26.817.817 0 0 0-.342-.068 1.546 1.546 0 0 0-.355.013 1.93 1.93 0 0 1-.273.028 75.89 75.89 0 0 1-.807-.055c-.383-.027-.798-.055-1.244-.082-.438-.036-.848-.068-1.23-.096-.384-.036-.652-.059-.807-.068 0-.018-.005-.064-.014-.137a1.458 1.458 0 0 1-.014-.15c0-.128.01-.242.028-.342.027-.1.118-.178.273-.232.857.018 1.7.013 2.53-.014.838-.027 1.672-.064 2.501-.11a245.3 245.3 0 0 1 2.502-.15 46.573 46.573 0 0 1 2.53-.068c0 .346-.083.601-.247.765a1.28 1.28 0 0 1-.615.315 3.1 3.1 0 0 1-.793.068 8.655 8.655 0 0 0-.847.014 2.142 2.142 0 0 0-.711.164.663.663 0 0 0-.397.465c-.009.055-.018.16-.027.314-.01.155-.018.32-.027.492 0 .174-.005.338-.014.493v.314c0 .52.064 1.035.191 1.545.137.501.283 1.003.438 1.504.164.492.31.989.437 1.49.137.492.205.994.205 1.504 0 .383-.218.574-.656.574-.264 0-.501-.182-.71-.547-.201-.364-.38-.829-.534-1.394a18.337 18.337 0 0 1-.37-1.846 60.253 60.253 0 0 1-.232-1.914 53.7 53.7 0 0 1-.123-1.613c-.018-.465-.027-.77-.027-.916zm6.398 3.076v-.26c.01-.127.014-.26.014-.396.01-.137.014-.27.014-.397.009-.127.013-.218.013-.273.1-.146.228-.264.383-.356.164-.09.328-.164.492-.218.028.492.105 1.016.233 1.572.127.556.264 1.117.41 1.682.146.556.274 1.107.383 1.654.118.547.178 1.057.178 1.531 0 .41-.21.615-.63.615a.802.802 0 0 1-.642-.314 2.512 2.512 0 0 1-.424-.793 8.232 8.232 0 0 1-.246-1.08c-.064-.401-.11-.793-.137-1.176a55.893 55.893 0 0 1-.04-1.053v-.738zm.192-5.127c.173.073.319.191.437.356.119.164.169.314.15.45-.008.128-.109.22-.3.274-.191.046-.51-.009-.957-.164 0-.246.046-.46.137-.643.1-.182.278-.273.533-.273zm2.16 4.512c0-.228.036-.406.11-.533.081-.128.25-.192.505-.192.028 0 .078.005.15.014h.151c.064.282.128.592.191.93.073.328.155.66.246.998.092.337.192.67.301.998.119.328.26.624.424.888.164-.173.283-.378.356-.615.072-.237.127-.474.164-.71.036-.247.068-.48.095-.698.037-.228.105-.42.205-.574a.85.85 0 0 1 .438-.356c.2-.073.474-.073.82 0 .383 0 .688.073.916.219.228.137.424.314.588.533.173.21.337.438.492.684.164.237.37.45.616.642.054-.118.123-.264.205-.437.082-.182.182-.37.3-.56.128-.201.26-.397.397-.589.146-.2.296-.378.451-.533.155-.164.315-.296.479-.396a.864.864 0 0 1 .478-.164c.374 0 .697.118.97.355.274.228.507.52.698.875.2.346.365.738.492 1.176a11.688 11.688 0 0 1 .451 2.351c.037.329.055.566.055.711 0 .119-.027.21-.082.274a.57.57 0 0 1-.205.15 1.207 1.207 0 0 1-.273.055c-.092.009-.178.014-.26.014h-.082a2.674 2.674 0 0 0-.123-.028 5.05 5.05 0 0 1-.15-.04l-.89-4.089c0-.027-.036-.077-.109-.15a.702.702 0 0 0-.164-.15.152.152 0 0 1-.068-.014h-.041c-.01-.01-.018-.014-.027-.014-.192 0-.374.078-.547.233-.164.155-.32.35-.465.588a6.434 6.434 0 0 0-.41.793c-.128.291-.242.583-.342.875-.1.282-.192.546-.274.793-.072.236-.132.419-.177.546a.905.905 0 0 1-.22.055 3.32 3.32 0 0 1-.218.014c-.255 0-.451-.087-.588-.26a2.429 2.429 0 0 1-.341-.67 9.114 9.114 0 0 1-.22-.861 5.583 5.583 0 0 0-.218-.875 1.742 1.742 0 0 0-.355-.657c-.146-.182-.356-.273-.63-.273-.1 0-.195.1-.287.3-.09.201-.173.456-.246.766-.072.301-.14.63-.205.985a27.48 27.48 0 0 0-.164.984c-.036.3-.063.556-.082.766l-.027.314a.4.4 0 0 1-.11.096c-.054.027-.113.06-.177.096a.632.632 0 0 1-.178.082A.434.434 0 0 1 17 20c-.255 0-.501-.114-.738-.342a3.978 3.978 0 0 1-.657-.902c-.19-.374-.369-.784-.533-1.23a17.724 17.724 0 0 1-.656-2.475 5.51 5.51 0 0 1-.082-.793zm12.305 1.941c0-.492.059-.984.177-1.476.119-.493.306-.935.561-1.327a3.173 3.173 0 0 1 1.012-.957c.419-.246.925-.369 1.517-.369.338 0 .634.064.889.192.255.118.47.278.642.478.174.2.301.438.383.711.091.264.137.542.137.834 0 .465-.11.916-.328 1.354a3.82 3.82 0 0 1-.861 1.162 3.697 3.697 0 0 1-1.23.752c-.466.164-.94.2-1.423.11.01.263.096.478.26.642.173.155.378.273.615.355.237.082.483.137.739.164.255.018.483.028.683.028.21 0 .406-.019.588-.055a11.8 11.8 0 0 0 .547-.123 11.8 11.8 0 0 1 .547-.123c.191-.037.392-.055.601-.055.082 0 .164.005.246.014.082.009.16.032.233.068a.355.355 0 0 1 .178.15.414.414 0 0 1 .068.247.574.574 0 0 1-.192.437c-.127.11-.291.205-.492.287a3.128 3.128 0 0 1-.642.192c-.237.036-.47.068-.698.095a7.403 7.403 0 0 1-.615.028c-.182.009-.319.013-.41.013a4.278 4.278 0 0 1-1.572-.273 3.446 3.446 0 0 1-1.176-.78 3.51 3.51 0 0 1-.738-1.203 4.78 4.78 0 0 1-.246-1.572zm1.449-.889c0 .32.04.552.123.698.091.146.305.219.643.219.236 0 .469-.041.697-.123a2.21 2.21 0 0 0 .615-.37c.191-.155.342-.337.451-.546.11-.21.164-.438.164-.684 0-.137-.013-.278-.04-.424a.978.978 0 0 0-.137-.396.828.828 0 0 0-.288-.301.712.712 0 0 0-.437-.123c-.274 0-.524.064-.752.191a1.764 1.764 0 0 0-.56.479c-.155.191-.274.41-.356.656a2.202 2.202 0 0 0-.123.724z"/><path id="g" d="M70 30.942l-.725-1.864.725 1.864zM362 149l-.378 1.964L362 149zM32 49.626l-1.034-1.712L32 49.626zm329.622 101.338c4.554.877 8.888-.728 12.931-3.751 3.944-2.964 7.945-7.55 11.857-13.023 7.781-10.902 15.788-25.932 24.372-41.031 8.583-15.102 17.707-30.232 27.867-41.615 10.145-11.377 20.959-18.602 32.851-18.602v-4c-13.608 0-25.426 8.265-35.836 19.94-10.394 11.67-19.75 27.153-28.36 42.3-8.61 15.148-16.513 29.999-24.149 40.683-3.797 5.32-7.38 9.453-10.998 12.144-3.518 2.631-6.721 3.616-9.779 3.027l-.756 3.928zM471.5 32.942c25.999-.064 40.483-7.994 53.935-15.738C538.889 9.46 551.284 1.927 574 2v-4c-23.784.073-37.139 8.011-50.56 15.738-13.423 7.726-26.939 15.267-51.94 15.204v4zm-157.5 0c8.232 0 14.049 6.07 18.45 16.594 4.412 10.521 7.011 24.624 9.193 39.071 2.182 14.448 3.912 29.143 6.544 40.527 1.325 5.716 2.941 10.774 4.945 14.476 2.036 3.744 4.748 6.633 8.49 7.354l.756-3.928c-2.012-.388-3.927-2.018-5.732-5.337-1.838-3.36-3.277-7.907-4.562-13.467-2.588-11.167-4.295-25.709-6.486-40.222-2.192-14.513-4.903-29.095-9.458-40.017-4.565-10.918-11.372-19.051-22.14-19.051v4zm-243.274-.137c7.313-2.847 16.429-1.083 27.197 2.349 10.662 3.395 22.49 8.258 34.669 10.804l.816-3.916c-11.821-2.454-23.453-7.25-34.27-10.7-10.711-3.412-21.096-5.677-29.864-2.264l1.451 3.727zm61.866 13.153c5.44 1.133 11.072 5.028 17.055 10.523 5.958 5.468 12.008 12.281 18.283 18.84 6.277 6.558 12.863 12.922 19.685 17.266 6.901 4.382 14.329 6.882 22.258 5.378l-.746-3.93c-6.571 1.246-12.956-.754-19.367-4.825-6.491-4.109-12.717-10.151-18.94-16.655-6.225-6.505-12.363-13.41-18.467-19.02-6.079-5.583-12.385-10.126-18.945-11.493l-.816 3.916zM1.283 74.063c10.32-8.637 20.86-16.15 31.75-22.725l-2.067-3.425C19.946 54.57 9.158 62.261-1.284 70.995l2.567 3.068zm31.75-22.725a242.942 242.942 0 0 1 37.692-18.533l-1.45-3.727a248.667 248.667 0 0 0-38.309 18.835l2.068 3.425zm176.84 46.627c7.747-1.47 15.847-6.485 24.072-12.871 8.255-6.412 16.894-14.412 25.749-22.182 8.855-7.772 17.875-15.282 27.065-20.87 9.159-5.576 18.258-9.1 27.241-9.1v-4c-10.017 0-19.855 3.92-29.321 9.683-9.435 5.75-18.728 13.474-27.623 21.28-8.895 7.806-17.444 15.727-25.564 22.03-8.15 6.328-15.612 10.82-22.365 12.1l.746 3.93z"/><path id="h" d="M0 0h30v308H0V0z"/><path id="j" d="M0-1a1 1 0 1 0 0 2v-2zm328 2a1 1 0 0 0 0-2v2zM5.125 1a1 1 0 0 0 0-2v2zm10.25-2a1 1 0 1 0 0 2v-2zm10.25 2a1 1 0 1 0 0-2v2zm10.25-2a1 1 0 1 0 0 2v-2zm10.25 2a1 1 0 1 0 0-2v2zm10.25-2a1 1 0 1 0 0 2v-2zm10.25 2a1 1 0 1 0 0-2v2zm10.25-2a1 1 0 1 0 0 2v-2zm10.25 2a1 1 0 1 0 0-2v2zm10.25-2a1 1 0 1 0 0 2v-2zm10.25 2a1 1 0 0 0 0-2v2zm10.25-2a1 1 0 0 0 0 2v-2zm10.25 2a1 1 0 0 0 0-2v2zm10.25-2a1 1 0 0 0 0 2v-2zm10.25 2a1 1 0 0 0 0-2v2zm10.25-2a1 1 0 0 0 0 2v-2zm10.25 2a1 1 0 0 0 0-2v2zm10.25-2a1 1 0 0 0 0 2v-2zm10.25 2a1 1 0 0 0 0-2v2zm10.25-2a1 1 0 0 0 0 2v-2zm10.25 2a1 1 0 0 0 0-2v2zm10.25-2a1 1 0 0 0 0 2v-2zm10.25 2a1 1 0 0 0 0-2v2zm10.25-2a1 1 0 0 0 0 2v-2zm10.25 2a1 1 0 0 0 0-2v2zm10.25-2a1 1 0 0 0 0 2v-2zm10.25 2a1 1 0 0 0 0-2v2zm10.25-2a1 1 0 0 0 0 2v-2zm10.25 2a1 1 0 0 0 0-2v2zm10.25-2a1 1 0 0 0 0 2v-2zm10.25 2a1 1 0 0 0 0-2v2zm10.25-2a1 1 0 0 0 0 2v-2zM0 1h5.125v-2H0v2zm15.375 0h10.25v-2h-10.25v2zm20.5 0h10.25v-2h-10.25v2zm20.5 0h10.25v-2h-10.25v2zm20.5 0h10.25v-2h-10.25v2zm20.5 0h10.25v-2h-10.25v2zm20.5 0h10.25v-2h-10.25v2zm20.5 0h10.25v-2h-10.25v2zm20.5 0h10.25v-2h-10.25v2zm20.5 0h10.25v-2h-10.25v2zm20.5 0h10.25v-2h-10.25v2zm20.5 0h10.25v-2h-10.25v2zm20.5 0h10.25v-2h-10.25v2zm20.5 0h10.25v-2h-10.25v2zm20.5 0h10.25v-2h-10.25v2zm20.5 0h10.25v-2h-10.25v2zm20.5 0H328v-2h-5.125v2zM0-2a2 2 0 1 0 0 4v-4zm328 4a2 2 0 1 0 0-4v4zM5.125 2a2 2 0 1 0 0-4v4zm10.25-4a2 2 0 1 0 0 4v-4zm10.25 4a2 2 0 1 0 0-4v4zm10.25-4a2 2 0 1 0 0 4v-4zm10.25 4a2 2 0 1 0 0-4v4zm10.25-4a2 2 0 1 0 0 4v-4zm10.25 4a2 2 0 1 0 0-4v4zm10.25-4a2 2 0 1 0 0 4v-4zm10.25 4a2 2 0 1 0 0-4v4zm10.25-4a2 2 0 1 0 0 4v-4zm10.25 4a2 2 0 1 0 0-4v4zm10.25-4a2 2 0 1 0 0 4v-4zm10.25 4a2 2 0 1 0 0-4v4zm10.25-4a2 2 0 1 0 0 4v-4zm10.25 4a2 2 0 1 0 0-4v4zm10.25-4a2 2 0 1 0 0 4v-4zm10.25 4a2 2 0 1 0 0-4v4zm10.25-4a2 2 0 1 0 0 4v-4zm10.25 4a2 2 0 1 0 0-4v4zm10.25-4a2 2 0 1 0 0 4v-4zm10.25 4a2 2 0 1 0 0-4v4zm10.25-4a2 2 0 1 0 0 4v-4zm10.25 4a2 2 0 1 0 0-4v4zm10.25-4a2 2 0 1 0 0 4v-4zm10.25 4a2 2 0 1 0 0-4v4zm10.25-4a2 2 0 1 0 0 4v-4zm10.25 4a2 2 0 1 0 0-4v4zm10.25-4a2 2 0 1 0 0 4v-4zm10.25 4a2 2 0 1 0 0-4v4zm10.25-4a2 2 0 1 0 0 4v-4zm10.25 4a2 2 0 1 0 0-4v4zm10.25-4a2 2 0 1 0 0 4v-4zM0 2h5.125v-4H0v4zm15.375 0h10.25v-4h-10.25v4zm20.5 0h10.25v-4h-10.25v4zm20.5 0h10.25v-4h-10.25v4zm20.5 0h10.25v-4h-10.25v4zm20.5 0h10.25v-4h-10.25v4zm20.5 0h10.25v-4h-10.25v4zm20.5 0h10.25v-4h-10.25v4zm20.5 0h10.25v-4h-10.25v4zm20.5 0h10.25v-4h-10.25v4zm20.5 0h10.25v-4h-10.25v4zm20.5 0h10.25v-4h-10.25v4zm20.5 0h10.25v-4h-10.25v4zm20.5 0h10.25v-4h-10.25v4zm20.5 0h10.25v-4h-10.25v4zm20.5 0h10.25v-4h-10.25v4zm20.5 0H328v-4h-5.125v4z"/><path id="k" d="M.46 14.148v-.533c.01-.255.014-.52.014-.793v-.793c.009-.246.013-.419.013-.52.01-.063.032-.159.069-.286.036-.137.077-.27.123-.397.054-.127.123-.237.205-.328.09-.1.2-.15.328-.15.3 0 .583.082.848.246.264.164.52.383.765.656.246.264.479.56.697.889.228.328.452.656.67.984.22.32.433.624.643.916.21.283.42.51.629.684.228-.1.405-.283.533-.547.128-.274.232-.584.315-.93.082-.355.154-.72.218-1.094.073-.382.169-.733.287-1.052.119-.32.274-.58.465-.78.2-.21.474-.314.82-.314.41 0 .78.16 1.108.478.337.32.638.725.902 1.217a8.94 8.94 0 0 1 .67 1.64c.192.602.351 1.181.479 1.737.127.556.223 1.057.287 1.504.064.447.096.766.096.957 0 .082-.005.173-.014.273a.841.841 0 0 1-.069.26.417.417 0 0 1-.177.178c-.082.037-.2.032-.356-.014a.574.574 0 0 1-.164-.068 2.701 2.701 0 0 1-.341-.342c-.046-.064-.069-.118-.069-.164l-.273-1.49c-.1-.547-.228-1.098-.383-1.654a11.22 11.22 0 0 0-.56-1.641 5.106 5.106 0 0 0-.848-1.367c-.265.146-.474.369-.63.67a5.515 5.515 0 0 0-.368.97c-.1.347-.192.702-.274 1.067a5.124 5.124 0 0 1-.328.998c-.137.292-.31.533-.52.725-.21.19-.492.287-.847.287a1.31 1.31 0 0 1-.725-.233 3.875 3.875 0 0 1-.67-.629 11.136 11.136 0 0 1-.642-.861c-.2-.32-.401-.629-.602-.93-.191-.31-.383-.597-.574-.861a2.974 2.974 0 0 0-.56-.629c-.073.283-.133.533-.178.752-.037.21-.069.415-.096.615-.018.2-.032.406-.041.615v.698c0 .383.032.765.096 1.148.063.374.132.748.205 1.121.073.374.141.752.205 1.135.073.374.11.752.11 1.135v.11a1.7 1.7 0 0 1-.11.136l-.178.178a1.638 1.638 0 0 1-.178.177c-.063.046-.109.078-.136.096-.01.01-.028.014-.055.014a.258.258 0 0 1-.082.013.225.225 0 0 1-.068-.013.226.226 0 0 0-.069-.014 46.793 46.793 0 0 0-.205-1.504 87.744 87.744 0 0 1-.205-1.408 66.734 66.734 0 0 1-.15-1.408 20.031 20.031 0 0 1-.055-1.532zM12.464 16.2c0-.492.06-.984.178-1.476.118-.493.305-.935.56-1.327a3.174 3.174 0 0 1 1.012-.957c.42-.246.925-.369 1.517-.369.338 0 .634.064.89.192.254.118.469.278.642.478.173.2.3.438.382.711.092.264.137.542.137.834 0 .465-.11.916-.328 1.354a3.82 3.82 0 0 1-.861 1.162 3.698 3.698 0 0 1-1.23.752c-.465.164-.94.2-1.423.11.01.263.096.478.26.642.173.155.379.273.615.355.237.082.484.137.739.164.255.018.483.028.683.028.21 0 .406-.019.588-.055a11.8 11.8 0 0 0 .547-.123c.182-.046.365-.087.547-.123.191-.037.392-.055.601-.055.082 0 .165.005.247.014.082.009.16.032.232.068a.355.355 0 0 1 .178.15.414.414 0 0 1 .068.247.574.574 0 0 1-.191.437c-.128.11-.292.205-.492.287a3.127 3.127 0 0 1-.643.192c-.237.036-.47.068-.697.095a7.403 7.403 0 0 1-.616.028c-.182.009-.319.013-.41.013a4.278 4.278 0 0 1-1.572-.273 3.446 3.446 0 0 1-1.176-.78 3.51 3.51 0 0 1-.738-1.203 4.78 4.78 0 0 1-.246-1.572zm1.45-.889c0 .32.04.552.122.698.091.146.306.219.643.219.237 0 .47-.041.697-.123a2.21 2.21 0 0 0 .615-.37c.192-.155.342-.337.451-.546.11-.21.164-.438.164-.684 0-.137-.013-.278-.04-.424a.978.978 0 0 0-.137-.396.828.828 0 0 0-.287-.301.712.712 0 0 0-.438-.123c-.273 0-.524.064-.752.191a1.764 1.764 0 0 0-.56.479c-.155.191-.274.41-.356.656a2.202 2.202 0 0 0-.123.724zm5.878 3.077c0-.529.132-.998.396-1.409.265-.41.593-.765.985-1.066.392-.31.816-.57 1.271-.78.456-.218.88-.396 1.272-.532.392-.146.72-.26.984-.342.265-.091.397-.164.397-.219 0-.319-.019-.629-.055-.93-.027-.31-.06-.62-.096-.93-.036-.31-.073-.614-.11-.915-.026-.31-.04-.616-.04-.916v-.889c.374-.137.638-.123.793.041.164.164.191.447.082.848.036.2.087.515.15.943.064.428.132.912.205 1.45.082.537.164 1.102.247 1.694.09.593.173 1.163.246 1.71.082.537.15 1.02.205 1.449l.123.943a5.998 5.998 0 0 1 .041.697c.009.146.013.283.013.41.01.128.014.22.014.274-.346 0-.583-.014-.71-.041-.12-.027-.197-.082-.233-.164a1.181 1.181 0 0 1-.041-.356c0-.154-.046-.369-.137-.642a8.204 8.204 0 0 1-.957.656c-.3.173-.602.315-.902.424-.301.1-.607.168-.916.205-.301.046-.625.068-.971.068-.292 0-.574-.022-.848-.068a2.22 2.22 0 0 1-.71-.273c-.21-.128-.379-.301-.507-.52-.127-.219-.191-.492-.191-.82zm1.19-.287c0 .145.031.264.095.355a.861.861 0 0 0 .246.233c.1.063.205.109.315.136.118.018.232.028.341.028.32 0 .661-.06 1.026-.178a4.02 4.02 0 0 0 1.025-.52c.32-.228.579-.496.78-.806.21-.31.314-.647.314-1.012 0-.283-.05-.479-.15-.588-.1-.11-.292-.164-.575-.164-.291 0-.633.068-1.025.205a5.787 5.787 0 0 0-1.121.547 3.669 3.669 0 0 0-.902.807c-.246.3-.37.62-.37.957zm7.314-3.227v-.26c.009-.127.014-.26.014-.396.009-.137.013-.27.013-.397.01-.127.014-.218.014-.273.1-.146.228-.264.383-.356.164-.09.328-.164.492-.218.027.492.105 1.016.232 1.572.128.556.265 1.117.41 1.682.146.556.274 1.107.383 1.654.119.547.178 1.057.178 1.531 0 .41-.21.615-.629.615a.802.802 0 0 1-.642-.314 2.512 2.512 0 0 1-.424-.793 8.231 8.231 0 0 1-.246-1.08c-.064-.401-.11-.793-.137-1.176a55.893 55.893 0 0 1-.041-1.053v-.738zm.191-5.127c.174.073.32.191.438.356.118.164.168.314.15.45-.009.128-.11.22-.3.274-.192.046-.511-.009-.958-.164 0-.246.046-.46.137-.643.1-.182.278-.273.533-.273zm2.16 3.363c0-.027.005-.05.014-.068 0-.018.005-.041.014-.068.036-.046.091-.105.164-.178.073-.073.118-.11.137-.11h2.748c0-.1-.014-.26-.041-.478-.028-.219-.055-.46-.082-.725a8.131 8.131 0 0 1-.014-.82c.009-.292.045-.551.11-.78a1.36 1.36 0 0 1 .327-.573c.155-.155.37-.233.643-.233 0 .92.064 1.659.191 2.215.128.556.297.984.506 1.285.219.301.465.497.739.588.273.091.551.132.834.123a4.33 4.33 0 0 0 .847-.137c.274-.072.515-.123.725-.15.218-.027.392-.005.52.068.127.064.19.224.19.479 0 .191-.045.328-.136.41-.082.082-.246.146-.492.191-.073.01-.196.028-.37.055-.163.018-.35.037-.56.055-.21.018-.433.04-.67.068-.237.018-.46.037-.67.055-.21.018-.4.032-.574.04h-.383c0 .046-.004.124-.013.233a3.32 3.32 0 0 0-.014.219c0 .401.064.793.191 1.176.128.373.265.747.41 1.12.155.375.297.748.424 1.122.128.374.192.761.192 1.162 0 .073-.01.15-.028.233a.443.443 0 0 1-.082.205.33.33 0 0 1-.177.123c-.073.036-.178.032-.315-.014a1.22 1.22 0 0 1-.78-.588 3.756 3.756 0 0 1-.368-1.066 9.963 9.963 0 0 1-.164-1.326 13.22 13.22 0 0 0-.137-1.3 3.737 3.737 0 0 0-.273-1.038c-.128-.292-.333-.47-.616-.534l-2.638-.601c-.037 0-.092-.037-.165-.11a1.022 1.022 0 0 1-.136-.177.153.153 0 0 1-.014-.069.19.19 0 0 1-.014-.082zm14.971 5.127c-.346.237-.647.451-.902.643a6.021 6.021 0 0 1-.725.465 3.086 3.086 0 0 1-.765.287 4.277 4.277 0 0 1-.985.096c-.847 0-1.476-.224-1.886-.67-.41-.456-.616-1.13-.616-2.024 0-.346.046-.706.137-1.08.091-.374.223-.743.397-1.107.182-.374.396-.725.642-1.053a4.84 4.84 0 0 1 .834-.889 3.97 3.97 0 0 1 .984-.601c.356-.155.73-.233 1.122-.233.656.064 1.17.228 1.544.492.374.256.657.588.848.998.191.402.324.853.397 1.354.073.492.127 1.003.164 1.531.045.529.1 1.058.164 1.586.063.529.196 1.017.396 1.463-.118.3-.232.51-.342.629-.1.128-.214.15-.341.068-.128-.082-.278-.282-.452-.601a20.8 20.8 0 0 1-.615-1.354zm-4.717-1.175c0 .52.096.902.287 1.148.201.237.552.355 1.053.355.374 0 .73-.063 1.067-.191.346-.137.647-.319.902-.547.255-.237.46-.52.615-.848a2.53 2.53 0 0 0 .233-1.093c0-.164.004-.392.013-.684.01-.3-.009-.597-.054-.889a2.038 2.038 0 0 0-.26-.752.623.623 0 0 0-.574-.328c-.474 0-.912.123-1.313.37a3.688 3.688 0 0 0-1.039.916c-.292.373-.52.788-.684 1.244-.164.446-.246.88-.246 1.299zm7.028-3.952c0-.027.004-.05.013-.068 0-.018.005-.041.014-.068a2.3 2.3 0 0 1 .164-.178c.073-.073.119-.11.137-.11h2.748c0-.1-.014-.26-.041-.478-.027-.219-.055-.46-.082-.725a8.103 8.103 0 0 1-.014-.82c.01-.292.046-.551.11-.78.072-.236.182-.428.328-.573.155-.155.369-.233.642-.233 0 .92.064 1.659.192 2.215.127.556.296.984.505 1.285.22.301.465.497.739.588.273.091.551.132.834.123.291-.018.574-.064.847-.137.274-.072.515-.123.725-.15.219-.027.392-.005.52.068.127.064.191.224.191.479 0 .191-.046.328-.137.41-.082.082-.246.146-.492.191-.073.01-.196.028-.37.055-.163.018-.35.037-.56.055-.21.018-.433.04-.67.068-.236.018-.46.037-.67.055-.21.018-.4.032-.574.04h-.383c0 .046-.004.124-.013.233-.01.11-.014.183-.014.219 0 .401.064.793.192 1.176.127.373.264.747.41 1.12.155.375.296.748.424 1.122.127.374.191.761.191 1.162 0 .073-.01.15-.027.233a.443.443 0 0 1-.082.205.33.33 0 0 1-.178.123c-.073.036-.178.032-.315-.014a1.22 1.22 0 0 1-.779-.588 3.756 3.756 0 0 1-.369-1.066 9.93 9.93 0 0 1-.164-1.326 13.22 13.22 0 0 0-.137-1.3 3.737 3.737 0 0 0-.273-1.038c-.128-.292-.333-.47-.616-.534l-2.638-.601c-.037 0-.091-.037-.164-.11a1.022 1.022 0 0 1-.137-.177.151.151 0 0 1-.014-.069.19.19 0 0 1-.013-.082zm9.666 1.764v-.26c.009-.127.013-.26.013-.396.01-.137.014-.27.014-.397.01-.127.014-.218.014-.273.1-.146.228-.264.383-.356.164-.09.328-.164.492-.218.027.492.105 1.016.232 1.572.128.556.264 1.117.41 1.682.146.556.274 1.107.383 1.654.119.547.178 1.057.178 1.531 0 .41-.21.615-.629.615a.802.802 0 0 1-.643-.314 2.51 2.51 0 0 1-.423-.793 8.215 8.215 0 0 1-.246-1.08c-.064-.401-.11-.793-.137-1.176a55.893 55.893 0 0 1-.041-1.053v-.738zm.191-5.127c.173.073.32.191.438.356.118.164.168.314.15.45-.01.128-.11.22-.3.274-.192.046-.511-.009-.958-.164 0-.246.046-.46.137-.643.1-.182.278-.273.533-.273zm2.461 7.479c0-.566.132-1.09.397-1.573.264-.492.61-.911 1.039-1.257a5.167 5.167 0 0 1 1.462-.835c.547-.2 1.099-.3 1.655-.3.31 0 .583.1.82.3.246.201.451.447.615.739.164.282.287.583.37.902.09.32.136.597.136.834 0 .51-.123 1.007-.369 1.49a4.808 4.808 0 0 1-.957 1.272c-.392.364-.834.66-1.326.889a3.488 3.488 0 0 1-1.477.341c-.437 0-.806-.073-1.107-.218a2.054 2.054 0 0 1-.725-.602 2.747 2.747 0 0 1-.41-.889 4.735 4.735 0 0 1-.123-1.093zm1.162.136c0 .237.018.447.055.63.045.172.118.323.219.45.109.128.25.228.423.301.174.064.388.096.643.096.337 0 .674-.091 1.012-.274a3.79 3.79 0 0 0 .902-.71c.273-.292.492-.611.656-.957.164-.347.246-.684.246-1.012 0-.146-.013-.306-.04-.479a1.946 1.946 0 0 0-.137-.478 1.004 1.004 0 0 0-.274-.37.674.674 0 0 0-.45-.15c-.165 0-.36.055-.589.164-.219.11-.451.25-.697.424a8.09 8.09 0 0 0-.711.588 10.45 10.45 0 0 0-.629.656 4.266 4.266 0 0 0-.465.63c-.11.2-.164.364-.164.491zm5.865-1.968c0-.237.06-.406.178-.506.119-.11.31-.164.574-.164h.137l.096.505a3.79 3.79 0 0 0 .424 1.149c.1.164.223.296.369.396.009-.319.086-.624.232-.916.155-.3.342-.565.56-.792.229-.237.475-.433.739-.588.273-.165.542-.274.807-.329h.3c.438 0 .812.1 1.121.301.31.192.566.447.766.766.21.31.37.665.479 1.066.109.401.191.811.246 1.23.064.41.1.812.11 1.204.017.383.026.71.026.984h-.998a25.414 25.414 0 0 0-.205-1.572c-.027-.2-.064-.41-.109-.629a8.04 8.04 0 0 0-.328-1.176 1.962 1.962 0 0 0-.219-.437l-.15-.15a3.41 3.41 0 0 0-.356-.356.363.363 0 0 0-.095-.069.719.719 0 0 0-.711.165c-.2.173-.379.41-.534.71-.154.301-.282.643-.382 1.026a20.14 20.14 0 0 0-.233 1.107c-.064.347-.11.652-.137.916-.027.256-.045.41-.054.465-.228.164-.442.214-.643.15-.2-.072-.392-.218-.574-.437a3.819 3.819 0 0 1-.479-.82 13.766 13.766 0 0 1-.382-1.04 26.042 26.042 0 0 1-.329-1.12 74.36 74.36 0 0 1-.246-1.04zm16.284 4.02a.869.869 0 0 1 .341-.534c.192-.146.406-.278.643-.397.246-.118.501-.227.766-.328.264-.11.505-.223.724-.341.228-.119.415-.256.56-.41a.855.855 0 0 0 .22-.588c0-.292-.078-.534-.233-.725a1.821 1.821 0 0 0-.601-.492 4.004 4.004 0 0 0-.848-.342 71.407 71.407 0 0 0-.984-.274 30.28 30.28 0 0 1-.971-.314 4.022 4.022 0 0 1-.861-.438 2.194 2.194 0 0 1-.602-.628c-.146-.247-.219-.552-.219-.917 0-.3.06-.583.178-.847.127-.273.292-.529.492-.766.21-.246.447-.47.711-.67.273-.2.556-.369.848-.506.3-.136.601-.241.902-.314.3-.082.579-.123.834-.123h.15c.082.027.192.073.328.137.137.064.27.127.397.191.128.055.237.11.328.164.091.046.137.073.137.082v.315a7.63 7.63 0 0 0-.67.109c-.273.046-.56.11-.861.191-.301.082-.606.187-.916.315-.31.118-.588.26-.834.424a2.27 2.27 0 0 0-.602.574c-.155.21-.232.451-.232.724 0 .393.136.702.41.93.273.219.615.401 1.025.547.41.146.857.278 1.34.397.492.109.943.246 1.353.41.41.155.752.364 1.026.629.273.255.41.601.41 1.039 0 .237-.073.487-.219.752-.136.255-.323.51-.56.765a7.06 7.06 0 0 1-1.682 1.313c-.3.164-.597.3-.889.41-.291.1-.551.15-.779.15-.073 0-.15-.009-.232-.027a.78.78 0 0 1-.219-.082.516.516 0 0 1-.137-.191c-.027-.082-.018-.187.028-.315zm5.25-3.214c0-.492.059-.984.177-1.476.119-.493.306-.935.56-1.327a3.174 3.174 0 0 1 1.013-.957c.419-.246.925-.369 1.517-.369.337 0 .634.064.889.192.255.118.47.278.642.478.174.2.301.438.383.711.091.264.137.542.137.834 0 .465-.11.916-.328 1.354-.21.437-.497.825-.862 1.162a3.697 3.697 0 0 1-1.23.752c-.465.164-.939.2-1.422.11.01.263.096.478.26.642.173.155.378.273.615.355.237.082.483.137.738.164.256.018.483.028.684.028a3 3 0 0 0 .588-.055 11.8 11.8 0 0 0 .547-.123 11.8 11.8 0 0 1 .547-.123c.191-.037.392-.055.601-.055.082 0 .164.005.246.014.082.009.16.032.233.068a.355.355 0 0 1 .177.15.413.413 0 0 1 .069.247.574.574 0 0 1-.192.437c-.127.11-.291.205-.492.287a3.127 3.127 0 0 1-.642.192c-.237.036-.47.068-.698.095a7.401 7.401 0 0 1-.615.028c-.182.009-.319.013-.41.013a4.277 4.277 0 0 1-1.572-.273 3.444 3.444 0 0 1-1.176-.78 3.512 3.512 0 0 1-.738-1.203 4.78 4.78 0 0 1-.246-1.572zm1.449-.889c0 .32.04.552.123.698.091.146.305.219.642.219.237 0 .47-.041.698-.123a2.21 2.21 0 0 0 .615-.37c.191-.155.342-.337.451-.546.11-.21.164-.438.164-.684 0-.137-.014-.278-.04-.424a.978.978 0 0 0-.138-.396.83.83 0 0 0-.287-.301.712.712 0 0 0-.437-.123c-.274 0-.524.064-.752.191a1.763 1.763 0 0 0-.56.479c-.156.191-.274.41-.356.656a2.202 2.202 0 0 0-.123.724zm8.804 4.075c.146-.1.32-.228.52-.383.21-.164.419-.337.629-.52.21-.182.406-.373.588-.574.182-.2.323-.392.424-.574a1.09 1.09 0 0 0 .164-.533c0-.164-.082-.301-.246-.41-.292 0-.611.013-.957.04-.347.019-.693.028-1.04.028a7.316 7.316 0 0 1-1.011-.096 2.61 2.61 0 0 1-.862-.3 1.66 1.66 0 0 1-.615-.616c-.146-.273-.219-.62-.219-1.039 0-.492.092-.934.274-1.326.191-.401.442-.752.752-1.053.31-.31.656-.579 1.039-.806a8.963 8.963 0 0 1 1.176-.602c.237.064.455.178.656.342.201.164.374.346.52.547a.804.804 0 0 1-.383.465c-.183.109-.397.205-.643.287l-.752.26a2.857 2.857 0 0 0-.724.369c-.21.146-.388.341-.534.588-.145.237-.218.55-.218.943 0 .291.072.506.218.643.146.136.338.232.575.287a3.7 3.7 0 0 0 .806.054c.301-.018.606-.04.916-.068.319-.027.629-.041.93-.041.301-.01.57.027.807.11.237.072.423.195.56.368.146.174.219.429.219.766 0 .146-.05.333-.151.56a4.784 4.784 0 0 1-.382.739c-.155.255-.342.51-.561.765-.21.256-.433.488-.67.698-.228.2-.46.369-.697.506a1.324 1.324 0 0 1-.643.191c-.191 0-.319-.068-.382-.205a1.097 1.097 0 0 1-.083-.41zm6.741 0c.146-.1.319-.228.519-.383.21-.164.42-.337.629-.52.21-.182.406-.373.588-.574.182-.2.324-.392.424-.574a1.09 1.09 0 0 0 .164-.533c0-.164-.082-.301-.246-.41-.292 0-.611.013-.957.04-.347.019-.693.028-1.039.028a7.307 7.307 0 0 1-1.012-.096 2.607 2.607 0 0 1-.861-.3 1.654 1.654 0 0 1-.615-.616c-.146-.273-.219-.62-.219-1.039 0-.492.091-.934.273-1.326.192-.401.442-.752.752-1.053.31-.31.656-.579 1.039-.806a8.97 8.97 0 0 1 1.176-.602c.237.064.456.178.656.342.201.164.374.346.52.547a.804.804 0 0 1-.383.465c-.182.109-.397.205-.643.287l-.752.26a2.863 2.863 0 0 0-.724.369c-.21.146-.388.341-.533.588-.146.237-.219.55-.219.943 0 .291.073.506.219.643.145.136.337.232.574.287.237.045.506.063.806.054.301-.018.607-.04.916-.068.32-.027.629-.041.93-.041.301-.01.57.027.807.11.237.072.424.195.56.368.146.174.219.429.219.766 0 .146-.05.333-.15.56a4.796 4.796 0 0 1-.383.739c-.155.255-.342.51-.561.765a6.027 6.027 0 0 1-.67.698c-.227.2-.46.369-.697.506a1.324 1.324 0 0 1-.642.191c-.192 0-.319-.068-.383-.205a1.09 1.09 0 0 1-.082-.41zm4.689-4.512v-.26c.009-.127.014-.26.014-.396a6.05 6.05 0 0 0 .014-.397c.009-.127.013-.218.013-.273.1-.146.228-.264.383-.356.164-.09.328-.164.492-.218.028.492.105 1.016.233 1.572.127.556.264 1.117.41 1.682.146.556.273 1.107.383 1.654.118.547.177 1.057.177 1.531 0 .41-.209.615-.629.615a.801.801 0 0 1-.642-.314 2.508 2.508 0 0 1-.424-.793 8.297 8.297 0 0 1-.246-1.08 13.881 13.881 0 0 1-.137-1.176 56.752 56.752 0 0 1-.041-1.053v-.738zm.192-5.127c.173.073.319.191.437.356.119.164.169.314.151.45-.01.128-.11.22-.301.274-.192.046-.511-.009-.957-.164 0-.246.045-.46.136-.643.101-.182.278-.273.534-.273zm2.461 7.479c0-.566.132-1.09.396-1.573a4.088 4.088 0 0 1 1.039-1.257 5.172 5.172 0 0 1 1.463-.835c.547-.2 1.098-.3 1.654-.3.31 0 .584.1.821.3.246.201.451.447.615.739.164.282.287.583.369.902.091.32.137.597.137.834 0 .51-.123 1.007-.369 1.49a4.848 4.848 0 0 1-.957 1.272c-.392.364-.834.66-1.327.889a3.486 3.486 0 0 1-1.476.341c-.438 0-.807-.073-1.108-.218a2.056 2.056 0 0 1-.724-.602 2.728 2.728 0 0 1-.41-.889 4.735 4.735 0 0 1-.123-1.093zm1.162.136c0 .237.018.447.054.63.046.172.119.323.219.45.109.128.251.228.424.301.173.064.387.096.643.096a2.11 2.11 0 0 0 1.011-.274 3.814 3.814 0 0 0 1.559-1.668c.164-.346.246-.683.246-1.011 0-.146-.014-.306-.041-.479a1.925 1.925 0 0 0-.137-.478 1.01 1.01 0 0 0-.273-.37.675.675 0 0 0-.451-.15c-.164 0-.36.055-.588.164-.219.11-.451.25-.698.424-.237.173-.474.37-.711.588-.227.219-.437.438-.628.656a4.19 4.19 0 0 0-.465.63c-.11.2-.164.364-.164.491zm5.865-1.968c0-.237.059-.406.178-.506.118-.11.31-.164.574-.164h.137l.095.505a3.857 3.857 0 0 0 .424 1.149c.1.164.223.296.369.396a2.16 2.16 0 0 1 .233-.916c.155-.3.341-.565.56-.792a3.44 3.44 0 0 1 .738-.588c.274-.165.543-.274.807-.329h.301c.437 0 .811.1 1.121.301.31.192.565.447.766.766.209.31.369.665.478 1.066.11.401.192.811.246 1.23.064.41.101.812.11 1.204.018.383.027.71.027.984h-.998a25.646 25.646 0 0 0-.205-1.572c-.028-.2-.064-.41-.11-.629a7.66 7.66 0 0 0-.328-1.176 1.924 1.924 0 0 0-.218-.437l-.151-.15a3.11 3.11 0 0 0-.355-.356.373.373 0 0 0-.096-.069.72.72 0 0 0-.711.165c-.2.173-.378.41-.533.71-.155.301-.283.643-.383 1.026-.091.383-.169.752-.232 1.107-.064.347-.11.652-.137.916-.027.256-.046.41-.055.465-.228.164-.442.214-.642.15-.201-.072-.392-.218-.575-.437a3.831 3.831 0 0 1-.478-.82 13.852 13.852 0 0 1-.383-1.04 26.33 26.33 0 0 1-.328-1.12c-.091-.374-.173-.72-.246-1.04z"/></defs></svg>